<svg width="32" height="33" viewBox="0 0 32 33" fill="none" xmlns="http://www.w3.org/2000/svg">
<path d="M24.4853 8.01472C29.1715 12.701 29.1715 20.299 24.4853 24.9853C19.799 29.6715 12.201 29.6715 7.51472 24.9853C2.82843 20.299 2.82843 12.701 7.51472 8.01472C12.201 3.32843 19.799 3.32843 24.4853 8.01472" stroke="#38B218" stroke-width="1.5" stroke-linecap="round" stroke-linejoin="round"/>
<path d="M18.6523 11.5985C20.117 13.0633 20.117 15.4381 18.6523 16.9028C17.1876 18.3675 14.8128 18.3675 13.3481 16.9028C11.8833 15.4381 11.8833 13.0633 13.3481 11.5985C14.8128 10.1338 17.1876 10.1338 18.6523 11.5985" stroke="#38B218" stroke-width="1.5" stroke-linecap="round" stroke-linejoin="round"/>
<path d="M23.6093 25.7773C21.696 23.7627 18.9973 22.5 16 22.5C13.0026 22.5 10.304 23.7627 8.39062 25.7787" stroke="#38B218" stroke-width="1.5" stroke-linecap="round" stroke-linejoin="round"/>
</svg>
