<svg width="52" height="52" viewBox="0 0 52 52" fill="none" xmlns="http://www.w3.org/2000/svg">
<g clip-path="url(#clip0_875_1985)">
<path d="M48.4027 24.6888L49.0003 22.7943L47.0248 22.8565C46.1039 22.821 45.2141 22.5146 44.4676 21.9759C44.5556 21.9876 44.6442 21.9948 44.7329 21.9974C45.9441 21.9974 47.1144 21.274 47.5862 20.242L48.4356 18.3758C47.7533 18.3807 47.0713 18.3407 46.3943 18.256C46.3864 18.256 45.6186 18.1576 44.7307 17.259C44.4376 16.9496 44.0846 16.7027 43.693 16.5332C43.3014 16.3638 42.8793 16.2754 42.4524 16.2734C42.1147 16.2745 41.7793 16.3275 41.4578 16.4305C41.506 16.2787 41.5439 16.1239 41.5712 15.967C41.8434 14.2195 40.7082 12.8869 40.7082 12.8891L39.2238 11.067L38.3041 13.2079C38.3041 13.2147 38.0671 13.7154 37.6509 13.9607C37.493 13.1973 37.1132 12.4972 36.5588 11.9476C36.0969 11.4779 35.5449 11.1058 34.9357 10.8533C34.3264 10.6009 33.6724 10.4733 33.0127 10.4781C32.7808 10.4769 32.5491 10.4935 32.3198 10.5278L30.528 10.8771C30.6798 10.2735 30.9247 9.69692 31.2538 9.16804L32.2426 7.63982L29.7478 7.92127L28.9539 6.25289L27.4298 7.043L26.0043 5.65381L24.5879 7.043L23.0479 6.25854L22.254 7.92693L19.7682 7.64547L20.7594 9.17369C21.0879 9.70191 21.3324 10.2777 21.484 10.8805L19.7728 10.5414L19.7183 10.5369C19.4807 10.5017 19.2407 10.4855 19.0005 10.4883C18.3412 10.4836 17.6878 10.6113 17.0791 10.8638C16.4705 11.1163 15.9191 11.4883 15.4577 11.9577C14.9018 12.5069 14.5204 13.207 14.3611 13.9709C13.9483 13.729 13.7181 13.235 13.7181 13.235L12.795 11.0874L11.2867 12.9219C11.0996 13.1423 10.1924 14.3947 10.4396 15.9704C10.4678 16.1264 10.5056 16.2804 10.553 16.4316C10.2318 16.3295 9.89678 16.2769 9.55961 16.2756C9.13262 16.2776 8.71046 16.3658 8.31867 16.535C7.92688 16.7043 7.57359 16.9509 7.28019 17.2602C6.39564 18.1554 5.6313 18.256 5.6381 18.256C4.95766 18.3564 4.26967 18.3969 3.58209 18.3769L4.42695 20.2431C4.89644 21.2774 6.07017 21.9986 7.28019 21.9986C7.37092 21.9986 7.45824 21.9861 7.54783 21.9782C6.80792 22.5117 5.92777 22.8182 5.01552 22.8599L3.00146 22.7943L3.61044 24.6865C3.91777 25.662 4.9418 27.2772 6.89916 27.4513C6.68596 28.3375 6.21873 29.3299 5.17315 29.7572L3.67508 30.3687L4.49273 31.7783C4.95315 32.539 6.03502 33.4286 7.57731 33.4286C7.90155 33.428 8.22489 33.3947 8.54238 33.3291C8.62321 33.6805 8.722 34.0276 8.83836 34.369C9.29198 35.7254 8.903 36.667 8.89733 36.6772L8.15794 38.2133L9.8091 38.644C10.1832 38.738 10.5675 38.7855 10.9533 38.7853C11.2254 38.7867 11.4966 38.7571 11.7619 38.6971C11.9518 38.6526 12.1379 38.5936 12.3187 38.5208C12.5303 38.8992 12.7915 39.2477 13.0955 39.5573C14.1536 40.6334 15.6517 41.1782 17.5512 41.1782H17.5637L18.9245 41.1612L16.1234 42.3131L18.2497 43.3304C19.1006 43.7585 19.9726 44.1433 20.8626 44.4833L20.5972 45.2022L21.3309 45.5289C21.3956 45.5571 22.8052 46.1833 25.1492 46.3201C25.1492 46.3201 25.7163 46.3461 26.0258 46.3461C26.3354 46.3461 26.8968 46.3201 26.8968 46.3201C29.225 46.1833 30.6244 45.565 30.6901 45.5345L31.4239 45.2022L31.1562 44.481C32.0584 44.1378 32.9426 43.7492 33.8054 43.3168L35.8931 42.3131L33.1 41.1578L34.4608 41.1748C36.3615 41.1748 37.8629 40.6288 38.9187 39.5528C39.2214 39.2424 39.4825 38.8944 39.6955 38.5174C39.8758 38.5907 40.0616 38.6496 40.2512 38.6937C40.5157 38.7537 40.7863 38.7833 41.0575 38.7819C41.4397 38.7806 41.8203 38.7343 42.1916 38.644L43.8495 38.2088L43.1271 36.702C43.1101 36.6636 42.7144 35.7209 43.1736 34.3656C43.287 34.0197 43.3891 33.6716 43.4685 33.3257C43.7881 33.3925 44.1138 33.4258 44.4404 33.4252C45.0545 33.4324 45.6604 33.2833 46.2006 32.992C46.7407 32.7006 47.1974 32.2766 47.5272 31.7602L48.3358 30.3653L46.8377 29.7561C45.7955 29.3277 45.3249 28.3341 45.1128 27.4491C47.0475 27.2852 48.0863 25.6699 48.4016 24.6888H48.4027ZM21.6144 11.5338H21.594L21.611 11.5124L21.6144 11.5338Z" fill="white"/>
<path d="M26.0049 11.4502C24.4172 11.4502 23.2299 11.9668 22.9702 12.5715L26.0049 13.7584L29.0407 12.5715C28.7833 11.9668 27.5937 11.4525 26.0049 11.4502Z" fill="white"/>
<path d="M26.0356 42.8533H25.9755C24.9895 42.8432 24.0081 42.7169 23.0519 42.4769L22.2842 44.5342C22.7911 44.7127 24.5046 45.0541 26.0061 45.0541C27.5076 45.0541 29.2211 44.715 29.7257 44.5342L28.9591 42.4769C28.0029 42.7163 27.0215 42.8415 26.0356 42.8499V42.8533Z" fill="white"/>
<path d="M31.8442 40.8086C31.2772 41.1285 29.998 41.61 29.2563 41.8327L29.8789 43.5282C30.8717 43.271 31.8366 42.9166 32.7594 42.4702L31.4677 42.0441L31.8442 40.8086Z" fill="white"/>
<path d="M20.1715 40.8086L20.5537 42.0441L19.2598 42.4702C20.1811 42.9172 21.1444 43.2727 22.1357 43.5316L22.7583 41.8361C22.02 41.61 20.7431 41.1307 20.1715 40.812V40.8086Z" fill="white"/>
<path d="M26.0052 9.48343C27.2017 9.48343 28.3743 9.76602 29.2758 10.2645C29.3735 9.93888 29.4921 9.61984 29.6308 9.30936L29.2906 9.35118L28.9322 9.38735L28.7814 9.06634L28.3278 8.1112L27.4965 8.54073L27.1733 8.70463L26.9125 8.45369L26.0052 7.5675L25.1071 8.45369L24.8485 8.70576L24.5253 8.54186L23.6873 8.11459L23.2337 9.06973L23.0783 9.39075L22.7211 9.35458L22.3809 9.31275C22.5203 9.62139 22.64 9.93852 22.7392 10.2622C23.6464 9.76376 24.8122 9.48117 26.0052 9.48117V9.48343Z" fill="white"/>
<path d="M7.27629 20.5913C7.4349 20.5921 7.5925 20.5661 7.74238 20.5144C8.66322 20.2069 8.98982 18.8438 10.6047 17.9949C10.2914 17.7963 9.92917 17.6879 9.55797 17.6818C9.31964 17.6838 9.08432 17.7351 8.86687 17.8323C8.64943 17.9296 8.45459 18.0708 8.29466 18.2469C6.96329 19.5886 5.72266 19.6633 5.72266 19.6633C5.94946 20.1583 6.6004 20.5924 7.27629 20.5924V20.5913Z" fill="white"/>
<path d="M44.7018 26.0554H44.78C46.4686 26.0554 47.0413 24.2638 47.0413 24.2638H47.0084C46.1207 24.2345 45.25 24.0131 44.4567 23.6149C43.6635 23.2167 42.9666 22.6513 42.4144 21.9579C41.2463 20.4884 40.2892 19.1976 38.3976 18.6889L38.2117 18.6573L38.1708 18.4696C38.1187 18.1825 38.3171 17.9158 38.7662 17.6253C41.3745 15.9298 39.6043 13.7753 39.6043 13.7753C39.6043 13.7753 38.8592 15.5025 37.1922 15.5025H37.0674C36.881 15.4984 36.6952 15.4795 36.5117 15.446L36.2044 15.3872C36.2044 15.3872 36.6784 14.1065 35.5331 12.931C35.2045 12.5973 34.8115 12.3334 34.3779 12.155C33.9442 11.9767 33.4789 11.8877 33.0098 11.8933C32.8423 11.8913 32.6749 11.9042 32.5097 11.9317C33.0858 12.6789 33.502 13.9155 32.8363 14.6796C32.2614 15.3352 30.8574 15.368 30.8574 16.3457C30.8574 16.7606 31.2487 17.2444 31.9495 17.6795C34.0622 18.9964 36.1579 20.7439 37.0289 23.086C38.1175 26.0068 36.8905 27.9464 35.1396 29.0564C35.5203 29.3759 35.9892 29.573 36.4845 29.6216C36.6456 29.6374 36.8043 29.6442 36.9529 29.6442C38.6335 29.6442 39.5033 28.8643 39.5033 28.8643C39.3563 29.6365 39.0038 30.3552 38.4827 30.9452C37.6753 31.8699 36.6161 32.4147 35.0001 32.4373C35.0001 32.4373 34.9479 33.181 35.6646 33.8242C36.1182 34.2289 37.1797 34.3623 37.1797 34.3623C37.1797 34.3623 35.1997 34.759 34.9808 37.6572C34.8662 39.2227 34.4603 39.7642 34.4603 39.7642H34.4966C39.0928 39.7642 38.9737 35.8588 38.9737 35.8588C39.0935 36.218 39.3038 36.5405 39.5843 36.7956C39.8648 37.0507 40.2063 37.2298 40.5761 37.3158C40.7321 37.3554 40.8926 37.3744 41.0536 37.3724C41.3157 37.3711 41.5768 37.3392 41.8315 37.2774C41.8315 37.2774 41.1613 35.8747 41.8315 33.9135C42.3838 32.2847 42.2942 31.0786 42.2942 31.0786C42.2942 31.0786 42.9134 32.0055 44.4489 32.0145H44.4636C44.8237 32.0203 45.1795 31.9359 45.4984 31.7693C45.8174 31.6026 46.0893 31.359 46.2894 31.0605C43.2275 29.8013 43.528 25.7344 43.528 25.7344C43.528 25.7344 43.9261 26.0271 44.7018 26.0565V26.0554ZM43.7798 30.3021C42.5323 29.6939 41.7453 28.0787 41.5548 27.4954C41.3484 30.6999 39.7687 32.9211 37.9259 35.0687C37.3618 35.7112 36.9237 36.4535 36.6342 37.2571C36.7852 36.4469 37.1329 35.6858 37.6469 35.0405C39.3706 32.99 41.0071 30.4388 41.1284 27.4875C41.2253 25.6959 40.7775 23.9168 39.8435 22.3829C40.3051 23.8116 40.2439 25.5671 38.6562 27.2061C38.6562 27.2061 41.81 23.4612 37.3997 19.6226C35.634 18.1622 33.7039 17.2602 32.7093 16.6215C36.3019 17.7824 38.0552 16.5085 38.0552 16.5085C36.9075 17.493 35.4231 17.4761 34.5022 17.3348C34.7517 17.4557 35.0114 17.5823 35.296 17.7304C38.316 19.3547 41.0377 22.0359 41.506 25.7479V25.7185C42.2114 29.3639 43.7798 30.2998 43.7798 30.2998V30.3021Z" fill="white"/>
<path d="M14.8271 34.3589C14.8271 34.3589 15.8852 34.2278 16.3433 33.8208C17.0578 33.1777 17.0079 32.4339 17.0079 32.4339C15.3896 32.4124 14.3315 31.8687 13.5196 30.943C13.0021 30.3514 12.6522 29.6331 12.5057 28.862C12.5057 28.862 13.3744 29.6431 15.055 29.6431C15.2059 29.6431 15.3624 29.6363 15.5245 29.6205C16.0205 29.5717 16.4901 29.3747 16.8718 29.0553C15.1197 27.9442 13.8915 26.0034 14.9791 23.0837C15.8511 20.7439 17.9457 18.9953 20.0584 17.6784C20.7604 17.2432 21.1505 16.7606 21.1505 16.3446C21.1505 15.3669 19.7488 15.3341 19.1739 14.6785C18.5071 13.9144 18.9255 12.6755 19.5005 11.9306C19.3356 11.9029 19.1686 11.8901 19.0015 11.8922C18.5328 11.8868 18.0679 11.9759 17.6346 12.1543C17.2014 12.3326 16.8088 12.5964 16.4805 12.9299C15.3306 14.1054 15.808 15.3861 15.808 15.3861L15.4996 15.4449C15.3162 15.4784 15.1303 15.4973 14.9439 15.5014H14.8214C13.151 15.5014 12.4093 13.7765 12.4093 13.7765C12.4093 13.7765 10.638 15.9343 13.2451 17.6264C13.6987 17.9158 13.8904 18.1837 13.8394 18.4697L13.7974 18.6573L13.608 18.6901C11.7198 19.1999 10.7593 20.4918 9.59238 21.9613C9.04037 22.6539 8.34393 23.2186 7.55128 23.6164C6.75864 24.0141 5.88873 24.2354 5.00179 24.2649H4.96777C4.96777 24.2649 5.53479 26.0565 7.22791 26.0565H7.30956C8.08525 26.0283 8.48443 25.7344 8.48443 25.7344C8.48443 25.7344 8.78381 29.8036 5.72304 31.0605C5.92396 31.361 6.19736 31.6063 6.51816 31.7739C6.83896 31.9416 7.19687 32.0263 7.55905 32.0202H7.57493C9.11155 32.0112 9.7296 31.0843 9.7296 31.0843C9.7296 31.0843 9.64001 32.2903 10.1912 33.9192C10.8568 35.8803 10.1912 37.2831 10.1912 37.2831C10.4433 37.3442 10.7017 37.3761 10.9612 37.378C11.1217 37.3803 11.2819 37.3613 11.4375 37.3215C11.8071 37.2351 12.1484 37.0558 12.4288 36.8008C12.7093 36.5458 12.9197 36.2234 13.0399 35.8645C13.0399 35.8645 12.914 39.7642 17.5159 39.7642H17.5477C17.5477 39.7642 17.1451 39.2182 17.0283 37.6493C16.8083 34.7511 14.8271 34.3544 14.8271 34.3544V34.3589ZM14.0888 35.0642C12.2426 32.9233 10.6652 30.7 10.4599 27.4909C10.2694 28.0719 9.48465 29.6894 8.23834 30.2976C8.23834 30.2976 9.80445 29.3616 10.5064 25.7163V25.7479C10.9725 22.0359 13.6931 19.3525 16.7232 17.7225C16.9999 17.5722 17.263 17.4456 17.517 17.3269C16.5962 17.4682 15.1106 17.4851 13.963 16.5006C13.963 16.5006 15.7173 17.779 19.3088 16.6136C18.3143 17.2523 16.3841 18.1543 14.6184 19.6147C10.207 23.4579 13.3631 27.1982 13.3631 27.1982C11.7754 25.558 11.713 23.8071 12.1791 22.3705C11.2443 23.9039 10.7968 25.6834 10.8954 27.4751C11.0156 30.4264 12.652 32.9776 14.3712 35.028C14.8877 35.6729 15.2381 36.4339 15.3919 37.2446C15.1002 36.4416 14.6615 35.6996 14.0979 35.0563L14.0888 35.0642Z" fill="white"/>
<path d="M22.6075 20.0826C22.6835 20.1629 22.7572 20.2499 22.8275 20.3369C22.8452 20.3572 22.8619 20.3783 22.8774 20.4002C22.9432 20.4873 23.0101 20.5788 23.0736 20.6727L23.1167 20.736C23.1938 20.849 23.2664 20.9711 23.3435 21.0931C24.0058 22.2235 25.0672 22.9017 26.0085 22.9017C26.9497 22.9017 28.0101 22.2235 28.6757 21.0931C28.7494 20.9677 28.8243 20.8445 28.9025 20.7303C28.9139 20.7133 28.9264 20.6987 28.9366 20.6806C29.0023 20.5834 29.0715 20.4884 29.143 20.3969L29.186 20.3415C29.2609 20.2522 29.3357 20.1629 29.4129 20.0815C29.4265 20.0679 29.4367 20.0555 29.448 20.0453C29.7944 19.686 30.2322 19.4274 30.7147 19.297L30.4811 19.1625H30.4675L29.5297 18.6267L28.5714 18.083L26.0107 19.4621H26.0039L23.4365 18.0819L22.4805 18.6267L21.5449 19.1636H21.5324L21.2954 19.2993C21.7784 19.4275 22.2169 19.6851 22.5633 20.0442C22.5791 20.0577 22.5893 20.0724 22.6052 20.086L22.6075 20.0826ZM24.9686 19.9696H27.1346V20.7066C26.8794 20.398 26.385 20.4601 26.385 20.4601V21.5227C26.385 21.5227 26.4031 22.0438 26.588 22.271H25.5152C25.7023 22.0449 25.7204 21.5227 25.7204 21.5227V20.4601C25.7204 20.4601 25.226 20.398 24.9686 20.7066V19.9696Z" fill="white"/>
<path d="M25.7841 18.5443V14.2331L23.0137 13.3029L23.7451 17.4851L25.7841 18.5443ZM25.1888 15.2923V15.984L25.0549 15.923C24.8542 15.8514 24.6684 15.7433 24.5072 15.6042C23.9402 15.1679 23.9288 14.7655 23.9288 14.7655L25.1888 15.2923Z" fill="white"/>
<path d="M28.2688 17.4806L28.9969 13.2983L26.2275 14.2331V18.5443L28.2688 17.4806ZM26.8229 15.2923L28.0828 14.7667C28.0828 14.7667 28.0726 15.1691 27.5033 15.6054C27.3421 15.7445 27.1564 15.8526 26.9556 15.9241L26.8218 15.9852V15.2923H26.8229Z" fill="white"/>
<path d="M21.8661 28.5365C22.1126 28.6159 22.3702 28.656 22.6293 28.6552C22.6372 28.6337 22.6451 28.6088 22.6542 28.5783C22.6702 28.5282 22.6835 28.4772 22.6939 28.4257C22.7342 28.2018 22.7566 27.975 22.7608 27.7475C22.6067 27.657 22.4811 27.5255 22.3979 27.3677C22.3635 27.2732 22.3001 27.1919 22.2166 27.1354C22.1331 27.079 22.0338 27.0503 21.933 27.0535C21.6809 27.074 21.4382 27.158 21.2276 27.2976C21.1267 27.8922 21.5678 28.428 21.8661 28.541V28.5365Z" fill="white"/>
<path d="M27.9965 26.2498C27.4817 26.8025 26.4758 27.7678 26.4248 27.8175L26.3646 27.8786L23.1893 27.8288C23.1866 28.0894 23.152 28.3487 23.0861 28.6009C23.0771 28.6336 23.0691 28.6676 23.0601 28.7015L26.8455 29.3797C27.2401 29.1073 28.3197 28.3228 28.7439 28.0165C28.4838 27.6219 28.3882 27.1418 28.4774 26.6782C28.2941 26.5633 28.1315 26.4185 27.9965 26.2498Z" fill="white"/>
<path d="M28.4254 22.4586C27.6917 23.1798 26.9885 23.4454 26.3603 23.5076C26.2469 23.5189 26.1335 23.5268 26.0201 23.5268H26.0042C25.8908 23.5268 25.7706 23.5189 25.6572 23.5076C25.5428 23.4971 25.4291 23.4794 25.317 23.4545C25.2413 23.7269 25.2584 24.0167 25.3657 24.2785C25.4984 24.5701 25.7683 24.786 26.1596 24.9295L26.2911 24.9804V25.1217C26.3059 25.4102 26.4161 25.6857 26.6044 25.9053C26.7927 26.1249 27.0486 26.2762 27.3322 26.3357C27.4977 26.1673 27.6474 26.0147 27.7574 25.8836C27.5499 25.402 27.6588 24.9115 27.9581 24.6718C27.9445 24.7227 27.8141 25.9254 28.7883 26.373L28.9482 26.4476L28.9039 26.6194C28.8892 26.6703 28.5637 27.8345 29.742 28.2674L29.9507 28.3466L29.8577 28.5466C29.8373 28.5919 29.3734 29.6487 30.4632 30.2478H32.8277V28.3907C31.9874 28.2878 31.6313 27.6198 31.5394 27.1473C31.1846 27.1028 30.8615 26.9209 30.6401 26.6409C30.4992 26.4618 30.4174 26.2436 30.4061 26.0163C30.3947 25.7889 30.4543 25.5637 30.5766 25.3715C30.5766 25.3772 30.5766 26.0068 30.9679 26.3956C31.1717 26.6075 31.4456 26.7388 31.739 26.7652L31.9114 26.7799L31.9273 26.954C31.9273 26.9913 32.0248 27.8436 32.8254 27.9781V24.179C32.8254 23.5912 32.999 23.0001 33.2065 22.4541H28.4254V22.4586Z" fill="white"/>
<path d="M22.0664 24.1971L22.0029 26.6138L22.2808 26.6556L22.9612 24.3373L22.621 23.624L22.0664 24.1971Z" fill="white"/>
<path d="M29.541 35.2812C29.5639 35.2815 29.5868 35.2845 29.609 35.2902C30.0309 35.4089 30.1363 36.9157 30.8769 37.0502C30.9418 37.0634 31.008 37.0694 31.0742 37.0683C31.1683 37.0684 31.261 37.0457 31.3444 37.0022C31.4278 36.9587 31.4993 36.8956 31.5528 36.8184C31.5528 36.8184 31.1808 36.2386 30.903 35.8486C30.5321 35.3377 30.2452 34.7183 29.5569 34.7183C29.5391 34.7172 29.5213 34.7172 29.5036 34.7183C29.3724 34.7229 29.2453 34.7649 29.1373 34.8392C28.907 34.6886 28.6381 34.6073 28.3627 34.6052C27.9306 34.6052 27.595 34.8019 27.4283 34.8019H27.4215L25.8826 34.6516C25.6422 34.6301 25.4528 34.3893 25.3836 34.2955C25.3666 34.2695 25.3586 34.2548 25.3586 34.2548C25.361 34.2146 25.361 34.1742 25.3586 34.1339C25.3076 32.8905 24.338 32.3536 23.9876 32.3457C23.9876 32.3457 24.0284 32.1083 23.9343 32.0179L23.5941 32.4259L22.4805 31.8721L23.2743 32.791L22.6018 33.5382C22.5684 33.5696 22.5464 33.6111 22.5392 33.6563C22.532 33.7015 22.5401 33.7479 22.5621 33.788L22.8524 34.0412L23.221 33.8151C23.2497 33.8007 23.282 33.7948 23.314 33.7982C23.416 33.7982 23.568 33.8242 23.7063 33.8242C23.8447 33.8242 23.9865 33.7914 24.0023 33.6512C23.9558 34.1135 23.5238 34.9161 23.8073 35.5468L24.0137 36.034L22.6528 35.8396L22.0155 36.9044C21.8193 37.2593 21.7887 37.6425 21.9781 37.8505L22.2128 38.1409C22.2128 38.1409 22.5474 37.7894 22.6222 37.56L22.5145 37.4469C22.4746 37.4097 22.4495 37.3593 22.4438 37.3051C22.4382 37.2509 22.4524 37.1965 22.4839 37.1519L22.8932 36.4861L24.4979 36.8614L24.583 36.719C24.6262 36.6443 24.6894 36.583 24.7654 36.5419C24.8415 36.5008 24.9275 36.4815 25.0139 36.4861C25.0873 36.487 25.1605 36.4938 25.2328 36.5065C25.6537 36.5911 26.0815 36.6368 26.5108 36.6432C27.0495 36.6432 27.5836 36.5472 27.8717 36.2318C28.4534 37.0863 29.6317 37.222 29.5387 37.6549L29.2291 39.1176C29.4344 39.1097 29.6317 39.0961 29.8199 39.0701L30.1137 37.5475C30.1466 37.3825 30.1772 37.1598 30.1772 37.1598C29.9647 36.9713 29.7816 36.7522 29.634 36.5099C29.4253 36.1142 29.5387 35.9085 29.3448 35.3942C29.3674 35.3614 29.3972 35.3341 29.432 35.3145C29.4668 35.2949 29.5056 35.2835 29.5455 35.2812H29.541ZM23.5362 33.1437C23.5177 33.1433 23.4994 33.1391 23.4825 33.1314C23.4656 33.1237 23.4504 33.1126 23.438 33.0988C23.4256 33.0851 23.4161 33.0689 23.4102 33.0514C23.4043 33.0338 23.402 33.0152 23.4036 32.9968C23.4062 32.9604 23.4232 32.9265 23.4508 32.9025C23.4784 32.8786 23.5145 32.8665 23.551 32.869C23.5697 32.8695 23.5881 32.8736 23.6052 32.8813C23.6223 32.889 23.6376 32.9 23.6503 32.9137C23.663 32.9274 23.6728 32.9436 23.6791 32.9611C23.6854 32.9787 23.6881 32.9973 23.6871 33.016C23.6836 33.052 23.6664 33.0854 23.639 33.1092C23.6115 33.133 23.576 33.1453 23.5396 33.1437H23.5362Z" fill="white"/>
<path d="M21.3441 36.6648C21.3441 36.6648 21.876 36.4489 21.9236 36.2929L21.8533 36.1177C21.8235 36.0682 21.8125 36.0098 21.8223 35.953C21.8321 35.8961 21.862 35.8447 21.9066 35.808L22.4816 35.4135L23.4421 35.5966C23.3345 35.4513 23.2793 35.274 23.2856 35.0936L22.3693 34.9037L21.5063 35.4248C21.3555 35.5348 21.2463 35.6922 21.1963 35.8716C21.1463 36.0511 21.1584 36.2421 21.2307 36.4138L21.3441 36.6648Z" fill="white"/>
<path d="M28.1313 39.1436C28.303 39.1368 28.492 39.1334 28.6984 39.1334C28.6984 39.1334 29.1928 37.7024 29.22 37.6572C28.9433 37.5363 28.3684 37.2345 28.1461 37.092C28.2935 37.3079 28.6496 37.5566 28.5793 37.7476L28.1313 39.1436Z" fill="white"/>
<path d="M32.8322 30.6626H19.1807V35.7491C19.1807 37.829 20.7003 39.13 22.9423 39.13C24.8168 39.13 25.3101 39.2023 26.0042 39.8873C26.4839 39.4137 26.8819 39.2362 27.6973 39.1695L27.7166 39.0916L28.1464 37.7736L27.4183 36.9529C27.1243 37.0404 26.8174 37.0763 26.5111 37.0592C26.058 37.054 25.6063 37.0078 25.1616 36.9213C25.1148 36.9101 25.0668 36.9048 25.0187 36.9055C24.9586 36.9055 24.9529 36.9111 24.9382 36.9394L24.852 37.0795L24.6955 37.335L24.4018 37.2683L23.092 36.9631L22.9128 37.2559L22.94 37.2875L23.0999 37.4605L23.0296 37.6865C22.9332 37.9827 22.6202 38.3286 22.5249 38.4247L22.1983 38.7728L21.9012 38.3987L21.6744 38.1206C21.4397 37.8606 21.3841 37.4593 21.5168 37.0411C21.5124 37.0428 21.5076 37.0428 21.5032 37.0411L21.1335 37.1926L20.9656 36.8399L20.8522 36.5867C20.7393 36.3281 20.7189 36.0387 20.7945 35.7669C20.87 35.4951 21.037 35.2574 21.2673 35.0935L22.322 34.5035L23.3256 34.7002C23.3494 34.6041 23.3857 34.2639 23.4152 34.1768C23.396 34.1735 23.3767 34.1712 23.3573 34.17L22.7801 34.3826L22.2199 33.9994C22.2199 33.9994 22.001 33.7914 22.1995 33.5834L22.7393 32.7729L21.3716 31.0774L23.4741 31.932L23.6136 31.7602L23.8971 31.4211L24.2192 31.724C24.3037 31.8066 24.3623 31.9118 24.3882 32.0269C24.9677 32.253 26.0053 32.9097 26.096 33.9813L25.7717 34.1124V34.1214C25.8115 34.176 25.8646 34.2195 25.9259 34.248L27.4297 34.3927C27.4682 34.3859 27.517 34.369 27.5691 34.3543C27.8233 34.2593 28.0916 34.2073 28.363 34.2006C28.6341 34.2016 28.9017 34.2622 29.1466 34.378C29.256 34.3386 29.3706 34.3154 29.4868 34.3091H29.5594C30.3634 34.3091 30.7615 34.9036 31.0824 35.3784C31.1357 35.4598 31.189 35.5378 31.2434 35.6146C31.5247 36.0069 31.891 36.5811 31.9068 36.6048L32.0724 36.8603L31.8683 37.0942C31.7746 37.2152 31.6543 37.3131 31.5167 37.3805C31.3791 37.4479 31.2278 37.483 31.0745 37.4831C30.983 37.4824 30.8919 37.4729 30.8023 37.4548C30.7202 37.4398 30.6399 37.4159 30.563 37.3836C30.5517 37.4616 30.5358 37.5566 30.5199 37.6357L30.2568 38.9921C31.832 38.6089 32.8311 37.4311 32.8311 35.748L32.8322 30.6626Z" fill="#FFDD2D"/>
<path d="M19.1804 30.2535H29.7961C29.5852 30.0346 29.4379 29.7627 29.3698 29.4669C29.3017 29.1711 29.3154 28.8625 29.4094 28.5738C29.2682 28.5065 29.1364 28.4214 29.017 28.3206C28.602 28.6235 27.3352 29.538 27.0052 29.7652L26.9349 29.8138L22.7685 29.0678H22.6845C22.5489 29.0677 22.4134 29.0601 22.2786 29.0451C22.2581 29.1338 22.2082 29.2129 22.137 29.2697C22.0658 29.3266 21.9774 29.3578 21.8862 29.3583C21.8637 29.3588 21.8412 29.3565 21.8193 29.3515C21.7662 29.3435 21.7152 29.325 21.6694 29.2971C21.6236 29.2691 21.584 29.2323 21.5528 29.1887C21.5204 29.1457 21.4972 29.0965 21.4847 29.0442C21.4722 28.9919 21.4707 28.9376 21.4802 28.8846L21.4949 28.7965C21.0651 28.4958 20.6694 27.8255 20.8451 27.1202L20.8621 27.0456L20.9223 27.0026C20.9313 26.9958 21.0028 26.9484 21.1094 26.8896L20.8077 26.8432C20.7537 26.8346 20.7053 26.8051 20.673 26.761C20.6407 26.717 20.6272 26.6621 20.6353 26.6081C20.6393 26.5813 20.6487 26.5555 20.6628 26.5322C20.677 26.509 20.6956 26.4889 20.7177 26.473C20.7398 26.4571 20.7649 26.4457 20.7914 26.4396C20.818 26.4335 20.8455 26.4328 20.8724 26.4374L21.5936 26.5505L21.6594 24.0343L22.7333 22.9097L23.4024 24.3056L22.6948 26.7257L23.3309 26.8252C23.3849 26.8295 23.435 26.855 23.4701 26.8962C23.5052 26.9373 23.5224 26.9906 23.5181 27.0444C23.5137 27.0983 23.4881 27.1481 23.4468 27.1831C23.4056 27.2181 23.352 27.2353 23.2981 27.2309C23.2875 27.2321 23.2769 27.2321 23.2663 27.2309L22.7481 27.1473C22.7549 27.162 22.7651 27.171 22.7719 27.188C22.8301 27.2868 22.9171 27.3657 23.0214 27.4141L26.1967 27.4638C26.3316 27.3338 26.665 27.0117 27.0075 26.6726C26.7093 26.5646 26.4471 26.376 26.2504 26.1278C26.0537 25.8796 25.9302 25.5817 25.8939 25.2675C25.4976 25.1198 25.1731 24.8266 24.9866 24.448C24.8387 24.0979 24.8116 23.7086 24.9095 23.3414C24.4095 23.1476 23.9579 22.8475 23.5861 22.462H18.8027C19.0069 23.008 19.1804 23.5992 19.1804 24.1869V30.2535Z" fill="#FFDD2D"/>
<path d="M23.5533 32.869C23.5344 32.8666 23.5153 32.8681 23.497 32.8735C23.4787 32.8788 23.4618 32.8878 23.4472 32.8999C23.4326 32.9121 23.4206 32.9271 23.4121 32.9441C23.4036 32.961 23.3987 32.9795 23.3977 32.9985C23.3966 33.0174 23.3996 33.0363 23.4062 33.0541C23.4129 33.0718 23.4231 33.088 23.4363 33.1017C23.4496 33.1153 23.4655 33.1261 23.483 33.1333C23.5006 33.1405 23.5195 33.1441 23.5385 33.1437C23.5574 33.1461 23.5766 33.1446 23.5948 33.1393C23.6131 33.1339 23.63 33.1249 23.6446 33.1128C23.6593 33.1006 23.6712 33.0856 23.6797 33.0687C23.6882 33.0517 23.6931 33.0332 23.6942 33.0143C23.6952 32.9953 23.6923 32.9764 23.6856 32.9586C23.679 32.9409 23.6687 32.9247 23.6555 32.911C23.6423 32.8974 23.6264 32.8867 23.6088 32.8794C23.5912 32.8722 23.5723 32.8686 23.5533 32.869Z" fill="black"/>
<path d="M32.8126 42.0915L32.0267 41.7987L32.2433 40.9939L32.4825 40.1168C31.4098 40.6582 30.2872 41.0954 29.1303 41.4223C28.5735 41.5806 28.1517 41.6484 28.1517 41.6484V42.2508C27.4533 42.3636 26.7475 42.424 26.0401 42.4317H25.98C25.2707 42.4242 24.5629 42.3638 23.8627 42.2508V41.6518C23.8627 41.6518 23.4397 41.5806 22.884 41.4257C21.7257 41.0974 20.602 40.6583 19.5284 40.1145L19.7643 40.9916L19.9911 41.7965L19.203 42.0949L18.3286 42.4193C19.3322 42.8974 20.7203 43.596 21.9916 43.9407L21.6922 44.7523C21.6922 44.7523 23.3048 45.4802 25.9913 45.487H26.0287C28.7187 45.4802 30.329 44.7523 30.329 44.7523L30.0285 43.9407C31.2997 43.596 32.6912 42.8974 33.6903 42.4193L32.8126 42.0915ZM19.2574 42.4701L20.5513 42.044L20.1714 40.8085C20.7384 41.1284 22.0199 41.6088 22.7604 41.8326L22.1356 43.5281C21.1453 43.2674 20.1825 42.912 19.2608 42.4667L19.2574 42.4701ZM26.0072 45.0575C24.5046 45.0575 22.7888 44.7184 22.2853 44.5375L23.053 42.4769C24.0093 42.716 24.9907 42.8412 25.9766 42.8499H26.0367C27.0225 42.8408 28.0038 42.7156 28.9602 42.4769L29.7257 44.5341C29.2222 44.7127 27.5075 45.0541 26.0072 45.0541V45.0575ZM29.8788 43.5315L29.2562 41.836C29.9979 41.6099 31.2725 41.1318 31.8441 40.8119L31.4642 42.0474L32.7593 42.4701C31.8369 42.9157 30.8733 43.2711 29.8822 43.5315H29.8788Z" fill="black"/>
<path d="M26.0065 9.98073C27.6066 9.98073 28.8869 10.5063 29.5934 11.067C29.7574 10.2313 30.0717 9.43212 30.5211 8.70797L29.2328 8.85265L28.5637 7.43633L27.2619 8.09419L26.0065 6.86438L24.7534 8.09419L23.4606 7.43633L22.7801 8.85265L21.4941 8.70797C21.9441 9.43183 22.2584 10.2311 22.4218 11.067C23.1306 10.5018 24.4075 9.98073 26.0065 9.98073ZM22.7246 9.35113L23.0829 9.3873L23.2338 9.06629L23.6874 8.11454L24.5232 8.54294L24.8464 8.70684L25.1061 8.45364L26.0133 7.56745L26.9205 8.45364L27.1779 8.70684L27.5023 8.54294L28.3233 8.11454L28.7769 9.06968L28.9289 9.39069L29.2873 9.35452L29.6275 9.3127C29.4899 9.62147 29.3721 9.9386 29.2748 10.2622C28.3675 9.76371 27.1995 9.48112 26.0042 9.48112C24.8089 9.48112 23.642 9.76597 22.7359 10.2622C22.6381 9.93674 22.52 9.61773 22.3821 9.30705L22.7246 9.35113Z" fill="black"/>
<path d="M44.7804 26.6036C46.8511 26.6036 47.5429 24.5181 47.5713 24.4288L47.7981 23.6941L47.0212 23.7178C46.2153 23.6906 45.4249 23.4888 44.705 23.1266C43.9852 22.7643 43.353 22.2502 42.8525 21.6199L42.6994 21.4312C41.6402 20.0985 40.6377 18.8314 38.8437 18.2538C38.9143 18.1912 38.9902 18.1349 39.0705 18.0854C40.022 17.4648 40.5765 16.712 40.7149 15.8371C40.9179 14.5214 40.0719 13.4736 40.0344 13.4306L39.4504 12.7253L39.0909 13.5617C39.0671 13.6148 38.4615 14.9543 37.188 14.9543H37.0939C37.0054 14.9543 36.9226 14.9464 36.841 14.9385C36.8852 14.3405 36.7752 13.4148 35.9338 12.5478C35.5527 12.1626 35.0979 11.8577 34.5962 11.6512C34.0945 11.4448 33.5563 11.3411 33.0136 11.3463C32.8109 11.3456 32.6084 11.3607 32.408 11.3915L31.5371 11.5633L32.0746 12.263C32.4965 12.8033 32.8775 13.8002 32.425 14.3224C32.281 14.4875 31.9828 14.622 31.697 14.7565C31.1107 15.0244 30.3101 15.3963 30.3101 16.339C30.3101 16.9527 30.7909 17.5937 31.6618 18.1385C34.2395 19.7447 35.8294 21.4165 36.5155 23.2691C37.577 26.1142 36.1923 27.7362 34.8462 28.5907L34.2429 28.9751L34.7702 29.4555C35.2431 29.8546 35.8264 30.1013 36.4429 30.1631C36.6244 30.1755 36.7979 30.1857 36.9601 30.1857C37.4874 30.1871 38.0121 30.1109 38.5171 29.9596C38.3904 30.1791 38.2427 30.3857 38.076 30.5768C37.3071 31.4596 36.3602 31.862 34.9993 31.8823L34.4935 31.8902L34.4538 32.3932C34.4538 32.4938 34.4107 33.4264 35.3021 34.2187C35.4448 34.3429 35.6044 34.4464 35.7761 34.5262C35.1717 35.0642 34.557 36.0024 34.438 37.6086C34.3393 38.9503 34.015 39.4466 34.0116 39.4511L33.4525 40.2977L34.4629 40.3101C36.1322 40.3101 37.4114 39.858 38.296 38.9537C38.7539 38.4796 39.0961 37.9068 39.2962 37.2797C39.7884 37.6955 40.4132 37.9228 41.0585 37.9206C41.3642 37.9169 41.6685 37.879 41.9657 37.8076L42.611 37.6369L42.3252 37.0514C42.3048 37.0039 41.7661 35.808 42.3456 34.1C42.5568 33.4783 42.7039 32.8367 42.7845 32.1852C43.2973 32.4441 43.8654 32.5752 44.4402 32.5673C44.9017 32.5744 45.3575 32.4653 45.7655 32.2501C46.1734 32.0349 46.5203 31.7207 46.774 31.3363L47.0882 30.7949L46.5053 30.5564C44.6001 29.7742 44.1782 27.6695 44.1 26.5392C44.2944 26.5774 44.4916 26.6004 44.6897 26.6081L44.7804 26.6036ZM46.2898 31.0605C46.0887 31.3608 45.8153 31.6058 45.4945 31.7733C45.1737 31.9408 44.8159 32.0253 44.4538 32.0191H44.4402C42.9058 32.0112 42.2855 31.0843 42.2855 31.0843C42.2855 31.0843 42.3751 32.2904 41.8217 33.9192C41.1549 35.8803 41.8217 37.2831 41.8217 37.2831C41.5692 37.3443 41.3104 37.3761 41.0505 37.378C40.8896 37.3801 40.7291 37.3611 40.5731 37.3215C40.2033 37.2355 39.8618 37.0564 39.5813 36.8013C39.3007 36.5462 39.0905 36.2237 38.9707 35.8645C38.9707 35.8645 39.0921 39.7642 34.4958 39.7642H34.4606C34.4606 39.7642 34.8655 39.2182 34.9846 37.6493C35.2034 34.7511 37.1846 34.3544 37.1846 34.3544C37.1846 34.3544 36.1277 34.2232 35.6695 33.8163C34.9539 33.1732 35.0038 32.4294 35.0038 32.4294C36.6221 32.4079 37.6802 31.8642 38.4865 30.9373C39.007 30.347 39.3595 29.6284 39.5071 28.8564C39.5071 28.8564 38.6373 29.6363 36.9567 29.6363C36.8092 29.6363 36.6505 29.6295 36.4883 29.6137C35.9931 29.5648 35.5242 29.3678 35.1433 29.0485C36.8932 27.9363 38.1213 25.9966 37.0326 23.0758C36.1606 20.736 34.0637 18.9874 31.9544 17.6694C31.2524 17.2342 30.8612 16.7527 30.8612 16.3367C30.8612 15.359 32.2663 15.3273 32.8424 14.6695C33.5069 13.9065 33.0907 12.6665 32.5135 11.9216C32.6791 11.894 32.8468 11.8812 33.0147 11.8832C33.4836 11.8781 33.9486 11.9673 34.3819 12.1456C34.8153 12.3239 35.2081 12.5876 35.5368 12.9208C36.6845 14.0975 36.2082 15.3771 36.2082 15.3771L36.5167 15.437C36.7 15.4704 36.8859 15.4886 37.0723 15.4912H37.1959C38.863 15.4912 39.608 13.7652 39.608 13.7652C39.608 13.7652 41.3783 15.9332 38.77 17.623C38.3164 17.9135 38.1224 18.1803 38.1746 18.4674L38.2154 18.655L38.4014 18.6867C40.293 19.1953 41.249 20.4873 42.4182 21.9556C42.9703 22.6491 43.6672 23.2145 44.4605 23.6127C45.2538 24.0108 46.1245 24.2322 47.0122 24.2615H47.0485C47.0485 24.2615 46.4724 26.0531 44.7804 26.0531H44.6999C43.9231 26.026 43.5261 25.731 43.5261 25.731C43.5261 25.731 43.2222 29.8002 46.2864 31.0605H46.2898Z" fill="black"/>
<path d="M41.5065 25.7208V25.7479C41.0416 22.0347 38.3187 19.3536 35.2908 17.7225C35.0107 17.5744 34.7522 17.4489 34.497 17.328C35.4201 17.4693 36.9046 17.4862 38.0511 16.5017C38.0511 16.5017 36.2967 17.779 32.7041 16.6147C33.6987 17.2545 35.6311 18.1565 37.3956 19.6169C41.8093 23.459 38.6567 27.2038 38.6567 27.2038C40.2443 25.5659 40.3067 23.8128 39.8406 22.3772C40.6753 23.7529 41.2083 25.4224 41.1255 27.4818C41.0041 30.432 39.3677 32.9832 37.644 35.0337C37.1311 35.6802 36.7836 36.4413 36.6313 37.2514C36.9206 36.4476 37.3592 35.7052 37.9241 35.0631C39.7703 32.9222 41.3477 30.6977 41.553 27.4898C41.7435 28.0719 42.5305 29.6894 43.778 30.2975C43.778 30.2975 42.2141 29.3639 41.5099 25.7174L41.5065 25.7208Z" fill="black"/>
<path d="M18.0021 39.4567C18.0021 39.4567 17.6766 38.956 17.5768 37.6165C17.4566 36.0092 16.8443 35.0721 16.2375 34.5329C16.4104 34.4552 16.5703 34.3515 16.7116 34.2255C17.6007 33.4342 17.5632 32.5006 17.5576 32.4L17.5235 31.897L17.0144 31.8879C15.6535 31.8664 14.7089 31.464 13.9388 30.5824C13.7735 30.391 13.6262 30.1847 13.4988 29.9663C14.0034 30.1178 14.5278 30.194 15.0547 30.1924C15.2192 30.1924 15.3893 30.1822 15.5707 30.1709C16.1877 30.1094 16.7714 29.8627 17.2446 29.4633L17.773 28.9829L17.1686 28.5975C15.8179 27.7418 14.4378 26.1187 15.4981 23.2759C16.1854 21.4266 17.773 19.7514 20.3541 18.1464C21.225 17.6004 21.7013 16.9595 21.7013 16.3457C21.7013 15.3985 20.9075 15.0255 20.3167 14.7632C20.0309 14.6287 19.7326 14.4942 19.5886 14.3281C19.135 13.8081 19.5183 12.81 19.9379 12.2697L20.4777 11.5689L19.6045 11.3926C19.4043 11.3603 19.2017 11.3448 18.9989 11.3462C18.4565 11.3415 17.9187 11.4456 17.4174 11.6522C16.9162 11.8588 16.4617 12.1637 16.081 12.5489C15.2328 13.417 15.1205 14.3428 15.1636 14.9396C15.0808 14.9464 14.9992 14.9498 14.9118 14.9543H14.82C13.5431 14.9543 12.9386 13.6148 12.9148 13.5628L12.5553 12.7252L11.9724 13.4272C11.9395 13.4701 11.0901 14.5202 11.292 15.8348C11.4292 16.7086 11.9838 17.4625 12.9352 18.0819C13.0153 18.1322 13.0912 18.1889 13.162 18.2515C11.3714 18.8291 10.3689 20.0973 9.3063 21.43L9.1532 21.6188C8.65165 22.2482 8.0189 22.7614 7.29873 23.1231C6.57856 23.4847 5.78815 23.6861 4.98221 23.7133L4.20312 23.6896L4.44014 24.4243C4.46736 24.5136 5.15798 26.5991 7.22987 26.5991H7.32967C7.52819 26.5917 7.72579 26.5682 7.9205 26.529C7.83318 27.6661 7.41245 29.7674 5.50727 30.5519L4.92551 30.7904L5.24077 31.3329C5.49523 31.7186 5.84356 32.0338 6.25325 32.249C6.66294 32.4643 7.12065 32.5726 7.58369 32.5639C8.15684 32.5699 8.72296 32.4377 9.23372 32.1784C9.31378 32.83 9.46084 33.4716 9.67259 34.0932C10.2521 35.8012 9.71228 36.9971 9.69074 37.0445L9.39815 37.6414L10.0457 37.812C10.3429 37.8836 10.6472 37.9215 10.9529 37.9251C11.1566 37.926 11.3598 37.904 11.5585 37.8595C11.9869 37.7622 12.385 37.5624 12.7186 37.2774C12.919 37.9038 13.2608 38.4761 13.7177 38.9503C14.6057 39.8546 15.8815 40.3067 17.5508 40.3067L18.5623 40.292L18.0021 39.4567ZM17.5133 39.7641C12.9171 39.7641 13.0339 35.8588 13.0339 35.8588C12.9143 36.2179 12.7043 36.5404 12.4239 36.7955C12.1436 37.0506 11.8023 37.2297 11.4326 37.3158C11.2767 37.3555 11.1161 37.3745 10.9552 37.3723C10.698 37.3701 10.4419 37.3383 10.192 37.2774C10.192 37.2774 10.8599 35.8746 10.192 33.9135C9.64197 32.2847 9.73156 31.0786 9.73156 31.0786C9.73156 31.0786 9.11351 32.0055 7.57689 32.0134H7.56101C7.19869 32.021 6.84027 31.9377 6.51866 31.7712C6.19706 31.6047 5.92259 31.3603 5.72047 31.0605C8.78237 29.8002 8.48299 25.7343 8.48299 25.7343C8.48299 25.7343 8.08494 26.0271 7.30699 26.0565H7.22647C5.53675 26.0565 4.9652 24.2649 4.9652 24.2649H5.00035C5.88767 24.2353 6.75791 24.0137 7.55077 23.6155C8.34363 23.2174 9.04016 22.6521 9.59208 21.959C10.7613 20.4896 11.7195 19.1998 13.6066 18.6901L13.796 18.6584L13.8379 18.4708C13.8889 18.1837 13.6928 17.9169 13.2437 17.6264C10.6354 15.9309 12.4079 13.7765 12.4079 13.7765C12.4079 13.7765 13.1496 15.5014 14.82 15.5014H14.9425C15.1289 15.4977 15.3147 15.4792 15.4981 15.446L15.8066 15.3861C15.8066 15.3861 15.3292 14.1054 16.4791 12.9276C16.8074 12.5941 17.2 12.3303 17.6332 12.152C18.0664 11.9737 18.5314 11.8845 19.0001 11.8899C19.1672 11.8878 19.3342 11.9007 19.499 11.9283C18.9241 12.6755 18.5079 13.9121 19.1724 14.6762C19.7474 15.3329 21.1491 15.3646 21.1491 16.3435C21.1491 16.7572 20.759 17.241 20.057 17.6761C17.9454 18.9941 15.8497 20.7428 14.9788 23.0826C13.8912 26.0034 15.1182 27.943 16.8715 29.0553C16.4897 29.3746 16.0202 29.5716 15.5242 29.6205C15.3621 29.6363 15.2056 29.6431 15.0547 29.6431C13.3752 29.6431 12.5054 28.8631 12.5054 28.8631C12.6515 29.6354 13.0015 30.3548 13.5192 30.9475C14.3312 31.8721 15.3893 32.4169 17.0076 32.4395C17.0076 32.4395 17.0586 33.1833 16.343 33.8265C15.8837 34.2311 14.8268 34.3645 14.8268 34.3645C14.8268 34.3645 16.8091 34.7613 17.0268 37.6595C17.1402 39.2284 17.5462 39.7743 17.5462 39.7743L17.5133 39.7641Z" fill="black"/>
<path d="M7.27652 21.1361C7.49539 21.138 7.71305 21.1036 7.92065 21.0344C8.49901 20.8445 8.8653 20.3901 9.25201 19.9176C9.63872 19.4452 10.0935 18.8879 10.8669 18.481L11.6607 18.0582L10.9224 17.545C10.5158 17.2853 10.0445 17.1436 9.5616 17.1359C9.25015 17.1381 8.94243 17.2037 8.65733 17.3286C8.37223 17.4536 8.11575 17.6353 7.90364 17.8627C6.75826 19.0213 5.73082 19.1151 5.69226 19.1162L4.89844 19.1626L5.22731 19.8905C5.55731 20.6117 6.42258 21.1339 7.28445 21.1339L7.27652 21.1361ZM8.29715 18.247C8.45739 18.0709 8.65245 17.9298 8.87006 17.8326C9.08767 17.7353 9.32312 17.684 9.5616 17.6818C9.93261 17.688 10.2946 17.7968 10.6072 17.9961C8.99458 18.8529 8.66344 20.2093 7.7426 20.5156C7.59273 20.5673 7.43512 20.5933 7.27652 20.5924C6.59609 20.5924 5.94629 20.1595 5.72288 19.6633C5.72288 19.6633 6.96239 19.5864 8.29488 18.247H8.29715Z" fill="black"/>
<path d="M10.8883 27.4829C10.7899 25.6913 11.2374 23.9118 12.1721 22.3783C11.706 23.8127 11.7695 25.5681 13.356 27.206C13.356 27.206 10.2 23.4612 14.6125 19.6225C16.3782 18.1621 18.3083 17.2601 19.3018 16.6215C15.7103 17.7823 13.957 16.5084 13.957 16.5084C15.1024 17.4941 16.588 17.476 17.51 17.3336C17.2605 17.4545 16.9985 17.5811 16.7161 17.7281C13.6849 19.3591 10.9643 22.0403 10.4971 25.7535V25.7241C9.79398 29.3695 8.229 30.3054 8.229 30.3054C9.47645 29.6973 10.2589 28.0809 10.4506 27.4976C10.6581 30.7021 12.2367 32.9233 14.0795 35.0709C14.644 35.7137 15.0832 36.4559 15.3746 37.2592C15.2205 36.4482 14.8702 35.6869 14.3539 35.0415C12.6449 32.982 11.0085 30.4342 10.8883 27.4829Z" fill="black"/>
<path d="M24.9673 19.9718V20.7088C25.2247 20.4002 25.7203 20.4624 25.7203 20.4624V21.5249C25.7203 21.5249 25.7021 22.046 25.515 22.2732H26.5867C26.403 22.0471 26.3837 21.5249 26.3837 21.5249V20.4624C26.3837 20.4624 26.8793 20.4002 27.1344 20.7088V19.9718H24.9673Z" fill="black"/>
<path d="M24.5071 15.6053C24.6676 15.7447 24.8531 15.8529 25.0537 15.9241L25.1886 15.9851V15.2922L23.9287 14.7666C23.9287 14.7666 23.9412 15.169 24.5071 15.6053Z" fill="black"/>
<path d="M27.5032 15.6053C28.0702 15.169 28.0827 14.7666 28.0827 14.7666L26.8228 15.2922V15.9851L26.9554 15.9241C27.1568 15.8537 27.3427 15.7455 27.5032 15.6053Z" fill="black"/>
<path d="M29.7712 12.7817C29.7712 11.7305 27.984 10.7844 26.0107 10.7844H25.9983C24.0273 10.7844 22.2367 11.7317 22.2367 12.7817L22.2764 13.0406L23.0702 17.5213L22.2764 17.9734L20.2249 19.1614H20.2317C20.2317 19.1614 19.7713 19.3942 19.5569 19.5389C18.7778 20.0758 18.6134 20.858 19.0648 21.1824C19.1217 20.8105 19.3134 20.4722 19.6037 20.2316C19.894 19.991 20.2626 19.8648 20.6399 19.8769C21.326 19.8769 21.8488 20.2284 22.273 20.7552C22.3849 20.8906 22.4875 21.0333 22.5803 21.1824C22.6994 21.3746 22.8184 21.5441 22.9364 21.7069H17.6631C18.0498 22.4789 18.4184 23.2973 18.4184 24.1858V35.748C18.4184 38.5467 20.5912 39.8828 22.942 39.8828C24.7565 39.8828 25.0037 39.8014 26.0039 40.7871C27.003 39.7969 27.2514 39.8828 29.0658 39.8828C31.4178 39.8828 33.5884 38.5467 33.5884 35.748V24.1858C33.5884 23.2973 33.9569 22.4789 34.3459 21.7069H29.0715C29.1849 21.5453 29.3074 21.3746 29.4265 21.1824C29.52 21.0341 29.6222 20.8914 29.7327 20.7552C30.1591 20.2262 30.6807 19.8769 31.3668 19.8769C31.7441 19.8651 32.1126 19.9914 32.4028 20.2319C32.693 20.4725 32.8848 20.8106 32.942 21.1824C33.3956 20.858 33.23 20.0758 32.4464 19.5389C32.2355 19.3942 31.7751 19.1614 31.7751 19.1614H31.7819L29.7338 17.9768L28.9456 17.5247L29.7338 13.044L29.7712 12.7817ZM23.0123 13.3028L25.7828 14.2331V18.5442L23.7415 17.4794L23.0123 13.3028ZM23.5862 22.4586C23.9576 22.8443 24.4088 23.1448 24.9085 23.3391C24.809 23.7067 24.8366 24.0968 24.9867 24.4469C25.1736 24.8245 25.4981 25.1169 25.8939 25.2641C25.9295 25.5785 26.0527 25.8768 26.2495 26.1251C26.4463 26.3734 26.7089 26.5618 27.0076 26.6691C26.6674 27.0082 26.3271 27.3338 26.1956 27.4604L23.0203 27.4106C22.9158 27.3627 22.8286 27.2837 22.7708 27.1846C22.7623 27.1711 22.7548 27.1572 22.7481 27.1427L23.2664 27.2275H23.2993C23.3482 27.2281 23.3956 27.2113 23.4331 27.1799C23.4706 27.1486 23.4955 27.1049 23.5034 27.0568C23.5119 27.003 23.4986 26.9481 23.4665 26.904C23.4344 26.8599 23.3861 26.8303 23.3321 26.8217L22.6948 26.7234L23.4025 24.3044L22.73 22.9107L21.6572 24.0354L21.5914 26.5516L20.8701 26.4385C20.8429 26.4329 20.8147 26.4329 20.7874 26.4384C20.7601 26.4439 20.7342 26.4548 20.7113 26.4706C20.6883 26.4864 20.6688 26.5066 20.6539 26.5301C20.639 26.5535 20.6291 26.5798 20.6246 26.6072C20.6202 26.6346 20.6214 26.6626 20.6281 26.6896C20.6348 26.7165 20.6469 26.7418 20.6637 26.764C20.6805 26.7862 20.7016 26.8047 20.7258 26.8185C20.75 26.8323 20.7767 26.8411 20.8044 26.8443L21.1083 26.8907C20.9949 26.9517 20.9291 27.0037 20.92 27.0037L20.8588 27.0467L20.8407 27.1213C20.666 27.8277 21.0675 28.4969 21.4916 28.7964L21.4757 28.8857C21.4667 28.9385 21.4685 28.9925 21.4809 29.0446C21.4934 29.0966 21.5163 29.1456 21.5483 29.1887C21.5794 29.2322 21.6188 29.2691 21.6644 29.2973C21.71 29.3254 21.7607 29.3442 21.8137 29.3526C21.8359 29.3542 21.8583 29.3542 21.8806 29.3526C21.972 29.3519 22.0606 29.3205 22.132 29.2635C22.2034 29.2065 22.2534 29.1271 22.2741 29.0383C22.4088 29.0539 22.5444 29.0614 22.6801 29.0609H22.7651L26.9304 29.8171L27.0008 29.7708C27.333 29.5447 28.5986 28.6269 29.0125 28.3262C29.1325 28.4291 29.2656 28.5158 29.4083 28.5839C29.3156 28.8723 29.3028 29.1804 29.3713 29.4754C29.4398 29.7705 29.587 30.0417 29.7973 30.2602H19.1804V24.1903C19.1804 23.6025 19.0069 23.0113 18.8017 22.4654H23.5862V22.4586ZM28.7347 28.0086C28.3128 28.3149 27.2287 29.0994 26.8363 29.3718L23.0509 28.6936C23.0588 28.6596 23.0679 28.628 23.0759 28.5941C23.1415 28.3419 23.1762 28.0826 23.179 27.8221L26.3612 27.8729L26.4213 27.8119C26.47 27.7633 27.4782 26.7946 27.993 26.2441C28.1269 26.4102 28.287 26.5534 28.4671 26.668C28.3779 27.1325 28.4739 27.6134 28.7347 28.0086ZM22.3966 27.3586C22.4801 27.5165 22.6056 27.6483 22.7595 27.7396C22.7553 27.967 22.7329 28.1938 22.6925 28.4178C22.6824 28.4694 22.6691 28.5203 22.6529 28.5704C22.6449 28.6009 22.6358 28.6257 22.629 28.6461C22.3699 28.6489 22.1119 28.6108 21.8647 28.5331C21.5676 28.42 21.123 27.8842 21.2262 27.2897C21.4371 27.1506 21.6796 27.0666 21.9316 27.0455C22.0324 27.0419 22.1317 27.0703 22.2153 27.1266C22.2988 27.1828 22.3623 27.2641 22.3966 27.3586ZM22.0031 26.6115L22.0666 24.1959L22.6132 23.6217L22.9534 24.3338L22.273 26.6522L22.0031 26.6115ZM28.6995 39.1345C28.4932 39.1345 28.3026 39.1345 28.1325 39.1447L28.5861 37.7555C28.6576 37.5634 28.3015 37.3158 28.1552 37.0999C28.5033 37.3065 28.8617 37.4951 29.2291 37.6651C29.1997 37.7092 28.7052 39.1345 28.7052 39.1345H28.6995ZM30.1137 37.552L29.82 39.0724C29.6329 39.0984 29.4333 39.1119 29.228 39.1198L29.5376 37.6572C29.6306 37.2231 28.4523 37.092 27.8706 36.2341C27.5859 36.5517 27.0518 36.6455 26.5097 36.6455C26.0804 36.6397 25.6525 36.5939 25.2317 36.5087C25.1594 36.4961 25.0862 36.4893 25.0128 36.4884C24.9253 36.4824 24.8379 36.5012 24.7606 36.5426C24.6833 36.584 24.6194 36.6463 24.5762 36.7224L24.49 36.8648L22.8933 36.4952L22.4941 37.1496C22.463 37.1941 22.4489 37.2483 22.4546 37.3023C22.4602 37.3562 22.4851 37.4064 22.5247 37.4435L22.6381 37.5566C22.5644 37.7883 22.231 38.1376 22.231 38.1376L21.986 37.8482C21.7955 37.638 21.8273 37.2559 22.0246 36.9021L22.6619 35.8373L24.0228 36.0306L23.8107 35.5536C23.5261 34.9229 23.9581 34.1203 24.0046 33.658C23.9899 33.7982 23.8606 33.8287 23.7086 33.8287C23.5567 33.8287 23.4183 33.8038 23.3163 33.8038C23.2843 33.8004 23.252 33.8063 23.2233 33.8208L22.8558 34.0469L22.5644 33.7925C22.5423 33.7526 22.5341 33.7064 22.5413 33.6614C22.5485 33.6163 22.5706 33.575 22.6041 33.5439L23.2777 32.7978L22.4839 31.8789L23.5975 32.4327L23.9377 32.0247C24.0307 32.1151 23.991 32.3525 23.991 32.3525C24.3392 32.3615 25.3122 32.895 25.3643 34.1384C25.3643 34.1757 25.3643 34.2187 25.3643 34.2594C25.3643 34.2594 25.3734 34.2752 25.3904 34.3001C25.4585 34.3939 25.649 34.6392 25.8894 34.6572L27.4272 34.8064H27.4294C27.5973 34.8064 27.9329 34.6109 28.3627 34.6109C28.6381 34.6131 28.907 34.6943 29.1373 34.8449C29.2453 34.7705 29.3724 34.7281 29.5036 34.7228H29.5569C30.2475 34.7228 30.5333 35.34 30.903 35.8531C31.182 36.2431 31.5539 36.8218 31.5539 36.8218C31.5008 36.8994 31.4294 36.9629 31.3459 37.0066C31.2625 37.0504 31.1696 37.0731 31.0754 37.0728C31.0087 37.073 30.9422 37.0666 30.8769 37.0536C30.1375 36.9191 30.0309 35.4134 29.609 35.2936C29.5872 35.2878 29.5647 35.2851 29.5421 35.2857C29.5018 35.2863 29.4624 35.2976 29.4279 35.3185C29.3934 35.3394 29.3651 35.369 29.3459 35.4044C29.5387 35.9176 29.4265 36.1256 29.6329 36.5212C29.7809 36.7633 29.9643 36.9819 30.1772 37.17C30.1772 37.17 30.1454 37.3961 30.1126 37.5622L30.1137 37.552ZM21.8534 36.1176L21.9237 36.2928C21.8772 36.4466 21.343 36.6647 21.343 36.6647L21.2296 36.4161C21.157 36.2444 21.1446 36.0532 21.1946 35.8737C21.2447 35.6942 21.3541 35.5367 21.5052 35.427L22.3671 34.9037L23.2834 35.0958C23.2764 35.2764 23.3316 35.4539 23.4399 35.5988L22.4793 35.4168L21.9044 35.8079C21.8605 35.8442 21.8311 35.895 21.8218 35.951C21.8124 36.0071 21.8236 36.0646 21.8534 36.1131V36.1176ZM30.2645 38.9932L30.5276 37.6368C30.5412 37.5566 30.5582 37.4628 30.5707 37.3848C30.6477 37.4169 30.7279 37.4408 30.81 37.456C30.8997 37.4732 30.9908 37.4823 31.0822 37.4831C31.2355 37.4833 31.3869 37.4483 31.5245 37.3809C31.6622 37.3135 31.7824 37.2154 31.876 37.0943L32.079 36.8614L31.9077 36.5992C31.8919 36.5732 31.5267 36.0001 31.2455 35.6079C31.1899 35.5321 31.1321 35.4553 31.0833 35.3716C30.7635 34.898 30.362 34.3023 29.558 34.3023H29.4866C29.3705 34.3086 29.2559 34.3314 29.1464 34.3701C28.9019 34.254 28.6347 34.1934 28.3639 34.1927C28.0925 34.1993 27.8242 34.2513 27.57 34.3464C27.5167 34.3622 27.468 34.3792 27.4306 34.386L25.928 34.239C25.8654 34.2114 25.8114 34.1677 25.7715 34.1124L26.0958 33.9824C26.0051 32.9109 24.9618 32.2507 24.3857 32.0281C24.3604 31.9133 24.3021 31.8084 24.2178 31.7263L23.8935 31.4233L23.61 31.7624L23.4705 31.9343L21.368 31.0797L22.7356 32.7752L22.1958 33.5857C21.9974 33.7925 22.2128 33.9994 22.2128 33.9994L22.7697 34.3803L23.348 34.1667C23.3684 34.1667 23.3866 34.1723 23.4047 34.1735C23.3775 34.2605 23.3412 34.6019 23.3174 34.6968L22.3138 34.5013L21.2591 35.0913C21.0298 35.256 20.8642 35.4942 20.7901 35.766C20.716 36.0378 20.7379 36.3268 20.852 36.5845L20.9654 36.8388L21.1321 37.1971L21.5007 37.0445C21.5059 37.0439 21.5107 37.0415 21.5143 37.0377C21.3816 37.4582 21.4349 37.8561 21.6719 38.1195L21.8987 38.3987L22.197 38.7717L22.5236 38.4235C22.62 38.3286 22.9318 37.9827 23.0282 37.6866L23.0985 37.4605L22.9386 37.2864L22.9125 37.2559L23.0917 36.9631L24.4015 37.2672L24.6953 37.3339L24.8518 37.0784L24.9345 36.9383C24.9504 36.91 24.9561 36.9044 25.0162 36.9044C25.0639 36.9047 25.1114 36.91 25.1579 36.9202C25.6064 37.0073 26.0619 37.0535 26.5188 37.0581C26.8252 37.0753 27.1322 37.039 27.426 36.9507C27.426 36.9507 28.1303 37.7419 28.1541 37.7725L27.7175 39.0859L27.6982 39.1662C26.8828 39.2306 26.4848 39.4081 26.0051 39.8839C25.3076 39.199 24.8143 39.1266 22.9432 39.1266C20.7012 39.1266 19.1816 37.8245 19.1816 35.7458V30.6592H32.8274V35.7458C32.8274 37.4322 31.8295 38.6089 30.2554 38.9921L30.2645 38.9932ZM33.213 22.4586C33.0055 23.0045 32.8308 23.5957 32.8308 24.1835V27.9781C32.0302 27.8447 31.9361 26.9913 31.9327 26.954L31.9168 26.7799L31.7388 26.7652C31.4453 26.7405 31.1709 26.6103 30.9665 26.399C30.5741 26.0101 30.573 25.3817 30.5741 25.3749C30.4521 25.5672 30.3927 25.7924 30.404 26.0196C30.4154 26.2468 30.497 26.465 30.6376 26.6442C30.8601 26.9235 31.1832 27.1052 31.538 27.1506C31.6299 27.6243 31.9917 28.2923 32.8252 28.394V30.2512H30.4686C29.38 29.651 29.8404 28.5952 29.8631 28.5557L29.9561 28.3545L29.7474 28.2765C28.5691 27.8435 28.8923 26.6782 28.9093 26.6284L28.9581 26.4577L28.7982 26.3831C27.8241 25.9367 27.9568 24.7317 27.9692 24.6876C27.6687 24.9284 27.561 25.419 27.7674 25.8994C27.654 26.026 27.5054 26.1797 27.3421 26.3458C27.0587 26.2859 26.8032 26.1342 26.6153 25.9144C26.4275 25.6946 26.3178 25.4191 26.3033 25.1307V24.9894L26.1706 24.9386C25.7771 24.7939 25.5061 24.5769 25.3768 24.2852C25.2672 24.0251 25.2476 23.7359 25.3212 23.4635C25.4332 23.4896 25.5469 23.5073 25.6615 23.5166C25.7767 23.5293 25.8925 23.5357 26.0085 23.5358H26.0244C26.1399 23.5357 26.2554 23.5293 26.3702 23.5166C26.9985 23.4556 27.7016 23.1877 28.4353 22.4688H33.213V22.4586ZM29.5308 18.6267L30.4641 19.1636H30.4777L30.7113 19.2982C30.2288 19.4285 29.791 19.6872 29.4446 20.0464L29.4083 20.0815C29.3312 20.164 29.2541 20.2522 29.1815 20.3426C29.1679 20.3595 29.1543 20.3788 29.1384 20.3969C29.067 20.4895 29.0001 20.5834 28.9343 20.6817C28.923 20.6987 28.9116 20.7156 28.8991 20.7314C28.822 20.8445 28.7483 20.9677 28.6723 21.0943C28.0089 22.2246 26.9486 22.9028 26.0051 22.9028C25.0616 22.9028 24.0046 22.2246 23.3401 21.0943C23.2675 20.9711 23.1961 20.8524 23.1133 20.736C23.0985 20.7145 23.0849 20.6919 23.0702 20.6727C23.0055 20.58 22.9398 20.4873 22.8729 20.4002C22.8573 20.3787 22.8407 20.3579 22.823 20.3381C22.7504 20.251 22.6767 20.164 22.603 20.0837C22.5871 20.0713 22.5769 20.0566 22.561 20.0431C22.2147 19.6838 21.7762 19.4261 21.2931 19.2982L21.5324 19.1614H21.5438L22.4793 18.6267L23.4376 18.083L25.9983 19.4632H26.0051L28.5646 18.083L29.5308 18.6267ZM28.2675 17.4806L26.2262 18.5454V14.2331L28.9944 13.3028L28.2675 17.4806ZM25.9994 13.7595L22.9693 12.5715C23.2278 11.9668 24.4186 11.4525 26.0051 11.4502C27.5916 11.4479 28.7846 11.9668 29.0409 12.5715L25.9994 13.7595Z" fill="black"/>
</g>
<defs>
<clipPath id="clip0_875_1985">
<rect width="46" height="40.6923" fill="white" transform="translate(3 5.65381)"/>
</clipPath>
</defs>
</svg>
