<svg width="52" height="52" viewBox="0 0 52 52" fill="none" xmlns="http://www.w3.org/2000/svg">
<mask id="mask0_875_1888" style="mask-type:luminance" maskUnits="userSpaceOnUse" x="6" y="4" width="40" height="44">
<path d="M45.091 4.57227H6.90918V47.4278H45.091V4.57227Z" fill="white"/>
</mask>
<g mask="url(#mask0_875_1888)">
<path d="M22.5775 26.3738H18.6999C18.6603 26.3738 18.6406 26.3939 18.6209 26.4344C18.5219 28.2327 18.1856 30.1522 17.7109 31.7282C17.7109 31.7483 17.7109 31.7686 17.7306 31.7887C17.7503 31.809 17.7702 31.809 17.7899 31.809H19.1155C19.1549 31.809 19.1748 31.7887 19.1748 31.7686C19.5506 30.5562 19.8475 28.9802 19.9661 27.6467H21.2322V31.7483C21.2322 31.7887 21.2718 31.8292 21.3114 31.8292H22.5775C22.6171 31.8292 22.6567 31.7887 22.6567 31.7483V26.4344C22.6567 26.3939 22.6171 26.3738 22.5775 26.3738ZM38.9778 26.3738H37.7118C37.6722 26.3738 37.6325 26.4141 37.6325 26.4545V30.5562C37.3556 30.6371 37.0786 30.6776 36.7622 30.6776C35.9312 30.6776 35.7335 30.4148 35.7335 29.2833V26.4545C35.7335 26.4141 35.6939 26.3738 35.6543 26.3738H34.4079C34.3683 26.3738 34.3289 26.4141 34.3289 26.4545V29.4248C34.3289 31.2837 34.942 31.9908 36.5049 31.9908C37.3952 31.9908 38.4041 31.7483 38.9977 31.5261C39.0174 31.5058 39.0372 31.4857 39.0372 31.4655V26.4545C39.057 26.3939 39.0174 26.3738 38.9778 26.3738ZM12.1517 26.3738H10.8658C10.8262 26.3738 10.8065 26.3939 10.8065 26.4344C10.6086 27.2425 10.1932 28.6165 9.63923 30.0512L8.35329 26.4344C8.33357 26.4141 8.31368 26.3939 8.29395 26.3939H6.98829C6.96841 26.3939 6.94868 26.4141 6.92895 26.4344C6.9091 26.4545 6.9091 26.4748 6.92895 26.4949L8.86763 31.9101C8.66988 32.3343 8.4917 32.6777 8.31368 33.0011C8.17527 33.2436 8.05659 33.486 7.93791 33.7285C7.91802 33.7487 7.91802 33.7689 7.93791 33.7891C7.95764 33.8092 7.97736 33.8295 7.99725 33.8295H9.40186C9.42159 33.8295 9.4612 33.8092 9.4612 33.7891C9.69857 33.3244 9.99527 32.6777 10.2722 32.0111C11.1032 30.0309 11.7561 28.172 12.2505 26.4748C12.2505 26.4545 12.2505 26.4344 12.2308 26.4141C12.1912 26.3738 12.1715 26.3738 12.1517 26.3738ZM16.7612 30.5562C16.7612 30.5361 16.7414 30.5158 16.7216 30.5158H16.6623C16.3457 30.6371 15.772 30.7178 15.3764 30.7178C14.4861 30.7178 14.0707 30.4754 14.0707 29.1014C14.0707 27.9902 14.2091 27.485 15.3764 27.485C15.7127 27.485 16.0094 27.5254 16.405 27.6467C16.4447 27.6467 16.4644 27.6467 16.4843 27.6063C16.6227 27.3234 16.8007 26.9799 16.9986 26.5555V26.4949C16.9986 26.4748 16.9789 26.4545 16.959 26.4545C16.4447 26.2929 15.8314 26.1919 15.2774 26.1919C13.4375 26.1919 12.6067 27.0809 12.6067 29.0813C12.6067 31.1018 13.4375 32.0111 15.2774 32.0111C15.7324 32.0111 16.6623 31.9101 17.0976 31.7282C17.137 31.708 17.1569 31.6676 17.137 31.6271L16.7612 30.5562ZM28.8092 26.3738H27.5233C27.4838 26.3738 27.4639 26.3939 27.4639 26.4344C27.2662 27.2628 26.8506 28.6165 26.2967 30.0512L25.0109 26.4344C24.991 26.4141 24.9713 26.3939 24.9514 26.3939H23.6457C23.626 26.3939 23.6063 26.4141 23.5864 26.4344C23.5667 26.4545 23.5667 26.4748 23.5864 26.4949L25.5252 31.9101C25.3273 32.3343 25.1493 32.6777 24.9713 33.0011C24.8327 33.2436 24.714 33.486 24.5954 33.7487C24.5756 33.769 24.5756 33.7891 24.5954 33.8092C24.6152 33.8295 24.635 33.8497 24.6547 33.8497H26.0593C26.0792 33.8497 26.1187 33.8295 26.1187 33.8092C26.3562 33.3446 26.6529 32.698 26.9299 32.0312C27.7409 30.0512 28.4135 28.1923 28.9082 26.4949C28.9082 26.4748 28.9082 26.4545 28.8884 26.4344C28.8488 26.3738 28.8291 26.3738 28.8092 26.3738ZM33.5573 26.3738H29.8182C29.7785 26.3738 29.7391 26.4141 29.7391 26.4545V31.7686C29.7391 31.809 29.7785 31.8493 29.8182 31.8493H31.0844C31.1238 31.8493 31.1634 31.809 31.1634 31.7686V27.6669H33.122C33.1417 27.6669 33.1813 27.6467 33.1813 27.6264C33.3396 27.2628 33.478 26.8789 33.6363 26.4949V26.4344C33.5967 26.3738 33.577 26.3738 33.5573 26.3738Z" fill="#EF4058"/>
<path d="M13.6553 18.2109C11.8353 18.2109 11.123 19.0191 11.123 21.0598C11.123 23.141 11.8353 23.9491 13.6553 23.9491C15.4952 23.9491 16.2074 23.141 16.2074 21.0598C16.2074 18.9988 15.4952 18.2109 13.6553 18.2109ZM13.6553 22.7571C12.8243 22.7571 12.5672 22.5348 12.5672 21.0801C12.5672 19.5444 12.8442 19.4031 13.6553 19.4031C14.4862 19.4031 14.7632 19.5444 14.7632 21.0801C14.7632 22.5348 14.5059 22.7571 13.6553 22.7571ZM21.2719 22.5347C21.2719 22.5146 21.252 22.4945 21.2323 22.4945H21.173C20.8564 22.6156 20.2827 22.6965 19.887 22.6965C18.9967 22.6965 18.5814 22.454 18.5814 21.0801C18.5814 19.9687 18.7198 19.4637 19.887 19.4637C20.2233 19.4637 20.52 19.5041 20.9157 19.6252C20.9553 19.6252 20.975 19.6252 20.9949 19.5848C21.1333 19.3019 21.3114 18.9584 21.5093 18.5342V18.4736C21.5093 18.4533 21.4895 18.4332 21.4697 18.4332C20.9553 18.2714 20.342 18.1704 19.7881 18.1704C17.9483 18.1704 17.1174 19.0594 17.1174 21.0598C17.1174 23.0804 17.9483 23.9896 19.7881 23.9896C20.2431 23.9896 21.173 23.8886 21.6082 23.7067C21.6477 23.6865 21.6676 23.6461 21.6477 23.6057L21.2719 22.5347ZM10.7274 18.3523H6.98825C6.94879 18.3523 6.90918 18.3927 6.90918 18.4332V23.7471C6.90918 23.7876 6.94879 23.828 6.98825 23.828H8.25445C8.29407 23.828 8.33352 23.7876 8.33352 23.7471V19.6252H10.2724C10.2921 19.6252 10.3317 19.6051 10.3317 19.5848C10.49 19.2212 10.6284 18.8373 10.7867 18.4533V18.3927C10.767 18.3724 10.7471 18.3523 10.7274 18.3523Z" fill="#1466AC"/>
<path d="M44.8934 31.2635V31.1827C44.8934 31.1422 44.8934 31.0816 44.9131 31.0412C44.9725 30.2937 45.0121 29.3845 45.0517 28.3337V28.253C45.0714 27.5457 45.0913 26.7779 45.0913 25.9899C45.0913 25.2019 45.0714 24.4342 45.0517 23.7269V23.6461C45.0121 22.6156 44.9725 21.6861 44.9131 20.9386C44.9131 20.8981 44.9131 20.8376 44.8934 20.7971V20.7164C44.8934 20.6355 44.8737 20.5749 44.8737 20.4941V20.4132C44.8143 19.6252 44.7747 19.1403 44.755 19.1C44.755 19.0191 44.7351 18.9382 44.7351 18.8776V18.8171C44.7154 18.6756 44.6955 18.5543 44.656 18.413C44.656 18.3927 44.656 18.3726 44.6362 18.3523C44.2998 16.7157 43.4097 14.9174 42.3018 13.5637C41.8665 13.0383 41.4115 12.5736 40.9368 12.2099C40.8972 12.1695 40.3432 11.7654 39.4727 11.139C38.4637 10.4318 37.0197 9.44175 35.3777 8.4719C32.4496 6.71403 29.858 5.48151 29.502 5.34007C29.4823 5.34007 29.4823 5.31987 29.4823 5.31987C28.7107 4.97638 27.7808 4.73391 26.7718 4.63288C26.5741 4.61267 26.3762 4.59247 26.1784 4.59247C25.9805 4.57227 25.8025 4.57227 25.6245 4.57227H25.3475C24.0022 4.61267 22.7559 4.85514 21.7667 5.31987C21.6283 5.38048 18.9971 6.61301 16.0098 8.41129L15.891 8.4719C12.8247 10.3106 10.4308 12.1291 10.3319 12.2099C9.58015 12.7756 8.90752 13.503 8.29422 14.4324C8.15581 14.6345 8.15581 15.1598 8.74922 15.1598H10.2725C10.9254 15.1598 11.0837 14.7558 11.8157 14.2103C12.6267 13.604 14.2293 12.3917 17.1572 10.6137C19.274 9.34074 21.2523 8.33046 22.2217 7.86573C22.2416 7.86573 22.2613 7.84553 22.281 7.84553C22.281 7.84553 22.3009 7.84553 22.3009 7.82532C22.3009 7.82532 22.3206 7.82533 22.3206 7.80512C22.3404 7.80512 22.3602 7.78492 22.3602 7.78492C22.38 7.78492 22.3997 7.76471 22.4196 7.76471C22.6569 7.64348 22.8152 7.58287 22.8152 7.58287C23.4879 7.27979 24.4375 7.07774 25.4464 7.05752H25.8421C26.1388 7.05752 26.4355 7.07774 26.7125 7.11814C27.3258 7.19896 27.8797 7.32019 28.3347 7.52224C28.3744 7.54245 28.4337 7.56267 28.4733 7.58287C28.4733 7.58287 28.493 7.60307 28.5524 7.62328C29.0074 7.82532 31.4606 9.01745 34.1312 10.6137C35.714 11.5633 37.1186 12.513 38.088 13.1999C38.9386 13.8062 39.453 14.19 39.4727 14.2103C39.8486 14.4932 40.2246 14.8972 40.5806 15.3417C41.4709 16.5137 42.2029 18.1098 42.3215 19.3425C42.3215 19.3626 42.3809 19.8475 42.4402 20.676C42.4402 20.7365 42.4402 20.777 42.4601 20.8376V20.9589C42.4601 21.0396 42.4798 21.1002 42.4798 21.181V21.2619C42.4798 21.3024 42.4798 21.3629 42.4996 21.4034C42.4996 21.5044 42.5194 21.6054 42.5194 21.7064C42.5194 21.767 42.5195 21.8276 42.5392 21.8883V21.9286C42.5392 22.0095 42.5392 22.0701 42.5589 22.1509V22.3125C42.6182 23.3633 42.6579 24.6159 42.6579 25.9293C42.6579 27.2427 42.6182 28.4953 42.5589 29.5461V29.7077C42.5589 29.7886 42.5589 29.8492 42.5392 29.93V29.9705C42.5392 30.031 42.5392 30.0916 42.5194 30.1522C42.5194 30.2532 42.4996 30.3542 42.4996 30.4552C42.4996 30.516 42.4996 30.5564 42.4798 30.5967V30.6776C42.4798 30.7585 42.4601 30.819 42.4601 30.8999V31.0211C42.4601 31.0816 42.4601 31.1422 42.4402 31.1827C42.3809 32.0111 42.3215 32.5163 42.3215 32.5163C42.2029 33.7488 41.4709 35.345 40.5806 36.5169C40.2246 36.9817 39.8486 37.3656 39.4727 37.6484C39.453 37.6484 38.9386 38.0526 38.088 38.6587C37.1186 39.3457 35.6941 40.2953 34.1312 41.245C31.4606 42.8615 28.9877 44.0334 28.5524 44.2354L28.4733 44.2758C28.4337 44.296 28.3744 44.3161 28.3347 44.3364C27.8797 44.5183 27.3258 44.6596 26.7125 44.7405C26.4355 44.7809 26.1388 44.8011 25.8421 44.8011H25.4464C24.4375 44.7809 23.4879 44.599 22.8152 44.2758C22.8152 44.2758 22.6767 44.2151 22.4196 44.094C22.3997 44.0738 22.3602 44.0738 22.3404 44.0535C22.3206 44.0334 22.3009 44.0334 22.281 44.0131C22.2613 44.0131 22.2613 43.9929 22.2416 43.9929C22.2217 43.9929 22.202 43.9726 22.1822 43.9726C22.1623 43.9525 22.1426 43.9525 22.103 43.9324H22.0833C21.0743 43.5281 19.1751 42.5584 17.1572 41.346C14.2095 39.5882 12.6267 38.3557 11.8157 37.7494C11.0837 37.2039 10.9254 36.7998 10.2725 36.7998H8.74922C8.15581 36.7998 8.15581 37.3252 8.29422 37.5272C8.90752 38.4567 9.58015 39.1841 10.3319 39.7497C10.4308 39.8306 12.8444 41.6491 15.891 43.4879C16.0493 43.5889 16.2076 43.6899 16.3856 43.7706C19.2147 45.4275 21.648 46.559 21.7864 46.6398C22.7559 47.0843 24.0219 47.3469 25.3672 47.3874H25.6442C25.8222 47.3874 26.0004 47.3874 26.1784 47.3672C26.3762 47.3672 26.5741 47.3469 26.7718 47.3268C27.7808 47.2258 28.7304 46.9833 29.4823 46.6398C29.4823 46.6398 29.502 46.6398 29.502 46.6197C29.8383 46.4579 32.4496 45.2254 35.3578 43.4879C36.9998 42.4977 38.444 41.5279 39.453 40.8207C40.3235 40.1943 40.8773 39.7902 40.9169 39.7497C41.3918 39.3861 41.8468 38.9213 42.2819 38.3961C43.3898 37.0423 44.2801 35.244 44.6164 33.6074C44.6164 33.5871 44.6164 33.5669 44.6362 33.5468C44.656 33.4054 44.6955 33.2639 44.7154 33.1426V33.082C44.7351 33.0011 44.7351 32.9204 44.7351 32.8598C44.7351 32.8194 44.7944 32.3344 44.8538 31.5465V31.4656C44.8934 31.405 44.8934 31.3444 44.8934 31.2635Z" fill="url(#paint0_linear_875_1888)"/>
</g>
<defs>
<linearGradient id="paint0_linear_875_1888" x1="26.6544" y1="4.57227" x2="26.6544" y2="47.4244" gradientUnits="userSpaceOnUse">
<stop offset="0.398" stop-color="#1466AC"/>
<stop offset="0.659" stop-color="#EF4058"/>
</linearGradient>
</defs>
</svg>
