<svg width="54" height="58" viewBox="0 0 54 58" fill="none" xmlns="http://www.w3.org/2000/svg">
<g id="1.1gos 1">
<g id="Clip path group">
<mask id="mask0_424_687" style="mask-type:luminance" maskUnits="userSpaceOnUse" x="7" y="7" width="40" height="44">
<g id="clip0">
<path id="Vector" d="M46.091 7.57227H7.90918V50.4278H46.091V7.57227Z" fill="white"/>
</g>
</mask>
<g mask="url(#mask0_424_687)">
<g id="Group">
<path id="Vector_2" d="M23.5775 29.3738H19.6999C19.6603 29.3738 19.6406 29.3939 19.6209 29.4344C19.5219 31.2327 19.1856 33.1522 18.7109 34.7282C18.7109 34.7483 18.7109 34.7686 18.7306 34.7887C18.7503 34.809 18.7702 34.809 18.7899 34.809H20.1155C20.1549 34.809 20.1748 34.7887 20.1748 34.7686C20.5506 33.5562 20.8475 31.9802 20.9661 30.6467H22.2322V34.7483C22.2322 34.7887 22.2718 34.8292 22.3114 34.8292H23.5775C23.6171 34.8292 23.6567 34.7887 23.6567 34.7483V29.4344C23.6567 29.3939 23.6171 29.3738 23.5775 29.3738ZM39.9778 29.3738H38.7118C38.6722 29.3738 38.6325 29.4141 38.6325 29.4545V33.5562C38.3556 33.6371 38.0786 33.6776 37.7622 33.6776C36.9312 33.6776 36.7335 33.4148 36.7335 32.2833V29.4545C36.7335 29.4141 36.6939 29.3738 36.6543 29.3738H35.4079C35.3683 29.3738 35.3289 29.4141 35.3289 29.4545V32.4248C35.3289 34.2837 35.942 34.9908 37.5049 34.9908C38.3952 34.9908 39.4041 34.7483 39.9977 34.5261C40.0174 34.5058 40.0372 34.4857 40.0372 34.4655V29.4545C40.057 29.3939 40.0174 29.3738 39.9778 29.3738ZM13.1517 29.3738H11.8658C11.8262 29.3738 11.8065 29.3939 11.8065 29.4344C11.6086 30.2425 11.1932 31.6165 10.6392 33.0512L9.35329 29.4344C9.33357 29.4141 9.31368 29.3939 9.29395 29.3939H7.98829C7.96841 29.3939 7.94868 29.4141 7.92895 29.4344C7.9091 29.4545 7.9091 29.4748 7.92895 29.4949L9.86763 34.9101C9.66988 35.3343 9.4917 35.6777 9.31368 36.0011C9.17527 36.2436 9.05659 36.486 8.93791 36.7285C8.91802 36.7487 8.91802 36.7689 8.93791 36.7891C8.95764 36.8092 8.97736 36.8295 8.99725 36.8295H10.4019C10.4216 36.8295 10.4612 36.8092 10.4612 36.7891C10.6986 36.3244 10.9953 35.6777 11.2722 35.0111C12.1032 33.0309 12.7561 31.172 13.2505 29.4748C13.2505 29.4545 13.2505 29.4344 13.2308 29.4141C13.1912 29.3738 13.1715 29.3738 13.1517 29.3738ZM17.7612 33.5562C17.7612 33.5361 17.7414 33.5158 17.7216 33.5158H17.6623C17.3457 33.6371 16.772 33.7178 16.3764 33.7178C15.4861 33.7178 15.0707 33.4754 15.0707 32.1014C15.0707 30.9902 15.2091 30.485 16.3764 30.485C16.7127 30.485 17.0094 30.5254 17.405 30.6467C17.4447 30.6467 17.4644 30.6467 17.4843 30.6063C17.6227 30.3234 17.8007 29.9799 17.9986 29.5555V29.4949C17.9986 29.4748 17.9789 29.4545 17.959 29.4545C17.4447 29.2929 16.8314 29.1919 16.2774 29.1919C14.4375 29.1919 13.6067 30.0809 13.6067 32.0813C13.6067 34.1018 14.4375 35.0111 16.2774 35.0111C16.7324 35.0111 17.6623 34.9101 18.0976 34.7282C18.137 34.708 18.1569 34.6676 18.137 34.6271L17.7612 33.5562ZM29.8092 29.3738H28.5233C28.4838 29.3738 28.4639 29.3939 28.4639 29.4344C28.2662 30.2628 27.8506 31.6165 27.2967 33.0512L26.0109 29.4344C25.991 29.4141 25.9713 29.3939 25.9514 29.3939H24.6457C24.626 29.3939 24.6063 29.4141 24.5864 29.4344C24.5667 29.4545 24.5667 29.4748 24.5864 29.4949L26.5252 34.9101C26.3273 35.3343 26.1493 35.6777 25.9713 36.0011C25.8327 36.2436 25.714 36.486 25.5954 36.7487C25.5756 36.769 25.5756 36.7891 25.5954 36.8092C25.6152 36.8295 25.635 36.8497 25.6547 36.8497H27.0593C27.0792 36.8497 27.1187 36.8295 27.1187 36.8092C27.3562 36.3446 27.6529 35.698 27.9299 35.0312C28.7409 33.0512 29.4135 31.1923 29.9082 29.4949C29.9082 29.4748 29.9082 29.4545 29.8884 29.4344C29.8488 29.3738 29.8291 29.3738 29.8092 29.3738ZM34.5573 29.3738H30.8182C30.7785 29.3738 30.7391 29.4141 30.7391 29.4545V34.7686C30.7391 34.809 30.7785 34.8493 30.8182 34.8493H32.0844C32.1238 34.8493 32.1634 34.809 32.1634 34.7686V30.6669H34.122C34.1417 30.6669 34.1813 30.6467 34.1813 30.6264C34.3396 30.2628 34.478 29.8789 34.6363 29.4949V29.4344C34.5967 29.3738 34.577 29.3738 34.5573 29.3738Z" fill="#EF4058"/>
<path id="Vector_3" d="M14.6553 21.2109C12.8353 21.2109 12.123 22.0191 12.123 24.0598C12.123 26.141 12.8353 26.9491 14.6553 26.9491C16.4952 26.9491 17.2074 26.141 17.2074 24.0598C17.2074 21.9988 16.4952 21.2109 14.6553 21.2109ZM14.6553 25.7571C13.8243 25.7571 13.5672 25.5348 13.5672 24.0801C13.5672 22.5444 13.8442 22.4031 14.6553 22.4031C15.4862 22.4031 15.7632 22.5444 15.7632 24.0801C15.7632 25.5348 15.5059 25.7571 14.6553 25.7571ZM22.2719 25.5347C22.2719 25.5146 22.252 25.4945 22.2323 25.4945H22.173C21.8564 25.6156 21.2827 25.6965 20.887 25.6965C19.9967 25.6965 19.5814 25.454 19.5814 24.0801C19.5814 22.9687 19.7198 22.4637 20.887 22.4637C21.2233 22.4637 21.52 22.5041 21.9157 22.6252C21.9553 22.6252 21.975 22.6252 21.9949 22.5848C22.1333 22.3019 22.3114 21.9584 22.5093 21.5342V21.4736C22.5093 21.4533 22.4895 21.4332 22.4697 21.4332C21.9553 21.2714 21.342 21.1704 20.7881 21.1704C18.9483 21.1704 18.1174 22.0594 18.1174 24.0598C18.1174 26.0804 18.9483 26.9896 20.7881 26.9896C21.2431 26.9896 22.173 26.8886 22.6082 26.7067C22.6477 26.6865 22.6676 26.6461 22.6477 26.6057L22.2719 25.5347ZM11.7274 21.3523H7.98825C7.94879 21.3523 7.90918 21.3927 7.90918 21.4332V26.7471C7.90918 26.7876 7.94879 26.828 7.98825 26.828H9.25445C9.29407 26.828 9.33352 26.7876 9.33352 26.7471V22.6252H11.2724C11.2921 22.6252 11.3317 22.6051 11.3317 22.5848C11.49 22.2212 11.6284 21.8373 11.7867 21.4533V21.3927C11.767 21.3724 11.7471 21.3523 11.7274 21.3523Z" fill="#1466AC"/>
<path id="Vector_4" d="M45.8934 34.2635V34.1827C45.8934 34.1422 45.8934 34.0816 45.9131 34.0412C45.9725 33.2937 46.0121 32.3845 46.0517 31.3337V31.253C46.0714 30.5457 46.0913 29.7779 46.0913 28.9899C46.0913 28.2019 46.0714 27.4342 46.0517 26.7269V26.6461C46.0121 25.6156 45.9725 24.6861 45.9131 23.9386C45.9131 23.8981 45.9131 23.8376 45.8934 23.7971V23.7164C45.8934 23.6355 45.8737 23.5749 45.8737 23.4941V23.4132C45.8143 22.6252 45.7747 22.1403 45.755 22.1C45.755 22.0191 45.7351 21.9382 45.7351 21.8776V21.8171C45.7154 21.6756 45.6955 21.5543 45.656 21.413C45.656 21.3927 45.656 21.3726 45.6362 21.3523C45.2998 19.7157 44.4097 17.9174 43.3018 16.5637C42.8665 16.0383 42.4115 15.5736 41.9368 15.2099C41.8972 15.1695 41.3432 14.7654 40.4727 14.139C39.4637 13.4318 38.0197 12.4418 36.3777 11.4719C33.4496 9.71403 30.858 8.48151 30.502 8.34007C30.4823 8.34007 30.4823 8.31987 30.4823 8.31987C29.7107 7.97638 28.7808 7.73391 27.7718 7.63288C27.5741 7.61267 27.3762 7.59247 27.1784 7.59247C26.9805 7.57227 26.8025 7.57227 26.6245 7.57227H26.3475C25.0022 7.61267 23.7559 7.85514 22.7667 8.31987C22.6283 8.38048 19.9971 9.61301 17.0098 11.4113L16.891 11.4719C13.8247 13.3106 11.4308 15.1291 11.3319 15.2099C10.5802 15.7756 9.90752 16.503 9.29422 17.4324C9.15581 17.6345 9.15581 18.1598 9.74922 18.1598H11.2725C11.9254 18.1598 12.0837 17.7558 12.8157 17.2103C13.6267 16.604 15.2293 15.3917 18.1572 13.6137C20.274 12.3407 22.2523 11.3305 23.2217 10.8657C23.2416 10.8657 23.2613 10.8455 23.281 10.8455C23.281 10.8455 23.3009 10.8455 23.3009 10.8253C23.3009 10.8253 23.3206 10.8253 23.3206 10.8051C23.3404 10.8051 23.3602 10.7849 23.3602 10.7849C23.38 10.7849 23.3997 10.7647 23.4196 10.7647C23.6569 10.6435 23.8152 10.5829 23.8152 10.5829C24.4879 10.2798 25.4375 10.0777 26.4464 10.0575H26.8421C27.1388 10.0575 27.4355 10.0777 27.7125 10.1181C28.3258 10.199 28.8797 10.3202 29.3347 10.5222C29.3744 10.5424 29.4337 10.5627 29.4733 10.5829C29.4733 10.5829 29.493 10.6031 29.5524 10.6233C30.0074 10.8253 32.4606 12.0174 35.1312 13.6137C36.714 14.5633 38.1186 15.513 39.088 16.1999C39.9386 16.8062 40.453 17.19 40.4727 17.2103C40.8486 17.4932 41.2246 17.8972 41.5806 18.3417C42.4709 19.5137 43.2029 21.1098 43.3215 22.3425C43.3215 22.3626 43.3809 22.8475 43.4402 23.676C43.4402 23.7365 43.4402 23.777 43.4601 23.8376V23.9589C43.4601 24.0396 43.4798 24.1002 43.4798 24.181V24.2619C43.4798 24.3024 43.4798 24.3629 43.4996 24.4034C43.4996 24.5044 43.5194 24.6054 43.5194 24.7064C43.5194 24.767 43.5195 24.8276 43.5392 24.8883V24.9286C43.5392 25.0095 43.5392 25.0701 43.5589 25.1509V25.3125C43.6182 26.3633 43.6579 27.6159 43.6579 28.9293C43.6579 30.2427 43.6182 31.4953 43.5589 32.5461V32.7077C43.5589 32.7886 43.5589 32.8492 43.5392 32.93V32.9705C43.5392 33.031 43.5392 33.0916 43.5194 33.1522C43.5194 33.2532 43.4996 33.3542 43.4996 33.4552C43.4996 33.516 43.4996 33.5564 43.4798 33.5967V33.6776C43.4798 33.7585 43.4601 33.819 43.4601 33.8999V34.0211C43.4601 34.0816 43.4601 34.1422 43.4402 34.1827C43.3809 35.0111 43.3215 35.5163 43.3215 35.5163C43.2029 36.7488 42.4709 38.345 41.5806 39.5169C41.2246 39.9817 40.8486 40.3656 40.4727 40.6484C40.453 40.6484 39.9386 41.0526 39.088 41.6587C38.1186 42.3457 36.6941 43.2953 35.1312 44.245C32.4606 45.8615 29.9877 47.0334 29.5524 47.2354L29.4733 47.2758C29.4337 47.296 29.3744 47.3161 29.3347 47.3364C28.8797 47.5183 28.3258 47.6596 27.7125 47.7405C27.4355 47.7809 27.1388 47.8011 26.8421 47.8011H26.4464C25.4375 47.7809 24.4879 47.599 23.8152 47.2758C23.8152 47.2758 23.6767 47.2151 23.4196 47.094C23.3997 47.0738 23.3602 47.0738 23.3404 47.0535C23.3206 47.0334 23.3009 47.0334 23.281 47.0131C23.2613 47.0131 23.2613 46.9929 23.2416 46.9929C23.2217 46.9929 23.202 46.9726 23.1822 46.9726C23.1623 46.9525 23.1426 46.9525 23.103 46.9324H23.0833C22.0743 46.5281 20.1751 45.5584 18.1572 44.346C15.2095 42.5882 13.6267 41.3557 12.8157 40.7494C12.0837 40.2039 11.9254 39.7998 11.2725 39.7998H9.74922C9.15581 39.7998 9.15581 40.3252 9.29422 40.5272C9.90752 41.4567 10.5802 42.1841 11.3319 42.7497C11.4308 42.8306 13.8444 44.6491 16.891 46.4879C17.0493 46.5889 17.2076 46.6899 17.3856 46.7706C20.2147 48.4275 22.648 49.559 22.7864 49.6398C23.7559 50.0843 25.0219 50.3469 26.3672 50.3874H26.6442C26.8222 50.3874 27.0004 50.3874 27.1784 50.3672C27.3762 50.3672 27.5741 50.3469 27.7718 50.3268C28.7808 50.2258 29.7304 49.9833 30.4823 49.6398C30.4823 49.6398 30.502 49.6398 30.502 49.6197C30.8383 49.4579 33.4496 48.2254 36.3578 46.4879C37.9998 45.4977 39.444 44.5279 40.453 43.8207C41.3235 43.1943 41.8773 42.7902 41.9169 42.7497C42.3918 42.3861 42.8468 41.9213 43.2819 41.3961C44.3898 40.0423 45.2801 38.244 45.6164 36.6074C45.6164 36.5871 45.6164 36.5669 45.6362 36.5468C45.656 36.4054 45.6955 36.2639 45.7154 36.1426V36.082C45.7351 36.0011 45.7351 35.9204 45.7351 35.8598C45.7351 35.8194 45.7944 35.3344 45.8538 34.5465V34.4656C45.8934 34.405 45.8934 34.3444 45.8934 34.2635Z" fill="url(#paint0_linear_424_687)"/>
</g>
</g>
</g>
</g>
<defs>
<linearGradient id="paint0_linear_424_687" x1="27.6544" y1="7.57227" x2="27.6544" y2="50.4244" gradientUnits="userSpaceOnUse">
<stop offset="0.398" stop-color="#1466AC"/>
<stop offset="0.659" stop-color="#EF4058"/>
</linearGradient>
</defs>
</svg>
