<svg width="46" height="42" viewBox="0 0 46 42" fill="none" xmlns="http://www.w3.org/2000/svg">
<g id="&#208;&#160;&#208;&#181;&#208;&#182;&#208;&#184;&#208;&#188;_&#208;&#184;&#208;&#183;&#208;&#190;&#208;&#187;&#209;&#143;&#209;&#134;&#208;&#184;&#208;&#184;" clip-path="url(#clip0_424_712)">
<path id="Vector" d="M45.4027 19.6888L46.0003 17.7943L44.0248 17.8565C43.1039 17.821 42.2141 17.5146 41.4676 16.9759C41.5556 16.9876 41.6442 16.9948 41.7329 16.9974C42.9441 16.9974 44.1144 16.274 44.5862 15.242L45.4356 13.3758C44.7533 13.3807 44.0713 13.3407 43.3943 13.256C43.3864 13.256 42.6186 13.1576 41.7307 12.259C41.4376 11.9496 41.0846 11.7027 40.693 11.5332C40.3014 11.3638 39.8793 11.2754 39.4524 11.2734C39.1147 11.2745 38.7793 11.3275 38.4578 11.4305C38.506 11.2787 38.5439 11.1239 38.5712 10.967C38.8434 9.21954 37.7082 7.88687 37.7082 7.88913L36.2238 6.06702L35.3041 8.20788C35.3041 8.21467 35.0671 8.71541 34.6509 8.96069C34.493 8.19734 34.1132 7.49719 33.5588 6.94755C33.0969 6.47791 32.5449 6.10577 31.9357 5.85332C31.3264 5.60086 30.6724 5.47325 30.0127 5.47811C29.7808 5.47691 29.5491 5.49354 29.3198 5.52784L27.528 5.87712C27.6798 5.27346 27.9247 4.69692 28.2538 4.16804L29.2426 2.63982L26.7478 2.92127L25.9539 1.25289L24.4298 2.043L23.0043 0.653809L21.5879 2.043L20.0479 1.25854L19.254 2.92693L16.7682 2.64547L17.7594 4.17369C18.0879 4.70191 18.3324 5.27768 18.484 5.88051L16.7728 5.54141L16.7183 5.53689C16.4807 5.50173 16.2407 5.48548 16.0005 5.48828C15.3412 5.48363 14.6878 5.61133 14.0791 5.86379C13.4705 6.11625 12.9191 6.48829 12.4577 6.95773C11.9018 7.50687 11.5204 8.20704 11.3611 8.97086C10.9483 8.72897 10.7181 8.23501 10.7181 8.23501L9.79502 6.08736L8.28675 7.92191C8.09963 8.14232 7.1924 9.39474 7.43962 10.9704C7.46776 11.1264 7.50564 11.2804 7.55303 11.4316C7.23178 11.3295 6.89678 11.2769 6.55961 11.2756C6.13262 11.2776 5.71046 11.3658 5.31867 11.535C4.92688 11.7043 4.57359 11.9509 4.28019 12.2602C3.39564 13.1554 2.6313 13.256 2.6381 13.256C1.95766 13.3564 1.26967 13.3969 0.582094 13.3769L1.42695 15.2431C1.89644 16.2774 3.07017 16.9986 4.28019 16.9986C4.37092 16.9986 4.45824 16.9861 4.54783 16.9782C3.80792 17.5117 2.92777 17.8182 2.01552 17.8599L0.00146484 17.7943L0.610445 19.6865C0.917769 20.662 1.9418 22.2772 3.89916 22.4513C3.68596 23.3375 3.21873 24.3299 2.17315 24.7572L0.675084 25.3687L1.49273 26.7783C1.95315 27.539 3.03502 28.4286 4.57731 28.4286C4.90155 28.428 5.22489 28.3947 5.54238 28.3291C5.62321 28.6805 5.722 29.0276 5.83836 29.369C6.29198 30.7254 5.903 31.667 5.89733 31.6772L5.15794 33.2133L6.8091 33.644C7.18319 33.738 7.56753 33.7855 7.95334 33.7853C8.22536 33.7867 8.49664 33.7571 8.76191 33.6971C8.95177 33.6526 9.13792 33.5936 9.31872 33.5208C9.53027 33.8992 9.79151 34.2477 10.0955 34.5573C11.1536 35.6334 12.6517 36.1782 14.5512 36.1782H14.5637L15.9245 36.1612L13.1234 37.3131L15.2497 38.3304C16.1006 38.7585 16.9726 39.1433 17.8626 39.4833L17.5972 40.2022L18.3309 40.5289C18.3956 40.5571 19.8052 41.1833 22.1492 41.3201C22.1492 41.3201 22.7163 41.3461 23.0258 41.3461C23.3354 41.3461 23.8968 41.3201 23.8968 41.3201C26.225 41.1833 27.6244 40.565 27.6901 40.5345L28.4239 40.2022L28.1562 39.481C29.0584 39.1378 29.9426 38.7492 30.8054 38.3168L32.8931 37.3131L30.1 36.1578L31.4608 36.1748C33.3615 36.1748 34.8629 35.6288 35.9187 34.5528C36.2214 34.2424 36.4825 33.8944 36.6955 33.5174C36.8758 33.5907 37.0616 33.6496 37.2512 33.6937C37.5157 33.7537 37.7863 33.7833 38.0575 33.7819C38.4397 33.7806 38.8203 33.7343 39.1916 33.644L40.8495 33.2088L40.1271 31.702C40.1101 31.6636 39.7144 30.7209 40.1736 29.3656C40.287 29.0197 40.3891 28.6716 40.4685 28.3257C40.7881 28.3925 41.1138 28.4258 41.4404 28.4252C42.0545 28.4324 42.6604 28.2833 43.2006 27.992C43.7407 27.7006 44.1974 27.2766 44.5272 26.7602L45.3358 25.3653L43.8377 24.7561C42.7955 24.3277 42.3249 23.3341 42.1128 22.4491C44.0475 22.2852 45.0863 20.6699 45.4016 19.6888H45.4027ZM18.6144 6.53385H18.594L18.611 6.51237L18.6144 6.53385Z" fill="white"/>
<path id="Vector_2" d="M23.0049 6.4502C21.4172 6.4502 20.2299 6.96676 19.9702 7.57149L23.0049 8.75835L26.0407 7.57149C25.7833 6.96676 24.5937 6.45246 23.0049 6.4502Z" fill="white"/>
<path id="Vector_3" d="M23.0356 37.8533H22.9755C21.9895 37.8432 21.0081 37.7169 20.0519 37.4769L19.2842 39.5342C19.7911 39.7127 21.5046 40.0541 23.0061 40.0541C24.5076 40.0541 26.2211 39.715 26.7257 39.5342L25.9591 37.4769C25.0029 37.7163 24.0215 37.8415 23.0356 37.8499V37.8533Z" fill="white"/>
<path id="Vector_4" d="M28.8442 35.8086C28.2772 36.1285 26.998 36.61 26.2563 36.8327L26.8789 38.5282C27.8717 38.271 28.8366 37.9166 29.7594 37.4702L28.4677 37.0441L28.8442 35.8086Z" fill="white"/>
<path id="Vector_5" d="M17.1715 35.8086L17.5537 37.0441L16.2598 37.4702C17.1811 37.9172 18.1444 38.2727 19.1357 38.5316L19.7583 36.8361C19.02 36.61 17.7431 36.1307 17.1715 35.812V35.8086Z" fill="white"/>
<path id="Vector_6" d="M23.0052 4.48343C24.2017 4.48343 25.3743 4.76602 26.2758 5.2645C26.3735 4.93888 26.4921 4.61984 26.6308 4.30936L26.2906 4.35118L25.9322 4.38735L25.7814 4.06634L25.3278 3.1112L24.4965 3.54073L24.1733 3.70463L23.9125 3.45369L23.0052 2.5675L22.1071 3.45369L21.8485 3.70576L21.5253 3.54186L20.6873 3.11459L20.2337 4.06973L20.0783 4.39075L19.7211 4.35458L19.3809 4.31275C19.5203 4.62139 19.64 4.93852 19.7392 5.26224C20.6464 4.76376 21.8122 4.48117 23.0052 4.48117V4.48343Z" fill="white"/>
<path id="Vector_7" d="M4.27629 15.5913C4.4349 15.5921 4.5925 15.5661 4.74238 15.5144C5.66322 15.2069 5.98982 13.8438 7.60469 12.9949C7.29143 12.7963 6.92917 12.6879 6.55797 12.6818C6.31964 12.6838 6.08432 12.7351 5.86687 12.8323C5.64943 12.9296 5.45459 13.0708 5.29466 13.2469C3.96329 14.5886 2.72266 14.6633 2.72266 14.6633C2.94946 15.1583 3.6004 15.5924 4.27629 15.5924V15.5913Z" fill="white"/>
<path id="Vector_8" d="M41.7018 21.0554H41.78C43.4686 21.0554 44.0413 19.2638 44.0413 19.2638H44.0084C43.1207 19.2345 42.25 19.0131 41.4567 18.6149C40.6635 18.2167 39.9666 17.6513 39.4144 16.9579C38.2463 15.4884 37.2892 14.1976 35.3976 13.6889L35.2117 13.6573L35.1708 13.4696C35.1187 13.1825 35.3171 12.9158 35.7662 12.6253C38.3745 10.9298 36.6043 8.77534 36.6043 8.77534C36.6043 8.77534 35.8592 10.5025 34.1922 10.5025H34.0674C33.881 10.4984 33.6952 10.4795 33.5117 10.446L33.2044 10.3872C33.2044 10.3872 33.6784 9.10653 32.5331 7.93097C32.2045 7.5973 31.8115 7.33336 31.3779 7.15503C30.9442 6.9767 30.4789 6.88768 30.0098 6.89332C29.8423 6.89133 29.6749 6.9042 29.5097 6.93175C30.0858 7.67891 30.502 8.9155 29.8363 9.67961C29.2614 10.3352 27.8574 10.368 27.8574 11.3457C27.8574 11.7606 28.2487 12.2444 28.9495 12.6795C31.0622 13.9964 33.1579 15.7439 34.0289 18.086C35.1175 21.0068 33.8905 22.9464 32.1396 24.0564C32.5203 24.3759 32.9892 24.573 33.4845 24.6216C33.6456 24.6374 33.8043 24.6442 33.9529 24.6442C35.6335 24.6442 36.5033 23.8643 36.5033 23.8643C36.3563 24.6365 36.0038 25.3552 35.4827 25.9452C34.6753 26.8699 33.6161 27.4147 32.0001 27.4373C32.0001 27.4373 31.9479 28.181 32.6646 28.8242C33.1182 29.2289 34.1797 29.3623 34.1797 29.3623C34.1797 29.3623 32.1997 29.759 31.9808 32.6572C31.8662 34.2227 31.4603 34.7642 31.4603 34.7642H31.4966C36.0928 34.7642 35.9737 30.8588 35.9737 30.8588C36.0935 31.218 36.3038 31.5405 36.5843 31.7956C36.8648 32.0507 37.2063 32.2298 37.5761 32.3158C37.7321 32.3554 37.8926 32.3744 38.0536 32.3724C38.3157 32.3711 38.5768 32.3392 38.8315 32.2774C38.8315 32.2774 38.1613 30.8747 38.8315 28.9135C39.3838 27.2847 39.2942 26.0786 39.2942 26.0786C39.2942 26.0786 39.9134 27.0055 41.4489 27.0145H41.4636C41.8237 27.0203 42.1795 26.9359 42.4984 26.7693C42.8174 26.6026 43.0893 26.359 43.2894 26.0605C40.2275 24.8013 40.528 20.7344 40.528 20.7344C40.528 20.7344 40.9261 21.0271 41.7018 21.0565V21.0554ZM40.7798 25.3021C39.5323 24.6939 38.7453 23.0787 38.5548 22.4954C38.3484 25.6999 36.7687 27.9211 34.9259 30.0687C34.3618 30.7112 33.9237 31.4535 33.6342 32.2571C33.7852 31.4469 34.1329 30.6858 34.6469 30.0405C36.3706 27.99 38.0071 25.4388 38.1284 22.4875C38.2253 20.6959 37.7775 18.9168 36.8435 17.3829C37.3051 18.8116 37.2439 20.5671 35.6562 22.2061C35.6562 22.2061 38.81 18.4612 34.3997 14.6226C32.634 13.1622 30.7039 12.2602 29.7093 11.6215C33.3019 12.7824 35.0552 11.5085 35.0552 11.5085C33.9075 12.493 32.4231 12.4761 31.5022 12.3348C31.7517 12.4557 32.0114 12.5823 32.296 12.7304C35.316 14.3547 38.0377 17.0359 38.506 20.7479V20.7185C39.2114 24.3639 40.7798 25.2998 40.7798 25.2998V25.3021Z" fill="white"/>
<path id="Vector_9" d="M11.8271 29.3589C11.8271 29.3589 12.8852 29.2278 13.3433 28.8208C14.0578 28.1777 14.0079 27.4339 14.0079 27.4339C12.3896 27.4124 11.3315 26.8687 10.5196 25.943C10.0021 25.3514 9.65216 24.6331 9.50573 23.862C9.50573 23.862 10.3744 24.6431 12.055 24.6431C12.2059 24.6431 12.3624 24.6363 12.5245 24.6205C13.0205 24.5717 13.4901 24.3747 13.8718 24.0553C12.1197 22.9442 10.8915 21.0034 11.9791 18.0837C12.8511 15.7439 14.9457 13.9953 17.0584 12.6784C17.7604 12.2432 18.1505 11.7606 18.1505 11.3446C18.1505 10.3669 16.7488 10.3341 16.1739 9.67849C15.5071 8.91438 15.9255 7.67553 16.5005 6.93063C16.3356 6.90295 16.1686 6.89008 16.0015 6.8922C15.5328 6.8868 15.0679 6.97594 14.6346 7.15427C14.2014 7.33259 13.8088 7.59641 13.4805 7.92985C12.3306 9.10541 12.808 10.3861 12.808 10.3861L12.4996 10.4449C12.3162 10.4784 12.1303 10.4973 11.9439 10.5014H11.8214C10.151 10.5014 9.40933 8.77648 9.40933 8.77648C9.40933 8.77648 7.63797 10.9343 10.2451 12.6264C10.6987 12.9158 10.8904 13.1837 10.8394 13.4697L10.7974 13.6573L10.608 13.6901C8.71984 14.1999 7.75931 15.4918 6.59238 16.9613C6.04037 17.6539 5.34393 18.2186 4.55128 18.6164C3.75864 19.0141 2.88873 19.2354 2.00179 19.2649H1.96777C1.96777 19.2649 2.53479 21.0565 4.22791 21.0565H4.30956C5.08525 21.0283 5.48443 20.7344 5.48443 20.7344C5.48443 20.7344 5.78381 24.8036 2.72304 26.0605C2.92396 26.361 3.19736 26.6063 3.51816 26.7739C3.83896 26.9416 4.19687 27.0263 4.55905 27.0202H4.57493C6.11155 27.0112 6.7296 26.0843 6.7296 26.0843C6.7296 26.0843 6.64001 27.2903 7.19115 28.9192C7.85684 30.8803 7.19115 32.2831 7.19115 32.2831C7.44329 32.3442 7.70168 32.3761 7.96117 32.378C8.12174 32.3803 8.28191 32.3613 8.43746 32.3215C8.80708 32.2351 9.14837 32.0558 9.42884 31.8008C9.70932 31.5458 9.91967 31.2234 10.0399 30.8645C10.0399 30.8645 9.91398 34.7642 14.5159 34.7642H14.5477C14.5477 34.7642 14.1451 34.2182 14.0283 32.6493C13.8083 29.7511 11.8271 29.3544 11.8271 29.3544V29.3589ZM11.0888 30.0642C9.24263 27.9233 7.66518 25.7 7.45992 22.4909C7.2694 23.0719 6.48465 24.6894 5.23834 25.2976C5.23834 25.2976 6.80445 24.3616 7.50642 20.7163V20.7479C7.97251 17.0359 10.6931 14.3525 13.7232 12.7225C13.9999 12.5722 14.263 12.4456 14.517 12.3269C13.5962 12.4682 12.1106 12.4851 10.963 11.5006C10.963 11.5006 12.7173 12.779 16.3088 11.6136C15.3143 12.2523 13.3841 13.1543 11.6184 14.6147C7.20703 18.4579 10.3631 22.1982 10.3631 22.1982C8.77541 20.558 8.71303 18.8071 9.17912 17.3705C8.24431 18.9039 7.7968 20.6834 7.89539 22.4751C8.0156 25.4264 9.65202 27.9776 11.3712 30.028C11.8877 30.6729 12.2381 31.4339 12.3919 32.2446C12.1002 31.4416 11.6615 30.6996 11.0979 30.0563L11.0888 30.0642Z" fill="white"/>
<path id="Vector_10" d="M19.6075 15.0826C19.6835 15.1629 19.7572 15.2499 19.8275 15.3369C19.8452 15.3572 19.8619 15.3783 19.8774 15.4002C19.9432 15.4873 20.0101 15.5788 20.0736 15.6727L20.1167 15.736C20.1938 15.849 20.2664 15.9711 20.3435 16.0931C21.0058 17.2235 22.0672 17.9017 23.0085 17.9017C23.9497 17.9017 25.0101 17.2235 25.6757 16.0931C25.7494 15.9677 25.8243 15.8445 25.9025 15.7303C25.9139 15.7133 25.9264 15.6987 25.9366 15.6806C26.0023 15.5834 26.0715 15.4884 26.143 15.3969L26.186 15.3415C26.2609 15.2522 26.3357 15.1629 26.4129 15.0815C26.4265 15.0679 26.4367 15.0555 26.448 15.0453C26.7944 14.686 27.2322 14.4274 27.7147 14.297L27.4811 14.1625H27.4675L26.5297 13.6267L25.5714 13.083L23.0107 14.4621H23.0039L20.4365 13.0819L19.4805 13.6267L18.5449 14.1636H18.5324L18.2954 14.2993C18.7784 14.4275 19.2169 14.6851 19.5633 15.0442C19.5791 15.0577 19.5893 15.0724 19.6052 15.086L19.6075 15.0826ZM21.9686 14.9696H24.1346V15.7066C23.8794 15.398 23.385 15.4601 23.385 15.4601V16.5227C23.385 16.5227 23.4031 17.0438 23.588 17.271H22.5152C22.7023 17.0449 22.7204 16.5227 22.7204 16.5227V15.4601C22.7204 15.4601 22.226 15.398 21.9686 15.7066V14.9696Z" fill="white"/>
<path id="Vector_11" d="M22.7841 13.5443V9.23313L20.0137 8.30286L20.7451 12.4851L22.7841 13.5443ZM22.1888 10.2923V10.984L22.0549 10.923C21.8542 10.8514 21.6684 10.7433 21.5072 10.6042C20.9402 10.1679 20.9288 9.76552 20.9288 9.76552L22.1888 10.2923Z" fill="white"/>
<path id="Vector_12" d="M25.2688 12.4806L25.9969 8.29834L23.2275 9.23313V13.5443L25.2688 12.4806ZM23.8229 10.2923L25.0828 9.76665C25.0828 9.76665 25.0726 10.1691 24.5033 10.6054C24.3421 10.7445 24.1564 10.8526 23.9556 10.9241L23.8218 10.9852V10.2923H23.8229Z" fill="white"/>
<path id="Vector_13" d="M18.8661 23.5365C19.1126 23.6159 19.3702 23.656 19.6293 23.6552C19.6372 23.6337 19.6451 23.6088 19.6542 23.5783C19.6702 23.5282 19.6835 23.4772 19.6939 23.4257C19.7342 23.2018 19.7566 22.975 19.7608 22.7475C19.6067 22.657 19.4811 22.5255 19.3979 22.3677C19.3635 22.2732 19.3001 22.1919 19.2166 22.1354C19.1331 22.079 19.0338 22.0503 18.933 22.0535C18.6809 22.074 18.4382 22.158 18.2276 22.2976C18.1267 22.8922 18.5678 23.428 18.8661 23.541V23.5365Z" fill="white"/>
<path id="Vector_14" d="M24.9965 21.2498C24.4817 21.8025 23.4758 22.7678 23.4248 22.8175L23.3646 22.8786L20.1893 22.8288C20.1866 23.0894 20.152 23.3487 20.0861 23.6009C20.0771 23.6336 20.0691 23.6676 20.0601 23.7015L23.8455 24.3797C24.2401 24.1073 25.3197 23.3228 25.7439 23.0165C25.4838 22.6219 25.3882 22.1418 25.4774 21.6782C25.2941 21.5633 25.1315 21.4185 24.9965 21.2498Z" fill="white"/>
<path id="Vector_15" d="M25.4254 17.4586C24.6917 18.1798 23.9885 18.4454 23.3603 18.5076C23.2469 18.5189 23.1335 18.5268 23.0201 18.5268H23.0042C22.8908 18.5268 22.7706 18.5189 22.6572 18.5076C22.5428 18.4971 22.4291 18.4794 22.317 18.4545C22.2413 18.7269 22.2584 19.0167 22.3657 19.2785C22.4984 19.5701 22.7683 19.786 23.1596 19.9295L23.2911 19.9804V20.1217C23.3059 20.4102 23.4161 20.6857 23.6044 20.9053C23.7927 21.1249 24.0486 21.2762 24.3322 21.3357C24.4977 21.1673 24.6474 21.0147 24.7574 20.8836C24.5499 20.402 24.6588 19.9115 24.9581 19.6718C24.9445 19.7227 24.8141 20.9254 25.7883 21.373L25.9482 21.4476L25.9039 21.6194C25.8892 21.6703 25.5637 22.8345 26.742 23.2674L26.9507 23.3466L26.8577 23.5466C26.8373 23.5919 26.3734 24.6487 27.4632 25.2478H29.8277V23.3907C28.9874 23.2878 28.6313 22.6198 28.5394 22.1473C28.1846 22.1028 27.8615 21.9209 27.6401 21.6409C27.4992 21.4618 27.4174 21.2436 27.4061 21.0163C27.3947 20.7889 27.4543 20.5637 27.5766 20.3715C27.5766 20.3772 27.5766 21.0068 27.9679 21.3956C28.1717 21.6075 28.4456 21.7388 28.739 21.7652L28.9114 21.7799L28.9273 21.954C28.9273 21.9913 29.0248 22.8436 29.8254 22.9781V19.179C29.8254 18.5912 29.999 18.0001 30.2065 17.4541H25.4254V17.4586Z" fill="white"/>
<path id="Vector_16" d="M19.0664 19.1971L19.0029 21.6138L19.2808 21.6556L19.9612 19.3373L19.621 18.624L19.0664 19.1971Z" fill="white"/>
<path id="Vector_17" d="M26.541 30.2812C26.5639 30.2815 26.5868 30.2845 26.609 30.2902C27.0309 30.4089 27.1363 31.9157 27.8769 32.0502C27.9418 32.0634 28.008 32.0694 28.0742 32.0683C28.1683 32.0684 28.261 32.0457 28.3444 32.0022C28.4278 31.9587 28.4993 31.8956 28.5528 31.8184C28.5528 31.8184 28.1808 31.2386 27.903 30.8486C27.5321 30.3377 27.2452 29.7183 26.5569 29.7183C26.5391 29.7172 26.5213 29.7172 26.5036 29.7183C26.3724 29.7229 26.2453 29.7649 26.1373 29.8392C25.907 29.6886 25.6381 29.6073 25.3627 29.6052C24.9306 29.6052 24.595 29.8019 24.4283 29.8019H24.4215L22.8826 29.6516C22.6422 29.6301 22.4528 29.3893 22.3836 29.2955C22.3666 29.2695 22.3586 29.2548 22.3586 29.2548C22.361 29.2146 22.361 29.1742 22.3586 29.1339C22.3076 27.8905 21.338 27.3536 20.9876 27.3457C20.9876 27.3457 21.0284 27.1083 20.9343 27.0179L20.5941 27.4259L19.4805 26.8721L20.2743 27.791L19.6018 28.5382C19.5684 28.5696 19.5464 28.6111 19.5392 28.6563C19.532 28.7015 19.5401 28.7479 19.5621 28.788L19.8524 29.0412L20.221 28.8151C20.2497 28.8007 20.282 28.7948 20.314 28.7982C20.416 28.7982 20.568 28.8242 20.7063 28.8242C20.8447 28.8242 20.9865 28.7914 21.0023 28.6512C20.9558 29.1135 20.5238 29.9161 20.8073 30.5468L21.0137 31.034L19.6528 30.8396L19.0155 31.9044C18.8193 32.2593 18.7887 32.6425 18.9781 32.8505L19.2128 33.1409C19.2128 33.1409 19.5474 32.7894 19.6222 32.56L19.5145 32.4469C19.4746 32.4097 19.4495 32.3593 19.4438 32.3051C19.4382 32.2509 19.4524 32.1965 19.4839 32.1519L19.8932 31.4861L21.4979 31.8614L21.583 31.719C21.6262 31.6443 21.6894 31.583 21.7654 31.5419C21.8415 31.5008 21.9275 31.4815 22.0139 31.4861C22.0873 31.487 22.1605 31.4938 22.2328 31.5065C22.6537 31.5911 23.0815 31.6368 23.5108 31.6432C24.0495 31.6432 24.5836 31.5472 24.8717 31.2318C25.4534 32.0863 26.6317 32.222 26.5387 32.6549L26.2291 34.1176C26.4344 34.1097 26.6317 34.0961 26.8199 34.0701L27.1137 32.5475C27.1466 32.3825 27.1772 32.1598 27.1772 32.1598C26.9647 31.9713 26.7816 31.7522 26.634 31.5099C26.4253 31.1142 26.5387 30.9085 26.3448 30.3942C26.3674 30.3614 26.3972 30.3341 26.432 30.3145C26.4668 30.2949 26.5056 30.2835 26.5455 30.2812H26.541ZM20.5362 28.1437C20.5177 28.1433 20.4994 28.1391 20.4825 28.1314C20.4656 28.1237 20.4504 28.1126 20.438 28.0988C20.4256 28.0851 20.4161 28.0689 20.4102 28.0514C20.4043 28.0338 20.402 28.0152 20.4036 27.9968C20.4062 27.9604 20.4232 27.9265 20.4508 27.9025C20.4784 27.8786 20.5145 27.8665 20.551 27.869C20.5697 27.8695 20.5881 27.8736 20.6052 27.8813C20.6223 27.889 20.6376 27.9 20.6503 27.9137C20.663 27.9274 20.6728 27.9436 20.6791 27.9611C20.6854 27.9787 20.6881 27.9973 20.6871 28.016C20.6836 28.052 20.6664 28.0854 20.639 28.1092C20.6115 28.133 20.576 28.1453 20.5396 28.1437H20.5362Z" fill="white"/>
<path id="Vector_18" d="M18.3441 31.6648C18.3441 31.6648 18.876 31.4489 18.9236 31.2929L18.8533 31.1177C18.8235 31.0682 18.8125 31.0098 18.8223 30.953C18.8321 30.8961 18.862 30.8447 18.9066 30.808L19.4816 30.4135L20.4421 30.5966C20.3345 30.4513 20.2793 30.274 20.2856 30.0936L19.3693 29.9037L18.5063 30.4248C18.3555 30.5348 18.2463 30.6922 18.1963 30.8716C18.1463 31.0511 18.1584 31.2421 18.2307 31.4138L18.3441 31.6648Z" fill="white"/>
<path id="Vector_19" d="M25.1313 34.1436C25.303 34.1368 25.492 34.1334 25.6984 34.1334C25.6984 34.1334 26.1928 32.7024 26.22 32.6572C25.9433 32.5363 25.3684 32.2345 25.1461 32.092C25.2935 32.3079 25.6496 32.5566 25.5793 32.7476L25.1313 34.1436Z" fill="white"/>
<path id="Vector_20" d="M29.8322 25.6626H16.1807V30.7491C16.1807 32.829 17.7003 34.13 19.9423 34.13C21.8168 34.13 22.3101 34.2023 23.0042 34.8873C23.4839 34.4137 23.8819 34.2362 24.6973 34.1695L24.7166 34.0916L25.1464 32.7736L24.4183 31.9529C24.1243 32.0404 23.8174 32.0763 23.5111 32.0592C23.058 32.054 22.6063 32.0078 22.1616 31.9213C22.1148 31.9101 22.0668 31.9048 22.0187 31.9055C21.9586 31.9055 21.9529 31.9111 21.9382 31.9394L21.852 32.0795L21.6955 32.335L21.4018 32.2683L20.092 31.9631L19.9128 32.2559L19.94 32.2875L20.0999 32.4605L20.0296 32.6865C19.9332 32.9827 19.6202 33.3286 19.5249 33.4247L19.1983 33.7728L18.9012 33.3987L18.6744 33.1206C18.4397 32.8606 18.3841 32.4593 18.5168 32.0411C18.5124 32.0428 18.5076 32.0428 18.5032 32.0411L18.1335 32.1926L17.9656 31.8399L17.8522 31.5867C17.7393 31.3281 17.7189 31.0387 17.7945 30.7669C17.87 30.4951 18.037 30.2574 18.2673 30.0935L19.322 29.5035L20.3256 29.7002C20.3494 29.6041 20.3857 29.2639 20.4152 29.1768C20.396 29.1735 20.3767 29.1712 20.3573 29.17L19.7801 29.3826L19.2199 28.9994C19.2199 28.9994 19.001 28.7914 19.1995 28.5834L19.7393 27.7729L18.3716 26.0774L20.4741 26.932L20.6136 26.7602L20.8971 26.4211L21.2192 26.724C21.3037 26.8066 21.3623 26.9118 21.3882 27.0269C21.9677 27.253 23.0053 27.9097 23.096 28.9813L22.7717 29.1124V29.1214C22.8115 29.176 22.8646 29.2195 22.9259 29.248L24.4297 29.3927C24.4682 29.3859 24.517 29.369 24.5691 29.3543C24.8233 29.2593 25.0916 29.2073 25.363 29.2006C25.6341 29.2016 25.9017 29.2622 26.1466 29.378C26.256 29.3386 26.3706 29.3154 26.4868 29.3091H26.5594C27.3634 29.3091 27.7615 29.9036 28.0824 30.3784C28.1357 30.4598 28.189 30.5378 28.2434 30.6146C28.5247 31.0069 28.891 31.5811 28.9068 31.6048L29.0724 31.8603L28.8683 32.0942C28.7746 32.2152 28.6543 32.3131 28.5167 32.3805C28.3791 32.4479 28.2278 32.483 28.0745 32.4831C27.983 32.4824 27.8919 32.4729 27.8023 32.4548C27.7202 32.4398 27.6399 32.4159 27.563 32.3836C27.5517 32.4616 27.5358 32.5566 27.5199 32.6357L27.2568 33.9921C28.832 33.6089 29.8311 32.4311 29.8311 30.748L29.8322 25.6626Z" fill="#FFDD2D"/>
<path id="Vector_21" d="M16.1804 25.2535H26.7961C26.5852 25.0346 26.4379 24.7627 26.3698 24.4669C26.3017 24.1711 26.3154 23.8625 26.4094 23.5738C26.2682 23.5065 26.1364 23.4214 26.017 23.3206C25.602 23.6235 24.3352 24.538 24.0052 24.7652L23.9349 24.8138L19.7685 24.0678H19.6845C19.5489 24.0677 19.4134 24.0601 19.2786 24.0451C19.2581 24.1338 19.2082 24.2129 19.137 24.2697C19.0658 24.3266 18.9774 24.3578 18.8862 24.3583C18.8637 24.3588 18.8412 24.3565 18.8193 24.3515C18.7662 24.3435 18.7152 24.325 18.6694 24.2971C18.6236 24.2691 18.584 24.2323 18.5528 24.1887C18.5204 24.1457 18.4972 24.0965 18.4847 24.0442C18.4722 23.9919 18.4707 23.9376 18.4802 23.8846L18.4949 23.7965C18.0651 23.4958 17.6694 22.8255 17.8451 22.1202L17.8621 22.0456L17.9223 22.0026C17.9313 21.9958 18.0028 21.9484 18.1094 21.8896L17.8077 21.8432C17.7537 21.8346 17.7053 21.8051 17.673 21.761C17.6407 21.717 17.6272 21.6621 17.6353 21.6081C17.6393 21.5813 17.6487 21.5555 17.6628 21.5322C17.677 21.509 17.6956 21.4889 17.7177 21.473C17.7398 21.4571 17.7649 21.4457 17.7914 21.4396C17.818 21.4335 17.8455 21.4328 17.8724 21.4374L18.5936 21.5505L18.6594 19.0343L19.7333 17.9097L20.4024 19.3056L19.6948 21.7257L20.3309 21.8252C20.3849 21.8295 20.435 21.855 20.4701 21.8962C20.5052 21.9373 20.5224 21.9906 20.5181 22.0444C20.5137 22.0983 20.4881 22.1481 20.4468 22.1831C20.4056 22.2181 20.352 22.2353 20.2981 22.2309C20.2875 22.2321 20.2769 22.2321 20.2663 22.2309L19.7481 22.1473C19.7549 22.162 19.7651 22.171 19.7719 22.188C19.8301 22.2868 19.9171 22.3657 20.0214 22.4141L23.1967 22.4638C23.3316 22.3338 23.665 22.0117 24.0075 21.6726C23.7093 21.5646 23.4471 21.376 23.2504 21.1278C23.0537 20.8796 22.9302 20.5817 22.8939 20.2675C22.4976 20.1198 22.1731 19.8266 21.9866 19.448C21.8387 19.0979 21.8116 18.7086 21.9095 18.3414C21.4095 18.1476 20.9579 17.8475 20.5861 17.462H15.8027C16.0069 18.008 16.1804 18.5992 16.1804 19.1869V25.2535Z" fill="#FFDD2D"/>
<path id="Vector_22" d="M20.5533 27.869C20.5344 27.8666 20.5153 27.8681 20.497 27.8735C20.4787 27.8788 20.4618 27.8878 20.4472 27.8999C20.4326 27.9121 20.4206 27.9271 20.4121 27.9441C20.4036 27.961 20.3987 27.9795 20.3977 27.9985C20.3966 28.0174 20.3996 28.0363 20.4062 28.0541C20.4129 28.0718 20.4231 28.088 20.4363 28.1017C20.4496 28.1153 20.4655 28.1261 20.483 28.1333C20.5006 28.1405 20.5195 28.1441 20.5385 28.1437C20.5574 28.1461 20.5766 28.1446 20.5948 28.1393C20.6131 28.1339 20.63 28.1249 20.6446 28.1128C20.6593 28.1006 20.6712 28.0856 20.6797 28.0687C20.6882 28.0517 20.6931 28.0332 20.6942 28.0143C20.6952 27.9953 20.6923 27.9764 20.6856 27.9586C20.679 27.9409 20.6687 27.9247 20.6555 27.911C20.6423 27.8974 20.6264 27.8867 20.6088 27.8794C20.5912 27.8722 20.5723 27.8686 20.5533 27.869Z" fill="black"/>
<path id="Vector_23" d="M29.8126 37.0915L29.0267 36.7987L29.2433 35.9939L29.4825 35.1168C28.4098 35.6582 27.2872 36.0954 26.1303 36.4223C25.5735 36.5806 25.1517 36.6484 25.1517 36.6484V37.2508C24.4533 37.3636 23.7475 37.424 23.0401 37.4317H22.98C22.2707 37.4242 21.5629 37.3638 20.8627 37.2508V36.6518C20.8627 36.6518 20.4397 36.5806 19.884 36.4257C18.7257 36.0974 17.602 35.6583 16.5284 35.1145L16.7643 35.9916L16.9911 36.7965L16.203 37.0949L15.3286 37.4193C16.3322 37.8974 17.7203 38.596 18.9916 38.9407L18.6922 39.7523C18.6922 39.7523 20.3048 40.4802 22.9913 40.487H23.0287C25.7187 40.4802 27.329 39.7523 27.329 39.7523L27.0285 38.9407C28.2997 38.596 29.6912 37.8974 30.6903 37.4193L29.8126 37.0915ZM16.2574 37.4701L17.5513 37.044L17.1714 35.8085C17.7384 36.1284 19.0199 36.6088 19.7604 36.8326L19.1356 38.5281C18.1453 38.2674 17.1825 37.912 16.2608 37.4667L16.2574 37.4701ZM23.0072 40.0575C21.5046 40.0575 19.7888 39.7184 19.2853 39.5375L20.053 37.4769C21.0093 37.716 21.9907 37.8412 22.9766 37.8499H23.0367C24.0225 37.8408 25.0038 37.7156 25.9602 37.4769L26.7257 39.5341C26.2222 39.7127 24.5075 40.0541 23.0072 40.0541V40.0575ZM26.8788 38.5315L26.2562 36.836C26.9979 36.6099 28.2725 36.1318 28.8441 35.8119L28.4642 37.0474L29.7593 37.4701C28.8369 37.9157 27.8733 38.2711 26.8822 38.5315H26.8788Z" fill="black"/>
<path id="Vector_24" d="M23.0065 4.98073C24.6066 4.98073 25.8869 5.50634 26.5934 6.06699C26.7574 5.23133 27.0717 4.43212 27.5211 3.70797L26.2328 3.85265L25.5637 2.43633L24.2619 3.09419L23.0065 1.86438L21.7534 3.09419L20.4606 2.43633L19.7801 3.85265L18.4941 3.70797C18.9441 4.43183 19.2584 5.23114 19.4218 6.06699C20.1306 5.50182 21.4075 4.98073 23.0065 4.98073ZM19.7246 4.35113L20.0829 4.3873L20.2338 4.06629L20.6874 3.11454L21.5232 3.54294L21.8464 3.70684L22.1061 3.45364L23.0133 2.56745L23.9205 3.45364L24.1779 3.70684L24.5023 3.54294L25.3233 3.11454L25.7769 4.06968L25.9289 4.39069L26.2873 4.35452L26.6275 4.3127C26.4899 4.62147 26.3721 4.9386 26.2748 5.26219C25.3675 4.76371 24.1995 4.48112 23.0042 4.48112C21.8089 4.48112 20.642 4.76597 19.7359 5.26219C19.6381 4.93674 19.52 4.61773 19.3821 4.30705L19.7246 4.35113Z" fill="black"/>
<path id="Vector_25" d="M41.7804 21.6036C43.8511 21.6036 44.5429 19.5181 44.5713 19.4288L44.7981 18.6941L44.0212 18.7178C43.2153 18.6906 42.4249 18.4888 41.705 18.1266C40.9852 17.7643 40.353 17.2502 39.8525 16.6199L39.6994 16.4312C38.6402 15.0985 37.6377 13.8314 35.8437 13.2538C35.9143 13.1912 35.9902 13.1349 36.0705 13.0854C37.022 12.4648 37.5765 11.712 37.7149 10.8371C37.9179 9.52138 37.0719 8.47356 37.0344 8.4306L36.4504 7.72527L36.0909 8.56172C36.0671 8.61485 35.4615 9.9543 34.188 9.9543H34.0939C34.0054 9.9543 33.9226 9.94639 33.841 9.93848C33.8852 9.34053 33.7752 8.41478 32.9338 7.54781C32.5527 7.16256 32.0979 6.85765 31.5962 6.65123C31.0945 6.44481 30.5563 6.34109 30.0136 6.34625C29.8109 6.34558 29.6084 6.36069 29.408 6.39147L28.5371 6.56328L29.0746 7.26296C29.4965 7.80326 29.8775 8.80023 29.425 9.32244C29.281 9.48747 28.9828 9.62198 28.697 9.75649C28.1107 10.0244 27.3101 10.3963 27.3101 11.339C27.3101 11.9527 27.7909 12.5937 28.6618 13.1385C31.2395 14.7447 32.8294 16.4165 33.5155 18.2691C34.577 21.1142 33.1923 22.7362 31.8462 23.5907L31.2429 23.9751L31.7702 24.4555C32.2431 24.8546 32.8264 25.1013 33.4429 25.1631C33.6244 25.1755 33.7979 25.1857 33.9601 25.1857C34.4874 25.1871 35.0121 25.1109 35.5171 24.9596C35.3904 25.1791 35.2427 25.3857 35.076 25.5768C34.3071 26.4596 33.3602 26.862 31.9993 26.8823L31.4935 26.8902L31.4538 27.3932C31.4538 27.4938 31.4107 28.4264 32.3021 29.2187C32.4448 29.3429 32.6044 29.4464 32.7761 29.5262C32.1717 30.0642 31.557 31.0024 31.438 32.6086C31.3393 33.9503 31.015 34.4466 31.0116 34.4511L30.4525 35.2977L31.4629 35.3101C33.1322 35.3101 34.4114 34.858 35.296 33.9537C35.7539 33.4796 36.0961 32.9068 36.2962 32.2797C36.7884 32.6955 37.4132 32.9228 38.0585 32.9206C38.3642 32.9169 38.6685 32.879 38.9657 32.8076L39.611 32.6369L39.3252 32.0514C39.3048 32.0039 38.7661 30.808 39.3456 29.1C39.5568 28.4783 39.7039 27.8367 39.7845 27.1852C40.2973 27.4441 40.8654 27.5752 41.4402 27.5673C41.9017 27.5744 42.3575 27.4653 42.7655 27.2501C43.1734 27.0349 43.5203 26.7207 43.774 26.3363L44.0882 25.7949L43.5053 25.5564C41.6001 24.7742 41.1782 22.6695 41.1 21.5392C41.2944 21.5774 41.4916 21.6004 41.6897 21.6081L41.7804 21.6036ZM43.2898 26.0605C43.0887 26.3608 42.8153 26.6058 42.4945 26.7733C42.1737 26.9408 41.8159 27.0253 41.4538 27.0191H41.4402C39.9058 27.0112 39.2855 26.0843 39.2855 26.0843C39.2855 26.0843 39.3751 27.2904 38.8217 28.9192C38.1549 30.8803 38.8217 32.2831 38.8217 32.2831C38.5692 32.3443 38.3104 32.3761 38.0505 32.378C37.8896 32.3801 37.7291 32.3611 37.5731 32.3215C37.2033 32.2355 36.8618 32.0564 36.5813 31.8013C36.3007 31.5462 36.0905 31.2237 35.9707 30.8645C35.9707 30.8645 36.0921 34.7642 31.4958 34.7642H31.4606C31.4606 34.7642 31.8655 34.2182 31.9846 32.6493C32.2034 29.7511 34.1846 29.3544 34.1846 29.3544C34.1846 29.3544 33.1277 29.2232 32.6695 28.8163C31.9539 28.1732 32.0038 27.4294 32.0038 27.4294C33.6221 27.4079 34.6802 26.8642 35.4865 25.9373C36.007 25.347 36.3595 24.6284 36.5071 23.8564C36.5071 23.8564 35.6373 24.6363 33.9567 24.6363C33.8092 24.6363 33.6505 24.6295 33.4883 24.6137C32.9931 24.5648 32.5242 24.3678 32.1433 24.0485C33.8932 22.9363 35.1213 20.9966 34.0326 18.0758C33.1606 15.736 31.0637 13.9874 28.9544 12.6694C28.2524 12.2342 27.8612 11.7527 27.8612 11.3367C27.8612 10.359 29.2663 10.3273 29.8424 9.66946C30.5069 8.90648 30.0907 7.66649 29.5135 6.9216C29.6791 6.89402 29.8468 6.88116 30.0147 6.88317C30.4836 6.87807 30.9486 6.96734 31.3819 7.14564C31.8153 7.32394 32.2081 7.5876 32.5368 7.92082C33.6845 9.09751 33.2082 10.3771 33.2082 10.3771L33.5167 10.437C33.7 10.4704 33.8859 10.4886 34.0723 10.4912H34.1959C35.863 10.4912 36.608 8.76518 36.608 8.76518C36.608 8.76518 38.3783 10.9332 35.77 12.623C35.3164 12.9135 35.1224 13.1803 35.1746 13.4674L35.2154 13.655L35.4014 13.6867C37.293 14.1953 38.249 15.4873 39.4182 16.9556C39.9703 17.6491 40.6672 18.2145 41.4605 18.6127C42.2538 19.0108 43.1245 19.2322 44.0122 19.2615H44.0485C44.0485 19.2615 43.4724 21.0531 41.7804 21.0531H41.6999C40.9231 21.026 40.5261 20.731 40.5261 20.731C40.5261 20.731 40.2222 24.8002 43.2864 26.0605H43.2898Z" fill="black"/>
<path id="Vector_26" d="M38.5065 20.7208V20.7479C38.0416 17.0347 35.3187 14.3536 32.2908 12.7225C32.0107 12.5744 31.7522 12.4489 31.497 12.328C32.4201 12.4693 33.9046 12.4862 35.0511 11.5017C35.0511 11.5017 33.2967 12.779 29.7041 11.6147C30.6987 12.2545 32.6311 13.1565 34.3956 14.6169C38.8093 18.459 35.6567 22.2038 35.6567 22.2038C37.2443 20.5659 37.3067 18.8128 36.8406 17.3772C37.6753 18.7529 38.2083 20.4224 38.1255 22.4818C38.0041 25.432 36.3677 27.9832 34.644 30.0337C34.1311 30.6802 33.7836 31.4413 33.6313 32.2514C33.9206 31.4476 34.3592 30.7052 34.9241 30.0631C36.7703 27.9222 38.3477 25.6977 38.553 22.4898C38.7435 23.0719 39.5305 24.6894 40.778 25.2975C40.778 25.2975 39.2141 24.3639 38.5099 20.7174L38.5065 20.7208Z" fill="black"/>
<path id="Vector_27" d="M15.0021 34.4567C15.0021 34.4567 14.6766 33.956 14.5768 32.6165C14.4566 31.0092 13.8443 30.0721 13.2375 29.5329C13.4104 29.4552 13.5703 29.3515 13.7116 29.2255C14.6007 28.4342 14.5632 27.5006 14.5576 27.4L14.5235 26.897L14.0144 26.8879C12.6535 26.8664 11.7089 26.464 10.9388 25.5824C10.7735 25.391 10.6262 25.1847 10.4988 24.9663C11.0034 25.1178 11.5278 25.194 12.0547 25.1924C12.2192 25.1924 12.3893 25.1822 12.5707 25.1709C13.1877 25.1094 13.7714 24.8627 14.2446 24.4633L14.773 23.9829L14.1686 23.5975C12.8179 22.7418 11.4378 21.1187 12.4981 18.2759C13.1854 16.4266 14.773 14.7514 17.3541 13.1464C18.225 12.6004 18.7013 11.9595 18.7013 11.3457C18.7013 10.3985 17.9075 10.0255 17.3167 9.76325C17.0309 9.62874 16.7326 9.49423 16.5886 9.32806C16.135 8.80811 16.5183 7.81002 16.9379 7.26971L17.4777 6.5689L16.6045 6.39257C16.4043 6.36033 16.2017 6.34482 15.9989 6.34622C15.4565 6.34151 14.9187 6.44555 14.4174 6.65216C13.9162 6.85877 13.4617 7.16373 13.081 7.54891C12.2328 8.41701 12.1205 9.34276 12.1636 9.93958C12.0808 9.94636 11.9992 9.94975 11.9118 9.95427H11.82C10.5431 9.95427 9.93862 8.61482 9.91481 8.56282L9.55532 7.72524L8.97242 8.42718C8.93953 8.47013 8.09014 9.52022 8.292 10.8348C8.42922 11.7086 8.98376 12.4625 9.93522 13.0819C10.0153 13.1322 10.0912 13.1889 10.162 13.2515C8.37138 13.8291 7.36889 15.0973 6.3063 16.43L6.1532 16.6188C5.65165 17.2482 5.0189 17.7614 4.29873 18.1231C3.57856 18.4847 2.78815 18.6861 1.98221 18.7133L1.20312 18.6896L1.44014 19.4243C1.46736 19.5136 2.15798 21.5991 4.22987 21.5991H4.32967C4.52819 21.5917 4.72579 21.5682 4.9205 21.529C4.83318 22.6661 4.41245 24.7674 2.50727 25.5519L1.92551 25.7904L2.24077 26.3329C2.49523 26.7186 2.84356 27.0338 3.25325 27.249C3.66294 27.4643 4.12065 27.5726 4.58369 27.5639C5.15684 27.5699 5.72296 27.4377 6.23372 27.1784C6.31378 27.83 6.46084 28.4716 6.67259 29.0932C7.25209 30.8012 6.71228 31.9971 6.69074 32.0445L6.39815 32.6414L7.04569 32.812C7.34288 32.8836 7.64721 32.9215 7.95292 32.9251C8.15661 32.926 8.35976 32.904 8.5585 32.8595C8.98687 32.7622 9.38504 32.5624 9.71862 32.2774C9.91898 32.9038 10.2608 33.4761 10.7177 33.9503C11.6057 34.8546 12.8815 35.3067 14.5508 35.3067L15.5623 35.292L15.0021 34.4567ZM14.5133 34.7641C9.91708 34.7641 10.0339 30.8588 10.0339 30.8588C9.91427 31.2179 9.70425 31.5404 9.42391 31.7955C9.14356 32.0506 8.80226 32.2297 8.43262 32.3158C8.27667 32.3555 8.11614 32.3745 7.95519 32.3723C7.69797 32.3701 7.44186 32.3383 7.19198 32.2774C7.19198 32.2774 7.85993 30.8746 7.19198 28.9135C6.64197 27.2847 6.73156 26.0786 6.73156 26.0786C6.73156 26.0786 6.11351 27.0055 4.57689 27.0134H4.56101C4.19869 27.021 3.84027 26.9377 3.51866 26.7712C3.19706 26.6047 2.92259 26.3603 2.72047 26.0605C5.78237 24.8002 5.48299 20.7343 5.48299 20.7343C5.48299 20.7343 5.08494 21.0271 4.30699 21.0565H4.22647C2.53675 21.0565 1.9652 19.2649 1.9652 19.2649H2.00035C2.88767 19.2353 3.75791 19.0137 4.55077 18.6155C5.34363 18.2174 6.04016 17.6521 6.59208 16.959C7.76127 15.4896 8.71953 14.1998 10.6066 13.6901L10.796 13.6584L10.8379 13.4708C10.8889 13.1837 10.6928 12.9169 10.2437 12.6264C7.63539 10.9309 9.40789 8.77646 9.40789 8.77646C9.40789 8.77646 10.1496 10.5014 11.82 10.5014H11.9425C12.1289 10.4977 12.3147 10.4792 12.4981 10.446L12.8066 10.3861C12.8066 10.3861 12.3292 9.10539 13.4791 7.92757C13.8074 7.59412 14.2 7.33031 14.6332 7.15198C15.0664 6.97366 15.5314 6.88452 16.0001 6.88992C16.1672 6.8878 16.3342 6.90066 16.499 6.92835C15.9241 7.6755 15.5079 8.9121 16.1724 9.67621C16.7474 10.3329 18.1491 10.3646 18.1491 11.3435C18.1491 11.7572 17.759 12.241 17.057 12.6761C14.9454 13.9941 12.8497 15.7428 11.9788 18.0826C10.8912 21.0034 12.1182 22.943 13.8715 24.0553C13.4897 24.3746 13.0202 24.5716 12.5242 24.6205C12.3621 24.6363 12.2056 24.6431 12.0547 24.6431C10.3752 24.6431 9.50542 23.8631 9.50542 23.8631C9.65154 24.6354 10.0015 25.3548 10.5192 25.9475C11.3312 26.8721 12.3893 27.4169 14.0076 27.4395C14.0076 27.4395 14.0586 28.1833 13.343 28.8265C12.8837 29.2311 11.8268 29.3645 11.8268 29.3645C11.8268 29.3645 13.8091 29.7613 14.0268 32.6595C14.1402 34.2284 14.5462 34.7743 14.5462 34.7743L14.5133 34.7641Z" fill="black"/>
<path id="Vector_28" d="M4.27652 16.1361C4.49539 16.138 4.71305 16.1036 4.92065 16.0344C5.49901 15.8445 5.8653 15.3901 6.25201 14.9176C6.63872 14.4452 7.09347 13.8879 7.86688 13.481L8.66071 13.0582L7.92245 12.545C7.51579 12.2853 7.04455 12.1436 6.5616 12.1359C6.25015 12.1381 5.94243 12.2037 5.65733 12.3286C5.37223 12.4536 5.11575 12.6353 4.90364 12.8627C3.75826 14.0213 2.73082 14.1151 2.69226 14.1162L1.89844 14.1626L2.22731 14.8905C2.55731 15.6117 3.42258 16.1339 4.28445 16.1339L4.27652 16.1361ZM5.29715 13.247C5.45739 13.0709 5.65245 12.9298 5.87006 12.8326C6.08767 12.7353 6.32312 12.684 6.5616 12.6818C6.93261 12.688 7.29459 12.7968 7.60719 12.9961C5.99458 13.8529 5.66344 15.2093 4.7426 15.5156C4.59273 15.5673 4.43512 15.5933 4.27652 15.5924C3.59609 15.5924 2.94629 15.1595 2.72288 14.6633C2.72288 14.6633 3.96239 14.5864 5.29488 13.247H5.29715Z" fill="black"/>
<path id="Vector_29" d="M7.88832 22.4829C7.78994 20.6913 8.23744 18.9118 9.17206 17.3783C8.70597 18.8127 8.76947 20.5681 10.356 22.206C10.356 22.206 7.19996 18.4612 11.6125 14.6225C13.3782 13.1621 15.3083 12.2601 16.3018 11.6215C12.7103 12.7823 10.957 11.5084 10.957 11.5084C12.1024 12.4941 13.588 12.476 14.51 12.3336C14.2605 12.4545 13.9985 12.5811 13.7161 12.7281C10.6849 14.3591 7.9643 17.0403 7.49708 20.7535V20.7241C6.79398 24.3695 5.229 25.3054 5.229 25.3054C6.47645 24.6973 7.25893 23.0809 7.45058 22.4976C7.65811 25.7021 9.2367 27.9233 11.0795 30.0709C11.644 30.7137 12.0832 31.4559 12.3746 32.2592C12.2205 31.4482 11.8702 30.6869 11.3539 30.0415C9.64495 27.982 8.00853 25.4342 7.88832 22.4829Z" fill="black"/>
<path id="Vector_30" d="M21.9673 14.9718V15.7088C22.2247 15.4002 22.7203 15.4624 22.7203 15.4624V16.5249C22.7203 16.5249 22.7021 17.046 22.515 17.2732H23.5867C23.403 17.0471 23.3837 16.5249 23.3837 16.5249V15.4624C23.3837 15.4624 23.8793 15.4002 24.1344 15.7088V14.9718H21.9673Z" fill="black"/>
<path id="Vector_31" d="M21.5071 10.6053C21.6676 10.7447 21.8531 10.8529 22.0537 10.9241L22.1886 10.9851V10.2922L20.9287 9.7666C20.9287 9.7666 20.9412 10.169 21.5071 10.6053Z" fill="black"/>
<path id="Vector_32" d="M24.5032 10.6053C25.0702 10.169 25.0827 9.7666 25.0827 9.7666L23.8228 10.2922V10.9851L23.9554 10.9241C24.1568 10.8537 24.3427 10.7455 24.5032 10.6053Z" fill="black"/>
<path id="Vector_33" d="M26.7712 7.78174C26.7712 6.73052 24.984 5.78442 23.0107 5.78442H22.9983C21.0273 5.78442 19.2367 6.73165 19.2367 7.78174L19.2764 8.04059L20.0702 12.5213L19.2764 12.9734L17.2249 14.1614H17.2317C17.2317 14.1614 16.7713 14.3942 16.5569 14.5389C15.7778 15.0758 15.6134 15.858 16.0648 16.1824C16.1217 15.8105 16.3134 15.4722 16.6037 15.2316C16.894 14.991 17.2626 14.8648 17.6399 14.8769C18.326 14.8769 18.8488 15.2284 19.273 15.7552C19.3849 15.8906 19.4875 16.0333 19.5803 16.1824C19.6994 16.3746 19.8184 16.5441 19.9364 16.7069H14.6631C15.0498 17.4789 15.4184 18.2973 15.4184 19.1858V30.748C15.4184 33.5467 17.5912 34.8828 19.942 34.8828C21.7565 34.8828 22.0037 34.8014 23.0039 35.7871C24.003 34.7969 24.2514 34.8828 26.0658 34.8828C28.4178 34.8828 30.5884 33.5467 30.5884 30.748V19.1858C30.5884 18.2973 30.9569 17.4789 31.3459 16.7069H26.0715C26.1849 16.5453 26.3074 16.3746 26.4265 16.1824C26.52 16.0341 26.6222 15.8914 26.7327 15.7552C27.1591 15.2262 27.6807 14.8769 28.3668 14.8769C28.7441 14.8651 29.1126 14.9914 29.4028 15.2319C29.693 15.4725 29.8848 15.8106 29.942 16.1824C30.3956 15.858 30.23 15.0758 29.4464 14.5389C29.2355 14.3942 28.7751 14.1614 28.7751 14.1614H28.7819L26.7338 12.9768L25.9456 12.5247L26.7338 8.04398L26.7712 7.78174ZM20.0123 8.30283L22.7828 9.2331V13.5442L20.7415 12.4794L20.0123 8.30283ZM20.5862 17.4586C20.9576 17.8443 21.4088 18.1448 21.9085 18.3391C21.809 18.7067 21.8366 19.0968 21.9867 19.4469C22.1736 19.8245 22.4981 20.1169 22.8939 20.2641C22.9295 20.5785 23.0527 20.8768 23.2495 21.1251C23.4463 21.3734 23.7089 21.5618 24.0076 21.6691C23.6674 22.0082 23.3271 22.3338 23.1956 22.4604L20.0203 22.4106C19.9158 22.3627 19.8286 22.2837 19.7708 22.1846C19.7623 22.1711 19.7548 22.1572 19.7481 22.1427L20.2664 22.2275H20.2993C20.3482 22.2281 20.3956 22.2113 20.4331 22.1799C20.4706 22.1486 20.4955 22.1049 20.5034 22.0568C20.5119 22.003 20.4986 21.9481 20.4665 21.904C20.4344 21.8599 20.3861 21.8303 20.3321 21.8217L19.6948 21.7234L20.4025 19.3044L19.73 17.9107L18.6572 19.0354L18.5914 21.5516L17.8701 21.4385C17.8429 21.4329 17.8147 21.4329 17.7874 21.4384C17.7601 21.4439 17.7342 21.4548 17.7113 21.4706C17.6883 21.4864 17.6688 21.5066 17.6539 21.5301C17.639 21.5535 17.6291 21.5798 17.6246 21.6072C17.6202 21.6346 17.6214 21.6626 17.6281 21.6896C17.6348 21.7165 17.6469 21.7418 17.6637 21.764C17.6805 21.7862 17.7016 21.8047 17.7258 21.8185C17.75 21.8323 17.7767 21.8411 17.8044 21.8443L18.1083 21.8907C17.9949 21.9517 17.9291 22.0037 17.92 22.0037L17.8588 22.0467L17.8407 22.1213C17.666 22.8277 18.0675 23.4969 18.4916 23.7964L18.4757 23.8857C18.4667 23.9385 18.4685 23.9925 18.4809 24.0446C18.4934 24.0966 18.5163 24.1456 18.5483 24.1887C18.5794 24.2322 18.6188 24.2691 18.6644 24.2973C18.71 24.3254 18.7607 24.3442 18.8137 24.3526C18.8359 24.3542 18.8583 24.3542 18.8806 24.3526C18.972 24.3519 19.0606 24.3205 19.132 24.2635C19.2034 24.2065 19.2534 24.1271 19.2741 24.0383C19.4088 24.0539 19.5444 24.0614 19.6801 24.0609H19.7651L23.9304 24.8171L24.0008 24.7708C24.333 24.5447 25.5986 23.6269 26.0125 23.3262C26.1325 23.4291 26.2656 23.5158 26.4083 23.5839C26.3156 23.8723 26.3028 24.1804 26.3713 24.4754C26.4398 24.7705 26.587 25.0417 26.7973 25.2602H16.1804V19.1903C16.1804 18.6025 16.0069 18.0113 15.8017 17.4654H20.5862V17.4586ZM25.7347 23.0086C25.3128 23.3149 24.2287 24.0994 23.8363 24.3718L20.0509 23.6936C20.0588 23.6596 20.0679 23.628 20.0759 23.5941C20.1415 23.3419 20.1762 23.0826 20.179 22.8221L23.3612 22.8729L23.4213 22.8119C23.47 22.7633 24.4782 21.7946 24.993 21.2441C25.1269 21.4102 25.287 21.5534 25.4671 21.668C25.3779 22.1325 25.4739 22.6134 25.7347 23.0086ZM19.3966 22.3586C19.4801 22.5165 19.6056 22.6483 19.7595 22.7396C19.7553 22.967 19.7329 23.1938 19.6925 23.4178C19.6824 23.4694 19.6691 23.5203 19.6529 23.5704C19.6449 23.6009 19.6358 23.6257 19.629 23.6461C19.3699 23.6489 19.1119 23.6108 18.8647 23.5331C18.5676 23.42 18.123 22.8842 18.2262 22.2897C18.4371 22.1506 18.6796 22.0666 18.9316 22.0455C19.0324 22.0419 19.1317 22.0703 19.2153 22.1266C19.2988 22.1828 19.3623 22.2641 19.3966 22.3586ZM19.0031 21.6115L19.0666 19.1959L19.6132 18.6217L19.9534 19.3338L19.273 21.6522L19.0031 21.6115ZM25.6995 34.1345C25.4932 34.1345 25.3026 34.1345 25.1325 34.1447L25.5861 32.7555C25.6576 32.5634 25.3015 32.3158 25.1552 32.0999C25.5033 32.3065 25.8617 32.4951 26.2291 32.6651C26.1997 32.7092 25.7052 34.1345 25.7052 34.1345H25.6995ZM27.1137 32.552L26.82 34.0724C26.6329 34.0984 26.4333 34.1119 26.228 34.1198L26.5376 32.6572C26.6306 32.2231 25.4523 32.092 24.8706 31.2341C24.5859 31.5517 24.0518 31.6455 23.5097 31.6455C23.0804 31.6397 22.6525 31.5939 22.2317 31.5087C22.1594 31.4961 22.0862 31.4893 22.0128 31.4884C21.9253 31.4824 21.8379 31.5012 21.7606 31.5426C21.6833 31.584 21.6194 31.6463 21.5762 31.7224L21.49 31.8648L19.8933 31.4952L19.4941 32.1496C19.463 32.1941 19.4489 32.2483 19.4546 32.3023C19.4602 32.3562 19.4851 32.4064 19.5247 32.4435L19.6381 32.5566C19.5644 32.7883 19.231 33.1376 19.231 33.1376L18.986 32.8482C18.7955 32.638 18.8273 32.2559 19.0246 31.9021L19.6619 30.8373L21.0228 31.0306L20.8107 30.5536C20.5261 29.9229 20.9581 29.1203 21.0046 28.658C20.9899 28.7982 20.8606 28.8287 20.7086 28.8287C20.5567 28.8287 20.4183 28.8038 20.3163 28.8038C20.2843 28.8004 20.252 28.8063 20.2233 28.8208L19.8558 29.0469L19.5644 28.7925C19.5423 28.7526 19.5341 28.7064 19.5413 28.6614C19.5485 28.6163 19.5706 28.575 19.6041 28.5439L20.2777 27.7978L19.4839 26.8789L20.5975 27.4327L20.9377 27.0247C21.0307 27.1151 20.991 27.3525 20.991 27.3525C21.3392 27.3615 22.3122 27.895 22.3643 29.1384C22.3643 29.1757 22.3643 29.2187 22.3643 29.2594C22.3643 29.2594 22.3734 29.2752 22.3904 29.3001C22.4585 29.3939 22.649 29.6392 22.8894 29.6572L24.4272 29.8064H24.4294C24.5973 29.8064 24.9329 29.6109 25.3627 29.6109C25.6381 29.6131 25.907 29.6943 26.1373 29.8449C26.2453 29.7705 26.3724 29.7281 26.5036 29.7228H26.5569C27.2475 29.7228 27.5333 30.34 27.903 30.8531C28.182 31.2431 28.5539 31.8218 28.5539 31.8218C28.5008 31.8994 28.4294 31.9629 28.3459 32.0066C28.2625 32.0504 28.1696 32.0731 28.0754 32.0728C28.0087 32.073 27.9422 32.0666 27.8769 32.0536C27.1375 31.9191 27.0309 30.4134 26.609 30.2936C26.5872 30.2878 26.5647 30.2851 26.5421 30.2857C26.5018 30.2863 26.4624 30.2976 26.4279 30.3185C26.3934 30.3394 26.3651 30.369 26.3459 30.4044C26.5387 30.9176 26.4265 31.1256 26.6329 31.5212C26.7809 31.7633 26.9643 31.9819 27.1772 32.17C27.1772 32.17 27.1454 32.3961 27.1126 32.5622L27.1137 32.552ZM18.8534 31.1176L18.9237 31.2928C18.8772 31.4466 18.343 31.6647 18.343 31.6647L18.2296 31.4161C18.157 31.2444 18.1446 31.0532 18.1946 30.8737C18.2447 30.6942 18.3541 30.5367 18.5052 30.427L19.3671 29.9037L20.2834 30.0958C20.2764 30.2764 20.3316 30.4539 20.4399 30.5988L19.4793 30.4168L18.9044 30.8079C18.8605 30.8442 18.8311 30.895 18.8218 30.951C18.8124 31.0071 18.8236 31.0646 18.8534 31.1131V31.1176ZM27.2645 33.9932L27.5276 32.6368C27.5412 32.5566 27.5582 32.4628 27.5707 32.3848C27.6477 32.4169 27.7279 32.4408 27.81 32.456C27.8997 32.4732 27.9908 32.4823 28.0822 32.4831C28.2355 32.4833 28.3869 32.4483 28.5245 32.3809C28.6622 32.3135 28.7824 32.2154 28.876 32.0943L29.079 31.8614L28.9077 31.5992C28.8919 31.5732 28.5267 31.0001 28.2455 30.6079C28.1899 30.5321 28.1321 30.4553 28.0833 30.3716C27.7635 29.898 27.362 29.3023 26.558 29.3023H26.4866C26.3705 29.3086 26.2559 29.3314 26.1464 29.3701C25.9019 29.254 25.6347 29.1934 25.3639 29.1927C25.0925 29.1993 24.8242 29.2513 24.57 29.3464C24.5167 29.3622 24.468 29.3792 24.4306 29.386L22.928 29.239C22.8654 29.2114 22.8114 29.1677 22.7715 29.1124L23.0958 28.9824C23.0051 27.9109 21.9618 27.2507 21.3857 27.0281C21.3604 26.9133 21.3021 26.8084 21.2178 26.7263L20.8935 26.4233L20.61 26.7624L20.4705 26.9343L18.368 26.0797L19.7356 27.7752L19.1958 28.5857C18.9974 28.7925 19.2128 28.9994 19.2128 28.9994L19.7697 29.3803L20.348 29.1667C20.3684 29.1667 20.3866 29.1723 20.4047 29.1735C20.3775 29.2605 20.3412 29.6019 20.3174 29.6968L19.3138 29.5013L18.2591 30.0913C18.0298 30.256 17.8642 30.4942 17.7901 30.766C17.716 31.0378 17.7379 31.3268 17.852 31.5845L17.9654 31.8388L18.1321 32.1971L18.5007 32.0445C18.5059 32.0439 18.5107 32.0415 18.5143 32.0377C18.3816 32.4582 18.4349 32.8561 18.6719 33.1195L18.8987 33.3987L19.197 33.7717L19.5236 33.4235C19.62 33.3286 19.9318 32.9827 20.0282 32.6866L20.0985 32.4605L19.9386 32.2864L19.9125 32.2559L20.0917 31.9631L21.4015 32.2672L21.6953 32.3339L21.8518 32.0784L21.9345 31.9383C21.9504 31.91 21.9561 31.9044 22.0162 31.9044C22.0639 31.9047 22.1114 31.91 22.1579 31.9202C22.6064 32.0073 23.0619 32.0535 23.5188 32.0581C23.8252 32.0753 24.1322 32.039 24.426 31.9507C24.426 31.9507 25.1303 32.7419 25.1541 32.7725L24.7175 34.0859L24.6982 34.1662C23.8828 34.2306 23.4848 34.4081 23.0051 34.8839C22.3076 34.199 21.8143 34.1266 19.9432 34.1266C17.7012 34.1266 16.1816 32.8245 16.1816 30.7458V25.6592H29.8274V30.7458C29.8274 32.4322 28.8295 33.6089 27.2554 33.9921L27.2645 33.9932ZM30.213 17.4586C30.0055 18.0045 29.8308 18.5957 29.8308 19.1835V22.9781C29.0302 22.8447 28.9361 21.9913 28.9327 21.954L28.9168 21.7799L28.7388 21.7652C28.4453 21.7405 28.1709 21.6103 27.9665 21.399C27.5741 21.0101 27.573 20.3817 27.5741 20.3749C27.4521 20.5672 27.3927 20.7924 27.404 21.0196C27.4154 21.2468 27.497 21.465 27.6376 21.6442C27.8601 21.9235 28.1832 22.1052 28.538 22.1506C28.6299 22.6243 28.9917 23.2923 29.8252 23.394V25.2512H27.4686C26.38 24.651 26.8404 23.5952 26.8631 23.5557L26.9561 23.3545L26.7474 23.2765C25.5691 22.8435 25.8923 21.6782 25.9093 21.6284L25.9581 21.4577L25.7982 21.3831C24.8241 20.9367 24.9568 19.7317 24.9692 19.6876C24.6687 19.9284 24.561 20.419 24.7674 20.8994C24.654 21.026 24.5054 21.1797 24.3421 21.3458C24.0587 21.2859 23.8032 21.1342 23.6153 20.9144C23.4275 20.6946 23.3178 20.4191 23.3033 20.1307V19.9894L23.1706 19.9386C22.7771 19.7939 22.5061 19.5769 22.3768 19.2852C22.2672 19.0251 22.2476 18.7359 22.3212 18.4635C22.4332 18.4896 22.5469 18.5073 22.6615 18.5166C22.7767 18.5293 22.8925 18.5357 23.0085 18.5358H23.0244C23.1399 18.5357 23.2554 18.5293 23.3702 18.5166C23.9985 18.4556 24.7016 18.1877 25.4353 17.4688H30.213V17.4586ZM26.5308 13.6267L27.4641 14.1636H27.4777L27.7113 14.2982C27.2288 14.4285 26.791 14.6872 26.4446 15.0464L26.4083 15.0815C26.3312 15.164 26.2541 15.2522 26.1815 15.3426C26.1679 15.3595 26.1543 15.3788 26.1384 15.3969C26.067 15.4895 26.0001 15.5834 25.9343 15.6817C25.923 15.6987 25.9116 15.7156 25.8991 15.7314C25.822 15.8445 25.7483 15.9677 25.6723 16.0943C25.0089 17.2246 23.9486 17.9028 23.0051 17.9028C22.0616 17.9028 21.0046 17.2246 20.3401 16.0943C20.2675 15.9711 20.1961 15.8524 20.1133 15.736C20.0985 15.7145 20.0849 15.6919 20.0702 15.6727C20.0055 15.58 19.9398 15.4873 19.8729 15.4002C19.8573 15.3787 19.8407 15.3579 19.823 15.3381C19.7504 15.251 19.6767 15.164 19.603 15.0837C19.5871 15.0713 19.5769 15.0566 19.561 15.0431C19.2147 14.6838 18.7762 14.4261 18.2931 14.2982L18.5324 14.1614H18.5438L19.4793 13.6267L20.4376 13.083L22.9983 14.4632H23.0051L25.5646 13.083L26.5308 13.6267ZM25.2675 12.4806L23.2262 13.5454V9.2331L25.9944 8.30283L25.2675 12.4806ZM22.9994 8.75948L19.9693 7.57149C20.2278 6.96676 21.4186 6.45246 23.0051 6.4502C24.5916 6.44793 25.7846 6.96676 26.0409 7.57149L22.9994 8.75948Z" fill="black"/>
</g>
<defs>
<clipPath id="clip0_424_712">
<rect width="46" height="40.6923" fill="white" transform="translate(0 0.653809)"/>
</clipPath>
</defs>
</svg>
