<svg width="230" height="168" viewBox="0 0 230 168" fill="none" xmlns="http://www.w3.org/2000/svg">
<g id="&#208;&#161;&#208;&#187;&#208;&#190;&#208;&#185; 3" clip-path="url(#clip0_802_531)">
<g id="Vector 2" filter="url(#filter0_d_802_531)">
<path d="M47.9399 50.0255L22.5391 122.099C17.5993 136.115 24.2676 151.36 37.6005 156.531L187.408 214.634L230.537 92.2576L83.0982 33.2315C69.1221 27.6363 53.1401 35.2704 47.9399 50.0255Z" fill="url(#paint0_linear_802_531)" fill-opacity="0.05" shape-rendering="crispEdges"/>
</g>
<g id="&#208;&#161;&#208;&#187;&#208;&#190;&#208;&#185; 1" filter="url(#filter1_d_802_531)">
<path id="Vector" d="M141.569 115.26C137.714 117.298 133.368 117.67 129.302 116.311C125.021 114.966 122.019 112.397 120.293 108.603C118.568 104.808 118.568 100.608 120.293 96.0011C121.9 91.5124 124.922 87.9238 128.729 85.9828C132.585 83.9497 136.929 83.5778 140.996 84.9327C145.264 86.2419 148.273 88.7937 150.022 92.5881C151.771 96.3826 151.771 100.604 150.022 105.253C148.415 109.746 145.385 113.333 141.569 115.26ZM130.269 103.972C130.445 104.666 130.781 105.291 131.238 105.777C131.696 106.264 132.259 106.595 132.865 106.733C133.524 106.949 134.215 106.993 134.889 106.863C135.563 106.732 136.205 106.43 136.77 105.977C138.04 105.001 139.027 103.594 139.599 101.945C140.236 100.464 140.398 98.765 140.056 97.1562C139.873 96.4673 139.534 95.8496 139.075 95.3688C138.616 94.888 138.054 94.5621 137.45 94.4259C136.795 94.2086 136.107 94.1609 135.435 94.286C134.762 94.4111 134.121 94.706 133.555 95.1505C132.283 96.1287 131.295 97.5392 130.725 99.1935C130.085 100.669 129.923 102.367 130.269 103.972Z" fill="url(#paint1_linear_802_531)" fill-opacity="0.3"/>
<path id="Vector_2" d="M111.177 84.5537C113.273 91.2325 112.658 99.028 109.333 107.94C106.008 116.852 101.289 123.363 95.1759 127.473C92.3043 129.481 89.1135 130.782 85.7986 131.295C82.4837 131.807 79.1144 131.522 75.8969 130.455C69.1632 128.355 64.7487 123.955 62.6533 117.255C60.558 110.555 61.1699 102.759 64.489 93.8684C67.826 84.9563 72.545 78.4455 78.646 74.3359C81.5174 72.3222 84.7088 71.0164 88.0251 70.4982C91.3414 69.98 94.713 70.2603 97.9338 71.3221C104.644 73.4223 109.058 77.8329 111.177 84.5537ZM88.8719 115.354C91.8719 112.11 94.2101 108.115 95.7131 103.666C97.6294 98.5415 98.4413 94.1799 98.1488 90.5815C98.1045 88.9838 97.6051 87.4495 96.7302 86.2237C95.8554 84.9979 94.6556 84.1511 93.3223 83.8186C90.4032 82.9015 87.6243 83.7766 84.9857 86.4439C81.9905 89.6969 79.6531 93.6938 78.1445 98.1424C76.2283 103.267 75.4582 107.594 75.7537 111.227C75.7964 112.825 76.2952 114.36 77.1703 115.587C78.0454 116.813 79.2461 117.659 80.5801 117.99C83.4933 118.907 86.2692 118.028 88.9078 115.354" fill="url(#paint2_linear_802_531)" fill-opacity="0.3"/>
<path id="Vector_3" d="M172.228 98.0705C173.521 97.088 175.209 96.7928 176.758 97.2786C180.639 98.4955 181.529 103.586 178.291 106.047L128.783 143.675C127.491 144.657 125.802 144.952 124.254 144.466C120.376 143.249 119.487 138.162 122.723 135.702L172.228 98.0705Z" fill="url(#paint3_linear_802_531)" fill-opacity="0.3"/>
<path id="Vector_4" d="M180.727 133.164C182.437 136.955 182.437 141.166 180.727 145.765C179.128 150.253 176.108 153.84 172.301 155.773C168.446 157.81 164.1 158.182 160.033 156.823C155.729 155.507 152.712 152.948 150.981 149.147C149.249 145.345 149.249 141.145 150.981 136.545C152.578 132.052 155.603 128.463 159.416 126.537C163.269 124.493 167.617 124.121 171.683 125.487C175.999 126.803 179.014 129.362 180.727 133.164ZM167.466 146.584C168.74 145.609 169.728 144.197 170.295 142.541C170.932 141.061 171.095 139.361 170.752 137.753C170.572 137.061 170.236 136.44 169.778 135.955C169.321 135.471 168.76 135.141 168.155 135.001C167.499 134.784 166.81 134.736 166.137 134.859C165.463 134.982 164.82 135.274 164.251 135.715C162.982 136.699 161.996 138.108 161.421 139.758C160.78 141.237 160.618 142.939 160.965 144.547C161.142 145.243 161.479 145.868 161.938 146.355C162.398 146.842 162.962 147.172 163.57 147.309C164.226 147.525 164.913 147.573 165.586 147.448C166.258 147.323 166.9 147.028 167.466 146.584Z" fill="url(#paint4_linear_802_531)" fill-opacity="0.3"/>
</g>
</g>
<defs>
<filter id="filter0_d_802_531" x="-24.0889" y="0.394196" width="299.625" height="273.239" filterUnits="userSpaceOnUse" color-interpolation-filters="sRGB">
<feFlood flood-opacity="0" result="BackgroundImageFix"/>
<feColorMatrix in="SourceAlpha" type="matrix" values="0 0 0 0 0 0 0 0 0 0 0 0 0 0 0 0 0 0 127 0" result="hardAlpha"/>
<feOffset dy="14"/>
<feGaussianBlur stdDeviation="22.5"/>
<feComposite in2="hardAlpha" operator="out"/>
<feColorMatrix type="matrix" values="0 0 0 0 0.164706 0 0 0 0 0.207843 0 0 0 0 0.576471 0 0 0 0.6 0"/>
<feBlend mode="normal" in2="BackgroundImageFix" result="effect1_dropShadow_802_531"/>
<feBlend mode="normal" in="SourceGraphic" in2="effect1_dropShadow_802_531" result="shape"/>
</filter>
<filter id="filter1_d_802_531" x="9.43701" y="25.2454" width="224.573" height="191.382" filterUnits="userSpaceOnUse" color-interpolation-filters="sRGB">
<feFlood flood-opacity="0" result="BackgroundImageFix"/>
<feColorMatrix in="SourceAlpha" type="matrix" values="0 0 0 0 0 0 0 0 0 0 0 0 0 0 0 0 0 0 127 0" result="hardAlpha"/>
<feOffset dy="7"/>
<feGaussianBlur stdDeviation="26"/>
<feComposite in2="hardAlpha" operator="out"/>
<feColorMatrix type="matrix" values="0 0 0 0 0.758333 0 0 0 0 0.195903 0 0 0 0 0.195903 0 0 0 0.1 0"/>
<feBlend mode="normal" in2="BackgroundImageFix" result="effect1_dropShadow_802_531"/>
<feBlend mode="normal" in="SourceGraphic" in2="effect1_dropShadow_802_531" result="shape"/>
</filter>
<linearGradient id="paint0_linear_802_531" x1="75.9799" y1="14.0361" x2="175.605" y2="220.333" gradientUnits="userSpaceOnUse">
<stop stop-color="white"/>
<stop offset="0.364583" stop-color="white" stop-opacity="0"/>
</linearGradient>
<linearGradient id="paint1_linear_802_531" x1="135.167" y1="84.1314" x2="110.41" y2="113.145" gradientUnits="userSpaceOnUse">
<stop stop-color="white"/>
<stop offset="1" stop-color="white" stop-opacity="0"/>
</linearGradient>
<linearGradient id="paint2_linear_802_531" x1="86.9147" y1="70.2454" x2="40.3267" y2="116.543" gradientUnits="userSpaceOnUse">
<stop stop-color="white"/>
<stop offset="1" stop-color="white" stop-opacity="0"/>
</linearGradient>
<linearGradient id="paint3_linear_802_531" x1="150.51" y1="96.5042" x2="118.519" y2="152.219" gradientUnits="userSpaceOnUse">
<stop stop-color="white"/>
<stop offset="1" stop-color="white" stop-opacity="0"/>
</linearGradient>
<linearGradient id="paint4_linear_802_531" x1="165.846" y1="124.678" x2="141.118" y2="153.682" gradientUnits="userSpaceOnUse">
<stop stop-color="white"/>
<stop offset="1" stop-color="white" stop-opacity="0"/>
</linearGradient>
<clipPath id="clip0_802_531">
<rect width="230" height="168" fill="white"/>
</clipPath>
</defs>
</svg>
