<svg width="230" height="280" viewBox="0 0 230 280" fill="none" xmlns="http://www.w3.org/2000/svg">
<rect width="230" height="280" fill="#6295FC"/>
<g clip-path="url(#clip0_424_801)">
<g filter="url(#filter0_d_424_801)">
<path d="M47.9399 162.026L22.5391 234.099C17.5993 248.115 24.2676 263.36 37.6005 268.531L187.408 326.634L230.537 204.258L83.0982 145.231C69.1221 139.636 53.1401 147.27 47.9399 162.026Z" fill="url(#paint0_linear_424_801)" fill-opacity="0.05" shape-rendering="crispEdges"/>
</g>
<g filter="url(#filter1_d_424_801)">
<path d="M141.569 227.26C137.714 229.298 133.368 229.67 129.302 228.311C125.021 226.966 122.019 224.397 120.293 220.603C118.568 216.808 118.568 212.608 120.293 208.001C121.9 203.512 124.922 199.924 128.729 197.983C132.585 195.95 136.929 195.578 140.996 196.933C145.264 198.242 148.273 200.794 150.022 204.588C151.771 208.383 151.771 212.604 150.022 217.253C148.415 221.746 145.385 225.333 141.569 227.26ZM130.269 215.972C130.445 216.666 130.781 217.291 131.238 217.777C131.696 218.264 132.259 218.595 132.865 218.733C133.524 218.949 134.215 218.993 134.889 218.863C135.563 218.732 136.205 218.43 136.77 217.977C138.04 217.001 139.027 215.594 139.599 213.945C140.236 212.464 140.398 210.765 140.056 209.156C139.873 208.467 139.534 207.85 139.075 207.369C138.616 206.888 138.054 206.562 137.45 206.426C136.795 206.209 136.107 206.161 135.435 206.286C134.762 206.411 134.121 206.706 133.555 207.15C132.283 208.129 131.295 209.539 130.725 211.193C130.085 212.669 129.923 214.367 130.269 215.972Z" fill="url(#paint1_linear_424_801)" fill-opacity="0.3"/>
<path d="M111.177 196.554C113.273 203.233 112.658 211.028 109.333 219.94C106.008 228.852 101.289 235.363 95.1759 239.473C92.3043 241.481 89.1135 242.782 85.7986 243.295C82.4837 243.807 79.1144 243.522 75.8969 242.455C69.1632 240.355 64.7487 235.955 62.6533 229.255C60.558 222.555 61.1699 214.759 64.489 205.868C67.826 196.956 72.545 190.445 78.646 186.336C81.5174 184.322 84.7088 183.016 88.0251 182.498C91.3414 181.98 94.713 182.26 97.9338 183.322C104.644 185.422 109.058 189.833 111.177 196.554ZM88.8719 227.354C91.8719 224.11 94.2101 220.115 95.7131 215.666C97.6294 210.541 98.4413 206.18 98.1488 202.581C98.1045 200.984 97.6051 199.45 96.7302 198.224C95.8554 196.998 94.6556 196.151 93.3223 195.819C90.4032 194.902 87.6243 195.777 84.9857 198.444C81.9905 201.697 79.6531 205.694 78.1445 210.142C76.2283 215.267 75.4582 219.594 75.7537 223.227C75.7964 224.825 76.2952 226.36 77.1703 227.587C78.0454 228.813 79.2461 229.659 80.5801 229.99C83.4933 230.907 86.2692 230.028 88.9078 227.354" fill="url(#paint2_linear_424_801)" fill-opacity="0.3"/>
<path d="M172.228 210.071C173.521 209.088 175.209 208.793 176.758 209.279C180.639 210.496 181.529 215.586 178.291 218.047L128.783 255.675C127.491 256.657 125.802 256.952 124.254 256.466C120.376 255.249 119.487 250.162 122.723 247.702L172.228 210.071Z" fill="url(#paint3_linear_424_801)" fill-opacity="0.3"/>
<path d="M180.727 245.164C182.437 248.955 182.437 253.166 180.727 257.765C179.128 262.253 176.108 265.84 172.301 267.773C168.446 269.81 164.1 270.182 160.033 268.823C155.729 267.507 152.712 264.948 150.981 261.147C149.249 257.345 149.249 253.145 150.981 248.545C152.578 244.052 155.603 240.463 159.416 238.537C163.269 236.493 167.617 236.121 171.683 237.487C175.999 238.803 179.014 241.362 180.727 245.164ZM167.466 258.584C168.74 257.609 169.728 256.197 170.295 254.541C170.932 253.061 171.095 251.361 170.752 249.753C170.572 249.061 170.236 248.44 169.778 247.955C169.321 247.471 168.76 247.141 168.155 247.001C167.499 246.784 166.81 246.736 166.137 246.859C165.463 246.982 164.82 247.274 164.251 247.715C162.982 248.699 161.996 250.108 161.421 251.758C160.78 253.237 160.618 254.939 160.965 256.547C161.142 257.243 161.479 257.868 161.938 258.355C162.398 258.842 162.962 259.172 163.57 259.309C164.226 259.525 164.913 259.573 165.586 259.448C166.258 259.323 166.9 259.028 167.466 258.584Z" fill="url(#paint4_linear_424_801)" fill-opacity="0.3"/>
</g>
</g>
<defs>
<filter id="filter0_d_424_801" x="-24.0889" y="112.394" width="299.625" height="273.239" filterUnits="userSpaceOnUse" color-interpolation-filters="sRGB">
<feFlood flood-opacity="0" result="BackgroundImageFix"/>
<feColorMatrix in="SourceAlpha" type="matrix" values="0 0 0 0 0 0 0 0 0 0 0 0 0 0 0 0 0 0 127 0" result="hardAlpha"/>
<feOffset dy="14"/>
<feGaussianBlur stdDeviation="22.5"/>
<feComposite in2="hardAlpha" operator="out"/>
<feColorMatrix type="matrix" values="0 0 0 0 0.164706 0 0 0 0 0.207843 0 0 0 0 0.576471 0 0 0 0.6 0"/>
<feBlend mode="normal" in2="BackgroundImageFix" result="effect1_dropShadow_424_801"/>
<feBlend mode="normal" in="SourceGraphic" in2="effect1_dropShadow_424_801" result="shape"/>
</filter>
<filter id="filter1_d_424_801" x="9.43701" y="137.245" width="224.573" height="191.382" filterUnits="userSpaceOnUse" color-interpolation-filters="sRGB">
<feFlood flood-opacity="0" result="BackgroundImageFix"/>
<feColorMatrix in="SourceAlpha" type="matrix" values="0 0 0 0 0 0 0 0 0 0 0 0 0 0 0 0 0 0 127 0" result="hardAlpha"/>
<feOffset dy="7"/>
<feGaussianBlur stdDeviation="26"/>
<feComposite in2="hardAlpha" operator="out"/>
<feColorMatrix type="matrix" values="0 0 0 0 0.758333 0 0 0 0 0.195903 0 0 0 0 0.195903 0 0 0 0.1 0"/>
<feBlend mode="normal" in2="BackgroundImageFix" result="effect1_dropShadow_424_801"/>
<feBlend mode="normal" in="SourceGraphic" in2="effect1_dropShadow_424_801" result="shape"/>
</filter>
<linearGradient id="paint0_linear_424_801" x1="75.9799" y1="126.036" x2="175.605" y2="332.333" gradientUnits="userSpaceOnUse">
<stop stop-color="white"/>
<stop offset="0.364583" stop-color="white" stop-opacity="0"/>
</linearGradient>
<linearGradient id="paint1_linear_424_801" x1="135.167" y1="196.131" x2="110.41" y2="225.145" gradientUnits="userSpaceOnUse">
<stop stop-color="white"/>
<stop offset="1" stop-color="white" stop-opacity="0"/>
</linearGradient>
<linearGradient id="paint2_linear_424_801" x1="86.9147" y1="182.245" x2="40.3267" y2="228.543" gradientUnits="userSpaceOnUse">
<stop stop-color="white"/>
<stop offset="1" stop-color="white" stop-opacity="0"/>
</linearGradient>
<linearGradient id="paint3_linear_424_801" x1="150.51" y1="208.504" x2="118.519" y2="264.219" gradientUnits="userSpaceOnUse">
<stop stop-color="white"/>
<stop offset="1" stop-color="white" stop-opacity="0"/>
</linearGradient>
<linearGradient id="paint4_linear_424_801" x1="165.846" y1="236.678" x2="141.118" y2="265.682" gradientUnits="userSpaceOnUse">
<stop stop-color="white"/>
<stop offset="1" stop-color="white" stop-opacity="0"/>
</linearGradient>
<clipPath id="clip0_424_801">
<rect width="230" height="168" fill="white" transform="translate(0 112)"/>
</clipPath>
</defs>
</svg>
