<svg width="230" height="280" viewBox="0 0 230 280" fill="none" xmlns="http://www.w3.org/2000/svg">
<rect width="230" height="280" fill="#43A1B7"/>
<g clip-path="url(#clip0_424_816)">
<path d="M173.678 217.349L161.804 212.282L168.516 200.135C170.976 195.381 171.582 190.028 170.225 185.035C168.869 180.042 165.64 175.733 161.114 172.882C160.27 172.351 159.668 171.548 159.415 170.617C159.162 169.686 159.275 168.688 159.733 167.802L161.768 163.882C162.038 163.353 162.424 162.88 162.898 162.495C163.373 162.109 163.926 161.82 164.521 161.646C165.116 161.472 165.739 161.417 166.347 161.486C166.956 161.555 167.537 161.745 168.052 162.045C175.392 166.421 180.686 173.204 182.954 181.138C185.222 189.072 184.312 197.62 180.39 205.202L173.678 217.349Z" fill="#FEFEFE"/>
<path d="M95.932 184.248L107.807 189.316L114.61 176.917C117.081 172.167 121.243 168.332 126.352 166.096C131.46 163.861 137.181 163.373 142.488 164.719C143.478 164.971 144.546 164.882 145.499 164.466C146.453 164.05 147.23 163.334 147.692 162.448L149.727 158.528C150.003 158.001 150.159 157.43 150.183 156.853C150.207 156.275 150.1 155.703 149.868 155.177C149.636 154.65 149.285 154.181 148.838 153.799C148.392 153.417 147.859 153.133 147.277 152.964C138.879 150.625 129.741 151.249 121.554 154.722C113.366 158.194 106.683 164.28 102.741 171.852L95.932 184.248Z" fill="#FEFEFE"/>
<g filter="url(#filter0_d_424_816)">
<path d="M170.276 213.967L148.252 204.399C146.62 203.69 144.749 203.61 143.051 204.177C141.352 204.744 139.965 205.911 139.195 207.422L135.995 213.699C134.091 217.432 130.786 220.543 126.557 221.861C126.09 222.007 125.658 222.238 125.288 222.54C124.918 222.841 124.616 223.208 124.401 223.619C124.185 224.029 124.06 224.475 124.033 224.93C124.006 225.385 124.077 225.841 124.242 226.27L125.622 229.825C126.354 231.71 126.677 233.71 126.573 235.712C126.469 237.714 125.939 239.678 125.014 241.492C124.089 243.306 122.787 244.935 121.182 246.285C119.578 247.635 117.702 248.68 115.662 249.361L112.398 250.45C111.537 250.724 110.806 251.266 110.329 251.983C110.051 252.416 109.879 252.901 109.827 253.402C109.775 253.903 109.843 254.409 110.026 254.882L110.924 257.194C111.656 259.079 111.979 261.079 111.875 263.081C111.77 265.083 111.241 267.047 110.316 268.861C109.391 270.676 108.089 272.304 106.484 273.654C104.879 275.004 103.004 276.05 100.964 276.73L99.1701 277.329C98.2458 277.639 97.4911 278.274 97.0707 279.096L93.8445 285.424C93.0743 286.935 92.984 288.665 93.5933 290.235C94.2027 291.804 95.4619 293.084 97.0938 293.793L123.687 305.346C129.184 307.716 135.476 307.976 141.189 306.069C146.902 304.162 151.571 300.244 154.178 295.17L181.206 242.158C183.787 237.069 184.086 231.247 182.038 225.964C179.989 220.681 175.761 216.368 170.276 213.967Z" fill="url(#paint0_linear_424_816)" shape-rendering="crispEdges"/>
</g>
<g filter="url(#filter1_d_424_816)">
<path d="M86.3945 274.476C87.319 272.661 88.6213 271.032 90.2268 269.681C91.8322 268.331 93.7092 267.286 95.7503 266.607L97.544 266.008C98.4673 265.697 99.2207 265.061 99.6398 264.239C100.059 263.416 100.11 262.475 99.7815 261.62L98.8839 259.308C98.1517 257.423 97.8287 255.422 97.9331 253.42C98.0376 251.417 98.5675 249.453 99.4926 247.639C100.418 245.824 101.72 244.195 103.325 242.845C104.93 241.494 106.806 240.449 108.846 239.768L112.113 238.673C112.972 238.401 113.701 237.859 114.174 237.143C114.452 236.709 114.623 236.225 114.676 235.723C114.728 235.222 114.66 234.716 114.476 234.243L113.096 230.687C111.63 226.884 111.854 222.696 113.719 219.038C115.584 215.38 118.938 212.551 123.047 211.17C123.983 210.86 124.751 210.22 125.182 209.39L127.86 204.139C128.332 203.213 128.602 202.211 128.655 201.189C128.707 200.167 128.542 199.146 128.167 198.185C127.792 197.223 127.216 196.34 126.471 195.586C125.726 194.831 124.828 194.22 123.826 193.788L100.508 183.658C95.0114 181.288 88.7188 181.029 83.0051 182.936C77.2915 184.843 72.621 188.762 70.014 193.837L42.9809 246.859C40.406 251.948 40.1111 257.768 42.1606 263.047C44.2102 268.327 48.4375 272.637 53.9193 275.037L72.6676 283.182C74.6843 284.058 76.9966 284.156 79.0958 283.456C81.1949 282.755 82.9089 281.313 83.8608 279.446L86.3945 274.476Z" fill="url(#paint1_linear_424_816)" shape-rendering="crispEdges"/>
</g>
<circle cx="82.1158" cy="198.923" r="7.60906" transform="rotate(25.2029 82.1158 198.923)" fill="#FEFEFE" fill-opacity="0.8"/>
<circle cx="55.0167" cy="256.505" r="7.60906" transform="rotate(25.2029 55.0167 256.505)" fill="#FEFEFE" fill-opacity="0.8"/>
<circle cx="163.297" cy="233.091" r="7.60906" transform="rotate(25.2029 163.297 233.091)" fill="#FEFEFE" fill-opacity="0.8"/>
</g>
<defs>
<filter id="filter0_d_424_816" x="29.1938" y="163.803" width="178.189" height="191.529" filterUnits="userSpaceOnUse" color-interpolation-filters="sRGB">
<feFlood flood-opacity="0" result="BackgroundImageFix"/>
<feColorMatrix in="SourceAlpha" type="matrix" values="0 0 0 0 0 0 0 0 0 0 0 0 0 0 0 0 0 0 127 0" result="hardAlpha"/>
<feOffset dx="-20" dy="4"/>
<feGaussianBlur stdDeviation="22"/>
<feComposite in2="hardAlpha" operator="out"/>
<feColorMatrix type="matrix" values="0 0 0 0 0.475556 0 0 0 0 0.642 0 0 0 0 0.891667 0 0 0 0.3 0"/>
<feBlend mode="normal" in2="BackgroundImageFix" result="effect1_dropShadow_424_816"/>
<feBlend mode="normal" in="SourceGraphic" in2="effect1_dropShadow_424_816" result="shape"/>
</filter>
<filter id="filter1_d_424_816" x="-23.1885" y="141.672" width="175.853" height="190.246" filterUnits="userSpaceOnUse" color-interpolation-filters="sRGB">
<feFlood flood-opacity="0" result="BackgroundImageFix"/>
<feColorMatrix in="SourceAlpha" type="matrix" values="0 0 0 0 0 0 0 0 0 0 0 0 0 0 0 0 0 0 127 0" result="hardAlpha"/>
<feOffset dx="-20" dy="4"/>
<feGaussianBlur stdDeviation="22"/>
<feComposite in2="hardAlpha" operator="out"/>
<feColorMatrix type="matrix" values="0 0 0 0 0.475556 0 0 0 0 0.642 0 0 0 0 0.891667 0 0 0 0.3 0"/>
<feBlend mode="normal" in2="BackgroundImageFix" result="effect1_dropShadow_424_816"/>
<feBlend mode="normal" in="SourceGraphic" in2="effect1_dropShadow_424_816" result="shape"/>
</filter>
<linearGradient id="paint0_linear_424_816" x1="163.869" y1="211.184" x2="143.183" y2="267.806" gradientUnits="userSpaceOnUse">
<stop stop-color="#E1EAF4"/>
<stop offset="1" stop-color="#E1EAF4" stop-opacity="0"/>
</linearGradient>
<linearGradient id="paint1_linear_424_816" x1="106.914" y1="186.441" x2="76.8989" y2="294.802" gradientUnits="userSpaceOnUse">
<stop stop-color="#E1EAF4"/>
<stop offset="1" stop-color="#E1EAF4" stop-opacity="0"/>
</linearGradient>
<clipPath id="clip0_424_816">
<rect width="230" height="168" fill="white" transform="translate(0 112)"/>
</clipPath>
</defs>
</svg>
