<svg width="230" height="280" viewBox="0 0 230 280" fill="none" xmlns="http://www.w3.org/2000/svg">
<rect width="230" height="280" fill="#6295FC"/>
<g clip-path="url(#clip0_424_841)">
<path d="M136.636 292.594C131.338 296.988 124.672 299.393 117.789 299.393C110.906 299.393 104.239 296.988 98.9414 292.594C86.1314 281.975 75.8208 268.661 68.7442 253.602C61.6676 238.543 57.9991 222.108 58 205.469V179.038C58 174.519 59.7951 170.186 62.9904 166.99C66.1857 163.795 70.5194 162 75.0382 162H160.539C165.058 162 169.392 163.795 172.587 166.99C175.782 170.186 177.578 174.519 177.578 179.038V205.469C177.578 222.108 173.91 238.543 166.833 253.602C159.757 268.661 149.446 281.975 136.636 292.594Z" fill="url(#paint0_linear_424_841)"/>
<path d="M117.479 248.12C132.878 248.12 145.36 235.638 145.36 220.24C145.36 204.841 132.878 192.359 117.479 192.359C102.081 192.359 89.5986 204.841 89.5986 220.24C89.5986 235.638 102.081 248.12 117.479 248.12Z" fill="white" fill-opacity="0.08"/>
<path fill-rule="evenodd" clip-rule="evenodd" d="M117.729 216.01L125.629 208.109C127.005 206.734 129.234 206.733 130.608 208.107C131.983 209.481 131.982 211.711 130.606 213.086L122.705 220.987L130.602 228.884C131.978 230.259 131.979 232.488 130.604 233.863C129.23 235.237 127.001 235.236 125.625 233.861L117.729 225.964L109.832 233.86C108.457 235.235 106.228 235.236 104.853 233.862C103.479 232.488 103.48 230.258 104.855 228.883L112.752 220.987L104.851 213.087C103.476 211.711 103.475 209.482 104.85 208.108C106.224 206.733 108.453 206.734 109.828 208.11L117.729 216.01Z" fill="url(#paint1_linear_424_841)"/>
</g>
<defs>
<linearGradient id="paint0_linear_424_841" x1="181" y1="162" x2="43.5" y2="231" gradientUnits="userSpaceOnUse">
<stop stop-color="white" stop-opacity="0.21"/>
<stop offset="1" stop-color="white" stop-opacity="0"/>
</linearGradient>
<linearGradient id="paint1_linear_424_841" x1="88.001" y1="226.001" x2="136.501" y2="206.001" gradientUnits="userSpaceOnUse">
<stop stop-color="white" stop-opacity="0"/>
<stop offset="1" stop-color="white"/>
</linearGradient>
<clipPath id="clip0_424_841">
<rect width="230" height="168" fill="white" transform="translate(0 112)"/>
</clipPath>
</defs>
</svg>
