<svg width="230" height="280" viewBox="0 0 230 280" fill="none" xmlns="http://www.w3.org/2000/svg">
<rect width="230" height="280" fill="#ADD27D"/>
<g clip-path="url(#clip0_424_802)">
<g filter="url(#filter0_d_424_802)">
<path d="M116.583 302C163.85 302 202.167 266.63 202.167 223C202.167 179.37 163.85 144 116.583 144C69.317 144 31 179.37 31 223C31 266.63 69.317 302 116.583 302Z" fill="url(#paint0_linear_424_802)" shape-rendering="crispEdges"/>
</g>
<g filter="url(#filter1_d_424_802)">
<path d="M148.694 266.177C155.293 266.177 160.643 261.239 160.643 255.147C160.643 249.056 155.293 244.118 148.694 244.118C142.095 244.118 136.746 249.056 136.746 255.147C136.746 261.239 142.095 266.177 148.694 266.177Z" fill="url(#paint1_radial_424_802)" shape-rendering="crispEdges"/>
</g>
<g filter="url(#filter2_d_424_802)">
<path d="M126.933 171.286C126.933 166.21 122.479 162.095 116.984 162.095C111.49 162.095 107.035 166.21 107.035 171.286V210.771C107.035 215.847 111.49 219.962 116.984 219.962C122.479 219.962 126.933 215.847 126.933 210.771V171.286Z" fill="url(#paint2_linear_424_802)" shape-rendering="crispEdges"/>
</g>
<g filter="url(#filter3_d_424_802)">
<path d="M74.2829 246.441L76.834 251.181L56.6725 260.418L49.8423 247.717L54.4012 245.636L58.6804 253.597L62.4 251.865L58.45 244.512L62.8115 242.521L66.7614 249.859L74.2829 246.441Z" fill="#F1FDF4"/>
<path d="M52.9569 217.423C54.2583 217.365 55.5545 217.611 56.7259 218.137C57.85 218.643 58.8053 219.42 59.4909 220.386L67.8352 215.828L68.0327 221.677L60.8404 225.582L60.9227 227.906L68.2467 227.693L68.4277 232.98L45.9292 233.634L45.6494 225.293C45.4548 223.253 46.1343 221.224 47.5421 219.641C48.223 218.939 49.0578 218.378 49.9913 217.995C50.9248 217.613 51.9356 217.418 52.9569 217.423ZM50.5211 225.597L50.6034 228.149L56.1992 227.997L56.1004 225.43C56.1092 225.066 56.0395 224.703 55.8954 224.364C55.7513 224.025 55.5357 223.716 55.2611 223.455C54.994 223.216 54.6763 223.03 54.328 222.91C53.9796 222.79 53.6081 222.737 53.2367 222.756C52.8575 222.755 52.4821 222.826 52.1338 222.964C51.7856 223.103 51.4719 223.306 51.2123 223.561C50.9568 223.841 50.7641 224.165 50.6454 224.515C50.5268 224.864 50.4845 225.232 50.5211 225.597Z" fill="#F1FDF4"/>
<path d="M59.3748 191.704L55.5729 199.953L58.8646 201.26L62.4196 193.512L66.8963 195.274L63.3413 203.007L66.9621 204.435L70.764 196.17L75.4382 197.994L69.4144 211.12L48.6934 203.007L54.7171 189.881L59.3748 191.704Z" fill="#F1FDF4"/>
<path d="M78.4847 171.696L71.4077 177.849L73.8764 180.28L80.4597 174.522L83.7514 177.789L77.1681 183.546L79.8672 186.19L86.9608 180.037L90.45 183.501L79.2089 193.27L63.771 178.077L75.012 168.309L78.4847 171.696Z" fill="#F1FDF4"/>
</g>
</g>
<defs>
<filter id="filter0_d_424_802" x="-188" y="-56" width="571.167" height="558" filterUnits="userSpaceOnUse" color-interpolation-filters="sRGB">
<feFlood flood-opacity="0" result="BackgroundImageFix"/>
<feColorMatrix in="SourceAlpha" type="matrix" values="0 0 0 0 0 0 0 0 0 0 0 0 0 0 0 0 0 0 127 0" result="hardAlpha"/>
<feOffset dx="-19"/>
<feGaussianBlur stdDeviation="100"/>
<feComposite in2="hardAlpha" operator="out"/>
<feColorMatrix type="matrix" values="0 0 0 0 0.0506944 0 0 0 0 0.4745 0 0 0 0 0.608333 0 0 0 0.25 0"/>
<feBlend mode="normal" in2="BackgroundImageFix" result="effect1_dropShadow_424_802"/>
<feBlend mode="normal" in="SourceGraphic" in2="effect1_dropShadow_424_802" result="shape"/>
</filter>
<filter id="filter1_d_424_802" x="108.746" y="227.118" width="57.8975" height="56.0592" filterUnits="userSpaceOnUse" color-interpolation-filters="sRGB">
<feFlood flood-opacity="0" result="BackgroundImageFix"/>
<feColorMatrix in="SourceAlpha" type="matrix" values="0 0 0 0 0 0 0 0 0 0 0 0 0 0 0 0 0 0 127 0" result="hardAlpha"/>
<feOffset dx="-11"/>
<feGaussianBlur stdDeviation="8.5"/>
<feComposite in2="hardAlpha" operator="out"/>
<feColorMatrix type="matrix" values="0 0 0 0 0.705882 0 0 0 0 0.933333 0 0 0 0 0.776471 0 0 0 1 0"/>
<feBlend mode="normal" in2="BackgroundImageFix" result="effect1_dropShadow_424_802"/>
<feBlend mode="normal" in="SourceGraphic" in2="effect1_dropShadow_424_802" result="shape"/>
</filter>
<filter id="filter2_d_424_802" x="79.0352" y="145.095" width="53.8979" height="91.8675" filterUnits="userSpaceOnUse" color-interpolation-filters="sRGB">
<feFlood flood-opacity="0" result="BackgroundImageFix"/>
<feColorMatrix in="SourceAlpha" type="matrix" values="0 0 0 0 0 0 0 0 0 0 0 0 0 0 0 0 0 0 127 0" result="hardAlpha"/>
<feOffset dx="-11"/>
<feGaussianBlur stdDeviation="8.5"/>
<feComposite in2="hardAlpha" operator="out"/>
<feColorMatrix type="matrix" values="0 0 0 0 0.705882 0 0 0 0 0.933333 0 0 0 0 0.776471 0 0 0 1 0"/>
<feBlend mode="normal" in2="BackgroundImageFix" result="effect1_dropShadow_424_802"/>
<feBlend mode="normal" in="SourceGraphic" in2="effect1_dropShadow_424_802" result="shape"/>
</filter>
<filter id="filter3_d_424_802" x="32.6167" y="162.309" width="64.8335" height="112.109" filterUnits="userSpaceOnUse" color-interpolation-filters="sRGB">
<feFlood flood-opacity="0" result="BackgroundImageFix"/>
<feColorMatrix in="SourceAlpha" type="matrix" values="0 0 0 0 0 0 0 0 0 0 0 0 0 0 0 0 0 0 127 0" result="hardAlpha"/>
<feOffset dx="-3" dy="4"/>
<feGaussianBlur stdDeviation="5"/>
<feComposite in2="hardAlpha" operator="out"/>
<feColorMatrix type="matrix" values="0 0 0 0 0.705882 0 0 0 0 0.933333 0 0 0 0 0.776471 0 0 0 1 0"/>
<feBlend mode="normal" in2="BackgroundImageFix" result="effect1_dropShadow_424_802"/>
<feBlend mode="normal" in="SourceGraphic" in2="effect1_dropShadow_424_802" result="shape"/>
</filter>
<linearGradient id="paint0_linear_424_802" x1="116.583" y1="144" x2="116.583" y2="302" gradientUnits="userSpaceOnUse">
<stop stop-color="#D2F9D9"/>
<stop offset="0.578125" stop-color="#D2F9D9" stop-opacity="0"/>
</linearGradient>
<radialGradient id="paint1_radial_424_802" cx="0" cy="0" r="1" gradientUnits="userSpaceOnUse" gradientTransform="translate(139.333 256.5) rotate(-41.4702) scale(33.9761 33.7504)">
<stop stop-color="#F1FDF4"/>
<stop offset="1" stop-color="#F1FDF4" stop-opacity="0"/>
</radialGradient>
<linearGradient id="paint2_linear_424_802" x1="127.417" y1="181.499" x2="98.0859" y2="222.278" gradientUnits="userSpaceOnUse">
<stop stop-color="#F1FDF4"/>
<stop offset="1" stop-color="#F1FDF4" stop-opacity="0"/>
</linearGradient>
<clipPath id="clip0_424_802">
<rect width="230" height="168" fill="white" transform="translate(0 112)"/>
</clipPath>
</defs>
</svg>
