<svg width="15" height="18" viewBox="0 0 15 18" xmlns="http://www.w3.org/2000/svg">
<path d="M6.5 17C6.5 17.5523 6.94772 18 7.5 18C8.05228 18 8.5 17.5523 8.5 17H6.5ZM8.20711 0.292892C7.81658 -0.0976315 7.18342 -0.0976315 6.79289 0.292892L0.428932 6.65685C0.0384078 7.04738 0.0384078 7.68054 0.428932 8.07107C0.819457 8.46159 1.45262 8.46159 1.84315 8.07107L7.5 2.41421L13.1569 8.07107C13.5474 8.46159 14.1805 8.46159 14.5711 8.07107C14.9616 7.68054 14.9616 7.04738 14.5711 6.65685L8.20711 0.292892ZM8.5 17V1H6.5L6.5 17H8.5Z" fill="currentColor"/>
</svg>
