<svg width="25" height="24" viewBox="0 0 25 24" fill="none" xmlns="http://www.w3.org/2000/svg">
<path d="M20.5127 5.79742V12.5069" stroke="currentColor" stroke-width="1.5" stroke-linecap="round" stroke-linejoin="round"/>
<path d="M21.4729 18.2669H15.7129" stroke="currentColor" stroke-width="1.5" stroke-linecap="round" stroke-linejoin="round"/>
<path d="M19.5527 16.3469L21.4727 18.2669L19.5527 20.1869" stroke="currentColor" stroke-width="1.5" stroke-linecap="round" stroke-linejoin="round"/>
<path d="M11.8729 16.3469H6.11287C5.05207 16.3469 4.19287 15.4877 4.19287 14.4269V5.79742" stroke="currentColor" stroke-width="1.5" stroke-linecap="round" stroke-linejoin="round"/>
<path fill-rule="evenodd" clip-rule="evenodd" d="M6.12343 3.86688H18.5833C19.6489 3.86688 20.5138 4.73088 20.5138 5.79744V5.79744C20.5138 6.43776 20.1961 7.03584 19.6662 7.39488L14.5234 10.8806C13.213 11.7686 11.4927 11.7686 10.1823 10.8806L5.04055 7.39584C4.51063 7.0368 4.19287 6.43776 4.19287 5.7984V5.79744C4.19287 4.73088 5.05687 3.86688 6.12343 3.86688Z" stroke="currentColor" stroke-width="1.5" stroke-linecap="round" stroke-linejoin="round"/>
</svg>
