<svg width="32" height="33" viewBox="0 0 32 33" fill="none" xmlns="http://www.w3.org/2000/svg">
<path d="M24.4854 8.01472C29.1717 12.701 29.1717 20.299 24.4854 24.9853C19.7991 29.6715 12.2011 29.6715 7.51484 24.9853C2.82855 20.299 2.82855 12.701 7.51484 8.01472C12.2011 3.32843 19.7991 3.32843 24.4854 8.01472" stroke="currentColor" stroke-width="1.5" stroke-linecap="round" stroke-linejoin="round"/>
<path d="M18.6522 11.5985C20.1169 13.0633 20.1169 15.4381 18.6522 16.9028C17.1874 18.3675 14.8126 18.3675 13.3479 16.9028C11.8832 15.4381 11.8832 13.0633 13.3479 11.5985C14.8126 10.1338 17.1874 10.1338 18.6522 11.5985" stroke="currentColor" stroke-width="1.5" stroke-linecap="round" stroke-linejoin="round"/>
<path d="M23.6094 25.7773C21.6961 23.7627 18.9974 22.5 16.0001 22.5C13.0027 22.5 10.3041 23.7627 8.39075 25.7787" stroke="currentColor" stroke-width="1.5" stroke-linecap="round" stroke-linejoin="round"/>
</svg>
