<svg width="57" height="65" viewBox="0 0 57 65" fill="none" xmlns="http://www.w3.org/2000/svg">
<g id="Group">
<g id="Group_2">
<path id="Vector" d="M56.4574 20.451C56.4574 24.0162 56.439 27.5813 56.4615 31.1463C56.5004 37.3017 54.5592 42.818 51.0833 47.8297C46.8408 53.9468 41.135 58.4025 34.7567 62.078C32.965 63.1105 31.1105 64.0202 29.2181 64.8551C28.7817 65.0477 28.3988 65.0487 27.9619 64.8557C21.3498 61.9345 15.3685 58.0635 10.2876 52.9007C5.85655 48.398 2.61888 43.1814 1.28696 36.9162C0.899432 35.0936 0.71038 33.2505 0.713862 31.3816C0.728081 23.5799 0.732579 15.7778 0.700224 7.97625C0.696887 7.17739 0.981988 6.76765 1.66217 6.42844C7.13493 3.69887 12.8951 1.87118 18.9141 0.82451C23.1064 0.0954361 27.3337 -0.145702 31.5698 0.0835387C38.9894 0.485146 46.1119 2.21069 52.9161 5.21201C53.79 5.59751 54.634 6.0512 55.5106 6.42989C56.2101 6.73211 56.4859 7.17245 56.4775 7.97364C56.4344 12.1323 56.4574 16.2919 56.4574 20.451ZM2.82491 20.4398C2.82491 23.9781 2.80648 27.5166 2.8326 31.0547C2.84595 32.8621 2.97595 34.6698 3.36653 36.4385C4.57947 41.9318 7.32747 46.5962 11.1466 50.6673C15.952 55.7894 21.6991 59.572 28.0287 62.5285C28.4512 62.7258 28.7918 62.702 29.1949 62.505C31.1672 61.5409 33.1262 60.5547 35.0146 59.4298C39.8012 56.5782 44.0881 53.1253 47.6452 48.8232C52.2668 43.2335 54.5439 36.8438 54.3831 29.53C54.2373 22.8956 54.3312 16.2555 54.3753 9.61808C54.3818 8.63336 54.1045 8.10973 53.1864 7.68491C43.2714 3.09748 32.9067 1.35365 22.0384 2.56471C15.608 3.28131 9.5128 5.11117 3.66948 7.85249C3.04719 8.14441 2.8017 8.49944 2.80837 9.20515C2.84377 12.9498 2.82491 16.6948 2.82491 20.4398Z" fill="#0A3E66"/>
<path id="Vector_2" d="M28.6472 20.2669C28.6469 17.6601 28.6618 15.053 28.6369 12.4463C28.6304 11.7678 28.8187 11.4779 29.5566 11.4933C31.6721 11.5372 33.7896 11.4883 35.9056 11.5207C40.5169 11.591 44.1105 15.2212 44.2073 19.8282C44.2572 22.2082 43.7446 24.3959 42.1705 26.2377C40.6311 28.0388 38.628 28.9958 36.2824 29.0879C34.0145 29.177 31.7402 29.0923 29.4693 29.1241C28.7989 29.1335 28.6356 28.8455 28.6396 28.2424C28.6578 25.5839 28.6475 22.9254 28.6472 20.2669ZM32.1118 20.2321C32.1118 22.0399 32.1231 23.8479 32.1047 25.6556C32.0994 26.1725 32.2561 26.4137 32.8114 26.3954C33.7401 26.3648 34.6714 26.4119 35.6001 26.38C37.9606 26.299 39.6727 25.0121 40.3787 22.7647C40.8704 21.1996 40.8885 19.6008 40.4219 18.0318C39.7792 15.8703 38.3696 14.5837 36.0608 14.328C35.0015 14.2106 33.9455 14.2865 32.8908 14.2247C32.2625 14.188 32.0922 14.4522 32.1015 15.0411C32.129 16.7712 32.1113 18.5018 32.1118 20.2321Z" fill="#0A3E66"/>
<path id="Vector_3" d="M23.5927 19.8757C23.6502 19.9118 23.7094 19.961 23.7773 19.99C25.4988 20.7226 26.3174 22.0853 26.3003 23.8935C26.281 25.9156 25.4384 27.5495 23.6009 28.5356C21.75 29.5289 19.7942 29.6042 17.8202 28.9841C15.8875 28.3771 14.9208 26.8516 14.2818 25.0555C14.2076 24.8472 14.2374 24.6684 14.4215 24.5013C15.4717 23.5491 16.7997 23.7175 17.5157 24.9297C18.2278 26.1351 19.218 26.7259 20.6561 26.5897C22.599 26.4056 23.6868 24.5886 22.8619 22.5611C22.4898 21.6462 21.5143 21.5194 20.6413 21.3719C20.3633 21.3248 20.0749 21.342 19.7914 21.3264C19.3979 21.3048 19.1584 21.1304 19.1799 20.7007C19.1836 20.6235 19.1784 20.5459 19.1765 20.4684C19.1445 19.1276 19.1445 19.1276 20.4375 18.9004C21.982 18.6291 22.6466 18.0763 22.8493 16.8947C23.0299 15.841 22.6064 14.7871 21.8155 14.3231C20.9819 13.834 19.4841 13.9688 18.7473 14.6004C18.3884 14.9081 18.123 15.2814 17.9346 15.7169C17.441 16.8577 15.9832 17.2518 14.9225 16.5498C14.6374 16.3612 14.7049 16.1147 14.7501 15.8631C15.1692 13.5388 17.0556 11.7151 19.4117 11.3925C20.7587 11.2081 22.0863 11.2635 23.3449 11.8702C24.894 12.617 25.7803 13.8313 25.9087 15.5519C26.045 17.3802 25.4769 18.8599 23.7238 19.7068C23.6836 19.7264 23.662 19.7841 23.5927 19.8757Z" fill="#0A3E66"/>
<path id="Vector_4" d="M34.8484 37.6404C34.8487 36.842 34.864 36.0431 34.8433 35.2451C34.8292 34.7007 35.0223 34.4223 35.6033 34.457C36.448 34.5075 37.3043 34.3535 38.1374 34.6089C39.6208 35.0638 40.0646 36.6903 38.96 37.7756C38.6094 38.1202 38.5695 38.3322 38.8527 38.7217C39.2148 39.2198 39.4975 39.7752 39.8258 40.2989C40.0993 40.735 39.9583 40.8559 39.4792 40.8943C38.6945 40.9573 38.1328 40.7328 37.8093 39.9683C37.6402 39.5686 37.3844 39.2045 37.1551 38.8319C37.0572 38.6726 36.9099 38.5581 36.7032 38.6099C36.4757 38.6669 36.4721 38.8616 36.4681 39.0422C36.4607 39.377 36.442 39.7134 36.4658 40.0464C36.5063 40.6134 36.3291 40.8937 35.6945 40.8978C35.0522 40.902 34.8154 40.6646 34.8407 40.0354C34.8723 39.2383 34.8481 38.4388 34.8484 37.6404ZM36.4655 36.6059C36.4507 37.0116 36.4161 37.4441 37.0647 37.4011C37.6085 37.3652 37.9485 37.1424 37.9512 36.5561C37.954 35.9545 37.5961 35.7579 37.0536 35.74C36.4082 35.7187 36.4586 36.1618 36.4655 36.6059Z" fill="#0A3E66"/>
<path id="Vector_5" d="M32.4971 36.6978C32.4971 36.2337 32.518 35.7684 32.4917 35.3059C32.4601 34.7467 32.613 34.4527 33.2562 34.4448C33.9208 34.4365 34.1126 34.7178 34.0955 35.3249C34.0681 36.3039 34.1257 37.2865 34.0716 38.2634C33.9596 40.2815 32.3311 41.4044 30.3894 40.8271C29.4469 40.5469 28.833 39.9209 28.645 38.9451C28.3941 37.6428 28.5328 36.3231 28.529 35.0105C28.5274 34.4439 28.9495 34.4646 29.3511 34.4588C29.7858 34.4526 30.1162 34.5288 30.1063 35.0787C30.0915 35.9035 30.0954 36.7289 30.1109 37.5537C30.1178 37.9122 30.1606 38.2716 30.2092 38.6277C30.2964 39.2659 30.6849 39.5645 31.3181 39.5818C31.983 39.5999 32.3555 39.2176 32.4264 38.6256C32.5023 37.9916 32.4435 37.3413 32.4435 36.6981C32.4615 36.6981 32.4792 36.698 32.4971 36.6978Z" fill="#0A3E66"/>
<path id="Vector_6" d="M18.1287 37.6509C18.1287 36.8508 18.1409 36.0505 18.1245 35.2508C18.1135 34.7154 18.2918 34.4347 18.8827 34.4535C19.8109 34.4831 20.7406 34.4686 21.6696 34.4605C22.1056 34.4567 22.3427 34.6101 22.3446 35.0883C22.3463 35.5463 22.1548 35.755 21.7012 35.7508C21.2626 35.7467 20.8239 35.7615 20.3853 35.7603C19.9297 35.7592 19.8315 36.0386 19.8315 36.4225C19.8315 36.803 19.9143 37.0937 20.3798 37.0805C20.5603 37.0754 20.741 37.0847 20.9217 37.085C21.3218 37.0856 21.7114 37.0673 21.7202 37.6536C21.7287 38.2192 21.3841 38.2716 20.9584 38.2595C20.7779 38.2544 20.5968 38.2692 20.4166 38.2612C19.9741 38.242 19.8341 38.4819 19.8306 38.8861C19.827 39.3066 19.9345 39.5959 20.4276 39.5872C20.8404 39.58 21.2535 39.5969 21.6663 39.5924C22.096 39.5878 22.3447 39.739 22.3444 40.2205C22.3441 40.6731 22.1667 40.8871 21.7049 40.8827C20.7244 40.8734 19.7434 40.8714 18.7629 40.8836C18.2832 40.8895 18.13 40.6322 18.1313 40.2056C18.1336 39.3539 18.132 38.5024 18.132 37.6507C18.1307 37.6509 18.1297 37.6509 18.1287 37.6509Z" fill="#0A3E66"/>
<path id="Vector_7" d="M42.6915 34.4605C43.1305 34.4605 43.5697 34.469 44.0084 34.458C44.4436 34.447 44.7755 34.5218 44.7776 35.0706C44.7796 35.6364 44.4569 35.7673 43.9767 35.7539C43.5897 35.7431 43.2016 35.768 42.8148 35.7534C42.3441 35.7355 42.1796 35.9582 42.1819 36.4112C42.1841 36.8433 42.292 37.115 42.7885 37.0847C43.0456 37.069 43.305 37.0943 43.5629 37.0862C44.0009 37.0724 44.1596 37.3038 44.1493 37.7108C44.1395 38.0996 43.9411 38.2673 43.5616 38.2564C43.3294 38.2498 43.0955 38.2749 42.8647 38.2569C42.3655 38.2177 42.1783 38.4304 42.1783 38.933C42.1783 39.4578 42.4222 39.6116 42.8934 39.5917C43.28 39.5754 43.6682 39.6004 44.0552 39.591C44.5297 39.5794 44.7779 39.7742 44.7764 40.2736C44.775 40.755 44.5157 40.8901 44.0846 40.8849C43.1293 40.8733 42.1736 40.873 41.2184 40.8827C40.7605 40.8873 40.5663 40.681 40.5684 40.2273C40.5761 38.5231 40.5761 36.8188 40.5684 35.1144C40.5663 34.6598 40.7625 34.4502 41.2195 34.4608C41.7099 34.4722 42.2008 34.4634 42.6913 34.4634C42.6915 34.4625 42.6915 34.4615 42.6915 34.4605Z" fill="#0A3E66"/>
<path id="Vector_8" d="M17.5484 38.863C17.5385 40.1332 16.6169 41.0044 15.2853 40.9661C14.7151 40.9497 14.1653 40.8047 13.6635 40.5122C13.334 40.3201 13.0257 40.1354 13.3055 39.6737C13.5452 39.2784 13.8131 39.0108 14.3004 39.2988C14.6399 39.4995 14.9981 39.626 15.4008 39.5984C15.706 39.5776 15.965 39.4902 16.037 39.1507C16.1075 38.8176 15.9376 38.6008 15.6492 38.4797C15.3887 38.3703 15.1144 38.2948 14.8475 38.2002C13.7367 37.8064 13.2104 37.1047 13.3211 36.1678C13.436 35.1954 14.2602 34.4539 15.3539 34.3863C15.9256 34.351 16.4782 34.4742 16.9914 34.7517C17.329 34.9344 17.526 35.1457 17.3019 35.5497C17.1112 35.8933 16.9026 36.1675 16.4537 35.9763C16.1197 35.834 15.785 35.7045 15.4098 35.7545C15.1595 35.7878 14.9604 35.8846 14.9137 36.1579C14.8684 36.423 14.9912 36.618 15.2264 36.7174C15.6529 36.8976 16.0986 37.0341 16.5187 37.2275C17.3094 37.5916 17.5551 38.0036 17.5484 38.863Z" fill="#0A3E66"/>
<path id="Vector_9" d="M24.3303 37.6745C24.3301 39.3135 25.4402 40.0433 26.8949 39.3069C27.4378 39.0321 27.6662 39.3307 27.9031 39.6671C28.1975 40.0851 27.814 40.2898 27.5527 40.4547C26.5108 41.1124 25.4023 41.1588 24.3131 40.6143C23.1212 40.0185 22.67 38.9246 22.6536 37.6721C22.6215 35.2233 25.254 33.6047 27.4268 34.7164C27.7545 34.8841 28.2954 35.0077 27.9909 35.6007C27.7439 36.0815 27.4336 36.2337 26.8654 35.9695C25.4747 35.3231 24.3304 36.1203 24.3303 37.6745Z" fill="#0A3E66"/>
</g>
</g>
</svg>
