<svg width="79" height="51" viewBox="0 0 79 51" fill="none" xmlns="http://www.w3.org/2000/svg">
<g id="Group 1523354">
<path id="Vector" d="M74.0564 0.5H4.45882C2.16552 0.5 0.304688 2.40131 0.304688 4.74682V46.2531C0.304688 48.5991 2.16462 50.5 4.45882 50.5H74.0564C76.3499 50.5 78.2107 48.5986 78.2107 46.2531V4.74682C78.2107 2.40091 76.3507 0.5 74.0564 0.5ZM52.2186 47.1335C47.3405 47.1335 42.8436 45.4412 39.2556 42.611C35.6702 45.4413 31.1732 47.1335 26.2946 47.1335C14.5992 47.1335 5.08407 37.4262 5.08407 25.4981C5.08407 13.5692 14.5991 3.86675 26.2946 3.86675C31.173 3.86675 35.6698 5.55284 39.2556 8.38712C42.8432 5.55284 47.3401 3.86675 52.2186 3.86675C63.9141 3.86675 73.4292 13.5696 73.4292 25.4981C73.4291 37.4261 63.9135 47.1335 52.2186 47.1335Z" fill="url(#paint0_linear_714_2539)"/>
<path id="Vector_2" d="M22.1551 26.8834C21.9458 26.8614 21.8547 26.853 21.7111 26.853C20.5823 26.853 20.0137 27.248 20.0137 28.0263C20.0137 28.5082 20.2927 28.815 20.724 28.815C21.5358 28.815 22.119 28.0263 22.1551 26.8834Z" fill="url(#paint1_linear_714_2539)"/>
<path id="Vector_3" d="M55.3153 26.8834C55.1082 26.8614 55.0153 26.853 54.8692 26.853C53.7425 26.853 53.1719 27.248 53.1719 28.0263C53.1719 28.5082 53.451 28.815 53.8867 28.815C54.6962 28.815 55.2817 28.0263 55.3153 26.8834Z" fill="url(#paint2_linear_714_2539)"/>
<path id="Vector_4" d="M38.3482 25.5654C38.3609 25.4055 38.5573 24.1821 37.4287 24.1821C36.7988 24.1821 36.3466 24.677 36.165 25.5654H38.3482Z" fill="url(#paint3_linear_714_2539)"/>
<path id="Vector_5" d="M65.027 28.5411C65.9526 28.5411 66.6059 27.4668 66.6059 25.9372C66.6059 24.954 66.2363 24.4224 65.5508 24.4224C64.6482 24.4224 64.0078 25.4963 64.0078 27.0155C64.0077 28.0287 64.3506 28.5411 65.027 28.5411Z" fill="url(#paint4_linear_714_2539)"/>
<path id="Vector_6" d="M52.1524 5.80664C47.8554 5.80664 43.8885 7.24583 40.6833 9.6744C43.5901 12.4398 45.7397 16.0309 46.7668 20.0783H44.8036C43.7977 16.5004 41.8315 13.3415 39.206 10.9104C36.5834 13.3415 34.6157 16.5003 33.6137 20.0783H31.6474C32.6769 16.0312 34.8265 12.4401 37.7332 9.6744C34.5266 7.24583 30.561 5.80664 26.2622 5.80664C15.6109 5.80664 6.97754 14.6329 6.97754 25.5232C6.97754 36.411 15.6118 45.2397 26.2622 45.2397C30.5612 45.2397 34.5267 43.8006 37.7332 41.372C34.9981 38.7681 32.9349 35.4319 31.8441 31.6766H33.8293C34.8839 34.9647 36.7562 37.8671 39.2059 40.136C41.6583 37.8671 43.5331 34.9648 44.5878 31.6766H46.5724C45.4799 35.4321 43.4169 38.768 40.6833 41.372C43.8881 43.8005 47.855 45.2397 52.1524 45.2397C62.8027 45.2397 71.437 36.4106 71.437 25.5232C71.437 14.6323 62.8026 5.80664 52.1524 5.80664ZM14.9287 30.3268L16.0681 23.0232L13.5254 30.3268H12.1685L12.0014 23.0666L10.8053 30.3268H8.94288L10.4962 20.8239H13.358L13.4384 26.7055L15.3684 20.8239H18.4566L16.9177 30.3268H14.9287ZM24.1949 26.2259C24.0216 27.3427 23.6516 29.7411 23.6008 30.3268H21.9521L21.9905 29.5252C21.4871 30.1582 20.8171 30.4611 19.9065 30.4611C18.8262 30.4611 18.0908 29.599 18.0908 28.352C18.0908 26.4676 19.3735 25.3723 21.5802 25.3723C21.8064 25.3723 22.0959 25.3938 22.3919 25.4327C22.4533 25.1756 22.4681 25.0676 22.4681 24.9292C22.4681 24.4194 22.1233 24.2271 21.1934 24.2271C20.2213 24.2141 19.418 24.4627 19.0882 24.575C19.1096 24.4454 19.3652 22.8377 19.3652 22.8377C20.3547 22.5396 21.0095 22.4272 21.745 22.4272C23.453 22.4272 24.3576 23.2093 24.3555 24.6917C24.3576 25.0891 24.2942 25.5796 24.1949 26.2259ZM29.5825 24.3718C29.0794 24.2983 28.5447 24.2548 28.1559 24.2548C27.5113 24.2548 27.1795 24.4668 27.1795 24.8859C27.1795 25.2467 27.2768 25.3332 28.1092 25.7264C29.107 26.1956 29.5108 26.8136 29.5108 27.8786C29.5108 29.6418 28.5426 30.4609 26.4439 30.4609C25.2284 30.4258 24.8269 30.3313 24.3725 30.2319L24.6472 28.4471C25.2836 28.6584 25.8374 28.7494 26.4292 28.7494C27.2174 28.7494 27.5726 28.5333 27.5726 28.054C27.5726 27.7013 27.4479 27.5891 26.6426 27.2003C25.5898 26.6924 25.1291 26.0206 25.1291 25.0416C25.1206 23.6134 25.89 22.427 28.1155 22.427C28.5702 22.427 29.35 22.4961 29.8659 22.5783L29.5825 24.3718ZM33.7402 24.4581H32.7198C32.4913 25.9254 32.1637 27.7534 32.1594 27.9996C32.1594 28.3994 32.3686 28.572 32.8419 28.572C33.0682 28.572 33.2434 28.5464 33.3766 28.4988L33.115 30.2104C32.5689 30.3829 32.1446 30.4611 31.6835 30.4611C30.6671 30.4611 30.113 29.8625 30.113 28.7623C30.1006 28.4211 30.2611 27.5245 30.388 26.7012C30.5 25.9815 31.248 21.4335 31.248 21.4335H33.2246L32.9943 22.5998H34.011L33.7402 24.4581ZM39.9502 27.1268H36.0144C35.8812 28.2436 36.5832 28.7106 37.7332 28.7106C38.441 28.7106 39.0775 28.5635 39.7875 28.2266L39.4599 30.1497C38.7793 30.3617 38.1237 30.461 37.4308 30.461C35.2153 30.4562 34.0617 29.2746 34.0617 27.0123C34.0617 24.3716 35.5305 22.4269 37.5236 22.4269C39.1533 22.4269 40.1957 23.5138 40.1957 25.2251C40.1957 25.7913 40.1218 26.3423 39.9502 27.1268ZM44.3636 24.795C43.2498 24.6784 43.0788 25.6011 42.3662 30.3265H40.3772L40.4683 29.8062C40.8128 27.4118 41.2565 24.9896 41.5063 22.5996H43.3322C43.3487 22.9929 43.2624 23.3755 43.2136 23.7731C43.8208 22.8591 44.2895 22.375 45.1204 22.5524C44.8751 22.9803 44.5433 23.8249 44.3636 24.795ZM50.3347 30.18C49.6033 30.3872 49.1278 30.4611 48.5784 30.4611C46.4375 30.4611 45.103 28.8835 45.103 26.36C45.103 22.9629 46.9463 20.5905 49.5823 20.5905C50.4507 20.5905 51.476 20.9666 51.7677 21.0831L51.4419 23.1444C50.7318 22.777 50.2162 22.6299 49.6644 22.6299C48.1789 22.6299 47.1404 24.0973 47.1404 26.1908C47.1404 27.6323 47.8382 28.5053 48.9942 28.5053C49.4854 28.5053 50.0262 28.348 50.6835 28.0171L50.3347 30.18ZM57.3542 26.2259C57.183 27.3427 56.8115 29.7411 56.7603 30.3268H55.114L55.152 29.5252C54.6468 30.1582 53.9744 30.4611 53.0654 30.4611C51.9875 30.4611 51.2474 29.599 51.2474 28.352C51.2474 26.4676 52.5349 25.3723 54.7394 25.3723C54.9657 25.3723 55.2553 25.3938 55.5515 25.4327C55.6121 25.1756 55.6273 25.0676 55.6273 24.9292C55.6273 24.4194 55.2828 24.2271 54.3547 24.2271C53.3805 24.2141 52.5796 24.4627 52.2495 24.575C52.2685 24.4454 52.5245 22.8377 52.5245 22.8377C53.5157 22.5396 54.1708 22.4272 54.9022 22.4272C56.6121 22.4272 57.5172 23.2093 57.5147 24.6917C57.519 25.0891 57.4537 25.5796 57.3542 26.2259ZM59.7513 30.3265H57.7642L57.8553 29.8062C58.1998 27.4118 58.6417 24.9896 58.891 22.5996H60.7173C60.7363 22.9929 60.6495 23.3755 60.6011 23.7731C61.2075 22.8591 61.6729 22.375 62.5071 22.5524C62.2579 22.9803 61.928 23.8249 61.7505 24.795C60.6368 24.6784 60.4637 25.6011 59.7513 30.3265ZM66.0798 30.3265L66.1746 29.6073C65.627 30.2018 65.0672 30.4611 64.34 30.4611C62.8939 30.4611 61.9388 29.1881 61.9388 27.2566C61.9388 24.6826 63.42 22.5177 65.1743 22.5177C65.9441 22.5177 66.5314 22.8375 67.0751 23.5701L67.5146 20.8238H69.4765L67.9625 30.3265H66.0798Z" fill="url(#paint5_linear_714_2539)"/>
</g>
<defs>
<linearGradient id="paint0_linear_714_2539" x1="39.2577" y1="0.5" x2="39.2577" y2="50.5" gradientUnits="userSpaceOnUse">
<stop stop-color="#515151"/>
<stop offset="1" stop-color="#ADADAD"/>
</linearGradient>
<linearGradient id="paint1_linear_714_2539" x1="21.0844" y1="26.853" x2="21.0844" y2="28.815" gradientUnits="userSpaceOnUse">
<stop stop-color="#515151"/>
<stop offset="1" stop-color="#ADADAD"/>
</linearGradient>
<linearGradient id="paint2_linear_714_2539" x1="54.2436" y1="26.853" x2="54.2436" y2="28.815" gradientUnits="userSpaceOnUse">
<stop stop-color="#515151"/>
<stop offset="1" stop-color="#ADADAD"/>
</linearGradient>
<linearGradient id="paint3_linear_714_2539" x1="37.267" y1="24.1821" x2="37.267" y2="25.5654" gradientUnits="userSpaceOnUse">
<stop stop-color="#515151"/>
<stop offset="1" stop-color="#ADADAD"/>
</linearGradient>
<linearGradient id="paint4_linear_714_2539" x1="65.3069" y1="24.4224" x2="65.3069" y2="28.5411" gradientUnits="userSpaceOnUse">
<stop stop-color="#515151"/>
<stop offset="1" stop-color="#ADADAD"/>
</linearGradient>
<linearGradient id="paint5_linear_714_2539" x1="39.2073" y1="5.80664" x2="39.2073" y2="45.2397" gradientUnits="userSpaceOnUse">
<stop stop-color="#515151"/>
<stop offset="1" stop-color="#ADADAD"/>
</linearGradient>
</defs>
</svg>
