<svg width="79" height="51" viewBox="0 0 79 51" fill="none" xmlns="http://www.w3.org/2000/svg">
<g id="Group 1523356">
<path id="Vector" d="M74.1547 0.5H4.62747C2.33649 0.5 0.477539 2.40129 0.477539 4.74683V46.2532C0.477539 48.5992 2.33559 50.5 4.62747 50.5H74.1547C76.4458 50.5 78.3047 48.5987 78.3047 46.2532V4.74683C78.3047 2.40089 76.4467 0.5 74.1547 0.5ZM15.9347 35.8993L11.0121 17.8493C9.31003 16.8838 7.3678 16.1078 5.19594 15.57L5.26661 15.1377H14.1951C15.3978 15.1834 16.37 15.5761 16.7051 16.8921L18.6462 26.4409L18.6466 26.442L19.2242 29.3219L24.6451 15.1508H30.5103L21.7932 35.8914L15.9347 35.8985V35.8993ZM34.8235 35.917H29.2889L29.2888 35.9169L32.7508 15.1352H38.2878L34.8235 35.917ZM44.459 36.2253C41.9759 36.1993 39.5845 35.6968 38.2911 35.1167L39.0683 30.4645L39.7816 30.7948C41.6001 31.5706 42.7775 31.8856 44.9936 31.8856C46.5851 31.8856 48.2926 31.2492 48.3063 29.8563C48.3166 28.9466 47.592 28.2971 45.4368 27.2785C43.3365 26.2843 40.5542 24.6186 40.585 21.6325C40.6178 17.593 44.4718 14.7743 49.943 14.7743C52.0896 14.7743 53.8087 15.2262 54.9056 15.6472L54.1551 20.1515L53.6588 19.9115C52.6369 19.4906 51.3253 19.0867 49.5148 19.1153C47.3471 19.1153 46.3438 20.0392 46.3438 20.9029C46.3312 21.8763 47.5165 22.5179 49.4519 23.4791C52.6464 24.9624 54.1216 26.7615 54.1005 29.1254C54.0577 33.4391 50.2793 36.2253 44.459 36.2253ZM68.4479 35.9236C68.4479 35.9236 67.94 33.5371 67.7744 32.8097C66.9669 32.8097 61.3185 32.8007 60.6831 32.8007C60.4682 33.3627 59.5173 35.9236 59.5173 35.9236H53.7029L61.9262 16.8786C62.5083 15.5254 63.5002 15.1553 64.8258 15.1553H69.1043L73.5859 35.924H68.4479V35.9236Z" fill="url(#paint0_linear_714_2536)"/>
<path id="Vector_2" d="M62.2765 28.5497C62.7343 27.3522 64.4825 22.7404 64.4825 22.7404C64.4497 22.7958 64.9369 21.5373 65.2165 20.7571L65.591 22.5487C65.591 22.5487 66.651 27.5093 66.8726 28.5495H62.2764L62.2765 28.5497Z" fill="url(#paint1_linear_714_2536)"/>
</g>
<defs>
<linearGradient id="paint0_linear_714_2536" x1="39.3911" y1="0.5" x2="39.3911" y2="50.5" gradientUnits="userSpaceOnUse">
<stop stop-color="#515151"/>
<stop offset="1" stop-color="#ADADAD"/>
</linearGradient>
<linearGradient id="paint1_linear_714_2536" x1="64.5745" y1="20.7571" x2="64.5745" y2="28.5497" gradientUnits="userSpaceOnUse">
<stop stop-color="#515151"/>
<stop offset="1" stop-color="#ADADAD"/>
</linearGradient>
</defs>
</svg>
