<svg width="79" height="51" viewBox="0 0 79 51" fill="none" xmlns="http://www.w3.org/2000/svg">
<g id="Group 1523355">
<path id="Vector" d="M73.9836 0.5H4.36628C2.07229 0.5 0.210938 2.40129 0.210938 4.74683V46.2532C0.210938 48.5992 2.07129 50.5 4.36628 50.5H73.9836C76.2776 50.5 78.139 48.5987 78.139 46.2532V4.74683C78.1389 2.40089 76.2785 0.5 73.9836 0.5ZM52.1148 47.0964C47.2417 47.0964 42.7457 45.4108 39.1599 42.5747C35.5736 45.4108 31.08 47.0964 26.205 47.0964C14.5164 47.0964 5.00792 37.386 5.00792 25.4519C5.00792 13.52 14.5161 3.8113 26.205 3.8113C31.0802 3.8113 35.5737 5.50098 39.1599 8.3342C42.7457 5.50098 47.2416 3.8113 52.1148 3.8113C63.8075 3.8113 73.3159 13.5201 73.3159 25.4519C73.3158 37.3867 63.8074 47.0964 52.1148 47.0964Z" fill="url(#paint0_linear_714_2546)"/>
<path id="Vector_2" d="M37.5511 25.463C37.5511 25.2915 37.8029 24.1017 36.4899 24.0745C35.7646 24.0745 35.2433 24.5693 35.0312 25.463H37.5511Z" fill="url(#paint1_linear_714_2546)"/>
<path id="Vector_3" d="M29.3356 26.7894C29.0954 26.7621 28.9887 26.7544 28.8224 26.7544C27.5207 26.7544 26.8643 27.1471 26.8643 27.9292C26.8643 28.4244 27.185 28.7272 27.6869 28.7272C28.619 28.7272 29.2956 27.9293 29.3356 26.7894Z" fill="url(#paint2_linear_714_2546)"/>
<path id="Vector_4" d="M61.3924 24.1582C60.2431 24.1582 59.5273 25.5478 59.5273 26.7773C59.5273 27.8159 60.0143 28.5074 60.8251 28.4966C61.9365 28.4966 62.6395 27.4573 62.6395 25.7081C62.6395 24.9126 62.3215 24.1582 61.3924 24.1582Z" fill="url(#paint3_linear_714_2546)"/>
<path id="Vector_5" d="M52.1153 5.75024C47.8158 5.75024 43.8466 7.18868 40.6358 9.61539C43.7708 12.5915 46.0183 16.5236 46.9415 20.9467H44.9986C44.0925 16.9888 42.0139 13.4889 39.1605 10.8506C36.3093 13.4892 34.2315 16.9891 33.3245 20.9467H31.3827C32.3048 16.5231 34.5533 12.591 37.6859 9.61539C34.4792 7.18868 30.5064 5.75024 26.2054 5.75024C15.5488 5.75024 6.90723 14.5697 6.90723 25.4519C6.90723 36.3347 15.5488 45.1605 26.2054 45.1605C30.506 45.1605 34.4788 43.721 37.6859 41.2943C34.9484 38.6903 32.8854 35.364 31.7915 31.6058H33.7777C34.834 34.8905 36.7129 37.7911 39.1607 40.0599C41.6141 37.7911 43.4893 34.8905 44.5456 31.6058H46.5314C45.4412 35.364 43.3749 38.6902 40.6359 41.2943C43.8469 43.721 47.816 45.1605 52.1154 45.1605C62.775 45.1605 71.4156 36.3345 71.4156 25.4519C71.4154 14.569 62.7749 5.75024 52.1153 5.75024ZM20.8942 30.2536L22.2508 22.9543L19.1274 30.2536H17.0457L16.6669 22.9987L15.306 30.2536H13.2346L14.9991 20.7593H18.5646L18.7531 26.6344L21.2634 20.7593H24.9753L23.176 30.2536H20.8942ZM31.6919 26.1182C31.6135 26.6259 31.0685 29.5579 31.0111 30.2536H29.103L29.1498 29.4364C28.5687 30.0759 27.7962 30.3786 26.743 30.3786C25.5002 30.3786 24.6463 29.5097 24.6463 28.2628C24.6463 26.3654 26.1292 25.2708 28.6756 25.2708C28.936 25.2708 29.2717 25.2872 29.6122 25.327C29.6822 25.0706 29.701 24.9628 29.701 24.8244C29.701 24.3048 29.3023 24.1142 28.228 24.1142C27.1726 24.1187 26.4604 24.2787 25.7997 24.4602L26.1248 22.7192C27.269 22.4245 28.0184 22.3102 28.8641 22.3102C30.8357 22.3102 31.8794 23.0966 31.8794 24.5814C31.8949 24.976 31.7598 25.7735 31.6919 26.1182ZM39.3427 27.0267H34.8003C34.6361 28.1356 35.4302 28.6237 36.7826 28.6237C37.5923 28.6237 38.3224 28.4767 39.1326 28.1419L38.7769 30.0717C37.9928 30.2775 37.2332 30.3786 36.4325 30.3786C33.8796 30.3786 32.5461 29.1899 32.5461 26.9145C32.5461 24.2627 34.2395 22.3103 36.542 22.3103C38.4219 22.3103 39.6234 23.4067 39.6234 25.1197C39.6235 25.6858 39.5429 26.2393 39.3427 27.0267ZM46.0108 24.2627C45.4179 24.1881 44.7942 24.1447 44.3386 24.1447C43.585 24.1447 43.1998 24.3591 43.1998 24.7815C43.1998 25.1401 43.3117 25.2298 44.2838 25.6252C45.4515 26.0931 45.9216 26.7212 45.9216 27.7854C45.9216 29.5579 44.7918 30.3786 42.3407 30.3786C41.5144 30.3614 40.5828 30.3077 39.9201 30.1495L40.2529 28.3647C40.9964 28.5761 41.6291 28.6631 42.3216 28.6675C43.2443 28.6715 43.657 28.4512 43.657 27.9603C43.657 27.608 43.509 27.4949 42.5706 27.101C41.3408 26.6 40.7995 25.9201 40.7995 24.9393C40.7915 23.5041 41.6922 22.3103 44.2941 22.3103C44.8229 22.3103 45.7398 22.3795 46.3409 22.4613L46.0108 24.2627ZM50.939 24.3793H49.7684C49.7684 24.3793 49.1265 27.6685 49.1265 27.9193C49.1265 28.3211 49.3636 28.4943 49.9058 28.4943C50.1662 28.4943 50.3653 28.4724 50.524 28.4169L50.219 30.1321C49.5947 30.3078 49.1051 30.3787 48.5809 30.3787C47.4104 30.3787 46.7732 29.7695 46.7732 28.6844C46.7342 28.3908 47.0226 27.0106 47.0862 26.626C47.1494 26.2394 48.1654 20.6321 48.1654 20.6321H50.4347L50.0879 22.4873H51.252L50.939 24.3793ZM53.7368 30.2536H51.4423L51.54 29.7257C51.9376 27.3218 52.4504 24.8853 52.7382 22.4818H54.8675C54.8975 22.846 54.778 23.2436 54.7148 23.6597C55.4177 22.7446 56.1967 22.0953 57.403 22.5489C57.403 22.5489 56.6584 24.4974 56.5692 24.7469C54.8381 24.2789 54.5626 25.6039 53.7368 30.2536ZM60.6353 30.3786C58.079 30.3786 57.0478 28.7922 57.0478 26.854C57.0478 24.1448 58.7938 22.3102 61.4968 22.3102C63.8447 22.3102 65.0914 23.8207 65.0914 25.7592C65.0915 28.9743 63.2201 30.3786 60.6353 30.3786Z" fill="url(#paint4_linear_714_2546)"/>
</g>
<defs>
<linearGradient id="paint0_linear_714_2546" x1="39.1749" y1="0.5" x2="39.1749" y2="50.5" gradientUnits="userSpaceOnUse">
<stop stop-color="#515151"/>
<stop offset="1" stop-color="#ADADAD"/>
</linearGradient>
<linearGradient id="paint1_linear_714_2546" x1="36.3008" y1="24.0745" x2="36.3008" y2="25.463" gradientUnits="userSpaceOnUse">
<stop stop-color="#515151"/>
<stop offset="1" stop-color="#ADADAD"/>
</linearGradient>
<linearGradient id="paint2_linear_714_2546" x1="28.0999" y1="26.7544" x2="28.0999" y2="28.7272" gradientUnits="userSpaceOnUse">
<stop stop-color="#515151"/>
<stop offset="1" stop-color="#ADADAD"/>
</linearGradient>
<linearGradient id="paint3_linear_714_2546" x1="61.0834" y1="24.1582" x2="61.0834" y2="28.4967" gradientUnits="userSpaceOnUse">
<stop stop-color="#515151"/>
<stop offset="1" stop-color="#ADADAD"/>
</linearGradient>
<linearGradient id="paint4_linear_714_2546" x1="39.1614" y1="5.75024" x2="39.1614" y2="45.1605" gradientUnits="userSpaceOnUse">
<stop stop-color="#515151"/>
<stop offset="1" stop-color="#ADADAD"/>
</linearGradient>
</defs>
</svg>
