<svg width="59" height="69" viewBox="0 0 59 69" fill="none" xmlns="http://www.w3.org/2000/svg">
<g id="Group 270988814">
<path id="Vector" d="M40.1561 56.5033C37.2656 55.6348 34.66 54.009 32.6093 51.7945V49.3271C32.6093 48.3747 32.9877 47.4613 33.6612 46.7878C34.3346 46.1143 35.248 45.736 36.2005 45.736C37.1529 45.736 38.0663 46.1143 38.7398 46.7878C39.4132 47.4613 39.7916 48.3747 39.7916 49.3271C39.8055 49.577 39.9145 49.8121 40.0963 49.9841C40.2781 50.1561 40.5189 50.2519 40.7692 50.2519C41.0195 50.2519 41.2603 50.1561 41.4421 49.9841C41.6239 49.8121 41.7329 49.577 41.7468 49.3271C41.7641 48.5877 41.6333 47.8522 41.3622 47.1641C41.0912 46.4759 40.6853 45.8489 40.1684 45.3198C39.6515 44.7907 39.0341 44.3703 38.3524 44.0833C37.6708 43.7963 36.9386 43.6484 36.199 43.6484C35.4593 43.6484 34.7271 43.7963 34.0455 44.0833C33.3638 44.3703 32.7464 44.7907 32.2295 45.3198C31.7126 45.8489 31.3067 46.4759 31.0357 47.1641C30.7646 47.8522 30.6339 48.5877 30.6511 49.3271V52.4904L30.859 52.7555C33.1689 55.4319 36.2028 57.3841 39.5958 58.3772C39.9075 58.4437 40.1994 58.582 40.4484 58.7809C40.2646 59.4768 37.6676 61.2242 33.6367 62.366L32.534 58.7779C32.4519 58.5369 32.2792 58.3373 32.0524 58.2216C31.8257 58.1058 31.5627 58.0829 31.3193 58.1578C31.076 58.2326 30.8714 58.3993 30.7489 58.6225C30.6264 58.8457 30.5956 59.1078 30.6631 59.3533L32.7901 66.2675C30.151 67.5147 26.6954 66.8851 25.2041 66.4181L27.5028 59.3563C27.5719 59.1125 27.5438 58.8514 27.4243 58.6279C27.3048 58.4044 27.1034 58.2359 26.8623 58.1579C26.6211 58.0799 26.3592 58.0984 26.1314 58.2095C25.9037 58.3206 25.7279 58.5157 25.641 58.7538L24.4721 62.3479C20.4893 61.2001 17.9255 59.4678 17.7447 58.7839C17.9937 58.585 18.2856 58.4468 18.5973 58.3802C21.9903 57.3871 25.0242 55.4349 27.3341 52.7586L27.542 52.4934V49.3301C27.542 47.8583 26.9573 46.4468 25.9166 45.4061C24.8759 44.3654 23.4644 43.7807 21.9926 43.7807C20.5208 43.7807 19.1093 44.3654 18.0686 45.4061C17.0279 46.4468 16.4432 47.8583 16.4432 49.3301C16.4432 49.5898 16.5464 49.8388 16.73 50.0225C16.9136 50.2061 17.1627 50.3092 17.4224 50.3092C17.6821 50.3092 17.9311 50.2061 18.1147 50.0225C18.2983 49.8388 18.4015 49.5898 18.4015 49.3301C18.4015 48.8585 18.4944 48.3915 18.6749 47.9558C18.8553 47.5202 19.1198 47.1243 19.4533 46.7908C19.7868 46.4573 20.1827 46.1928 20.6184 46.0123C21.0541 45.8319 21.521 45.739 21.9926 45.739C22.4642 45.739 22.9312 45.8319 23.3669 46.0123C23.8026 46.1928 24.1985 46.4573 24.5319 46.7908C24.8654 47.1243 25.1299 47.5202 25.3104 47.9558C25.4909 48.3915 25.5837 48.8585 25.5837 49.3301V51.7975C23.5315 54.0109 20.925 55.6356 18.0339 56.5033C16.136 57.0637 15.7564 58.0549 15.7714 58.7869C15.8196 61.2272 20.6218 63.2518 23.8575 64.2098L22.8211 67.3972L23.4568 67.8039C24.1798 68.2679 26.4695 68.9638 29.0514 68.9638C30.877 68.9638 32.8413 68.6143 34.4742 67.575L35.1038 67.1743L34.2 64.2429C37.7851 63.2035 42.3494 61.1127 42.4006 58.796C42.4367 58.0519 42.0571 57.0607 40.1561 56.5033Z" fill="url(#paint0_linear_818_1036)"/>
<path id="Vector_2" d="M0.461149 21.5077L8.15857 26.7378C7.77264 28.3369 7.7431 30.0014 8.07206 31.6132C8.40101 33.2251 9.0804 34.7449 10.0621 36.0649C11.0438 37.3849 12.3038 38.473 13.7528 39.2518C15.2018 40.0307 16.8043 40.4814 18.4469 40.572C15.0878 41.7771 12.7228 44.6542 12.7228 47.9923C12.7367 48.2422 12.8457 48.4773 13.0275 48.6493C13.2094 48.8213 13.4501 48.9171 13.7004 48.9171C13.9507 48.9171 14.1915 48.8213 14.3733 48.6493C14.5551 48.4773 14.6642 48.2422 14.678 47.9923C14.678 44.6361 17.992 41.9066 22.029 41.9066C22.1775 41.9056 22.3239 41.8706 22.4568 41.8042C22.5084 41.8148 22.5608 41.8208 22.6135 41.8223H26.307C26.7047 41.9006 27.6808 43.1298 28.3135 44.353C28.3958 44.512 28.5203 44.6453 28.6734 44.7382C28.8264 44.8312 29.002 44.8803 29.1811 44.8802H29.2052C29.389 44.8758 29.5678 44.8198 29.7213 44.7186C29.8747 44.6174 29.9966 44.475 30.0729 44.3078C30.6754 42.9701 31.6304 41.8253 31.9799 41.8253H35.5951C35.6745 41.8236 35.7534 41.8124 35.8301 41.7922C35.9704 41.8693 36.1279 41.9098 36.2881 41.9097C40.3431 41.9097 43.639 44.6392 43.639 47.9953C43.639 48.255 43.7422 48.504 43.9258 48.6876C44.1094 48.8713 44.3585 48.9744 44.6181 48.9744C44.8778 48.9744 45.1269 48.8713 45.3105 48.6876C45.4941 48.504 45.5973 48.255 45.5973 47.9953C45.5973 44.6542 43.2233 41.7831 39.8732 40.572C42.7258 40.3922 45.4031 39.1335 47.3615 37.0514C49.3199 34.9694 50.4125 32.2201 50.4176 29.3618C50.4187 28.4794 50.3176 27.5999 50.1163 26.7408L57.8107 21.5107C57.9198 21.4396 58.0136 21.3474 58.0866 21.2395C58.1597 21.1316 58.2104 21.0103 58.236 20.8826C58.2615 20.7548 58.2613 20.6233 58.2354 20.4956C58.2094 20.368 58.1583 20.2468 58.0849 20.1392C58.0116 20.0315 57.9175 19.9396 57.8081 19.8688C57.6988 19.798 57.5765 19.7497 57.4482 19.7268C57.32 19.7038 57.1885 19.7067 57.0614 19.7353C56.9343 19.7638 56.8142 19.8174 56.7081 19.8929L45.9196 27.2258C45.7047 27.3716 45.5565 27.5969 45.5076 27.852C45.4587 28.107 45.5132 28.3711 45.659 28.586C45.8048 28.801 46.0301 28.9492 46.2852 28.998C46.5403 29.0469 46.8043 28.9925 47.0193 28.8466L48.3599 27.9428C48.4332 28.4153 48.4704 28.8927 48.4714 29.3708C48.4728 30.8121 48.1385 32.2338 47.495 33.5234C46.8515 34.8129 45.9164 35.9349 44.764 36.8002C43.6115 37.6656 42.2733 38.2507 40.8554 38.509C39.4375 38.7673 37.979 38.6918 36.5953 38.2884V32.724C37.4786 33.3489 38.5577 33.6343 39.6345 33.5276C40.7112 33.421 41.7134 32.9295 42.4569 32.1435C43.2005 31.3574 43.6355 30.3296 43.6822 29.2485C43.7289 28.1675 43.3841 27.106 42.7111 26.2587L56.7563 16.0397C56.867 15.9669 56.9618 15.8724 57.0349 15.7619C57.108 15.6515 57.158 15.5273 57.1817 15.3969C57.2054 15.2666 57.2025 15.1328 57.173 15.0036C57.1435 14.8744 57.0881 14.7526 57.0101 14.6455C56.9322 14.5383 56.8333 14.4481 56.7195 14.3803C56.6056 14.3125 56.4792 14.2685 56.3479 14.251C56.2166 14.2335 56.0831 14.2428 55.9554 14.2784C55.8278 14.314 55.7087 14.3751 55.6054 14.458L40.6203 25.361L40.5781 25.4001C40.5499 25.4207 40.5237 25.4439 40.4998 25.4694C40.4757 25.4935 40.4546 25.5206 40.4335 25.5447C40.4124 25.5688 40.4064 25.5749 40.3943 25.5929C40.3882 25.6013 40.3831 25.6104 40.3793 25.62C40.36 25.6488 40.3428 25.679 40.3281 25.7104C40.3126 25.7363 40.2995 25.7635 40.2889 25.7918C40.2771 25.821 40.268 25.8513 40.2618 25.8822C40.2496 25.912 40.2414 25.9435 40.2377 25.9755C40.2377 26.0057 40.2377 26.0358 40.2377 26.0659C40.2377 26.096 40.2377 26.1292 40.2377 26.1623C40.2377 26.1955 40.2377 26.2226 40.2377 26.2557C40.2377 26.2889 40.2377 26.316 40.2377 26.3461C40.2377 26.3762 40.2377 26.4064 40.2618 26.4365C40.27 26.4682 40.2801 26.4994 40.2919 26.5299C40.2919 26.557 40.319 26.5811 40.3341 26.6082C40.3499 26.6406 40.368 26.6718 40.3883 26.7016C40.3868 26.7096 40.3868 26.7177 40.3883 26.7257C40.3967 26.7382 40.4068 26.7494 40.4185 26.7588C40.4484 26.7978 40.4817 26.8341 40.5179 26.8673L40.5811 26.9215C40.5934 26.9334 40.6065 26.9445 40.6203 26.9547C40.9794 27.2048 41.2679 27.5433 41.4581 27.9375C41.6482 28.3317 41.7335 28.7682 41.7058 29.2049C41.678 29.6417 41.5382 30.0639 41.2997 30.4308C41.0612 30.7978 40.7321 31.097 40.3442 31.2997C39.9564 31.5024 39.5228 31.6017 39.0854 31.588C38.648 31.5743 38.2215 31.448 37.8471 31.2214C37.4727 30.9949 37.163 30.6756 36.948 30.2944C36.7329 29.9133 36.6198 29.4831 36.6194 29.0455C36.6193 28.9535 36.605 28.862 36.5773 28.7743V28.5725C36.5777 28.444 36.5527 28.3168 36.5038 28.198C36.455 28.0792 36.3831 27.9713 36.2924 27.8803C36.2018 27.7894 36.094 27.7172 35.9754 27.6679C35.8568 27.6187 35.7296 27.5934 35.6012 27.5934H33.2332C33.3236 23.3756 34.3178 20.5738 36.1916 19.2934C36.3334 19.9798 36.6892 20.6036 37.2078 21.075C37.7263 21.5465 38.3811 21.8415 39.0778 21.9175H39.1893C39.4398 21.9182 39.6811 21.8229 39.8635 21.6512C40.0459 21.4794 40.1556 21.2443 40.1699 20.9941C40.1841 20.744 40.102 20.4979 39.9403 20.3065C39.7786 20.1151 39.5497 19.993 39.3007 19.9652C38.9541 19.9295 38.6339 19.7634 38.4051 19.5005C38.1763 19.2376 38.056 18.8976 38.0686 18.5493C40.3974 18.1666 42.7744 19.3235 42.8045 19.3386C42.8544 19.3644 42.9069 19.3846 42.9612 19.3988H42.9853C43.061 19.4189 43.1389 19.43 43.2172 19.432H43.2444H43.2986C43.3387 19.4349 43.379 19.4349 43.4191 19.432L43.5034 19.4139C43.5477 19.401 43.591 19.3849 43.633 19.3657C43.6495 19.3611 43.6657 19.355 43.6812 19.3476H43.6993C43.7311 19.3314 43.7614 19.3123 43.7896 19.2904C43.8149 19.2761 43.839 19.26 43.862 19.2422C43.8855 19.2216 43.9077 19.1995 43.9282 19.1759C43.9536 19.1541 43.9768 19.1298 43.9975 19.1036C44.0152 19.0838 44.0314 19.0627 44.0457 19.0403C44.0668 19.0072 44.0879 18.9771 44.106 18.9439C44.1241 18.9108 44.106 18.9439 44.106 18.9258C44.1153 18.9073 44.1233 18.8882 44.1301 18.8686C44.1301 18.8355 44.1572 18.8023 44.1692 18.7662C44.1781 18.7377 44.1842 18.7085 44.1873 18.6788C44.196 18.6472 44.202 18.615 44.2054 18.5824C44.2054 18.5493 44.2054 18.5191 44.2054 18.486C44.2054 18.4529 44.2054 18.4227 44.2054 18.3926C44.2054 18.3625 44.2054 18.3293 44.1903 18.2962C44.178 18.2298 44.1577 18.165 44.1301 18.1034C44.1301 18.0853 44.1301 18.0672 44.109 18.0492C44.0126 17.8563 41.729 13.3855 37.9601 13.3855C34.4774 13.3855 31.9347 14.5575 30.1422 16.9706C30.0582 17.0733 29.9959 17.1919 29.9591 17.3193C29.9224 17.4468 29.9119 17.5803 29.9283 17.7119C29.9447 17.8436 29.9877 17.9705 30.0546 18.085C30.1216 18.1994 30.2111 18.2992 30.3177 18.378C30.4244 18.4569 30.5459 18.5132 30.675 18.5437C30.8041 18.5742 30.938 18.5781 31.0687 18.5552C31.1993 18.5323 31.3239 18.4832 31.435 18.4107C31.5461 18.3382 31.6413 18.2439 31.7148 18.1335C33.1097 16.2205 35.1523 15.3166 37.9842 15.3166C39.0477 15.3166 39.9816 15.9192 40.7137 16.6513C39.123 16.3771 37.1346 16.3982 35.3571 17.4918C32.7632 19.0915 31.3985 22.4869 31.293 27.5813H30.6091C30.347 18.022 26.8794 13.3584 20.0075 13.3584C16.2386 13.3584 13.955 17.8292 13.8616 18.022C13.8523 18.0395 13.8443 18.0577 13.8375 18.0763C13.8375 18.1124 13.8104 18.1456 13.7983 18.1817C13.7906 18.2104 13.7845 18.2396 13.7803 18.2691C13.7713 18.3006 13.7653 18.3329 13.7622 18.3655C13.7622 18.3956 13.7622 18.4257 13.7622 18.4589C13.7622 18.492 13.7622 18.5221 13.7622 18.5553C13.7622 18.5884 13.7622 18.6155 13.7803 18.6457C13.7983 18.6758 13.7802 18.7089 13.8013 18.7421C13.8113 18.774 13.8233 18.8052 13.8375 18.8355C13.8442 18.857 13.8522 18.8782 13.8616 18.8987V18.9168C13.8769 18.946 13.894 18.9741 13.9128 19.0012C13.9302 19.0285 13.9493 19.0547 13.97 19.0795C13.9866 19.1 14.0047 19.1191 14.0243 19.1367L14.1056 19.2181L14.1598 19.2542L14.2683 19.3235L14.3165 19.3416C14.3547 19.359 14.394 19.3741 14.434 19.3868H14.5003L14.6238 19.4079H14.6841C14.7272 19.4109 14.7705 19.4109 14.8136 19.4079H14.8678L14.9974 19.3778L15.0576 19.3536C15.0878 19.3536 15.1179 19.3356 15.148 19.3205C15.1781 19.3054 17.5582 18.1395 19.8809 18.5282C19.8926 18.8559 19.7856 19.1768 19.5797 19.432C19.4656 19.5761 19.324 19.696 19.1631 19.785C19.0023 19.8739 18.8254 19.9301 18.6427 19.9502C18.394 19.9779 18.1653 20.0998 18.0037 20.2909C17.842 20.482 17.7597 20.7277 17.7736 20.9776C17.7875 21.2275 17.8965 21.4626 18.0783 21.6346C18.2601 21.8065 18.5009 21.9024 18.7512 21.9024H18.8627C19.3022 21.8547 19.7278 21.7194 20.1143 21.5047C20.5008 21.29 20.8404 21.0001 21.1131 20.6521C21.4293 20.2501 21.647 19.7796 21.7488 19.2783C23.6227 20.5587 24.6169 23.3485 24.7073 27.5783H22.5984C22.3387 27.5783 22.0897 27.6815 21.906 27.8651C21.7224 28.0487 21.6193 28.2977 21.6193 28.5574V29.0394C21.6193 29.4773 21.5064 29.9078 21.2914 30.2893C21.0765 30.6708 20.7667 30.9904 20.3922 31.2172C20.0176 31.444 19.5909 31.5704 19.1532 31.5841C18.7156 31.5978 18.2818 31.4984 17.8938 31.2954C17.5058 31.0925 17.1766 30.7929 16.9382 30.4256C16.6998 30.0584 16.5602 29.6358 16.5328 29.1988C16.5054 28.7618 16.5912 28.3251 16.7819 27.9309C16.9726 27.5367 17.2618 27.1984 17.6214 26.9486C17.6352 26.9385 17.6483 26.9274 17.6606 26.9155L17.7239 26.8613C17.7601 26.8281 17.7933 26.7918 17.8233 26.7528L17.8534 26.7197C17.8591 26.7121 17.8641 26.704 17.8685 26.6956C17.8888 26.6658 17.9069 26.6346 17.9227 26.6022C17.9381 26.5773 17.9512 26.5511 17.9619 26.5239C17.9619 26.4937 17.983 26.4636 17.995 26.4305C18.0071 26.3973 18.0131 26.3702 18.0191 26.3401C18.0251 26.31 18.0191 26.2798 18.0191 26.2497C18.0191 26.2196 18.0191 26.1864 18.0191 26.1563C18.0191 26.1262 18.0191 26.093 18.0191 26.0599C18.0191 26.0268 18.0191 25.9996 18.0191 25.9695C18.0191 25.9394 18.004 25.9063 17.995 25.8761C17.986 25.846 17.995 25.8159 17.9679 25.7857C17.9408 25.7556 17.9438 25.7315 17.9287 25.7044C17.914 25.673 17.8968 25.6428 17.8775 25.614L17.8624 25.5869C17.8624 25.5688 17.8353 25.5568 17.8233 25.5417C17.8028 25.5143 17.7807 25.4881 17.757 25.4634L17.6787 25.3941L17.6365 25.3549L2.65138 14.452C2.54872 14.3587 2.42741 14.2882 2.29546 14.2453C2.16352 14.2024 2.02397 14.188 1.88605 14.2031C1.74813 14.2182 1.615 14.2625 1.49547 14.3329C1.37595 14.4034 1.27276 14.4984 1.19275 14.6118C1.11274 14.7251 1.05773 14.8542 1.03137 14.9904C1.00501 15.1266 1.00791 15.2669 1.03986 15.4019C1.07181 15.5369 1.13208 15.6636 1.2167 15.7736C1.30131 15.8835 1.40833 15.9742 1.53065 16.0397L15.5758 26.2587C14.9069 27.1024 14.563 28.1581 14.6067 29.2339C14.6504 30.3097 15.0788 31.334 15.814 32.1206C16.5491 32.9072 17.5422 33.4038 18.6126 33.5201C19.6829 33.6363 20.7595 33.3645 21.6464 32.7541V38.2884C20.2644 38.6842 18.8095 38.7535 17.3962 38.4908C15.9829 38.2282 14.6499 37.6407 13.5025 36.7749C12.355 35.909 11.4244 34.7884 10.7841 33.5014C10.1437 32.2144 9.81112 30.7963 9.81254 29.3588C9.81448 28.8806 9.85275 28.4032 9.92702 27.9308L11.2677 28.8346C11.4293 28.9448 11.6204 29.0036 11.816 29.0033C12.0256 29.0037 12.2299 28.9368 12.3986 28.8124C12.5674 28.6881 12.6918 28.5128 12.7536 28.3125C12.8153 28.1121 12.8111 27.8972 12.7415 27.6994C12.672 27.5017 12.5408 27.3314 12.3673 27.2138L1.56078 19.8899C1.34617 19.7581 1.08905 19.7141 0.842835 19.767C0.596621 19.8199 0.380252 19.9656 0.238688 20.1739C0.097124 20.3822 0.0412507 20.637 0.0826798 20.8854C0.124109 21.1338 0.259653 21.3567 0.461149 21.5077ZM34.622 39.864H31.9769C30.8019 39.864 29.8138 40.9305 29.142 41.9458C28.4189 40.9125 27.4157 39.864 26.3221 39.864H23.5896V29.5426H34.622V39.864ZM22.6195 17.4948C20.845 16.4012 18.8566 16.3801 17.2629 16.6513C17.995 15.9342 18.9289 15.3197 19.9924 15.3197C23.8758 15.3197 28.3376 16.7356 28.6449 27.5843H26.6836C26.5782 22.4899 25.2164 19.0946 22.6195 17.4948Z" fill="url(#paint1_linear_818_1036)"/>
<path id="Vector_3" d="M5.10972 28.934C5.22946 28.9861 5.35873 29.0128 5.48932 29.0123C5.71465 29.0114 5.93276 28.9327 6.10685 28.7897C6.28094 28.6466 6.40036 28.4479 6.44496 28.227C6.48955 28.0061 6.45661 27.7766 6.35167 27.5772C6.24673 27.3778 6.07622 27.2207 5.86891 27.1324L1.38905 25.2585C1.14934 25.1582 0.879621 25.1573 0.639219 25.2559C0.398816 25.3545 0.207425 25.5445 0.107148 25.7842C0.00687182 26.0239 0.00592355 26.2937 0.104514 26.5341C0.203105 26.7745 0.393157 26.9659 0.632861 27.0661L5.10972 28.934Z" fill="url(#paint2_linear_818_1036)"/>
<path id="Vector_4" d="M7.21876 39.8184C7.37263 39.8187 7.52438 39.7826 7.66162 39.713L9.26136 38.9026C9.48658 38.7818 9.65566 38.5778 9.73251 38.3341C9.80935 38.0904 9.78787 37.8263 9.67264 37.5982C9.55741 37.3701 9.35758 37.1961 9.1158 37.1133C8.87403 37.0306 8.60948 37.0456 8.37864 37.1552L6.77589 37.9656C6.57936 38.0651 6.4221 38.2278 6.3295 38.4277C6.23691 38.6275 6.21439 38.8527 6.2656 39.0669C6.3168 39.2812 6.43872 39.4719 6.61168 39.6082C6.78463 39.7446 6.99851 39.8186 7.21876 39.8184Z" fill="url(#paint3_linear_818_1036)"/>
<path id="Vector_5" d="M12.9123 39.9304C12.7233 39.7529 12.4715 39.6576 12.2122 39.6655C11.953 39.6734 11.7074 39.7839 11.5295 39.9726L10.6468 40.9246C10.4696 41.1141 10.3749 41.3661 10.3833 41.6254C10.3918 41.8847 10.5028 42.13 10.692 42.3075C10.8725 42.4785 11.1121 42.5735 11.3608 42.5726C11.4941 42.5736 11.6261 42.5474 11.7489 42.4956C11.8717 42.4438 11.9826 42.3675 12.0748 42.2713L12.9575 41.3313C13.048 41.2372 13.1188 41.1258 13.1656 41.0039C13.2124 40.882 13.2344 40.7519 13.2301 40.6214C13.2259 40.4908 13.1956 40.3624 13.1411 40.2438C13.0865 40.1251 13.0087 40.0186 12.9123 39.9304Z" fill="url(#paint4_linear_818_1036)"/>
<path id="Vector_6" d="M7.63452 34.4379C7.55812 34.1899 7.38637 33.9824 7.15701 33.8609C6.92766 33.7395 6.65946 33.714 6.41137 33.7902L3.18177 34.7874C2.95805 34.8578 2.76703 35.0062 2.64347 35.2056C2.51991 35.4049 2.47202 35.642 2.5085 35.8737C2.54499 36.1054 2.66343 36.3163 2.84228 36.468C3.02113 36.6197 3.2485 36.7022 3.48304 36.7005C3.58494 36.7006 3.68636 36.6864 3.7843 36.6583L7.0109 35.6611C7.25449 35.5797 7.45636 35.4059 7.57301 35.1771C7.68967 34.9483 7.71176 34.6829 7.63452 34.4379Z" fill="url(#paint5_linear_818_1036)"/>
<path id="Vector_7" d="M5.48936 32.3288C5.62231 32.3362 5.75537 32.3164 5.8804 32.2706C6.00543 32.2248 6.1198 32.154 6.21653 32.0625C6.31326 31.971 6.39031 31.8607 6.44297 31.7384C6.49562 31.6161 6.52278 31.4844 6.52278 31.3512C6.52278 31.218 6.49562 31.0863 6.44297 30.964C6.39031 30.8417 6.31326 30.7314 6.21653 30.6399C6.1198 30.5484 6.00543 30.4776 5.8804 30.4318C5.75537 30.386 5.62231 30.3662 5.48936 30.3736H1.45236C1.31941 30.3662 1.18636 30.386 1.06133 30.4318C0.936296 30.4776 0.821921 30.5484 0.725193 30.6399C0.628465 30.7314 0.551417 30.8417 0.498761 30.964C0.446104 31.0863 0.418945 31.218 0.418945 31.3512C0.418945 31.4844 0.446104 31.6161 0.498761 31.7384C0.551417 31.8607 0.628465 31.971 0.725193 32.0625C0.821921 32.154 0.936296 32.2248 1.06133 32.2706C1.18636 32.3164 1.31941 32.3362 1.45236 32.3288H5.48936Z" fill="url(#paint6_linear_818_1036)"/>
<path id="Vector_8" d="M58.1452 25.7739C58.0442 25.5346 57.8523 25.345 57.6118 25.2467C57.3713 25.1485 57.1016 25.1496 56.8618 25.2497L52.385 27.1327C52.1776 27.221 52.0071 27.3781 51.9022 27.5775C51.7973 27.7769 51.7643 28.0064 51.8089 28.2273C51.8535 28.4481 51.9729 28.6469 52.147 28.7899C52.3211 28.933 52.5392 29.0116 52.7646 29.0126C52.8951 29.0128 53.0243 28.9861 53.1442 28.9343L57.621 27.0664C57.7406 27.0164 57.8492 26.9432 57.9404 26.851C58.0316 26.7588 58.1036 26.6495 58.1524 26.5294C58.2011 26.4092 58.2256 26.2806 58.2243 26.1509C58.2231 26.0213 58.1962 25.8932 58.1452 25.7739Z" fill="url(#paint7_linear_818_1036)"/>
<path id="Vector_9" d="M51.4783 37.966L49.8755 37.1556C49.6438 37.0382 49.3749 37.0176 49.128 37.0984C48.8811 37.1792 48.6764 37.3547 48.559 37.5865C48.4415 37.8182 48.4209 38.0871 48.5017 38.334C48.5825 38.5809 48.7581 38.7855 48.9898 38.903L50.5925 39.7134C50.7297 39.7833 50.8815 39.8194 51.0354 39.8189C51.2556 39.819 51.4695 39.745 51.6425 39.6086C51.8154 39.4723 51.9374 39.2816 51.9886 39.0674C52.0398 38.8531 52.0172 38.6279 51.9246 38.4281C51.8321 38.2283 51.6748 38.0655 51.4783 37.966Z" fill="url(#paint8_linear_818_1036)"/>
<path id="Vector_10" d="M45.3383 39.9304C45.1496 40.1083 45.0391 40.3539 45.0312 40.6131C45.0233 40.8724 45.1186 41.1242 45.2962 41.3133L46.1789 42.2532C46.3595 42.4297 46.6014 42.5296 46.8539 42.532C47.1065 42.5344 47.3502 42.4391 47.5341 42.2661C47.7181 42.093 47.828 41.8556 47.841 41.6033C47.854 41.3511 47.7691 41.1036 47.6039 40.9126L46.7212 39.9726C46.5433 39.7839 46.2977 39.6734 46.0385 39.6655C45.7792 39.6576 45.5274 39.7529 45.3383 39.9304Z" fill="url(#paint9_linear_818_1036)"/>
<path id="Vector_11" d="M55.0722 34.788L51.8426 33.7908C51.7197 33.7528 51.5906 33.7394 51.4626 33.7513C51.3345 33.7632 51.2101 33.8002 51.0964 33.8602C50.9827 33.9202 50.8819 34.0021 50.7998 34.101C50.7177 34.2 50.6559 34.3141 50.6179 34.437C50.5799 34.5598 50.5665 34.6889 50.5784 34.817C50.5904 34.945 50.6274 35.0694 50.6874 35.1831C50.7474 35.2969 50.8292 35.3977 50.9282 35.4798C51.0271 35.5619 51.1413 35.6237 51.2641 35.6616L54.4937 36.6588C54.5916 36.6872 54.6931 36.7014 54.795 36.701C55.0295 36.7028 55.2569 36.6203 55.4358 36.4685C55.6146 36.3168 55.733 36.1059 55.7695 35.8742C55.806 35.6425 55.7581 35.4055 55.6346 35.2061C55.511 35.0068 55.32 34.8584 55.0963 34.788H55.0722Z" fill="url(#paint10_linear_818_1036)"/>
<path id="Vector_12" d="M56.8014 30.3804H52.7644C52.6314 30.373 52.4984 30.3928 52.3733 30.4386C52.2483 30.4844 52.1339 30.5552 52.0372 30.6467C51.9405 30.7383 51.8634 30.8485 51.8108 30.9708C51.7581 31.0931 51.731 31.2249 51.731 31.358C51.731 31.4912 51.7581 31.6229 51.8108 31.7452C51.8634 31.8675 51.9405 31.9778 52.0372 32.0693C52.1339 32.1608 52.2483 32.2316 52.3733 32.2774C52.4984 32.3232 52.6314 32.343 52.7644 32.3357H56.8014C56.9343 32.343 57.0674 32.3232 57.1924 32.2774C57.3174 32.2316 57.4318 32.1608 57.5285 32.0693C57.6253 31.9778 57.7023 31.8675 57.755 31.7452C57.8076 31.6229 57.8348 31.4912 57.8348 31.358C57.8348 31.2249 57.8076 31.0931 57.755 30.9708C57.7023 30.8485 57.6253 30.7383 57.5285 30.6467C57.4318 30.5552 57.3174 30.4844 57.1924 30.4386C57.0674 30.3928 56.9343 30.373 56.8014 30.3804Z" fill="url(#paint11_linear_818_1036)"/>
<path id="Vector_13" d="M26.1686 11.1982C25.9089 11.1982 25.6599 11.3014 25.4762 11.485C25.2926 11.6686 25.1895 11.9177 25.1895 12.1774C25.1895 12.437 25.2926 12.6861 25.4762 12.8697C25.6599 13.0533 25.9089 13.1565 26.1686 13.1565H31.7662C32.0258 13.1565 32.2749 13.0533 32.4585 12.8697C32.6421 12.6861 32.7453 12.437 32.7453 12.1774C32.7453 11.9177 32.6421 11.6686 32.4585 11.485C32.2749 11.3014 32.0258 11.1982 31.7662 11.1982H26.1686Z" fill="url(#paint12_linear_818_1036)"/>
<path id="Vector_14" d="M26.8373 10.1586H31.1274C31.9579 10.0922 32.733 9.71535 33.2982 9.10316C33.8634 8.49098 34.1772 7.68836 34.1772 6.85517C34.1772 6.02198 33.8634 5.21937 33.2982 4.60718C32.733 3.995 31.9579 3.61817 31.1274 3.55176C30.332 3.55176 29.5969 4.00667 28.9492 4.55197C28.4431 4.08199 27.7743 3.55176 26.8403 3.55176C26.0098 3.61817 25.2347 3.995 24.6696 4.60718C24.1044 5.21937 23.7905 6.02198 23.7905 6.85517C23.7905 7.68836 24.1044 8.49098 24.6696 9.10316C25.2347 9.71535 26.0098 10.0922 26.8403 10.1586H26.8373ZM26.8373 5.51001C27.1205 5.51001 27.467 5.83839 27.8014 6.16075C27.9912 6.3385 28.1719 6.51022 28.3437 6.64278C28.5165 6.77544 28.7283 6.84744 28.9462 6.84764C29.1078 6.84067 29.2662 6.79978 29.411 6.72764C29.5558 6.65549 29.6838 6.5537 29.7867 6.42888C30.6634 5.59738 31.0159 5.52507 31.1274 5.52507C31.4731 5.54144 31.7993 5.69031 32.0382 5.94078C32.2771 6.19126 32.4104 6.5241 32.4104 6.87024C32.4104 7.21637 32.2771 7.54922 32.0382 7.79969C31.7993 8.05017 31.4731 8.19904 31.1274 8.2154H26.8373C26.4916 8.19904 26.1654 8.05017 25.9265 7.79969C25.6876 7.54922 25.5543 7.21637 25.5543 6.87024C25.5543 6.5241 25.6876 6.19126 25.9265 5.94078C26.1654 5.69031 26.4916 5.54144 26.8373 5.52507V5.51001Z" fill="url(#paint13_linear_818_1036)"/>
<path id="Vector_15" d="M28.9673 2.66322C29.2308 2.66381 29.4885 2.58622 29.7079 2.44027C29.9273 2.29431 30.0984 2.08655 30.1997 1.84328C30.3009 1.60002 30.3277 1.33218 30.2767 1.07367C30.2256 0.815169 30.099 0.577616 29.9129 0.391086C29.7268 0.204555 29.4896 0.0774333 29.2312 0.0258082C28.9728 -0.0258169 28.7049 0.000377663 28.4614 0.101075C28.2179 0.201772 28.0098 0.372445 27.8633 0.591492C27.7168 0.810539 27.6387 1.06811 27.6387 1.33161C27.6387 1.68425 27.7786 2.02249 28.0276 2.27213C28.2767 2.52177 28.6146 2.66242 28.9673 2.66322Z" fill="url(#paint14_linear_818_1036)"/>
<path id="Vector_16" d="M50.8873 46.0098C50.6237 46.0092 50.3659 46.0868 50.1464 46.2329C49.927 46.379 49.7558 46.587 49.6547 46.8304C49.5535 47.0738 49.5269 47.3418 49.5782 47.6004C49.6295 47.859 49.7563 48.0966 49.9428 48.283C50.1292 48.4694 50.3667 48.5963 50.6253 48.6475C50.8839 48.6988 51.1519 48.6722 51.3953 48.571C51.6388 48.4699 51.8467 48.2987 51.9928 48.0793C52.1389 47.8599 52.2165 47.602 52.2159 47.3384C52.2159 46.986 52.076 46.6481 51.8268 46.3989C51.5776 46.1497 51.2397 46.0098 50.8873 46.0098Z" fill="url(#paint15_linear_818_1036)"/>
<path id="Vector_17" d="M49.5798 50.0503C48.5128 50.0528 47.4689 50.3612 46.5718 50.9389C45.6747 51.5167 44.9621 52.3396 44.5185 53.31L37.4206 50.4811V48.2336C37.428 48.1007 37.4082 47.9676 37.3624 47.8426C37.3166 47.7175 37.2458 47.6032 37.1543 47.5064C37.0628 47.4097 36.9525 47.3327 36.8302 47.28C36.7079 47.2274 36.5761 47.2002 36.443 47.2002C36.3098 47.2002 36.1781 47.2274 36.0558 47.28C35.9335 47.3327 35.8232 47.4097 35.7317 47.5064C35.6402 47.6032 35.5694 47.7175 35.5236 47.8426C35.4778 47.9676 35.458 48.1007 35.4654 48.2336V51.1439C35.4658 51.3371 35.5231 51.5259 35.6303 51.6866C35.7375 51.8474 35.8897 51.973 36.0679 52.0477L44.0184 55.214C44.0184 55.3466 43.9973 55.4791 43.9973 55.6147C43.9967 56.7173 44.3232 57.7953 44.9354 58.7123C45.5475 59.6293 46.418 60.3441 47.4365 60.7664C48.4551 61.1886 49.5759 61.2992 50.6574 61.0842C51.7388 60.8693 52.7322 60.3384 53.5118 59.5588C54.2915 58.7791 54.8224 57.7857 55.0373 56.7043C55.2523 55.6229 55.1416 54.502 54.7194 53.4834C54.2972 52.4649 53.5824 51.5945 52.6654 50.9823C51.7483 50.3701 50.6704 50.0436 49.5678 50.0442L49.5798 50.0503ZM49.5798 59.236C48.8648 59.236 48.1658 59.0239 47.5713 58.6267C46.9768 58.2294 46.5134 57.6648 46.2398 57.0042C45.9662 56.3436 45.8946 55.6167 46.0341 54.9154C46.1736 54.2141 46.5179 53.57 47.0235 53.0644C47.5291 52.5588 48.1732 52.2145 48.8745 52.075C49.5758 51.9355 50.3027 52.0071 50.9633 52.2807C51.6239 52.5543 52.1885 53.0177 52.5858 53.6122C52.983 54.2067 53.195 54.9057 53.195 55.6207C53.195 56.5795 52.8142 57.4991 52.1362 58.1771C51.4582 58.8551 50.5386 59.236 49.5798 59.236Z" fill="url(#paint16_linear_818_1036)"/>
<path id="Vector_18" d="M13.2109 55.5327L22.0321 52.053C22.2137 51.9811 22.3697 51.8568 22.4802 51.6958C22.5908 51.5348 22.6508 51.3445 22.6527 51.1492V48.239C22.6527 47.9793 22.5495 47.7302 22.3659 47.5466C22.1823 47.363 21.9332 47.2598 21.6736 47.2598C21.4139 47.2598 21.1648 47.363 20.9812 47.5466C20.7976 47.7302 20.6944 47.9793 20.6944 48.239V50.4834L12.0992 53.8787L2.90451 40.1107C2.83309 40.0037 2.7413 39.9118 2.63437 39.8403C2.52744 39.7687 2.40747 39.7189 2.2813 39.6938C2.02649 39.6429 1.76192 39.6954 1.54578 39.8396C1.32965 39.9838 1.17966 40.208 1.12881 40.4628C1.07796 40.7176 1.13042 40.9822 1.27464 41.1983L10.2374 54.6018L9.96625 54.7102C9.7549 54.7943 9.5794 54.9493 9.46988 55.1486C9.36037 55.3479 9.32366 55.5792 9.36607 55.8026C9.40848 56.0261 9.52736 56.2278 9.7023 56.3731C9.87724 56.5185 10.0973 56.5984 10.3248 56.5992C10.4476 56.5995 10.5694 56.576 10.6833 56.5299L11.3491 56.2678L12.8825 58.5634C12.9516 58.6755 13.0425 58.7725 13.1499 58.8486C13.2573 58.9247 13.379 58.9784 13.5076 59.0064C13.6362 59.0345 13.7691 59.0363 13.8985 59.0118C14.0278 58.9873 14.1508 58.9369 14.2603 58.8638C14.3697 58.7906 14.4633 58.6961 14.5353 58.586C14.6074 58.4759 14.6566 58.3523 14.6798 58.2228C14.7031 58.0932 14.7 57.9603 14.6707 57.832C14.6414 57.7036 14.5865 57.5825 14.5094 57.4759L13.2109 55.5327Z" fill="url(#paint17_linear_818_1036)"/>
</g>
<defs>
<linearGradient id="paint0_linear_818_1036" x1="29.0998" y1="356.093" x2="29.0998" y2="-303.281" gradientUnits="userSpaceOnUse">
<stop stop-color="#38B218"/>
<stop offset="1" stop-color="#38B218"/>
</linearGradient>
<linearGradient id="paint1_linear_818_1036" x1="29.1902" y1="452.934" x2="29.1902" y2="-474.734" gradientUnits="userSpaceOnUse">
<stop stop-color="#38B218"/>
<stop offset="1" stop-color="#38B218"/>
</linearGradient>
<linearGradient id="paint2_linear_818_1036" x1="3.25089" y1="72.4493" x2="3.25089" y2="-27.3009" gradientUnits="userSpaceOnUse">
<stop stop-color="#38B218"/>
<stop offset="1" stop-color="#38B218"/>
</linearGradient>
<linearGradient id="paint3_linear_818_1036" x1="8.01" y1="71.0988" x2="8.01" y2="-0.734546" gradientUnits="userSpaceOnUse">
<stop stop-color="#38B218"/>
<stop offset="1" stop-color="#38B218"/>
</linearGradient>
<linearGradient id="paint4_linear_818_1036" x1="11.8081" y1="75.5504" x2="11.8081" y2="-0.18096" gradientUnits="userSpaceOnUse">
<stop stop-color="#38B218"/>
<stop offset="1" stop-color="#38B218"/>
</linearGradient>
<linearGradient id="paint5_linear_818_1036" x1="5.09071" y1="70.1984" x2="5.09071" y2="-6.72741" gradientUnits="userSpaceOnUse">
<stop stop-color="#38B218"/>
<stop offset="1" stop-color="#38B218"/>
</linearGradient>
<linearGradient id="paint6_linear_818_1036" x1="3.47381" y1="54.541" x2="3.47381" y2="3.53563" gradientUnits="userSpaceOnUse">
<stop stop-color="#38B218"/>
<stop offset="1" stop-color="#38B218"/>
</linearGradient>
<linearGradient id="paint7_linear_818_1036" x1="55.0101" y1="72.5521" x2="55.0101" y2="-27.4336" gradientUnits="userSpaceOnUse">
<stop stop-color="#38B218"/>
<stop offset="1" stop-color="#38B218"/>
</linearGradient>
<linearGradient id="paint8_linear_818_1036" x1="50.236" y1="71.2258" x2="50.236" y2="-0.898148" gradientUnits="userSpaceOnUse">
<stop stop-color="#38B218"/>
<stop offset="1" stop-color="#38B218"/>
</linearGradient>
<linearGradient id="paint9_linear_818_1036" x1="46.4379" y1="75.05" x2="46.4379" y2="0.374595" gradientUnits="userSpaceOnUse">
<stop stop-color="#38B218"/>
<stop offset="1" stop-color="#38B218"/>
</linearGradient>
<linearGradient id="paint10_linear_818_1036" x1="53.1803" y1="70.2052" x2="53.1803" y2="-6.73499" gradientUnits="userSpaceOnUse">
<stop stop-color="#38B218"/>
<stop offset="1" stop-color="#38B218"/>
</linearGradient>
<linearGradient id="paint11_linear_818_1036" x1="54.7858" y1="54.5478" x2="54.7858" y2="3.54247" gradientUnits="userSpaceOnUse">
<stop stop-color="#38B218"/>
<stop offset="1" stop-color="#38B218"/>
</linearGradient>
<linearGradient id="paint12_linear_818_1036" x1="28.971" y1="35.3671" x2="28.971" y2="-15.6381" gradientUnits="userSpaceOnUse">
<stop stop-color="#38B218"/>
<stop offset="1" stop-color="#38B218"/>
</linearGradient>
<linearGradient id="paint13_linear_818_1036" x1="28.9889" y1="85.0938" x2="28.9889" y2="-86.9901" gradientUnits="userSpaceOnUse">
<stop stop-color="#38B218"/>
<stop offset="1" stop-color="#38B218"/>
</linearGradient>
<linearGradient id="paint14_linear_818_1036" x1="28.9716" y1="32.8697" x2="28.9716" y2="-36.4975" gradientUnits="userSpaceOnUse">
<stop stop-color="#38B218"/>
<stop offset="1" stop-color="#38B218"/>
</linearGradient>
<linearGradient id="paint15_linear_818_1036" x1="50.8856" y1="78.8795" x2="50.8856" y2="9.51226" gradientUnits="userSpaceOnUse">
<stop stop-color="#38B218"/>
<stop offset="1" stop-color="#38B218"/>
</linearGradient>
<linearGradient id="paint16_linear_818_1036" x1="45.3136" y1="219.878" x2="45.3136" y2="-144.536" gradientUnits="userSpaceOnUse">
<stop stop-color="#38B218"/>
<stop offset="1" stop-color="#38B218"/>
</linearGradient>
<linearGradient id="paint17_linear_818_1036" x1="11.8917" y1="278.545" x2="11.8917" y2="-225.559" gradientUnits="userSpaceOnUse">
<stop stop-color="#38B218"/>
<stop offset="1" stop-color="#38B218"/>
</linearGradient>
</defs>
</svg>
