<svg width="97" height="22" viewBox="0 0 97 22" fill="none" xmlns="http://www.w3.org/2000/svg">
<g id="Group 270988802">
<path id="Vector" d="M16.3616 3.24825C15.3078 2.30303 14.0705 1.5851 12.727 1.13924C11.1973 0.629986 9.59382 0.377906 7.9817 0.393238H0V21.5675H7.37592C8.99598 21.5818 10.6095 21.3607 12.1661 20.9112C13.5662 20.5157 14.874 19.8466 16.0139 18.9424C17.1028 18.0581 17.974 16.9354 18.5604 15.6611C19.1935 14.2257 19.5055 12.6694 19.4747 11.1009C19.5001 9.56789 19.2297 8.04432 18.6782 6.61369C18.171 5.33085 17.3788 4.18006 16.3616 3.24825ZM7.62272 18.0281H4.05535V3.91011H7.9817C9.03386 3.89932 10.0822 4.0391 11.0947 4.3252C11.9497 4.56205 12.7398 4.98971 13.4057 5.57601C14.0645 6.18183 14.5701 6.93542 14.8808 7.77477C15.271 8.8434 15.4611 9.9747 15.4418 11.1122C15.4806 12.2163 15.2896 13.3165 14.8808 14.343C14.5286 15.1617 13.9864 15.8846 13.2991 16.452C12.5791 17.0211 11.745 17.4286 10.8535 17.6467C9.79727 17.9111 8.71152 18.0393 7.62272 18.0281Z" fill="#1D1D1B"/>
<path id="Vector_2" d="M35.3427 6.69208C34.6373 6.04173 33.8018 5.54847 32.8916 5.24493C31.8064 4.88681 30.6687 4.71425 29.5261 4.73451C28.2993 4.71603 27.0799 4.92721 25.9307 5.35712C24.8943 5.76683 23.9432 6.36599 23.1262 7.12397C22.2967 7.88821 21.6439 8.82427 21.2135 9.86681C20.7543 10.976 20.5235 12.1664 20.5348 13.3669C20.5212 14.5631 20.7284 15.7516 21.1462 16.8725C21.535 17.906 22.1502 18.8394 22.9467 19.6041C23.7767 20.3834 24.7662 20.9729 25.8466 21.3317C27.1021 21.7337 28.4158 21.9232 29.7337 21.8926C30.4236 21.8926 31.0686 21.8926 31.6408 21.8309C32.2052 21.7908 32.7669 21.7196 33.3235 21.6178C33.8346 21.5232 34.3387 21.3939 34.8323 21.2308C35.3368 21.0461 35.8294 20.8307 36.3075 20.5857L36.7674 20.367L35.5391 16.9174L34.9782 17.2483C34.2625 17.6564 33.489 17.9534 32.684 18.129C31.771 18.3035 30.8427 18.3862 29.9132 18.3758C29.2402 18.3779 28.5702 18.2873 27.922 18.1065C27.3279 17.9421 26.769 17.6702 26.2729 17.3044C25.8047 16.9389 25.4218 16.4757 25.1511 15.947C24.9276 15.5125 24.7761 15.0446 24.7023 14.5616H36.9077L37.0142 14.1409C37.1166 13.7348 37.1934 13.3227 37.2442 12.9069C37.2908 12.4916 37.3133 12.074 37.3115 11.6561C37.3195 10.7178 37.1619 9.78554 36.846 8.90206C36.5214 8.05965 36.007 7.30341 35.3427 6.69208ZM29.1728 8.13921C30.6872 8.13921 31.7754 8.41406 32.4036 8.96375C32.994 9.57481 33.3238 10.3914 33.3235 11.241H24.6575C24.7367 10.8893 24.8711 10.5523 25.0557 10.2426C25.3234 9.79219 25.6757 9.39789 26.0934 9.08153C26.5262 8.76379 27.0126 8.52632 27.5293 8.3804C28.0721 8.22035 28.635 8.13913 29.2008 8.13921H29.1728Z" fill="#1D1D1B"/>
<path id="Vector_3" d="M48.1537 4.73463C46.9977 4.7331 45.8533 4.96391 44.7882 5.41334C44.0734 5.7152 43.4196 6.14475 42.8587 6.68097L42.7353 5.04314H39.1567V21.5899H43.1448V10.6073C43.7191 9.87914 44.4394 9.27921 45.2594 8.84608C46.1661 8.41541 47.1614 8.20404 48.1649 8.22908C49.2867 8.22908 50.0383 8.53196 50.4478 9.14896C50.9469 10.0286 51.1825 11.0333 51.1265 12.0432V21.5786H55.0977V12.0432C55.0977 9.7323 54.5368 7.92058 53.3645 6.65293C52.1922 5.38529 50.4478 4.73463 48.1537 4.73463Z" fill="#1D1D1B"/>
<path id="Vector_4" d="M67.4938 13.1986H72.7383V17.4166C72.135 17.7193 71.4962 17.9454 70.8368 18.0897C69.9616 18.2644 69.0705 18.3471 68.1781 18.3365C67.2045 18.3435 66.2381 18.1685 65.3287 17.8205C64.4793 17.4951 63.7046 17.0009 63.0514 16.3677C62.3885 15.7178 61.8688 14.9363 61.5258 14.0736C61.1404 13.0953 60.9499 12.0512 60.9649 10.9998C60.9561 9.97907 61.1289 8.96487 61.4753 8.00461C61.7864 7.13376 62.2755 6.33719 62.9112 5.66562C63.5536 5.00002 64.3297 4.47814 65.1885 4.13436C66.1487 3.74724 67.1767 3.55651 68.2118 3.57345C69.2642 3.57297 70.311 3.72602 71.3192 4.02778C72.3686 4.34922 73.3551 4.84816 74.2359 5.50295L74.7632 5.88438L76.4459 2.62552L76.0589 2.34506C74.9692 1.53911 73.7439 0.93498 72.441 0.561368C71.0605 0.178158 69.6333 -0.0106293 68.2006 0.000461681C66.7072 -0.00790021 65.2254 0.262217 63.8311 0.796956C62.502 1.30825 61.2833 2.0699 60.2413 3.04058C59.1976 4.02192 58.367 5.2076 57.8014 6.52381C57.1916 7.9403 56.8858 9.46899 56.9039 11.0111C56.8739 12.6306 57.1735 14.2393 57.7845 15.7395C58.3097 17.0291 59.1044 18.1917 60.1152 19.1494C61.1261 20.107 62.3299 20.8377 63.646 21.2925C64.9991 21.7683 66.4241 22.0073 67.8584 21.9992C69.4235 22.0144 70.983 21.8105 72.4915 21.3934C73.9218 20.9785 75.2665 20.3118 76.4627 19.4247L76.6871 19.2564V9.76025H67.4938V13.1986Z" fill="#38B218"/>
<path id="Vector_5" d="M95.8365 9.7492C95.3711 8.72321 94.7034 7.80175 93.8733 7.04003C93.0248 6.27974 92.0333 5.69624 90.9566 5.32366C88.6585 4.5386 86.1648 4.5386 83.8667 5.32366C82.7901 5.69624 81.7985 6.27974 80.95 7.04003C80.12 7.80175 79.4522 8.72321 78.9869 9.7492C78.5058 10.877 78.2578 12.0905 78.2578 13.3166C78.2578 14.5427 78.5058 15.7561 78.9869 16.8839C79.4522 17.9099 80.12 18.8314 80.95 19.5931C81.7985 20.3534 82.7901 20.9369 83.8667 21.3095C86.1648 22.0946 88.6585 22.0946 90.9566 21.3095C92.0333 20.9369 93.0248 20.3534 93.8733 19.5931C94.7034 18.8314 95.3711 17.9099 95.8365 16.8839C96.3176 15.7561 96.5655 14.5427 96.5655 13.3166C96.5655 12.0905 96.3176 10.877 95.8365 9.7492ZM92.6786 13.2941C92.7212 13.9887 92.6208 14.6847 92.3834 15.3388C92.1461 15.993 91.7769 16.5914 91.2988 17.0971C90.2013 17.9831 88.8334 18.4664 87.4229 18.4664C86.0124 18.4664 84.6445 17.9831 83.547 17.0971C82.6559 16.0291 82.1677 14.6823 82.1677 13.2913C82.1677 11.9004 82.6559 10.5535 83.547 9.48558C84.6445 8.59953 86.0124 8.11626 87.4229 8.11626C88.8334 8.11626 90.2013 8.59953 91.2988 9.48558C91.7765 9.99264 92.1454 10.5921 92.3827 11.2471C92.62 11.9021 92.7207 12.5988 92.6786 13.2941Z" fill="#38B218"/>
</g>
</svg>
