<svg width="600" height="408" viewBox="0 0 600 408" fill="none" xmlns="http://www.w3.org/2000/svg">
<rect width="600" height="332" rx="8" fill="#F4F4F4"/>
<path d="M0 8C0 3.58172 3.58172 0 8 0H592C596.418 0 600 3.58172 600 8V142C600 146.418 596.418 150 592 150H7.99999C3.58171 150 0 146.418 0 142V8Z" fill="white"/>
<path d="M96.4331 63.1364C96.4331 66.6467 96.4152 70.157 96.437 73.6671C96.4747 79.7278 94.5954 85.1592 91.2302 90.0938C87.1229 96.1168 81.5989 100.504 75.4239 104.123C73.6893 105.14 71.8939 106.035 70.0618 106.857C69.6392 107.047 69.2686 107.048 68.8456 106.858C62.4442 103.982 56.6535 100.17 51.7345 95.0868C47.4447 90.6534 44.3102 85.5171 43.0207 79.3482C42.6455 77.5537 42.4625 75.739 42.4659 73.8988C42.4796 66.2171 42.484 58.5351 42.4527 50.8535C42.4494 50.067 42.7254 49.6635 43.384 49.3295C48.6823 46.642 54.2589 44.8424 60.0862 43.8118C64.1448 43.094 68.2374 42.8565 72.3386 43.0823C79.5217 43.4777 86.4172 45.1767 93.0046 48.1318C93.8506 48.5114 94.6677 48.9581 95.5164 49.331C96.1936 49.6285 96.4606 50.0621 96.4525 50.851C96.4107 54.9457 96.4331 59.0412 96.4331 63.1364ZM44.5096 63.1254C44.5096 66.6092 44.4918 70.0932 44.5171 73.577C44.53 75.3565 44.6559 77.1364 45.034 78.878C46.2083 84.2867 48.8687 88.8794 52.5662 92.8878C57.2184 97.9311 62.7824 101.656 68.9102 104.567C69.3193 104.761 69.6491 104.737 70.0393 104.543C71.9488 103.594 73.8453 102.623 75.6735 101.516C80.3076 98.7078 84.458 95.3079 87.9016 91.0721C92.376 85.5684 94.5805 79.277 94.4248 72.0757C94.2837 65.5434 94.3745 59.0054 94.4172 52.4701C94.4236 51.5005 94.1551 50.985 93.2663 50.5667C83.6673 46.0498 73.6328 44.3328 63.1108 45.5253C56.8854 46.2308 50.9844 48.0325 45.3273 50.7317C44.7248 51.0191 44.4872 51.3687 44.4936 52.0635C44.5279 55.7505 44.5096 59.438 44.5096 63.1254Z" fill="#0A3E66"/>
<path d="M69.5087 62.9547C69.5084 60.388 69.5229 57.821 69.4987 55.2544C69.4924 54.5863 69.6747 54.3009 70.3891 54.316C72.4372 54.3593 74.4872 54.3111 76.5357 54.343C81.0002 54.4123 84.4792 57.9866 84.5729 62.5227C84.6212 64.8661 84.125 67.0201 82.6011 68.8336C81.1107 70.607 79.1714 71.5493 76.9005 71.64C74.7049 71.7277 72.5031 71.6443 70.3045 71.6756C69.6556 71.6849 69.4974 71.4013 69.5014 70.8074C69.5189 68.1899 69.5089 65.5723 69.5087 62.9547ZM72.8628 62.9204C72.8628 64.7004 72.8738 66.4806 72.856 68.2604C72.8509 68.7694 73.0026 69.0069 73.5402 68.9889C74.4393 68.9587 75.3409 69.0051 76.2401 68.9737C78.5253 68.894 80.1828 67.6269 80.8663 65.414C81.3423 63.873 81.3599 62.2989 80.9082 60.754C80.2859 58.6257 78.9213 57.3589 76.686 57.1071C75.6605 56.9916 74.6382 57.0663 73.617 57.0054C73.0088 56.9693 72.8439 57.2294 72.8529 57.8093C72.8796 59.5127 72.8624 61.2167 72.8628 62.9204Z" fill="#0A3E66"/>
<path d="M64.6156 62.5694C64.6713 62.605 64.7286 62.6534 64.7943 62.682C66.4609 63.4033 67.2534 64.745 67.2369 66.5254C67.2182 68.5164 66.4025 70.1251 64.6235 71.0961C62.8316 72.0741 60.9381 72.1483 59.0271 71.5377C57.1559 70.94 56.22 69.438 55.6014 67.6696C55.5296 67.4644 55.5584 67.2884 55.7367 67.1239C56.7533 66.1863 58.039 66.3521 58.7322 67.5457C59.4216 68.7326 60.3803 69.3143 61.7726 69.1801C63.6536 68.9989 64.7067 67.2099 63.9081 65.2136C63.5478 64.3127 62.6035 64.1879 61.7583 64.0426C61.4891 63.9963 61.2099 64.0131 60.9354 63.9979C60.5545 63.9766 60.3226 63.8049 60.3434 63.3817C60.347 63.3057 60.342 63.2293 60.3401 63.153C60.3091 61.8329 60.3091 61.8329 61.5609 61.6091C63.0562 61.342 63.6997 60.7977 63.8959 59.6343C64.0708 58.5969 63.6607 57.5591 62.8951 57.1023C62.088 56.6207 60.6379 56.7534 59.9246 57.3753C59.5771 57.6783 59.3202 58.0459 59.1378 58.4746C58.6599 59.5979 57.2486 59.9859 56.2217 59.2947C55.9457 59.109 56.011 58.8663 56.0548 58.6186C56.4605 56.33 58.2868 54.5344 60.5678 54.2167C61.8719 54.0351 63.1572 54.0897 64.3757 54.6871C65.8755 55.4224 66.7334 56.618 66.8577 58.3121C66.9898 60.1123 66.4397 61.5693 64.7425 62.4031C64.7036 62.4224 64.6826 62.4793 64.6156 62.5694Z" fill="#0A3E66"/>
<path d="M75.5126 80.0611C75.5129 79.275 75.5278 78.4884 75.5077 77.7027C75.4941 77.1667 75.681 76.8925 76.2435 76.9267C77.0612 76.9764 77.8903 76.8248 78.6968 77.0762C80.1329 77.5241 80.5626 79.1257 79.4933 80.1942C79.1538 80.5335 79.1151 80.7422 79.3893 81.1258C79.7399 81.6162 80.0136 82.1631 80.3314 82.6787C80.5962 83.1081 80.4597 83.2271 79.9959 83.265C79.2362 83.327 78.6923 83.106 78.3792 82.3532C78.2155 81.9597 77.9678 81.6011 77.7459 81.2342C77.6511 81.0774 77.5085 80.9647 77.3083 81.0157C77.0881 81.0718 77.0846 81.2635 77.0808 81.4414C77.0736 81.771 77.0555 82.1022 77.0785 82.4301C77.1177 82.9884 76.9462 83.2644 76.3318 83.2684C75.71 83.2725 75.4807 83.0388 75.5052 82.4192C75.5358 81.6344 75.5123 80.8472 75.5126 80.0611ZM77.0782 79.0425C77.0639 79.442 77.0303 79.8678 77.6584 79.8255C78.1848 79.7901 78.5139 79.5708 78.5166 78.9935C78.5193 78.4011 78.1728 78.2075 77.6475 78.19C77.0228 78.169 77.0715 78.6052 77.0782 79.0425Z" fill="#0A3E66"/>
<path d="M73.2362 79.1332C73.2362 78.6762 73.2564 78.218 73.231 77.7626C73.2004 77.212 73.3484 76.9226 73.9711 76.9147C74.6146 76.9066 74.8003 77.1836 74.7837 77.7813C74.7572 78.7453 74.8129 79.7127 74.7605 80.6746C74.6521 82.6617 73.0755 83.7673 71.1957 83.1989C70.2832 82.923 69.6889 82.3066 69.5068 81.3459C69.264 80.0636 69.3983 78.7642 69.3946 77.4717C69.3931 76.9139 69.8017 76.9343 70.1905 76.9286C70.6113 76.9224 70.9312 76.9974 70.9216 77.5389C70.9073 78.351 70.9111 79.1637 70.9261 79.9759C70.9327 80.3289 70.9741 80.6827 71.0212 81.0333C71.1056 81.6617 71.4818 81.9557 72.0948 81.9727C72.7385 81.9906 73.0991 81.6141 73.1678 81.0313C73.2413 80.407 73.1844 79.7667 73.1844 79.1334C73.2018 79.1334 73.2189 79.1333 73.2362 79.1332Z" fill="#0A3E66"/>
<path d="M59.3253 80.0719C59.3253 79.2842 59.3371 78.4962 59.3213 77.7087C59.3106 77.1816 59.4832 76.9052 60.0553 76.9237C60.9539 76.9529 61.854 76.9386 62.7534 76.9306C63.1755 76.9269 63.405 77.0779 63.4068 77.5487C63.4085 77.9997 63.2231 78.2052 62.784 78.201C62.3594 78.197 61.9346 78.2116 61.51 78.2104C61.0689 78.2093 60.9738 78.4844 60.9738 78.8624C60.9738 79.237 61.054 79.5233 61.5047 79.5103C61.6794 79.5053 61.8544 79.5144 62.0293 79.5147C62.4167 79.5153 62.7939 79.4973 62.8024 80.0746C62.8106 80.6314 62.477 80.683 62.0648 80.6712C61.8901 80.6662 61.7148 80.6807 61.5403 80.6729C61.1119 80.6539 60.9764 80.8902 60.973 81.2882C60.9695 81.7022 61.0736 81.987 61.551 81.9784C61.9506 81.9713 62.3505 81.988 62.7502 81.9836C63.1662 81.979 63.407 82.1279 63.4067 82.602C63.4064 83.0476 63.2346 83.2583 62.7875 83.254C61.8383 83.2449 60.8886 83.2429 59.9393 83.2549C59.4749 83.2607 59.3266 83.0073 59.3279 82.5873C59.3301 81.7487 59.3286 80.9103 59.3286 80.0717C59.3273 80.0719 59.3263 80.0719 59.3253 80.0719Z" fill="#0A3E66"/>
<path d="M83.1057 76.9301C83.5308 76.9301 83.956 76.9386 84.3808 76.9277C84.802 76.9169 85.1234 76.9906 85.1254 77.5309C85.1273 78.088 84.8149 78.2169 84.35 78.2037C83.9754 78.193 83.5996 78.2176 83.2251 78.2031C82.7695 78.1856 82.6102 78.4049 82.6124 78.8509C82.6145 79.2763 82.719 79.5439 83.1997 79.514C83.4486 79.4986 83.6998 79.5234 83.9494 79.5154C84.3734 79.5019 84.5271 79.7297 84.5171 80.1304C84.5076 80.5133 84.3156 80.6784 83.9481 80.6677C83.7234 80.6611 83.4969 80.6859 83.2735 80.6681C82.7901 80.6296 82.6089 80.839 82.6089 81.3339C82.6089 81.8506 82.845 82.002 83.3013 81.9824C83.6755 81.9664 84.0514 81.991 84.426 81.9817C84.8854 81.9703 85.1256 82.1621 85.1242 82.6539C85.1228 83.1279 84.8718 83.2609 84.4545 83.2557C83.5297 83.2443 82.6044 83.244 81.6796 83.2536C81.2363 83.2581 81.0483 83.055 81.0503 82.6083C81.0578 80.9303 81.0578 79.2521 81.0503 77.574C81.0483 77.1264 81.2383 76.92 81.6807 76.9304C82.1555 76.9417 82.6307 76.933 83.1056 76.933C83.1057 76.9321 83.1057 76.9311 83.1057 76.9301Z" fill="#0A3E66"/>
<path d="M58.7637 81.2657C58.7541 82.5164 57.8619 83.3741 56.5727 83.3364C56.0207 83.3203 55.4885 83.1776 55.0026 82.8896C54.6836 82.7004 54.3851 82.5186 54.6561 82.064C54.8881 81.6747 55.1474 81.4113 55.6192 81.6948C55.9479 81.8924 56.2947 82.017 56.6845 81.9898C56.9801 81.9693 57.2308 81.8833 57.3005 81.549C57.3687 81.221 57.2042 81.0076 56.925 80.8883C56.6729 80.7806 56.4072 80.7063 56.1489 80.6131C55.0735 80.2254 54.5639 79.5344 54.6711 78.612C54.7823 77.6546 55.5803 76.9244 56.6392 76.8578C57.1926 76.8231 57.7276 76.9444 58.2244 77.2177C58.5513 77.3976 58.7421 77.6056 58.525 78.0034C58.3405 78.3417 58.1385 78.6117 57.7039 78.4234C57.3805 78.2833 57.0565 78.1558 56.6932 78.205C56.4509 78.2378 56.2582 78.3331 56.213 78.6023C56.1692 78.8633 56.288 79.0553 56.5157 79.1531C56.9287 79.3306 57.3602 79.465 57.7668 79.6554C58.5323 80.0138 58.7702 80.4196 58.7637 81.2657Z" fill="#0A3E66"/>
<path d="M65.33 80.0951C65.3299 81.709 66.4046 82.4276 67.8129 81.7024C68.3385 81.4318 68.5596 81.7258 68.789 82.0571C69.074 82.4687 68.7028 82.6703 68.4498 82.8326C67.4411 83.4801 66.3679 83.5259 65.3135 82.9897C64.1595 82.4031 63.7227 81.326 63.7068 80.0928C63.6758 77.6817 66.2244 76.088 68.3279 77.1826C68.6452 77.3477 69.1688 77.4694 68.874 78.0533C68.6349 78.5267 68.3345 78.6766 67.7844 78.4164C66.438 77.78 65.3302 78.5649 65.33 80.0951Z" fill="#0A3E66"/>
<path d="M359.293 49.9443H289.612C287.316 49.9443 285.453 51.8499 285.453 54.2006V95.7991C285.453 98.1503 287.315 100.055 289.612 100.055H359.293C361.59 100.055 363.453 98.1498 363.453 95.7991V54.2006C363.453 51.8494 361.59 49.9443 359.293 49.9443ZM300.944 85.4222L296.011 67.3321C294.305 66.3645 292.358 65.5868 290.182 65.0478L290.252 64.6145H299.201C300.406 64.6604 301.38 65.0539 301.716 66.3729L303.662 75.9429L303.662 75.944L304.241 78.8302L309.674 64.6277H315.552L306.816 85.4144L300.944 85.4214V85.4222ZM319.875 85.4399H314.328L314.328 85.4398L317.798 64.612H323.347L319.875 85.4399ZM329.532 85.7489C327.043 85.7229 324.646 85.2192 323.35 84.6379L324.129 79.9754L324.844 80.3064C326.666 81.084 327.846 81.3996 330.068 81.3996C331.663 81.3996 333.374 80.7618 333.388 79.3658C333.398 78.4541 332.672 77.8031 330.512 76.7823C328.407 75.7859 325.618 74.1165 325.649 71.1238C325.682 67.0753 329.545 64.2503 335.028 64.2503C337.179 64.2503 338.902 64.7032 340.002 65.1252L339.249 69.6394L338.752 69.399C337.728 68.9771 336.413 68.5723 334.599 68.601C332.426 68.601 331.421 69.5269 331.421 70.3926C331.408 71.3681 332.596 72.0111 334.536 72.9744C337.737 74.461 339.216 76.2641 339.195 78.6333C339.152 82.9566 335.365 85.7489 329.532 85.7489ZM353.574 85.4466C353.574 85.4466 353.065 83.0548 352.899 82.3257C352.09 82.3257 346.429 82.3167 345.792 82.3167C345.576 82.88 344.624 85.4466 344.624 85.4466H338.796L347.038 66.3593C347.621 65.0031 348.615 64.6322 349.944 64.6322H354.232L358.723 85.447H353.574V85.4466Z" fill="url(#paint0_linear_1751_7874)"/>
<path d="M347.389 78.0561C347.848 76.8559 349.6 72.2338 349.6 72.2338C349.567 72.2894 350.055 71.028 350.335 70.2461L350.711 72.0417C350.711 72.0417 351.773 77.0133 351.995 78.0559H347.389L347.389 78.0561Z" fill="url(#paint1_linear_1751_7874)"/>
<path d="M451.293 49.9443H381.612C379.316 49.9443 377.453 51.8479 377.453 54.1963V95.7526C377.453 98.1015 379.315 100.005 381.612 100.005H451.293C453.59 100.005 455.453 98.101 455.453 95.7526V54.1963C455.453 51.8475 453.59 49.9443 451.293 49.9443ZM429.429 96.6342C424.545 96.6342 420.043 94.9397 416.451 92.1061C412.861 94.9398 408.358 96.6342 403.474 96.6342C391.764 96.6342 382.238 86.9151 382.238 74.9727C382.238 63.0293 391.764 53.3152 403.474 53.3152C408.358 53.3152 412.86 55.0033 416.451 57.841C420.043 55.0033 424.545 53.3152 429.429 53.3152C441.139 53.3152 450.665 63.0297 450.665 74.9727C450.665 86.915 441.138 96.6342 429.429 96.6342Z" fill="url(#paint2_linear_1751_7874)"/>
<path d="M399.329 76.36C399.12 76.338 399.029 76.3296 398.885 76.3296C397.755 76.3296 397.185 76.7251 397.185 77.5043C397.185 77.9868 397.465 78.2939 397.897 78.2939C398.709 78.2939 399.293 77.5043 399.329 76.36Z" fill="url(#paint3_linear_1751_7874)"/>
<path d="M432.53 76.36C432.322 76.338 432.229 76.3296 432.083 76.3296C430.955 76.3296 430.384 76.7251 430.384 77.5043C430.384 77.9868 430.663 78.2939 431.099 78.2939C431.91 78.2939 432.496 77.5043 432.53 76.36Z" fill="url(#paint4_linear_1751_7874)"/>
<path d="M415.542 75.0397C415.555 74.8796 415.751 73.6548 414.621 73.6548C413.991 73.6548 413.538 74.1503 413.356 75.0397H415.542Z" fill="url(#paint5_linear_1751_7874)"/>
<path d="M442.253 78.0188C443.18 78.0188 443.834 76.9431 443.834 75.4117C443.834 74.4273 443.464 73.895 442.778 73.895C441.874 73.895 441.233 74.9703 441.233 76.4913C441.233 77.5057 441.576 78.0188 442.253 78.0188Z" fill="url(#paint6_linear_1751_7874)"/>
<path d="M429.363 55.2573C425.061 55.2573 421.089 56.6982 417.88 59.1298C420.79 61.8985 422.942 65.494 423.971 69.5462H422.005C420.998 65.964 419.03 62.8012 416.401 60.3672C413.775 62.8012 411.805 65.9639 410.802 69.5462H408.833C409.864 65.4943 412.016 61.8988 414.926 59.1298C411.716 56.6982 407.746 55.2573 403.442 55.2573C392.777 55.2573 384.134 64.0943 384.134 74.9977C384.134 85.8986 392.778 94.738 403.442 94.738C407.746 94.738 411.716 93.2971 414.926 90.8656C412.188 88.2585 410.122 84.9183 409.03 81.1585H411.018C412.074 84.4506 413.948 87.3565 416.401 89.6281C418.856 87.3565 420.733 84.4507 421.789 81.1585H423.776C422.682 84.9185 420.617 88.2584 417.88 90.8656C421.089 93.297 425.06 94.738 429.363 94.738C440.026 94.738 448.671 85.8982 448.671 74.9977C448.671 64.0937 440.026 55.2573 429.363 55.2573ZM392.094 79.8071L393.235 72.4946L390.689 79.8071H389.331L389.163 72.5381L387.966 79.8071H386.101L387.656 70.2927H390.522L390.602 76.1814L392.535 70.2927H395.626L394.086 79.8071H392.094ZM401.372 75.7012C401.198 76.8194 400.828 79.2207 400.777 79.8071H399.126L399.165 79.0045C398.661 79.6383 397.99 79.9415 397.078 79.9415C395.997 79.9415 395.26 79.0784 395.26 77.8299C395.26 75.9432 396.544 74.8466 398.754 74.8466C398.98 74.8466 399.27 74.8682 399.566 74.9071C399.628 74.6497 399.643 74.5415 399.643 74.403C399.643 73.8925 399.298 73.7 398.367 73.7C397.393 73.687 396.589 73.9359 396.259 74.0483C396.28 73.9186 396.536 72.3089 396.536 72.3089C397.527 72.0105 398.182 71.8979 398.919 71.8979C400.629 71.8979 401.535 72.681 401.532 74.1652C401.535 74.5631 401.471 75.0541 401.372 75.7012ZM406.766 73.8449C406.262 73.7713 405.727 73.7278 405.337 73.7278C404.692 73.7278 404.36 73.94 404.36 74.3596C404.36 74.7209 404.457 74.8075 405.291 75.2011C406.29 75.6709 406.694 76.2896 406.694 77.3559C406.694 79.1212 405.725 79.9413 403.623 79.9413C402.406 79.9062 402.004 79.8116 401.55 79.7121L401.825 77.9251C402.462 78.1366 403.016 78.2277 403.609 78.2277C404.398 78.2277 404.754 78.0114 404.754 77.5315C404.754 77.1784 404.629 77.0661 403.822 76.6768C402.768 76.1683 402.307 75.4957 402.307 74.5155C402.299 73.0855 403.069 71.8977 405.297 71.8977C405.752 71.8977 406.533 71.9669 407.049 72.0492L406.766 73.8449ZM410.929 73.9312H409.907C409.678 75.4004 409.35 77.2305 409.346 77.477C409.346 77.8773 409.555 78.0502 410.029 78.0502C410.256 78.0502 410.431 78.0245 410.564 77.9768L410.303 79.6905C409.756 79.8633 409.331 79.9415 408.869 79.9415C407.852 79.9415 407.297 79.3422 407.297 78.2407C407.285 77.8991 407.445 77.0014 407.572 76.1771C407.684 75.4565 408.433 70.903 408.433 70.903H410.412L410.182 72.0708H411.2L410.929 73.9312ZM417.146 76.6032H413.205C413.072 77.7214 413.775 78.1889 414.926 78.1889C415.635 78.1889 416.272 78.0416 416.983 77.7044L416.655 79.6297C415.974 79.842 415.317 79.9414 414.624 79.9414C412.405 79.9366 411.25 78.7536 411.25 76.4886C411.25 73.8447 412.721 71.8976 414.716 71.8976C416.348 71.8976 417.392 72.9858 417.392 74.6992C417.392 75.2661 417.318 75.8178 417.146 76.6032ZM421.565 74.2686C420.45 74.1519 420.278 75.0757 419.565 79.8068H417.574L417.665 79.2858C418.01 76.8885 418.454 74.4635 418.704 72.0706H420.532C420.549 72.4643 420.462 72.8474 420.413 73.2454C421.021 72.3304 421.491 71.8457 422.322 72.0233C422.077 72.4517 421.745 73.2973 421.565 74.2686ZM427.543 79.6601C426.811 79.8676 426.335 79.9415 425.785 79.9415C423.641 79.9415 422.305 78.3621 422.305 75.8355C422.305 72.4342 424.151 70.059 426.79 70.059C427.659 70.059 428.686 70.4355 428.978 70.5522L428.652 72.616C427.941 72.2481 427.424 72.1009 426.872 72.1009C425.385 72.1009 424.345 73.5701 424.345 75.6661C424.345 77.1093 425.044 77.9834 426.201 77.9834C426.693 77.9834 427.234 77.8258 427.892 77.4946L427.543 79.6601ZM434.571 75.7012C434.4 76.8194 434.028 79.2207 433.976 79.8071H432.328L432.366 79.0045C431.86 79.6383 431.187 79.9415 430.277 79.9415C429.198 79.9415 428.457 79.0784 428.457 77.8299C428.457 75.9432 429.746 74.8466 431.953 74.8466C432.18 74.8466 432.47 74.8682 432.766 74.9071C432.827 74.6497 432.842 74.5415 432.842 74.403C432.842 73.8925 432.497 73.7 431.568 73.7C430.593 73.687 429.791 73.9359 429.46 74.0483C429.479 73.9186 429.735 72.3089 429.735 72.3089C430.728 72.0105 431.384 71.8979 432.116 71.8979C433.828 71.8979 434.734 72.681 434.732 74.1652C434.736 74.5631 434.671 75.0541 434.571 75.7012ZM436.971 79.8068H434.982L435.073 79.2858C435.418 76.8885 435.86 74.4635 436.11 72.0706H437.938C437.957 72.4643 437.87 72.8474 437.822 73.2454C438.429 72.3304 438.895 71.8457 439.73 72.0233C439.481 72.4517 439.15 73.2973 438.973 74.2686C437.858 74.1519 437.684 75.0757 436.971 79.8068ZM443.307 79.8068L443.402 79.0867C442.854 79.6819 442.293 79.9415 441.565 79.9415C440.117 79.9415 439.161 78.667 439.161 76.7331C439.161 74.1561 440.644 71.9885 442.401 71.9885C443.171 71.9885 443.759 72.3087 444.304 73.0422L444.744 70.2926H446.708L445.192 79.8068H443.307Z" fill="url(#paint7_linear_1751_7874)"/>
<path fill-rule="evenodd" clip-rule="evenodd" d="M473.453 49.9443C471.243 49.9443 469.453 51.7352 469.453 53.9443V95.9443C469.453 98.1535 471.243 99.9443 473.453 99.9443H543.453C545.662 99.9443 547.453 98.1535 547.453 95.9443V53.9443C547.453 51.7352 545.662 49.9443 543.453 49.9443H473.453ZM480.453 66.9469H485.959C485.987 66.9469 486.019 66.9464 486.053 66.9458C486.627 66.9361 487.999 66.9127 488.628 69.116C489.129 70.6176 489.796 72.9535 490.797 76.4573H491.131C491.82 73.9302 492.43 71.9567 492.852 70.5912L492.852 70.5911C493.043 69.9732 493.196 69.4798 493.3 69.116C493.929 66.9157 495.445 66.936 496.177 66.9458C496.222 66.9464 496.264 66.9469 496.303 66.9469H501.475V82.9643H496.136V73.454H495.803L492.966 82.9643H488.962L486.125 73.454H485.625V82.9643H480.453V66.9469ZM503.644 66.9469H508.984V76.4573H509.484L512.988 68.6154C513.655 67.1138 515.157 66.9469 515.157 66.9469H520.162V82.9643H514.823V73.454H514.49L510.986 81.2959C510.318 82.7975 508.65 82.9643 508.65 82.9643H503.644V66.9469ZM527.337 78.1257V82.9643H522.331V74.6219H538.683C538.015 76.6241 535.679 78.1257 533.01 78.1257H527.337ZM539.016 73.6209C539.683 70.6177 537.681 66.947 533.343 66.947H521.998C522.331 70.4508 525.335 73.6209 528.505 73.6209H539.016Z" fill="url(#paint8_linear_1751_7874)"/>
<rect x="22.5" y="166.5" width="555" height="63" rx="7.5" fill="white" stroke="#DCDCDC"/>
<path d="M55.776 192.8H57.376V204H55.776V192.8ZM49.344 204H47.744V192.8H49.344V204ZM55.92 199.008H49.184V197.616H55.92V199.008ZM64.245 204.096C63.3917 204.096 62.6343 203.909 61.973 203.536C61.3117 203.163 60.789 202.651 60.405 202C60.021 201.339 59.829 200.592 59.829 199.76C59.829 198.917 60.021 198.171 60.405 197.52C60.789 196.869 61.3117 196.363 61.973 196C62.6343 195.627 63.3917 195.44 64.245 195.44C65.0877 195.44 65.8397 195.627 66.501 196C67.173 196.363 67.6957 196.869 68.069 197.52C68.453 198.16 68.645 198.907 68.645 199.76C68.645 200.603 68.453 201.349 68.069 202C67.6957 202.651 67.173 203.163 66.501 203.536C65.8397 203.909 65.0877 204.096 64.245 204.096ZM64.245 202.752C64.789 202.752 65.2743 202.629 65.701 202.384C66.1383 202.139 66.4797 201.792 66.725 201.344C66.9703 200.885 67.093 200.357 67.093 199.76C67.093 199.152 66.9703 198.629 66.725 198.192C66.4797 197.744 66.1383 197.397 65.701 197.152C65.2743 196.907 64.789 196.784 64.245 196.784C63.701 196.784 63.2157 196.907 62.789 197.152C62.3623 197.397 62.021 197.744 61.765 198.192C61.509 198.629 61.381 199.152 61.381 199.76C61.381 200.357 61.509 200.885 61.765 201.344C62.021 201.792 62.3623 202.139 62.789 202.384C63.2157 202.629 63.701 202.752 64.245 202.752ZM70.863 204V195.52H72.447L76.095 201.792H75.455L79.199 195.52H80.639V204H79.247V197.248L79.503 197.392L76.079 203.04H75.407L71.967 197.28L72.271 197.216V204H70.863ZM87.4046 204.096C86.498 204.096 85.698 203.909 85.0046 203.536C84.322 203.163 83.7886 202.651 83.4046 202C83.0313 201.349 82.8446 200.603 82.8446 199.76C82.8446 198.917 83.026 198.171 83.3886 197.52C83.762 196.869 84.2686 196.363 84.9086 196C85.5593 195.627 86.29 195.44 87.1006 195.44C87.922 195.44 88.6473 195.621 89.2766 195.984C89.906 196.347 90.3966 196.859 90.7486 197.52C91.1113 198.171 91.2926 198.933 91.2926 199.808C91.2926 199.872 91.2873 199.947 91.2766 200.032C91.2766 200.117 91.2713 200.197 91.2606 200.272H84.0446V199.168H90.4606L89.8366 199.552C89.8473 199.008 89.7353 198.523 89.5006 198.096C89.266 197.669 88.9406 197.339 88.5246 197.104C88.1193 196.859 87.6446 196.736 87.1006 196.736C86.5673 196.736 86.0926 196.859 85.6766 197.104C85.2606 197.339 84.9353 197.675 84.7006 198.112C84.466 198.539 84.3486 199.029 84.3486 199.584V199.84C84.3486 200.405 84.4766 200.912 84.7326 201.36C84.9993 201.797 85.3673 202.139 85.8366 202.384C86.306 202.629 86.8446 202.752 87.4526 202.752C87.954 202.752 88.4073 202.667 88.8126 202.496C89.2286 202.325 89.5913 202.069 89.9006 201.728L90.7486 202.72C90.3646 203.168 89.8846 203.509 89.3086 203.744C88.7433 203.979 88.1086 204.096 87.4046 204.096ZM98.1715 204.096C97.4675 204.096 96.8222 203.936 96.2355 203.616C95.6595 203.285 95.1955 202.8 94.8435 202.16C94.5022 201.52 94.3315 200.72 94.3315 199.76C94.3315 198.8 94.4968 198 94.8275 197.36C95.1688 196.72 95.6275 196.24 96.2035 195.92C96.7902 195.6 97.4462 195.44 98.1715 195.44C99.0035 195.44 99.7395 195.621 100.38 195.984C101.02 196.347 101.526 196.853 101.9 197.504C102.273 198.144 102.46 198.896 102.46 199.76C102.46 200.624 102.273 201.381 101.9 202.032C101.526 202.683 101.02 203.189 100.38 203.552C99.7395 203.915 99.0035 204.096 98.1715 204.096ZM93.6755 207.104V195.52H95.1475V197.808L95.0515 199.776L95.2115 201.744V207.104H93.6755ZM98.0435 202.752C98.5875 202.752 99.0728 202.629 99.4995 202.384C99.9368 202.139 100.278 201.792 100.524 201.344C100.78 200.885 100.908 200.357 100.908 199.76C100.908 199.152 100.78 198.629 100.524 198.192C100.278 197.744 99.9368 197.397 99.4995 197.152C99.0728 196.907 98.5875 196.784 98.0435 196.784C97.5102 196.784 97.0248 196.907 96.5875 197.152C96.1608 197.397 95.8195 197.744 95.5635 198.192C95.3182 198.629 95.1955 199.152 95.1955 199.76C95.1955 200.357 95.3182 200.885 95.5635 201.344C95.8195 201.792 96.1608 202.139 96.5875 202.384C97.0248 202.629 97.5102 202.752 98.0435 202.752ZM115.132 204L111.852 199.872L113.116 199.104L116.94 204H115.132ZM108.988 204V195.52H110.524V204H108.988ZM110.06 200.416V199.104H112.86V200.416H110.06ZM113.244 199.936L111.82 199.744L115.068 195.52H116.716L113.244 199.936ZM123.594 204V202.208L123.514 201.872V198.816C123.514 198.165 123.322 197.664 122.938 197.312C122.565 196.949 122 196.768 121.242 196.768C120.741 196.768 120.25 196.853 119.77 197.024C119.29 197.184 118.885 197.403 118.554 197.68L117.914 196.528C118.352 196.176 118.874 195.909 119.482 195.728C120.101 195.536 120.746 195.44 121.418 195.44C122.581 195.44 123.477 195.723 124.106 196.288C124.736 196.853 125.05 197.717 125.05 198.88V204H123.594ZM120.81 204.096C120.181 204.096 119.626 203.989 119.146 203.776C118.677 203.563 118.314 203.269 118.058 202.896C117.802 202.512 117.674 202.08 117.674 201.6C117.674 201.141 117.781 200.725 117.994 200.352C118.218 199.979 118.576 199.68 119.066 199.456C119.568 199.232 120.24 199.12 121.082 199.12H123.77V200.224H121.146C120.378 200.224 119.861 200.352 119.594 200.608C119.328 200.864 119.194 201.173 119.194 201.536C119.194 201.952 119.36 202.288 119.69 202.544C120.021 202.789 120.48 202.912 121.066 202.912C121.642 202.912 122.144 202.784 122.57 202.528C123.008 202.272 123.322 201.899 123.514 201.408L123.818 202.464C123.616 202.965 123.258 203.365 122.746 203.664C122.234 203.952 121.589 204.096 120.81 204.096ZM132.312 204.096C131.608 204.096 130.963 203.936 130.376 203.616C129.8 203.285 129.336 202.8 128.984 202.16C128.643 201.52 128.472 200.72 128.472 199.76C128.472 198.8 128.637 198 128.968 197.36C129.309 196.72 129.768 196.24 130.344 195.92C130.931 195.6 131.587 195.44 132.312 195.44C133.144 195.44 133.88 195.621 134.52 195.984C135.16 196.347 135.667 196.853 136.04 197.504C136.413 198.144 136.6 198.896 136.6 199.76C136.6 200.624 136.413 201.381 136.04 202.032C135.667 202.683 135.16 203.189 134.52 203.552C133.88 203.915 133.144 204.096 132.312 204.096ZM127.816 207.104V195.52H129.288V197.808L129.192 199.776L129.352 201.744V207.104H127.816ZM132.184 202.752C132.728 202.752 133.213 202.629 133.64 202.384C134.077 202.139 134.419 201.792 134.664 201.344C134.92 200.885 135.048 200.357 135.048 199.76C135.048 199.152 134.92 198.629 134.664 198.192C134.419 197.744 134.077 197.397 133.64 197.152C133.213 196.907 132.728 196.784 132.184 196.784C131.651 196.784 131.165 196.907 130.728 197.152C130.301 197.397 129.96 197.744 129.704 198.192C129.459 198.629 129.336 199.152 129.336 199.76C129.336 200.357 129.459 200.885 129.704 201.344C129.96 201.792 130.301 202.139 130.728 202.384C131.165 202.629 131.651 202.752 132.184 202.752ZM140.199 204V196.464L140.583 196.864H137.095V195.52H144.839V196.864H141.367L141.735 196.464V204H140.199ZM154.794 204V195.52H156.33V204H154.794ZM150.234 198.4C151.311 198.411 152.127 198.656 152.682 199.136C153.247 199.616 153.53 200.293 153.53 201.168C153.53 202.085 153.221 202.795 152.602 203.296C151.994 203.787 151.119 204.027 149.978 204.016L146.41 204V195.52H147.946V198.384L150.234 198.4ZM149.866 202.848C150.549 202.859 151.071 202.72 151.434 202.432C151.797 202.144 151.978 201.717 151.978 201.152C151.978 200.597 151.797 200.192 151.434 199.936C151.082 199.68 150.559 199.547 149.866 199.536L147.946 199.504V202.832L149.866 202.848Z" fill="#7F818E"/>
<rect x="22.5" y="246.5" width="89" height="63" rx="7.5" fill="white" stroke="#DCDCDC"/>
<path d="M53.3378 284V272.8H54.6498L59.6737 281.264H58.9698L63.9298 272.8H65.2418L65.2578 284H63.7218L63.7058 275.216H64.0738L59.6578 282.64H58.9218L54.4738 275.216H54.8738V284H53.3378ZM68.744 284V272.8H70.056L75.08 281.264H74.376L79.336 272.8H80.648L80.664 284H79.128L79.112 275.216H79.48L75.064 282.64H74.328L69.88 275.216H70.28V284H68.744Z" fill="#7F818E"/>
<rect x="150.5" y="246.5" width="89" height="63" rx="7.5" fill="white" stroke="#DCDCDC"/>
<path d="M187.494 284V272.8H194.838L194.822 274.192H188.678L189.062 273.792L189.078 284H187.494ZM196.744 284V272.8H204.088L204.072 274.192H197.928L198.312 273.792L198.328 284H196.744Z" fill="#7F818E"/>
<path d="M311.047 265V256.292L311.481 256.74H307.813V255.2H316.101V256.74H312.433L312.853 256.292V265H311.047ZM321.441 265.098C320.834 265.098 320.279 264.958 319.775 264.678C319.28 264.398 318.884 263.978 318.585 263.418C318.296 262.849 318.151 262.13 318.151 261.262C318.151 260.385 318.291 259.666 318.571 259.106C318.86 258.546 319.252 258.131 319.747 257.86C320.242 257.58 320.806 257.44 321.441 257.44C322.178 257.44 322.827 257.599 323.387 257.916C323.956 258.233 324.404 258.677 324.731 259.246C325.067 259.815 325.235 260.487 325.235 261.262C325.235 262.037 325.067 262.713 324.731 263.292C324.404 263.861 323.956 264.305 323.387 264.622C322.827 264.939 322.178 265.098 321.441 265.098ZM317.297 267.716V257.524H318.963V259.288L318.907 261.276L319.047 263.264V267.716H317.297ZM321.245 263.6C321.665 263.6 322.038 263.507 322.365 263.32C322.701 263.133 322.967 262.863 323.163 262.508C323.359 262.153 323.457 261.738 323.457 261.262C323.457 260.777 323.359 260.361 323.163 260.016C322.967 259.661 322.701 259.391 322.365 259.204C322.038 259.017 321.665 258.924 321.245 258.924C320.825 258.924 320.447 259.017 320.111 259.204C319.775 259.391 319.509 259.661 319.313 260.016C319.117 260.361 319.019 260.777 319.019 261.262C319.019 261.738 319.117 262.153 319.313 262.508C319.509 262.863 319.775 263.133 320.111 263.32C320.447 263.507 320.825 263.6 321.245 263.6ZM326.977 265V257.524H328.727V262.452L332.857 257.524H334.453V265H332.703V260.072L328.587 265H326.977ZM340.676 265V257.524H342.426V263.516H345.996V257.524H347.746V265H340.676ZM347.242 266.666V264.958L347.648 265H345.996V263.516H348.88V266.666H347.242ZM350.438 265V257.524H352.188V262.452L356.318 257.524H357.914V265H356.164V260.072L352.048 265H350.438ZM365.014 265.14C365.004 265.14 364.962 265.14 364.888 265.14C364.822 265.14 364.757 265.14 364.692 265.14C364.636 265.14 364.598 265.14 364.58 265.14C363.002 265.121 361.78 264.781 360.912 264.118C360.044 263.446 359.61 262.489 359.61 261.248C359.61 260.016 360.044 259.073 360.912 258.42C361.78 257.767 363.016 257.431 364.622 257.412C364.64 257.412 364.678 257.412 364.734 257.412C364.799 257.412 364.86 257.412 364.916 257.412C364.981 257.412 365.018 257.412 365.028 257.412C366.642 257.412 367.898 257.743 368.794 258.406C369.699 259.059 370.152 260.007 370.152 261.248C370.152 262.499 369.699 263.46 368.794 264.132C367.898 264.804 366.638 265.14 365.014 265.14ZM364.958 263.684C365.751 263.684 366.404 263.595 366.918 263.418C367.431 263.231 367.814 262.961 368.066 262.606C368.318 262.242 368.444 261.789 368.444 261.248C368.444 260.716 368.318 260.277 368.066 259.932C367.814 259.577 367.431 259.316 366.918 259.148C366.404 258.971 365.751 258.882 364.958 258.882C364.939 258.882 364.892 258.882 364.818 258.882C364.752 258.882 364.71 258.882 364.692 258.882C363.917 258.882 363.282 258.975 362.788 259.162C362.293 259.339 361.924 259.601 361.682 259.946C361.448 260.291 361.332 260.725 361.332 261.248C361.332 261.78 361.448 262.223 361.682 262.578C361.924 262.933 362.293 263.203 362.788 263.39C363.292 263.577 363.926 263.675 364.692 263.684C364.71 263.684 364.752 263.684 364.818 263.684C364.892 263.684 364.939 263.684 364.958 263.684ZM364.048 267.716V254.612H365.7V267.716H364.048ZM375.992 265.098C375.385 265.098 374.83 264.958 374.326 264.678C373.831 264.398 373.435 263.978 373.136 263.418C372.847 262.849 372.702 262.13 372.702 261.262C372.702 260.385 372.842 259.666 373.122 259.106C373.411 258.546 373.803 258.131 374.298 257.86C374.793 257.58 375.357 257.44 375.992 257.44C376.729 257.44 377.378 257.599 377.938 257.916C378.507 258.233 378.955 258.677 379.282 259.246C379.618 259.815 379.786 260.487 379.786 261.262C379.786 262.037 379.618 262.713 379.282 263.292C378.955 263.861 378.507 264.305 377.938 264.622C377.378 264.939 376.729 265.098 375.992 265.098ZM371.848 267.716V257.524H373.514V259.288L373.458 261.276L373.598 263.264V267.716H371.848ZM375.796 263.6C376.216 263.6 376.589 263.507 376.916 263.32C377.252 263.133 377.518 262.863 377.714 262.508C377.91 262.153 378.008 261.738 378.008 261.262C378.008 260.777 377.91 260.361 377.714 260.016C377.518 259.661 377.252 259.391 376.916 259.204C376.589 259.017 376.216 258.924 375.796 258.924C375.376 258.924 374.998 259.017 374.662 259.204C374.326 259.391 374.06 259.661 373.864 260.016C373.668 260.361 373.57 260.777 373.57 261.262C373.57 261.738 373.668 262.153 373.864 262.508C374.06 262.863 374.326 263.133 374.662 263.32C374.998 263.507 375.376 263.6 375.796 263.6ZM389.074 265V257.524H390.824V265H389.074ZM385.168 259.988C386.129 259.988 386.857 260.203 387.352 260.632C387.856 261.061 388.108 261.668 388.108 262.452C388.108 263.264 387.828 263.899 387.268 264.356C386.717 264.804 385.933 265.023 384.916 265.014L381.528 265V257.524H383.278V259.974L385.168 259.988ZM384.762 263.726C385.275 263.735 385.667 263.628 385.938 263.404C386.208 263.18 386.344 262.853 386.344 262.424C386.344 261.995 386.208 261.687 385.938 261.5C385.676 261.304 385.284 261.201 384.762 261.192L383.278 261.178V263.712L384.762 263.726ZM302.994 283.098C302.21 283.098 301.51 282.935 300.894 282.608C300.287 282.272 299.811 281.815 299.466 281.236C299.121 280.657 298.948 279.999 298.948 279.262C298.948 278.515 299.121 277.857 299.466 277.288C299.811 276.709 300.287 276.257 300.894 275.93C301.51 275.603 302.21 275.44 302.994 275.44C303.722 275.44 304.361 275.589 304.912 275.888C305.472 276.177 305.897 276.607 306.186 277.176L304.842 277.96C304.618 277.605 304.343 277.344 304.016 277.176C303.699 277.008 303.353 276.924 302.98 276.924C302.551 276.924 302.163 277.017 301.818 277.204C301.473 277.391 301.202 277.661 301.006 278.016C300.81 278.361 300.712 278.777 300.712 279.262C300.712 279.747 300.81 280.167 301.006 280.522C301.202 280.867 301.473 281.133 301.818 281.32C302.163 281.507 302.551 281.6 302.98 281.6C303.353 281.6 303.699 281.516 304.016 281.348C304.343 281.18 304.618 280.919 304.842 280.564L306.186 281.348C305.897 281.908 305.472 282.342 304.912 282.65C304.361 282.949 303.722 283.098 302.994 283.098ZM314.928 283.098C314.163 283.098 313.481 282.935 312.884 282.608C312.287 282.272 311.815 281.815 311.47 281.236C311.125 280.657 310.952 279.999 310.952 279.262C310.952 278.515 311.125 277.857 311.47 277.288C311.815 276.709 312.287 276.257 312.884 275.93C313.481 275.603 314.163 275.44 314.928 275.44C315.703 275.44 316.389 275.603 316.986 275.93C317.593 276.257 318.064 276.705 318.4 277.274C318.745 277.843 318.918 278.506 318.918 279.262C318.918 279.999 318.745 280.657 318.4 281.236C318.064 281.815 317.593 282.272 316.986 282.608C316.389 282.935 315.703 283.098 314.928 283.098ZM314.928 281.6C315.357 281.6 315.74 281.507 316.076 281.32C316.412 281.133 316.673 280.863 316.86 280.508C317.056 280.153 317.154 279.738 317.154 279.262C317.154 278.777 317.056 278.361 316.86 278.016C316.673 277.661 316.412 277.391 316.076 277.204C315.74 277.017 315.362 276.924 314.942 276.924C314.513 276.924 314.13 277.017 313.794 277.204C313.467 277.391 313.206 277.661 313.01 278.016C312.814 278.361 312.716 278.777 312.716 279.262C312.716 279.738 312.814 280.153 313.01 280.508C313.206 280.863 313.467 281.133 313.794 281.32C314.13 281.507 314.508 281.6 314.928 281.6ZM324.217 283.14C323.601 283.14 323.05 283.047 322.565 282.86C322.079 282.673 321.659 282.389 321.305 282.006C320.959 281.614 320.693 281.119 320.507 280.522C320.32 279.925 320.227 279.215 320.227 278.394C320.227 277.797 320.278 277.251 320.381 276.756C320.483 276.261 320.637 275.818 320.843 275.426C321.048 275.025 321.305 274.67 321.613 274.362C321.93 274.054 322.299 273.797 322.719 273.592C323.139 273.387 323.615 273.228 324.147 273.116L327.619 272.374L327.871 273.942L324.721 274.586C324.543 274.623 324.329 274.679 324.077 274.754C323.834 274.819 323.582 274.922 323.321 275.062C323.069 275.193 322.831 275.384 322.607 275.636C322.392 275.879 322.215 276.196 322.075 276.588C321.944 276.971 321.879 277.451 321.879 278.03C321.879 278.207 321.883 278.343 321.893 278.436C321.911 278.52 321.925 278.613 321.935 278.716C321.953 278.809 321.963 278.949 321.963 279.136L321.305 278.45C321.491 277.974 321.748 277.568 322.075 277.232C322.411 276.887 322.798 276.625 323.237 276.448C323.685 276.261 324.17 276.168 324.693 276.168C325.393 276.168 326.013 276.313 326.555 276.602C327.096 276.891 327.521 277.297 327.829 277.82C328.137 278.343 328.291 278.935 328.291 279.598C328.291 280.289 328.123 280.9 327.787 281.432C327.451 281.964 326.975 282.384 326.359 282.692C325.752 282.991 325.038 283.14 324.217 283.14ZM324.357 281.726C324.777 281.726 325.145 281.637 325.463 281.46C325.789 281.273 326.041 281.021 326.219 280.704C326.405 280.387 326.499 280.032 326.499 279.64C326.499 279.248 326.405 278.907 326.219 278.618C326.041 278.319 325.789 278.081 325.463 277.904C325.145 277.727 324.767 277.638 324.329 277.638C323.909 277.638 323.531 277.722 323.195 277.89C322.868 278.058 322.611 278.291 322.425 278.59C322.247 278.879 322.159 279.215 322.159 279.598C322.159 279.99 322.252 280.349 322.439 280.676C322.625 281.003 322.882 281.259 323.209 281.446C323.545 281.633 323.927 281.726 324.357 281.726ZM333.317 283.098C332.551 283.098 331.87 282.935 331.273 282.608C330.675 282.272 330.204 281.815 329.859 281.236C329.513 280.657 329.341 279.999 329.341 279.262C329.341 278.515 329.513 277.857 329.859 277.288C330.204 276.709 330.675 276.257 331.273 275.93C331.87 275.603 332.551 275.44 333.317 275.44C334.091 275.44 334.777 275.603 335.375 275.93C335.981 276.257 336.453 276.705 336.789 277.274C337.134 277.843 337.307 278.506 337.307 279.262C337.307 279.999 337.134 280.657 336.789 281.236C336.453 281.815 335.981 282.272 335.375 282.608C334.777 282.935 334.091 283.098 333.317 283.098ZM333.317 281.6C333.746 281.6 334.129 281.507 334.465 281.32C334.801 281.133 335.062 280.863 335.249 280.508C335.445 280.153 335.543 279.738 335.543 279.262C335.543 278.777 335.445 278.361 335.249 278.016C335.062 277.661 334.801 277.391 334.465 277.204C334.129 277.017 333.751 276.924 333.331 276.924C332.901 276.924 332.519 277.017 332.183 277.204C331.856 277.391 331.595 277.661 331.399 278.016C331.203 278.361 331.105 278.777 331.105 279.262C331.105 279.738 331.203 280.153 331.399 280.508C331.595 280.863 331.856 281.133 332.183 281.32C332.519 281.507 332.897 281.6 333.317 281.6ZM343.179 283.098C342.573 283.098 342.017 282.958 341.513 282.678C341.019 282.398 340.622 281.978 340.323 281.418C340.034 280.849 339.889 280.13 339.889 279.262C339.889 278.385 340.029 277.666 340.309 277.106C340.599 276.546 340.991 276.131 341.485 275.86C341.98 275.58 342.545 275.44 343.179 275.44C343.917 275.44 344.565 275.599 345.125 275.916C345.695 276.233 346.143 276.677 346.469 277.246C346.805 277.815 346.973 278.487 346.973 279.262C346.973 280.037 346.805 280.713 346.469 281.292C346.143 281.861 345.695 282.305 345.125 282.622C344.565 282.939 343.917 283.098 343.179 283.098ZM339.035 285.716V275.524H340.701V277.288L340.645 279.276L340.785 281.264V285.716H339.035ZM342.983 281.6C343.403 281.6 343.777 281.507 344.103 281.32C344.439 281.133 344.705 280.863 344.901 280.508C345.097 280.153 345.195 279.738 345.195 279.262C345.195 278.777 345.097 278.361 344.901 278.016C344.705 277.661 344.439 277.391 344.103 277.204C343.777 277.017 343.403 276.924 342.983 276.924C342.563 276.924 342.185 277.017 341.849 277.204C341.513 277.391 341.247 277.661 341.051 278.016C340.855 278.361 340.757 278.777 340.757 279.262C340.757 279.738 340.855 280.153 341.051 280.508C341.247 280.863 341.513 281.133 341.849 281.32C342.185 281.507 342.563 281.6 342.983 281.6ZM352.047 283.098C351.282 283.098 350.6 282.935 350.003 282.608C349.406 282.272 348.934 281.815 348.589 281.236C348.244 280.657 348.071 279.999 348.071 279.262C348.071 278.515 348.244 277.857 348.589 277.288C348.934 276.709 349.406 276.257 350.003 275.93C350.6 275.603 351.282 275.44 352.047 275.44C352.822 275.44 353.508 275.603 354.105 275.93C354.712 276.257 355.183 276.705 355.519 277.274C355.864 277.843 356.037 278.506 356.037 279.262C356.037 279.999 355.864 280.657 355.519 281.236C355.183 281.815 354.712 282.272 354.105 282.608C353.508 282.935 352.822 283.098 352.047 283.098ZM352.047 281.6C352.476 281.6 352.859 281.507 353.195 281.32C353.531 281.133 353.792 280.863 353.979 280.508C354.175 280.153 354.273 279.738 354.273 279.262C354.273 278.777 354.175 278.361 353.979 278.016C353.792 277.661 353.531 277.391 353.195 277.204C352.859 277.017 352.481 276.924 352.061 276.924C351.632 276.924 351.249 277.017 350.913 277.204C350.586 277.391 350.325 277.661 350.129 278.016C349.933 278.361 349.835 278.777 349.835 279.262C349.835 279.738 349.933 280.153 350.129 280.508C350.325 280.863 350.586 281.133 350.913 281.32C351.249 281.507 351.627 281.6 352.047 281.6ZM359.046 283V276.588L359.452 277.008H356.414V275.524H363.414V277.008H360.39L360.796 276.588V283H359.046ZM364.684 283V275.524H366.434V278.562H370.2V275.524H371.95V283H370.2V280.046H366.434V283H364.684ZM377.627 283.098C376.862 283.098 376.18 282.935 375.583 282.608C374.986 282.272 374.514 281.815 374.169 281.236C373.824 280.657 373.651 279.999 373.651 279.262C373.651 278.515 373.824 277.857 374.169 277.288C374.514 276.709 374.986 276.257 375.583 275.93C376.18 275.603 376.862 275.44 377.627 275.44C378.402 275.44 379.088 275.603 379.685 275.93C380.292 276.257 380.763 276.705 381.099 277.274C381.444 277.843 381.617 278.506 381.617 279.262C381.617 279.999 381.444 280.657 381.099 281.236C380.763 281.815 380.292 282.272 379.685 282.608C379.088 282.935 378.402 283.098 377.627 283.098ZM377.627 281.6C378.056 281.6 378.439 281.507 378.775 281.32C379.111 281.133 379.372 280.863 379.559 280.508C379.755 280.153 379.853 279.738 379.853 279.262C379.853 278.777 379.755 278.361 379.559 278.016C379.372 277.661 379.111 277.391 378.775 277.204C378.439 277.017 378.061 276.924 377.641 276.924C377.212 276.924 376.829 277.017 376.493 277.204C376.166 277.391 375.905 277.661 375.709 278.016C375.513 278.361 375.415 278.777 375.415 279.262C375.415 279.738 375.513 280.153 375.709 280.508C375.905 280.863 376.166 281.133 376.493 281.32C376.829 281.507 377.207 281.6 377.627 281.6ZM383.346 283V275.524H385.096V280.452L389.226 275.524H390.822V283H389.072V278.072L384.956 283H383.346ZM386.972 274.642C386.225 274.642 385.651 274.469 385.25 274.124C384.849 273.769 384.643 273.256 384.634 272.584H385.796C385.805 272.92 385.908 273.186 386.104 273.382C386.309 273.578 386.594 273.676 386.958 273.676C387.313 273.676 387.593 273.578 387.798 273.382C388.013 273.186 388.125 272.92 388.134 272.584H389.324C389.315 273.256 389.105 273.769 388.694 274.124C388.293 274.469 387.719 274.642 386.972 274.642ZM283.607 301.098C282.823 301.098 282.123 300.935 281.507 300.608C280.901 300.272 280.425 299.815 280.079 299.236C279.734 298.657 279.561 297.999 279.561 297.262C279.561 296.515 279.734 295.857 280.079 295.288C280.425 294.709 280.901 294.257 281.507 293.93C282.123 293.603 282.823 293.44 283.607 293.44C284.335 293.44 284.975 293.589 285.525 293.888C286.085 294.177 286.51 294.607 286.799 295.176L285.455 295.96C285.231 295.605 284.956 295.344 284.629 295.176C284.312 295.008 283.967 294.924 283.593 294.924C283.164 294.924 282.777 295.017 282.431 295.204C282.086 295.391 281.815 295.661 281.619 296.016C281.423 296.361 281.325 296.777 281.325 297.262C281.325 297.747 281.423 298.167 281.619 298.522C281.815 298.867 282.086 299.133 282.431 299.32C282.777 299.507 283.164 299.6 283.593 299.6C283.967 299.6 284.312 299.516 284.629 299.348C284.956 299.18 285.231 298.919 285.455 298.564L286.799 299.348C286.51 299.908 286.085 300.342 285.525 300.65C284.975 300.949 284.335 301.098 283.607 301.098ZM289.839 301V294.588L290.245 295.008H287.207V293.524H294.207V295.008H291.183L291.589 294.588V301H289.839ZM298.481 301.098C297.715 301.098 297.034 300.935 296.437 300.608C295.839 300.272 295.368 299.815 295.023 299.236C294.677 298.657 294.505 297.999 294.505 297.262C294.505 296.515 294.677 295.857 295.023 295.288C295.368 294.709 295.839 294.257 296.437 293.93C297.034 293.603 297.715 293.44 298.481 293.44C299.255 293.44 299.941 293.603 300.539 293.93C301.145 294.257 301.617 294.705 301.953 295.274C302.298 295.843 302.471 296.506 302.471 297.262C302.471 297.999 302.298 298.657 301.953 299.236C301.617 299.815 301.145 300.272 300.539 300.608C299.941 300.935 299.255 301.098 298.481 301.098ZM298.481 299.6C298.91 299.6 299.293 299.507 299.629 299.32C299.965 299.133 300.226 298.863 300.413 298.508C300.609 298.153 300.707 297.738 300.707 297.262C300.707 296.777 300.609 296.361 300.413 296.016C300.226 295.661 299.965 295.391 299.629 295.204C299.293 295.017 298.915 294.924 298.495 294.924C298.065 294.924 297.683 295.017 297.347 295.204C297.02 295.391 296.759 295.661 296.563 296.016C296.367 296.361 296.269 296.777 296.269 297.262C296.269 297.738 296.367 298.153 296.563 298.508C296.759 298.863 297.02 299.133 297.347 299.32C297.683 299.507 298.061 299.6 298.481 299.6ZM308.343 301.098C307.737 301.098 307.181 300.958 306.677 300.678C306.183 300.398 305.786 299.978 305.487 299.418C305.198 298.849 305.053 298.13 305.053 297.262C305.053 296.385 305.193 295.666 305.473 295.106C305.763 294.546 306.155 294.131 306.649 293.86C307.144 293.58 307.709 293.44 308.343 293.44C309.081 293.44 309.729 293.599 310.289 293.916C310.859 294.233 311.307 294.677 311.633 295.246C311.969 295.815 312.137 296.487 312.137 297.262C312.137 298.037 311.969 298.713 311.633 299.292C311.307 299.861 310.859 300.305 310.289 300.622C309.729 300.939 309.081 301.098 308.343 301.098ZM304.199 303.716V293.524H305.865V295.288L305.809 297.276L305.949 299.264V303.716H304.199ZM308.147 299.6C308.567 299.6 308.941 299.507 309.267 299.32C309.603 299.133 309.869 298.863 310.065 298.508C310.261 298.153 310.359 297.738 310.359 297.262C310.359 296.777 310.261 296.361 310.065 296.016C309.869 295.661 309.603 295.391 309.267 295.204C308.941 295.017 308.567 294.924 308.147 294.924C307.727 294.924 307.349 295.017 307.013 295.204C306.677 295.391 306.411 295.661 306.215 296.016C306.019 296.361 305.921 296.777 305.921 297.262C305.921 297.738 306.019 298.153 306.215 298.508C306.411 298.863 306.677 299.133 307.013 299.32C307.349 299.507 307.727 299.6 308.147 299.6ZM317.211 301.098C316.446 301.098 315.764 300.935 315.167 300.608C314.57 300.272 314.098 299.815 313.753 299.236C313.408 298.657 313.235 297.999 313.235 297.262C313.235 296.515 313.408 295.857 313.753 295.288C314.098 294.709 314.57 294.257 315.167 293.93C315.764 293.603 316.446 293.44 317.211 293.44C317.986 293.44 318.672 293.603 319.269 293.93C319.876 294.257 320.347 294.705 320.683 295.274C321.028 295.843 321.201 296.506 321.201 297.262C321.201 297.999 321.028 298.657 320.683 299.236C320.347 299.815 319.876 300.272 319.269 300.608C318.672 300.935 317.986 301.098 317.211 301.098ZM317.211 299.6C317.64 299.6 318.023 299.507 318.359 299.32C318.695 299.133 318.956 298.863 319.143 298.508C319.339 298.153 319.437 297.738 319.437 297.262C319.437 296.777 319.339 296.361 319.143 296.016C318.956 295.661 318.695 295.391 318.359 295.204C318.023 295.017 317.645 294.924 317.225 294.924C316.796 294.924 316.413 295.017 316.077 295.204C315.75 295.391 315.489 295.661 315.293 296.016C315.097 296.361 314.999 296.777 314.999 297.262C314.999 297.738 315.097 298.153 315.293 298.508C315.489 298.863 315.75 299.133 316.077 299.32C316.413 299.507 316.791 299.6 317.211 299.6ZM322.93 301V293.524H324.68V296.562H328.446V293.524H330.196V301H328.446V298.046H324.68V301H322.93ZM340.087 301V293.524H341.837V301H340.087ZM336.181 295.988C337.143 295.988 337.871 296.203 338.365 296.632C338.869 297.061 339.121 297.668 339.121 298.452C339.121 299.264 338.841 299.899 338.281 300.356C337.731 300.804 336.947 301.023 335.929 301.014L332.541 301V293.524H334.291V295.974L336.181 295.988ZM335.775 299.726C336.289 299.735 336.681 299.628 336.951 299.404C337.222 299.18 337.357 298.853 337.357 298.424C337.357 297.995 337.222 297.687 336.951 297.5C336.69 297.304 336.298 297.201 335.775 297.192L334.291 297.178V299.712L335.775 299.726ZM353.421 301L350.719 297.416L352.147 296.534L355.479 301H353.421ZM348.059 301V293.524H349.809V301H348.059ZM349.291 298.004V296.548H351.825V298.004H349.291ZM352.315 297.472L350.677 297.276L353.421 293.524H355.297L352.315 297.472ZM361.112 301V299.488L361.014 299.166V296.52C361.014 296.007 360.86 295.61 360.552 295.33C360.244 295.041 359.778 294.896 359.152 294.896C358.732 294.896 358.317 294.961 357.906 295.092C357.505 295.223 357.164 295.405 356.884 295.638L356.198 294.364C356.6 294.056 357.076 293.827 357.626 293.678C358.186 293.519 358.765 293.44 359.362 293.44C360.445 293.44 361.28 293.701 361.868 294.224C362.466 294.737 362.764 295.535 362.764 296.618V301H361.112ZM358.76 301.098C358.2 301.098 357.71 301.005 357.29 300.818C356.87 300.622 356.544 300.356 356.31 300.02C356.086 299.675 355.974 299.287 355.974 298.858C355.974 298.438 356.072 298.06 356.268 297.724C356.474 297.388 356.805 297.122 357.262 296.926C357.72 296.73 358.326 296.632 359.082 296.632H361.252V297.794H359.208C358.611 297.794 358.21 297.892 358.004 298.088C357.799 298.275 357.696 298.508 357.696 298.788C357.696 299.105 357.822 299.357 358.074 299.544C358.326 299.731 358.676 299.824 359.124 299.824C359.554 299.824 359.936 299.726 360.272 299.53C360.618 299.334 360.865 299.045 361.014 298.662L361.308 299.712C361.14 300.151 360.837 300.491 360.398 300.734C359.969 300.977 359.423 301.098 358.76 301.098ZM369.074 301.098C368.467 301.098 367.912 300.958 367.408 300.678C366.913 300.398 366.517 299.978 366.218 299.418C365.929 298.849 365.784 298.13 365.784 297.262C365.784 296.385 365.924 295.666 366.204 295.106C366.493 294.546 366.885 294.131 367.38 293.86C367.875 293.58 368.439 293.44 369.074 293.44C369.811 293.44 370.46 293.599 371.02 293.916C371.589 294.233 372.037 294.677 372.364 295.246C372.7 295.815 372.868 296.487 372.868 297.262C372.868 298.037 372.7 298.713 372.364 299.292C372.037 299.861 371.589 300.305 371.02 300.622C370.46 300.939 369.811 301.098 369.074 301.098ZM364.93 303.716V293.524H366.596V295.288L366.54 297.276L366.68 299.264V303.716H364.93ZM368.878 299.6C369.298 299.6 369.671 299.507 369.998 299.32C370.334 299.133 370.6 298.863 370.796 298.508C370.992 298.153 371.09 297.738 371.09 297.262C371.09 296.777 370.992 296.361 370.796 296.016C370.6 295.661 370.334 295.391 369.998 295.204C369.671 295.017 369.298 294.924 368.878 294.924C368.458 294.924 368.08 295.017 367.744 295.204C367.408 295.391 367.142 295.661 366.946 296.016C366.75 296.361 366.652 296.777 366.652 297.262C366.652 297.738 366.75 298.153 366.946 298.508C367.142 298.863 367.408 299.133 367.744 299.32C368.08 299.507 368.458 299.6 368.878 299.6ZM375.89 301V294.588L376.296 295.008H373.258V293.524H380.258V295.008H377.234L377.64 294.588V301H375.89ZM389.074 301V293.524H390.824V301H389.074ZM385.168 295.988C386.129 295.988 386.857 296.203 387.352 296.632C387.856 297.061 388.108 297.668 388.108 298.452C388.108 299.264 387.828 299.899 387.268 300.356C386.717 300.804 385.933 301.023 384.916 301.014L381.528 301V293.524H383.278V295.974L385.168 295.988ZM384.762 299.726C385.275 299.735 385.667 299.628 385.938 299.404C386.208 299.18 386.344 298.853 386.344 298.424C386.344 297.995 386.208 297.687 385.938 297.5C385.676 297.304 385.284 297.201 384.762 297.192L383.278 297.178V299.712L384.762 299.726Z" fill="#707070"/>
<rect x="404.5" y="246.5" width="171" height="63" rx="7.5" fill="white" stroke="#DCDCDC"/>
<path d="M479.483 284.128C478.629 284.128 477.84 283.989 477.115 283.712C476.4 283.424 475.776 283.024 475.243 282.512C474.72 281.989 474.309 281.381 474.011 280.688C473.712 279.995 473.563 279.232 473.563 278.4C473.563 277.568 473.712 276.805 474.011 276.112C474.309 275.419 474.725 274.816 475.259 274.304C475.792 273.781 476.416 273.381 477.131 273.104C477.856 272.816 478.645 272.672 479.499 272.672C480.363 272.672 481.157 272.821 481.883 273.12C482.619 273.408 483.243 273.84 483.755 274.416L482.715 275.424C482.288 274.976 481.808 274.645 481.275 274.432C480.741 274.208 480.171 274.096 479.563 274.096C478.933 274.096 478.347 274.203 477.803 274.416C477.269 274.629 476.805 274.928 476.411 275.312C476.016 275.696 475.707 276.155 475.483 276.688C475.269 277.211 475.163 277.781 475.163 278.4C475.163 279.019 475.269 279.595 475.483 280.128C475.707 280.651 476.016 281.104 476.411 281.488C476.805 281.872 477.269 282.171 477.803 282.384C478.347 282.597 478.933 282.704 479.563 282.704C480.171 282.704 480.741 282.597 481.275 282.384C481.808 282.16 482.288 281.819 482.715 281.36L483.755 282.368C483.243 282.944 482.619 283.381 481.883 283.68C481.157 283.979 480.357 284.128 479.483 284.128ZM489.16 284L484.232 272.8H485.96L490.488 283.136H489.496L494.056 272.8H495.656L490.744 284H489.16ZM501.983 284.128C501.129 284.128 500.34 283.989 499.615 283.712C498.9 283.424 498.276 283.024 497.743 282.512C497.22 281.989 496.809 281.381 496.511 280.688C496.212 279.995 496.063 279.232 496.063 278.4C496.063 277.568 496.212 276.805 496.511 276.112C496.809 275.419 497.225 274.816 497.759 274.304C498.292 273.781 498.916 273.381 499.631 273.104C500.356 272.816 501.145 272.672 501.999 272.672C502.863 272.672 503.657 272.821 504.383 273.12C505.119 273.408 505.743 273.84 506.255 274.416L505.215 275.424C504.788 274.976 504.308 274.645 503.775 274.432C503.241 274.208 502.671 274.096 502.063 274.096C501.433 274.096 500.847 274.203 500.303 274.416C499.769 274.629 499.305 274.928 498.911 275.312C498.516 275.696 498.207 276.155 497.983 276.688C497.769 277.211 497.663 277.781 497.663 278.4C497.663 279.019 497.769 279.595 497.983 280.128C498.207 280.651 498.516 281.104 498.911 281.488C499.305 281.872 499.769 282.171 500.303 282.384C500.847 282.597 501.433 282.704 502.063 282.704C502.671 282.704 503.241 282.597 503.775 282.384C504.308 282.16 504.788 281.819 505.215 281.36L506.255 282.368C505.743 282.944 505.119 283.381 504.383 283.68C503.657 283.979 502.857 284.128 501.983 284.128Z" fill="#7F818E"/>
<path d="M126.258 288.2L133.518 267.476H135.982L128.722 288.2H126.258Z" fill="#A5A5A5"/>
<rect y="344" width="600" height="64" rx="6" fill="#D0D0D0"/>
<path d="M253.476 380.857V369.657H263.684V380.857H261.108V371.177L261.7 371.769H255.46L256.052 371.177V380.857H253.476ZM271.34 380.985C270.615 380.985 269.98 380.825 269.436 380.505C268.892 380.185 268.466 379.7 268.156 379.049C267.858 378.388 267.708 377.556 267.708 376.553C267.708 375.54 267.852 374.708 268.14 374.057C268.428 373.407 268.844 372.921 269.388 372.601C269.932 372.281 270.583 372.121 271.34 372.121C272.151 372.121 272.876 372.308 273.516 372.681C274.167 373.044 274.679 373.556 275.052 374.217C275.436 374.879 275.628 375.657 275.628 376.553C275.628 377.46 275.436 378.244 275.052 378.905C274.679 379.567 274.167 380.079 273.516 380.441C272.876 380.804 272.151 380.985 271.34 380.985ZM266.252 383.961V372.249H268.636V374.009L268.588 376.569L268.748 379.113V383.961H266.252ZM270.908 378.937C271.324 378.937 271.692 378.841 272.012 378.649C272.343 378.457 272.604 378.185 272.796 377.833C272.999 377.471 273.1 377.044 273.1 376.553C273.1 376.052 272.999 375.625 272.796 375.273C272.604 374.921 272.343 374.649 272.012 374.457C271.692 374.265 271.324 374.169 270.908 374.169C270.492 374.169 270.119 374.265 269.788 374.457C269.458 374.649 269.196 374.921 269.004 375.273C268.812 375.625 268.716 376.052 268.716 376.553C268.716 377.044 268.812 377.471 269.004 377.833C269.196 378.185 269.458 378.457 269.788 378.649C270.119 378.841 270.492 378.937 270.908 378.937ZM277.378 380.857V372.249H279.858V377.369L284.05 372.249H286.338V380.857H283.858V375.737L279.682 380.857H277.378ZM288.737 380.857V372.249H293.137C294.215 372.249 295.057 372.447 295.665 372.841C296.273 373.225 296.577 373.769 296.577 374.473C296.577 375.177 296.289 375.732 295.713 376.137C295.148 376.532 294.396 376.729 293.457 376.729L293.713 376.153C294.759 376.153 295.537 376.345 296.049 376.729C296.572 377.113 296.833 377.673 296.833 378.409C296.833 379.167 296.545 379.764 295.969 380.201C295.393 380.639 294.513 380.857 293.329 380.857H288.737ZM291.025 379.161H293.121C293.58 379.161 293.921 379.087 294.145 378.937C294.38 378.777 294.497 378.537 294.497 378.217C294.497 377.887 294.391 377.647 294.177 377.497C293.964 377.337 293.628 377.257 293.169 377.257H291.025V379.161ZM291.025 375.785H292.913C293.351 375.785 293.676 375.705 293.889 375.545C294.113 375.385 294.225 375.156 294.225 374.857C294.225 374.548 294.113 374.319 293.889 374.169C293.676 374.02 293.351 373.945 292.913 373.945H291.025V375.785ZM304.114 380.857V377.993L304.466 378.393H302.082C300.845 378.393 299.874 378.137 299.17 377.625C298.466 377.113 298.114 376.377 298.114 375.417C298.114 374.393 298.482 373.609 299.218 373.065C299.965 372.521 300.968 372.249 302.226 372.249H306.338V380.857H304.114ZM297.986 380.857L300.274 377.577H302.818L300.642 380.857H297.986ZM304.114 377.225V373.641L304.466 374.281H302.274C301.762 374.281 301.362 374.377 301.074 374.569C300.797 374.761 300.658 375.071 300.658 375.497C300.658 376.319 301.186 376.729 302.242 376.729H304.466L304.114 377.225ZM311.571 381.017C310.91 381.017 310.248 380.948 309.587 380.809C308.936 380.671 308.334 380.463 307.779 380.185L308.451 378.441C308.888 378.655 309.363 378.82 309.875 378.937C310.398 379.044 310.926 379.097 311.459 379.097C311.843 379.097 312.174 379.06 312.451 378.985C312.739 378.9 312.958 378.783 313.107 378.633C313.256 378.484 313.331 378.303 313.331 378.089C313.331 377.812 313.214 377.604 312.979 377.465C312.744 377.316 312.403 377.241 311.955 377.241H310.195V375.689H311.747C312.035 375.689 312.28 375.657 312.483 375.593C312.686 375.529 312.835 375.439 312.931 375.321C313.038 375.193 313.091 375.044 313.091 374.873C313.091 374.692 313.027 374.537 312.899 374.409C312.771 374.281 312.584 374.185 312.339 374.121C312.094 374.047 311.784 374.009 311.411 374.009C310.984 374.009 310.542 374.063 310.083 374.169C309.624 374.265 309.155 374.409 308.675 374.601L308.067 372.873C308.632 372.639 309.192 372.452 309.747 372.313C310.302 372.175 310.851 372.1 311.395 372.089C312.195 372.068 312.915 372.153 313.555 372.345C314.195 372.537 314.696 372.815 315.059 373.177C315.432 373.54 315.619 373.983 315.619 374.505C315.619 374.921 315.491 375.295 315.235 375.625C314.99 375.956 314.648 376.217 314.211 376.409C313.774 376.591 313.283 376.681 312.739 376.681L312.803 376.185C313.752 376.185 314.499 376.377 315.043 376.761C315.587 377.135 315.859 377.647 315.859 378.297C315.859 378.852 315.667 379.337 315.283 379.753C314.91 380.159 314.398 380.473 313.747 380.697C313.107 380.911 312.382 381.017 311.571 381.017ZM322.795 380.857V379.177L322.635 378.809V375.801C322.635 375.268 322.47 374.852 322.139 374.553C321.819 374.255 321.323 374.105 320.651 374.105C320.193 374.105 319.739 374.18 319.291 374.329C318.854 374.468 318.481 374.66 318.171 374.905L317.275 373.161C317.745 372.831 318.31 372.575 318.971 372.393C319.633 372.212 320.305 372.121 320.987 372.121C322.299 372.121 323.318 372.431 324.043 373.049C324.769 373.668 325.131 374.633 325.131 375.945V380.857H322.795ZM320.171 380.985C319.499 380.985 318.923 380.873 318.443 380.649C317.963 380.415 317.595 380.1 317.339 379.705C317.083 379.311 316.955 378.868 316.955 378.377C316.955 377.865 317.078 377.417 317.323 377.033C317.579 376.649 317.979 376.351 318.523 376.137C319.067 375.913 319.777 375.801 320.651 375.801H322.939V377.257H320.923C320.337 377.257 319.931 377.353 319.707 377.545C319.494 377.737 319.387 377.977 319.387 378.265C319.387 378.585 319.51 378.841 319.755 379.033C320.011 379.215 320.358 379.305 320.795 379.305C321.211 379.305 321.585 379.209 321.915 379.017C322.246 378.815 322.486 378.521 322.635 378.137L323.019 379.289C322.838 379.844 322.507 380.265 322.027 380.553C321.547 380.841 320.929 380.985 320.171 380.985ZM329.14 380.857V373.721L329.7 374.297H326.228V372.249H334.532V374.297H331.06L331.62 373.721V380.857H329.14ZM340.518 375.001C341.649 375.012 342.508 375.268 343.094 375.769C343.692 376.26 343.99 376.959 343.99 377.865C343.99 378.815 343.654 379.556 342.982 380.089C342.31 380.612 341.377 380.873 340.182 380.873L335.862 380.857V372.249H338.342V375.001H340.518ZM339.958 379.097C340.438 379.108 340.806 379.007 341.062 378.793C341.318 378.58 341.446 378.26 341.446 377.833C341.446 377.407 341.318 377.103 341.062 376.921C340.806 376.729 340.438 376.628 339.958 376.617L338.342 376.601V379.097H339.958Z" fill="white"/>
<defs>
<linearGradient id="paint0_linear_1751_7874" x1="324.453" y1="49.9443" x2="324.453" y2="100.055" gradientUnits="userSpaceOnUse">
<stop stop-color="#515151"/>
<stop offset="1" stop-color="#ADADAD"/>
</linearGradient>
<linearGradient id="paint1_linear_1751_7874" x1="349.692" y1="70.2461" x2="349.692" y2="78.0561" gradientUnits="userSpaceOnUse">
<stop stop-color="#515151"/>
<stop offset="1" stop-color="#ADADAD"/>
</linearGradient>
<linearGradient id="paint2_linear_1751_7874" x1="416.453" y1="49.9443" x2="416.453" y2="100.005" gradientUnits="userSpaceOnUse">
<stop stop-color="#515151"/>
<stop offset="1" stop-color="#ADADAD"/>
</linearGradient>
<linearGradient id="paint3_linear_1751_7874" x1="398.257" y1="76.3296" x2="398.257" y2="78.2939" gradientUnits="userSpaceOnUse">
<stop stop-color="#515151"/>
<stop offset="1" stop-color="#ADADAD"/>
</linearGradient>
<linearGradient id="paint4_linear_1751_7874" x1="431.457" y1="76.3296" x2="431.457" y2="78.2939" gradientUnits="userSpaceOnUse">
<stop stop-color="#515151"/>
<stop offset="1" stop-color="#ADADAD"/>
</linearGradient>
<linearGradient id="paint5_linear_1751_7874" x1="414.46" y1="73.6548" x2="414.46" y2="75.0397" gradientUnits="userSpaceOnUse">
<stop stop-color="#515151"/>
<stop offset="1" stop-color="#ADADAD"/>
</linearGradient>
<linearGradient id="paint6_linear_1751_7874" x1="442.533" y1="73.895" x2="442.533" y2="78.0188" gradientUnits="userSpaceOnUse">
<stop stop-color="#515151"/>
<stop offset="1" stop-color="#ADADAD"/>
</linearGradient>
<linearGradient id="paint7_linear_1751_7874" x1="416.402" y1="55.2573" x2="416.402" y2="94.738" gradientUnits="userSpaceOnUse">
<stop stop-color="#515151"/>
<stop offset="1" stop-color="#ADADAD"/>
</linearGradient>
<linearGradient id="paint8_linear_1751_7874" x1="508.453" y1="49.9443" x2="508.453" y2="99.9443" gradientUnits="userSpaceOnUse">
<stop stop-color="#515151"/>
<stop offset="1" stop-color="#ADADAD"/>
</linearGradient>
</defs>
</svg>
