<svg width="93" height="93" viewBox="0 0 93 93" fill="none" xmlns="http://www.w3.org/2000/svg">
<path d="M57.1561 68.5033C54.2656 67.6348 51.66 66.009 49.6093 63.7945V61.3271C49.6093 60.3747 49.9877 59.4613 50.6612 58.7878C51.3346 58.1143 52.248 57.736 53.2005 57.736C54.1529 57.736 55.0663 58.1143 55.7398 58.7878C56.4132 59.4613 56.7916 60.3747 56.7916 61.3271C56.8055 61.577 56.9145 61.8121 57.0963 61.9841C57.2781 62.1561 57.5189 62.2519 57.7692 62.2519C58.0195 62.2519 58.2603 62.1561 58.4421 61.9841C58.6239 61.8121 58.7329 61.577 58.7468 61.3271C58.7641 60.5877 58.6333 59.8522 58.3622 59.1641C58.0912 58.4759 57.6853 57.8489 57.1684 57.3198C56.6515 56.7907 56.0341 56.3703 55.3524 56.0833C54.6708 55.7963 53.9386 55.6484 53.199 55.6484C52.4593 55.6484 51.7271 55.7963 51.0455 56.0833C50.3638 56.3703 49.7464 56.7907 49.2295 57.3198C48.7126 57.8489 48.3067 58.4759 48.0357 59.1641C47.7646 59.8522 47.6339 60.5877 47.6511 61.3271V64.4904L47.859 64.7555C50.1689 67.4319 53.2028 69.3841 56.5958 70.3772C56.9075 70.4437 57.1994 70.582 57.4484 70.7809C57.2646 71.4768 54.6676 73.2242 50.6367 74.366L49.534 70.7779C49.4519 70.5369 49.2792 70.3373 49.0524 70.2216C48.8257 70.1058 48.5627 70.0829 48.3193 70.1578C48.076 70.2326 47.8714 70.3993 47.7489 70.6225C47.6264 70.8457 47.5956 71.1078 47.6631 71.3533L49.7901 78.2675C47.151 79.5147 43.6954 78.8851 42.2041 78.4181L44.5028 71.3563C44.5719 71.1125 44.5438 70.8514 44.4243 70.6279C44.3048 70.4044 44.1034 70.2359 43.8623 70.1579C43.6211 70.0799 43.3592 70.0984 43.1314 70.2095C42.9037 70.3206 42.7279 70.5157 42.641 70.7538L41.4721 74.3479C37.4893 73.2001 34.9255 71.4678 34.7447 70.7839C34.9937 70.585 35.2856 70.4468 35.5973 70.3802C38.9903 69.3871 42.0242 67.4349 44.3341 64.7586L44.542 64.4934V61.3301C44.542 59.8583 43.9573 58.4468 42.9166 57.4061C41.8759 56.3654 40.4644 55.7807 38.9926 55.7807C37.5208 55.7807 36.1093 56.3654 35.0686 57.4061C34.0279 58.4468 33.4432 59.8583 33.4432 61.3301C33.4432 61.5898 33.5464 61.8388 33.73 62.0225C33.9136 62.2061 34.1627 62.3092 34.4224 62.3092C34.6821 62.3092 34.9311 62.2061 35.1147 62.0225C35.2983 61.8388 35.4015 61.5898 35.4015 61.3301C35.4015 60.8585 35.4944 60.3915 35.6749 59.9558C35.8553 59.5202 36.1198 59.1243 36.4533 58.7908C36.7868 58.4573 37.1827 58.1928 37.6184 58.0123C38.0541 57.8319 38.521 57.739 38.9926 57.739C39.4642 57.739 39.9312 57.8319 40.3669 58.0123C40.8026 58.1928 41.1985 58.4573 41.5319 58.7908C41.8654 59.1243 42.1299 59.5202 42.3104 59.9558C42.4909 60.3915 42.5837 60.8585 42.5837 61.3301V63.7975C40.5315 66.0109 37.925 67.6356 35.0339 68.5033C33.136 69.0637 32.7564 70.0549 32.7714 70.7869C32.8196 73.2272 37.6218 75.2518 40.8575 76.2098L39.8211 79.3972L40.4568 79.8039C41.1798 80.2679 43.4695 80.9638 46.0514 80.9638C47.877 80.9638 49.8413 80.6143 51.4742 79.575L52.1038 79.1743L51.2 76.2429C54.7851 75.2035 59.3494 73.1127 59.4006 70.796C59.4367 70.0519 59.0571 69.0607 57.1561 68.5033Z" fill="url(#paint0_linear_462_4050)"/>
<path d="M17.4611 33.5077L25.1586 38.7378C24.7726 40.3369 24.7431 42.0014 25.0721 43.6132C25.401 45.2251 26.0804 46.7449 27.0621 48.0649C28.0438 49.3849 29.3038 50.473 30.7528 51.2518C32.2018 52.0307 33.8043 52.4814 35.4469 52.572C32.0878 53.7771 29.7228 56.6542 29.7228 59.9923C29.7367 60.2422 29.8457 60.4773 30.0275 60.6493C30.2094 60.8213 30.4501 60.9171 30.7004 60.9171C30.9507 60.9171 31.1915 60.8213 31.3733 60.6493C31.5551 60.4773 31.6642 60.2422 31.678 59.9923C31.678 56.6361 34.992 53.9066 39.029 53.9066C39.1775 53.9056 39.3239 53.8706 39.4568 53.8042C39.5084 53.8148 39.5608 53.8208 39.6135 53.8223H43.307C43.7047 53.9006 44.6808 55.1298 45.3135 56.353C45.3958 56.512 45.5203 56.6453 45.6734 56.7382C45.8264 56.8312 46.002 56.8803 46.1811 56.8802H46.2052C46.389 56.8758 46.5678 56.8198 46.7213 56.7186C46.8747 56.6174 46.9966 56.475 47.0729 56.3078C47.6754 54.9701 48.6304 53.8253 48.9799 53.8253H52.5951C52.6745 53.8236 52.7534 53.8124 52.8301 53.7922C52.9704 53.8693 53.1279 53.9098 53.2881 53.9097C57.3431 53.9097 60.639 56.6392 60.639 59.9953C60.639 60.255 60.7422 60.504 60.9258 60.6876C61.1094 60.8713 61.3585 60.9744 61.6181 60.9744C61.8778 60.9744 62.1269 60.8713 62.3105 60.6876C62.4941 60.504 62.5973 60.255 62.5973 59.9953C62.5973 56.6542 60.2233 53.7831 56.8732 52.572C59.7258 52.3922 62.4031 51.1335 64.3615 49.0514C66.3199 46.9694 67.4125 44.2201 67.4176 41.3618C67.4187 40.4794 67.3176 39.5999 67.1163 38.7408L74.8107 33.5107C74.9198 33.4396 75.0136 33.3474 75.0866 33.2395C75.1597 33.1316 75.2104 33.0103 75.236 32.8826C75.2615 32.7548 75.2613 32.6233 75.2354 32.4956C75.2094 32.368 75.1583 32.2468 75.0849 32.1392C75.0116 32.0315 74.9175 31.9396 74.8081 31.8688C74.6988 31.798 74.5765 31.7497 74.4482 31.7268C74.32 31.7038 74.1885 31.7067 74.0614 31.7353C73.9343 31.7638 73.8142 31.8174 73.7081 31.8929L62.9196 39.2258C62.7047 39.3716 62.5565 39.5969 62.5076 39.852C62.4587 40.107 62.5132 40.3711 62.659 40.586C62.8048 40.801 63.0301 40.9492 63.2852 40.998C63.5403 41.0469 63.8043 40.9925 64.0193 40.8466L65.3599 39.9428C65.4332 40.4153 65.4704 40.8927 65.4714 41.3708C65.4728 42.8121 65.1385 44.2338 64.495 45.5234C63.8515 46.8129 62.9164 47.9349 61.764 48.8002C60.6115 49.6656 59.2733 50.2507 57.8554 50.509C56.4375 50.7673 54.979 50.6918 53.5953 50.2884V44.724C54.4786 45.3489 55.5577 45.6343 56.6345 45.5276C57.7112 45.421 58.7134 44.9295 59.4569 44.1435C60.2005 43.3574 60.6355 42.3296 60.6822 41.2485C60.7289 40.1675 60.3841 39.106 59.7111 38.2587L73.7563 28.0397C73.867 27.9669 73.9618 27.8724 74.0349 27.7619C74.108 27.6515 74.158 27.5273 74.1817 27.3969C74.2054 27.2666 74.2025 27.1328 74.173 27.0036C74.1435 26.8744 74.0881 26.7526 74.0101 26.6455C73.9322 26.5383 73.8333 26.4481 73.7195 26.3803C73.6056 26.3125 73.4792 26.2685 73.3479 26.251C73.2166 26.2335 73.0831 26.2428 72.9554 26.2784C72.8278 26.314 72.7087 26.3751 72.6054 26.458L57.6203 37.361L57.5781 37.4001C57.5499 37.4207 57.5237 37.4439 57.4998 37.4694C57.4757 37.4935 57.4546 37.5206 57.4335 37.5447C57.4124 37.5688 57.4064 37.5749 57.3943 37.5929C57.3882 37.6013 57.3831 37.6104 57.3793 37.62C57.36 37.6488 57.3428 37.679 57.3281 37.7104C57.3126 37.7363 57.2995 37.7635 57.2889 37.7918C57.2771 37.821 57.268 37.8513 57.2618 37.8822C57.2495 37.912 57.2414 37.9435 57.2377 37.9755C57.2377 38.0057 57.2377 38.0358 57.2377 38.0659C57.2377 38.096 57.2377 38.1292 57.2377 38.1623C57.2377 38.1955 57.2377 38.2226 57.2377 38.2557C57.2377 38.2889 57.2377 38.316 57.2377 38.3461C57.2377 38.3762 57.2377 38.4064 57.2618 38.4365C57.27 38.4682 57.2801 38.4994 57.2919 38.5299C57.2919 38.557 57.319 38.5811 57.3341 38.6082C57.3499 38.6406 57.368 38.6718 57.3883 38.7016C57.3868 38.7096 57.3868 38.7177 57.3883 38.7257C57.3967 38.7382 57.4068 38.7494 57.4185 38.7588C57.4484 38.7978 57.4817 38.8341 57.5179 38.8673L57.5811 38.9215C57.5934 38.9334 57.6065 38.9445 57.6203 38.9547C57.9794 39.2048 58.2679 39.5433 58.4581 39.9375C58.6482 40.3317 58.7335 40.7682 58.7058 41.2049C58.678 41.6417 58.5382 42.0639 58.2997 42.4308C58.0612 42.7978 57.7321 43.097 57.3442 43.2997C56.9564 43.5024 56.5228 43.6017 56.0854 43.588C55.648 43.5743 55.2215 43.448 54.8471 43.2214C54.4727 42.9949 54.163 42.6756 53.948 42.2944C53.7329 41.9133 53.6198 41.4831 53.6194 41.0455C53.6193 40.9535 53.605 40.862 53.5773 40.7743V40.5725C53.5777 40.444 53.5527 40.3168 53.5038 40.198C53.455 40.0792 53.3831 39.9713 53.2924 39.8803C53.2018 39.7894 53.094 39.7172 52.9754 39.6679C52.8568 39.6187 52.7296 39.5934 52.6012 39.5934H50.2332C50.3236 35.3756 51.3178 32.5738 53.1917 31.2934C53.3334 31.9798 53.6892 32.6036 54.2078 33.075C54.7263 33.5465 55.3811 33.8415 56.0778 33.9175H56.1893C56.4398 33.9182 56.6811 33.8229 56.8635 33.6512C57.0459 33.4794 57.1556 33.2443 57.1699 32.9941C57.1841 32.744 57.102 32.4979 56.9403 32.3065C56.7786 32.1151 56.5497 31.993 56.3007 31.9652C55.9541 31.9295 55.6339 31.7634 55.4051 31.5005C55.1763 31.2376 55.056 30.8976 55.0686 30.5493C57.3974 30.1666 59.7744 31.3235 59.8045 31.3386C59.8544 31.3644 59.9069 31.3846 59.9612 31.3988H59.9853C60.061 31.4189 60.1389 31.43 60.2172 31.432H60.2444H60.2986C60.3387 31.4349 60.379 31.4349 60.4191 31.432L60.5034 31.4139C60.5477 31.401 60.591 31.3849 60.633 31.3657C60.6495 31.3611 60.6657 31.355 60.6812 31.3476H60.6993C60.7311 31.3314 60.7614 31.3123 60.7896 31.2904C60.8149 31.2761 60.8391 31.26 60.862 31.2422C60.8855 31.2216 60.9077 31.1995 60.9282 31.1759C60.9536 31.1541 60.9768 31.1298 60.9975 31.1036C61.0152 31.0838 61.0314 31.0627 61.0457 31.0403C61.0668 31.0072 61.0879 30.9771 61.106 30.9439C61.1241 30.9108 61.106 30.9439 61.106 30.9258C61.1153 30.9073 61.1233 30.8882 61.1301 30.8686C61.1301 30.8355 61.1572 30.8023 61.1693 30.7662C61.1781 30.7377 61.1842 30.7085 61.1873 30.6788C61.196 30.6472 61.202 30.615 61.2054 30.5824C61.2054 30.5493 61.2054 30.5191 61.2054 30.486C61.2054 30.4529 61.2054 30.4227 61.2054 30.3926C61.2054 30.3625 61.2054 30.3293 61.1903 30.2962C61.178 30.2298 61.1577 30.165 61.1301 30.1034C61.1301 30.0853 61.1301 30.0672 61.109 30.0492C61.0126 29.8563 58.729 25.3855 54.9601 25.3855C51.4774 25.3855 48.9347 26.5575 47.1422 28.9706C47.0582 29.0733 46.9959 29.1919 46.9591 29.3193C46.9224 29.4468 46.9119 29.5803 46.9283 29.7119C46.9447 29.8436 46.9877 29.9705 47.0546 30.085C47.1216 30.1994 47.2111 30.2992 47.3177 30.378C47.4244 30.4569 47.5459 30.5132 47.675 30.5437C47.8041 30.5742 47.938 30.5781 48.0687 30.5552C48.1993 30.5323 48.3239 30.4832 48.435 30.4107C48.5461 30.3382 48.6413 30.2439 48.7148 30.1335C50.1097 28.2205 52.1523 27.3166 54.9842 27.3166C56.0477 27.3166 56.9816 27.9192 57.7137 28.6513C56.123 28.3771 54.1346 28.3982 52.3571 29.4918C49.7632 31.0915 48.3985 34.4868 48.293 39.5813H47.6091C47.347 30.022 43.8794 25.3584 37.0075 25.3584C33.2386 25.3584 30.955 29.8292 30.8616 30.022C30.8523 30.0395 30.8443 30.0577 30.8375 30.0763C30.8375 30.1124 30.8104 30.1456 30.7983 30.1817C30.7906 30.2104 30.7845 30.2396 30.7803 30.2691C30.7713 30.3006 30.7653 30.3329 30.7622 30.3655C30.7622 30.3956 30.7622 30.4257 30.7622 30.4589C30.7622 30.492 30.7622 30.5221 30.7622 30.5553C30.7622 30.5884 30.7622 30.6155 30.7803 30.6457C30.7983 30.6758 30.7802 30.7089 30.8013 30.7421C30.8113 30.774 30.8233 30.8052 30.8375 30.8355C30.8442 30.857 30.8522 30.8782 30.8616 30.8987V30.9168C30.8769 30.946 30.894 30.9741 30.9128 31.0012C30.9302 31.0285 30.9493 31.0547 30.97 31.0795C30.9866 31.1 31.0047 31.1191 31.0243 31.1367L31.1056 31.2181L31.1598 31.2542L31.2683 31.3235L31.3165 31.3416C31.3547 31.359 31.394 31.3741 31.434 31.3868H31.5003L31.6238 31.4079H31.6841C31.7272 31.4109 31.7705 31.4109 31.8136 31.4079H31.8678L31.9974 31.3778L32.0576 31.3536C32.0878 31.3536 32.1179 31.3356 32.148 31.3205C32.1781 31.3054 34.5582 30.1395 36.8809 30.5282C36.8926 30.8559 36.7857 31.1768 36.5797 31.432C36.4656 31.5761 36.324 31.696 36.1631 31.785C36.0023 31.8739 35.8254 31.9301 35.6427 31.9502C35.394 31.9779 35.1653 32.0998 35.0037 32.2909C34.842 32.482 34.7597 32.7277 34.7736 32.9776C34.7875 33.2275 34.8965 33.4626 35.0783 33.6346C35.2601 33.8065 35.5009 33.9024 35.7512 33.9024H35.8627C36.3022 33.8547 36.7278 33.7194 37.1143 33.5047C37.5008 33.29 37.8404 33.0001 38.1131 32.6521C38.4293 32.2501 38.647 31.7796 38.7488 31.2783C40.6227 32.5587 41.6169 35.3485 41.7073 39.5783H39.5984C39.3387 39.5783 39.0897 39.6815 38.906 39.8651C38.7224 40.0487 38.6193 40.2977 38.6193 40.5574V41.0394C38.6193 41.4773 38.5064 41.9078 38.2914 42.2893C38.0765 42.6708 37.7667 42.9904 37.3922 43.2172C37.0176 43.444 36.5909 43.5704 36.1532 43.5841C35.7156 43.5978 35.2818 43.4984 34.8938 43.2954C34.5058 43.0925 34.1766 42.7929 33.9382 42.4256C33.6998 42.0584 33.5602 41.6358 33.5328 41.1988C33.5054 40.7618 33.5912 40.3251 33.7819 39.9309C33.9726 39.5367 34.2618 39.1984 34.6214 38.9486C34.6352 38.9385 34.6483 38.9274 34.6606 38.9155L34.7239 38.8613C34.7601 38.8281 34.7933 38.7918 34.8233 38.7528L34.8534 38.7197C34.8591 38.7121 34.8641 38.704 34.8685 38.6956C34.8888 38.6658 34.9069 38.6346 34.9227 38.6022C34.9381 38.5773 34.9512 38.5511 34.9619 38.5239C34.9619 38.4937 34.983 38.4636 34.995 38.4305C35.0071 38.3973 35.0131 38.3702 35.0191 38.3401C35.0251 38.3099 35.0191 38.2798 35.0191 38.2497C35.0191 38.2196 35.0191 38.1864 35.0191 38.1563C35.0191 38.1262 35.0191 38.093 35.0191 38.0599C35.0191 38.0268 35.0191 37.9996 35.0191 37.9695C35.0191 37.9394 35.004 37.9063 34.995 37.8761C34.986 37.846 34.995 37.8159 34.9679 37.7857C34.9408 37.7556 34.9438 37.7315 34.9287 37.7044C34.914 37.673 34.8968 37.6428 34.8775 37.614L34.8624 37.5869C34.8624 37.5688 34.8353 37.5568 34.8233 37.5417C34.8028 37.5143 34.7807 37.4881 34.757 37.4634L34.6787 37.3941L34.6365 37.3549L19.6514 26.452C19.5487 26.3587 19.4274 26.2882 19.2955 26.2453C19.1635 26.2024 19.024 26.188 18.8861 26.2031C18.7481 26.2182 18.615 26.2625 18.4955 26.3329C18.3759 26.4034 18.2728 26.4984 18.1928 26.6118C18.1127 26.7251 18.0577 26.8542 18.0314 26.9904C18.005 27.1266 18.0079 27.2669 18.0399 27.4019C18.0718 27.5369 18.1321 27.6636 18.2167 27.7736C18.3013 27.8835 18.4083 27.9742 18.5307 28.0397L32.5758 38.2587C31.9069 39.1024 31.563 40.1581 31.6067 41.2339C31.6504 42.3097 32.0788 43.334 32.814 44.1206C33.5491 44.9072 34.5422 45.4038 35.6126 45.5201C36.6829 45.6363 37.7595 45.3645 38.6464 44.7541V50.2884C37.2644 50.6842 35.8095 50.7535 34.3962 50.4908C32.9829 50.2282 31.6499 49.6407 30.5025 48.7749C29.355 47.909 28.4244 46.7884 27.7841 45.5014C27.1437 44.2144 26.8111 42.7963 26.8125 41.3588C26.8145 40.8806 26.8527 40.4032 26.927 39.9308L28.2677 40.8346C28.4293 40.9448 28.6204 41.0036 28.816 41.0033C29.0256 41.0037 29.2299 40.9368 29.3986 40.8124C29.5674 40.6881 29.6918 40.5128 29.7536 40.3125C29.8153 40.1121 29.8111 39.8972 29.7415 39.6994C29.672 39.5016 29.5408 39.3314 29.3673 39.2138L18.5608 31.8899C18.3462 31.7581 18.089 31.7141 17.8428 31.767C17.5966 31.8199 17.3803 31.9656 17.2387 32.1739C17.0971 32.3822 17.0413 32.637 17.0827 32.8854C17.1241 33.1338 17.2597 33.3567 17.4611 33.5077ZM51.622 51.864H48.9769C47.8019 51.864 46.8138 52.9305 46.142 53.9458C45.4189 52.9125 44.4157 51.864 43.3221 51.864H40.5896V41.5426H51.622V51.864ZM39.6195 29.4948C37.845 28.4012 35.8566 28.3801 34.2629 28.6513C34.995 27.9342 35.9289 27.3197 36.9924 27.3197C40.8758 27.3197 45.3376 28.7356 45.6449 39.5843H43.6836C43.5782 34.4899 42.2164 31.0946 39.6195 29.4948Z" fill="url(#paint1_linear_462_4050)"/>
<path d="M22.1097 40.934C22.2295 40.9861 22.3587 41.0128 22.4893 41.0123C22.7146 41.0114 22.9328 40.9327 23.1068 40.7897C23.2809 40.6466 23.4004 40.4479 23.445 40.227C23.4896 40.0061 23.4566 39.7766 23.3517 39.5772C23.2467 39.3778 23.0762 39.2207 22.8689 39.1324L18.389 37.2585C18.1493 37.1582 17.8796 37.1573 17.6392 37.2559C17.3988 37.3545 17.2074 37.5445 17.1071 37.7842C17.0069 38.0239 17.0059 38.2937 17.1045 38.5341C17.2031 38.7745 17.3932 38.9659 17.6329 39.0661L22.1097 40.934Z" fill="url(#paint2_linear_462_4050)"/>
<path d="M24.2188 51.8184C24.3726 51.8187 24.5244 51.7826 24.6616 51.713L26.2614 50.9026C26.4866 50.7818 26.6557 50.5778 26.7325 50.3341C26.8094 50.0904 26.7879 49.8263 26.6726 49.5982C26.5574 49.3701 26.3576 49.1961 26.1158 49.1133C25.874 49.0306 25.6095 49.0456 25.3786 49.1552L23.7759 49.9656C23.5794 50.0651 23.4221 50.2278 23.3295 50.4277C23.2369 50.6275 23.2144 50.8527 23.2656 51.0669C23.3168 51.2812 23.4387 51.4719 23.6117 51.6082C23.7846 51.7446 23.9985 51.8186 24.2188 51.8184Z" fill="url(#paint3_linear_462_4050)"/>
<path d="M29.9123 51.9304C29.7233 51.7529 29.4715 51.6576 29.2122 51.6655C28.953 51.6734 28.7074 51.7839 28.5295 51.9726L27.6468 52.9246C27.4696 53.1141 27.3749 53.3661 27.3833 53.6254C27.3918 53.8847 27.5028 54.13 27.692 54.3075C27.8725 54.4785 28.1121 54.5735 28.3608 54.5726C28.4941 54.5736 28.6261 54.5474 28.7489 54.4956C28.8717 54.4438 28.9826 54.3675 29.0748 54.2713L29.9575 53.3313C30.048 53.2372 30.1188 53.1258 30.1656 53.0039C30.2124 52.882 30.2344 52.7519 30.2301 52.6214C30.2259 52.4908 30.1956 52.3624 30.1411 52.2438C30.0865 52.1251 30.0087 52.0186 29.9123 51.9304Z" fill="url(#paint4_linear_462_4050)"/>
<path d="M24.6345 46.4379C24.5581 46.1899 24.3864 45.9824 24.157 45.8609C23.9277 45.7395 23.6595 45.714 23.4114 45.7902L20.1818 46.7874C19.958 46.8578 19.767 47.0062 19.6435 47.2056C19.5199 47.4049 19.472 47.642 19.5085 47.8737C19.545 48.1054 19.6634 48.3163 19.8423 48.468C20.0211 48.6197 20.2485 48.7022 20.483 48.7005C20.5849 48.7006 20.6864 48.6864 20.7843 48.6583L24.0109 47.6611C24.2545 47.5797 24.4564 47.4059 24.573 47.1771C24.6897 46.9483 24.7118 46.6829 24.6345 46.4379Z" fill="url(#paint5_linear_462_4050)"/>
<path d="M22.4894 44.3288C22.6223 44.3362 22.7554 44.3164 22.8804 44.2706C23.0054 44.2248 23.1198 44.154 23.2165 44.0625C23.3133 43.971 23.3903 43.8607 23.443 43.7384C23.4956 43.6161 23.5228 43.4844 23.5228 43.3512C23.5228 43.218 23.4956 43.0863 23.443 42.964C23.3903 42.8417 23.3133 42.7314 23.2165 42.6399C23.1198 42.5484 23.0054 42.4776 22.8804 42.4318C22.7554 42.386 22.6223 42.3662 22.4894 42.3736H18.4524C18.3194 42.3662 18.1864 42.386 18.0613 42.4318C17.9363 42.4776 17.8219 42.5484 17.7252 42.6399C17.6285 42.7314 17.5514 42.8417 17.4988 42.964C17.4461 43.0863 17.4189 43.218 17.4189 43.3512C17.4189 43.4844 17.4461 43.6161 17.4988 43.7384C17.5514 43.8607 17.6285 43.971 17.7252 44.0625C17.8219 44.154 17.9363 44.2248 18.0613 44.2706C18.1864 44.3164 18.3194 44.3362 18.4524 44.3288H22.4894Z" fill="url(#paint6_linear_462_4050)"/>
<path d="M75.1452 37.7739C75.0442 37.5346 74.8523 37.345 74.6118 37.2467C74.3713 37.1485 74.1016 37.1496 73.8618 37.2497L69.385 39.1327C69.1776 39.221 69.0071 39.3781 68.9022 39.5775C68.7973 39.7769 68.7643 40.0064 68.8089 40.2273C68.8535 40.4481 68.9729 40.6469 69.147 40.7899C69.3211 40.933 69.5392 41.0116 69.7646 41.0126C69.8951 41.0128 70.0243 40.9861 70.1442 40.9343L74.621 39.0664C74.7406 39.0164 74.8492 38.9432 74.9404 38.851C75.0316 38.7588 75.1036 38.6495 75.1524 38.5294C75.2011 38.4092 75.2256 38.2806 75.2243 38.1509C75.2231 38.0213 75.1962 37.8932 75.1452 37.7739Z" fill="url(#paint7_linear_462_4050)"/>
<path d="M68.4783 49.966L66.8755 49.1556C66.6438 49.0382 66.3749 49.0176 66.128 49.0984C65.8811 49.1792 65.6764 49.3547 65.559 49.5865C65.4415 49.8182 65.4209 50.0871 65.5017 50.334C65.5825 50.5809 65.7581 50.7855 65.9898 50.903L67.5925 51.7134C67.7297 51.7833 67.8815 51.8194 68.0354 51.8189C68.2556 51.819 68.4695 51.745 68.6425 51.6086C68.8154 51.4723 68.9374 51.2816 68.9886 51.0674C69.0398 50.8531 69.0172 50.6279 68.9246 50.4281C68.8321 50.2283 68.6748 50.0655 68.4783 49.966Z" fill="url(#paint8_linear_462_4050)"/>
<path d="M62.3383 51.9304C62.1496 52.1083 62.0391 52.3539 62.0312 52.6131C62.0233 52.8724 62.1186 53.1242 62.2962 53.3133L63.1789 54.2532C63.3595 54.4297 63.6014 54.5296 63.8539 54.532C64.1065 54.5344 64.3502 54.4391 64.5341 54.2661C64.7181 54.093 64.828 53.8556 64.841 53.6033C64.854 53.3511 64.7691 53.1036 64.6039 52.9126L63.7212 51.9726C63.5433 51.7839 63.2977 51.6734 63.0385 51.6655C62.7792 51.6576 62.5274 51.7529 62.3383 51.9304Z" fill="url(#paint9_linear_462_4050)"/>
<path d="M72.0722 46.788L68.8426 45.7908C68.7197 45.7528 68.5906 45.7394 68.4626 45.7513C68.3345 45.7632 68.2101 45.8002 68.0964 45.8602C67.9827 45.9202 67.8819 46.0021 67.7998 46.101C67.7177 46.2 67.6559 46.3141 67.6179 46.437C67.5799 46.5598 67.5665 46.6889 67.5784 46.817C67.5904 46.945 67.6274 47.0694 67.6874 47.1831C67.7474 47.2969 67.8292 47.3977 67.9282 47.4798C68.0271 47.5619 68.1413 47.6237 68.2641 47.6616L71.4937 48.6588C71.5916 48.6872 71.6931 48.7014 71.795 48.701C72.0295 48.7028 72.2569 48.6203 72.4358 48.4685C72.6146 48.3168 72.733 48.1059 72.7695 47.8742C72.806 47.6425 72.7581 47.4055 72.6346 47.2061C72.511 47.0068 72.32 46.8584 72.0963 46.788H72.0722Z" fill="url(#paint10_linear_462_4050)"/>
<path d="M73.8014 42.3804H69.7644C69.6314 42.373 69.4984 42.3928 69.3733 42.4386C69.2483 42.4844 69.1339 42.5552 69.0372 42.6467C68.9405 42.7383 68.8634 42.8485 68.8108 42.9708C68.7581 43.0931 68.731 43.2249 68.731 43.358C68.731 43.4912 68.7581 43.6229 68.8108 43.7452C68.8634 43.8675 68.9405 43.9778 69.0372 44.0693C69.1339 44.1608 69.2483 44.2316 69.3733 44.2774C69.4984 44.3232 69.6314 44.343 69.7644 44.3357H73.8014C73.9343 44.343 74.0674 44.3232 74.1924 44.2774C74.3174 44.2316 74.4318 44.1608 74.5285 44.0693C74.6253 43.9778 74.7023 43.8675 74.755 43.7452C74.8076 43.6229 74.8348 43.4912 74.8348 43.358C74.8348 43.2249 74.8076 43.0931 74.755 42.9708C74.7023 42.8485 74.6253 42.7383 74.5285 42.6467C74.4318 42.5552 74.3174 42.4844 74.1924 42.4386C74.0674 42.3928 73.9343 42.373 73.8014 42.3804Z" fill="url(#paint11_linear_462_4050)"/>
<path d="M43.1686 23.1982C42.9089 23.1982 42.6599 23.3014 42.4762 23.485C42.2926 23.6686 42.1895 23.9177 42.1895 24.1774C42.1895 24.437 42.2926 24.6861 42.4762 24.8697C42.6599 25.0533 42.9089 25.1565 43.1686 25.1565H48.7662C49.0258 25.1565 49.2749 25.0533 49.4585 24.8697C49.6421 24.6861 49.7453 24.437 49.7453 24.1774C49.7453 23.9177 49.6421 23.6686 49.4585 23.485C49.2749 23.3014 49.0258 23.1982 48.7662 23.1982H43.1686Z" fill="url(#paint12_linear_462_4050)"/>
<path d="M43.8373 22.1586H48.1274C48.9579 22.0922 49.733 21.7153 50.2982 21.1032C50.8634 20.491 51.1772 19.6884 51.1772 18.8552C51.1772 18.022 50.8634 17.2194 50.2982 16.6072C49.733 15.995 48.9579 15.6182 48.1274 15.5518C47.332 15.5518 46.5969 16.0067 45.9492 16.552C45.4431 16.082 44.7743 15.5518 43.8403 15.5518C43.0098 15.6182 42.2347 15.995 41.6696 16.6072C41.1044 17.2194 40.7905 18.022 40.7905 18.8552C40.7905 19.6884 41.1044 20.491 41.6696 21.1032C42.2347 21.7153 43.0098 22.0922 43.8403 22.1586H43.8373ZM43.8373 17.51C44.1205 17.51 44.467 17.8384 44.8014 18.1607C44.9912 18.3385 45.1719 18.5102 45.3437 18.6428C45.5165 18.7754 45.7283 18.8474 45.9462 18.8476C46.1078 18.8407 46.2662 18.7998 46.411 18.7276C46.5558 18.6555 46.6838 18.5537 46.7867 18.4289C47.6634 17.5974 48.0159 17.5251 48.1274 17.5251C48.4731 17.5414 48.7993 17.6903 49.0382 17.9408C49.2771 18.1913 49.4104 18.5241 49.4104 18.8702C49.4104 19.2164 49.2771 19.5492 49.0382 19.7997C48.7993 20.0502 48.4731 20.199 48.1274 20.2154H43.8373C43.4916 20.199 43.1654 20.0502 42.9265 19.7997C42.6876 19.5492 42.5543 19.2164 42.5543 18.8702C42.5543 18.5241 42.6876 18.1913 42.9265 17.9408C43.1654 17.6903 43.4916 17.5414 43.8373 17.5251V17.51Z" fill="url(#paint13_linear_462_4050)"/>
<path d="M45.9673 14.6632C46.2308 14.6638 46.4885 14.5862 46.7079 14.4403C46.9273 14.2943 47.0984 14.0865 47.1997 13.8433C47.3009 13.6 47.3277 13.3322 47.2767 13.0737C47.2256 12.8152 47.099 12.5776 46.9129 12.3911C46.7268 12.2046 46.4896 12.0774 46.2312 12.0258C45.9728 11.9742 45.7049 12.0004 45.4614 12.1011C45.2179 12.2018 45.0098 12.3724 44.8633 12.5915C44.7168 12.8105 44.6387 13.0681 44.6387 13.3316C44.6387 13.6842 44.7786 14.0225 45.0276 14.2721C45.2767 14.5218 45.6146 14.6624 45.9673 14.6632Z" fill="url(#paint14_linear_462_4050)"/>
<path d="M67.8873 58.0098C67.6237 58.0092 67.3659 58.0868 67.1464 58.2329C66.927 58.379 66.7558 58.587 66.6547 58.8304C66.5535 59.0738 66.5269 59.3418 66.5782 59.6004C66.6295 59.859 66.7563 60.0966 66.9428 60.283C67.1292 60.4694 67.3667 60.5963 67.6253 60.6475C67.8839 60.6988 68.1519 60.6722 68.3953 60.571C68.6388 60.4699 68.8467 60.2987 68.9928 60.0793C69.1389 59.8599 69.2165 59.602 69.2159 59.3384C69.2159 58.986 69.076 58.6481 68.8268 58.3989C68.5776 58.1497 68.2397 58.0098 67.8873 58.0098Z" fill="url(#paint15_linear_462_4050)"/>
<path d="M66.5798 62.0503C65.5128 62.0528 64.4689 62.3612 63.5718 62.9389C62.6747 63.5167 61.9621 64.3396 61.5185 65.31L54.4206 62.4811V60.2336C54.428 60.1007 54.4082 59.9676 54.3624 59.8426C54.3166 59.7175 54.2458 59.6032 54.1543 59.5064C54.0628 59.4097 53.9525 59.3327 53.8302 59.28C53.7079 59.2274 53.5761 59.2002 53.443 59.2002C53.3098 59.2002 53.1781 59.2274 53.0558 59.28C52.9335 59.3327 52.8232 59.4097 52.7317 59.5064C52.6402 59.6032 52.5694 59.7175 52.5236 59.8426C52.4778 59.9676 52.458 60.1007 52.4654 60.2336V63.1439C52.4658 63.3371 52.5231 63.5259 52.6303 63.6866C52.7375 63.8474 52.8897 63.973 53.0679 64.0477L61.0184 67.214C61.0184 67.3466 60.9973 67.4791 60.9973 67.6147C60.9967 68.7173 61.3232 69.7953 61.9354 70.7123C62.5475 71.6293 63.418 72.3441 64.4365 72.7664C65.4551 73.1886 66.5759 73.2992 67.6574 73.0842C68.7388 72.8693 69.7322 72.3384 70.5118 71.5588C71.2915 70.7791 71.8224 69.7857 72.0373 68.7043C72.2523 67.6229 72.1416 66.502 71.7194 65.4834C71.2972 64.4649 70.5824 63.5945 69.6654 62.9823C68.7483 62.3701 67.6704 62.0436 66.5678 62.0442L66.5798 62.0503ZM66.5798 71.236C65.8648 71.236 65.1658 71.0239 64.5713 70.6267C63.9768 70.2294 63.5134 69.6648 63.2398 69.0042C62.9662 68.3436 62.8946 67.6167 63.0341 66.9154C63.1736 66.2141 63.5179 65.57 64.0235 65.0644C64.5291 64.5588 65.1732 64.2145 65.8745 64.075C66.5758 63.9355 67.3027 64.0071 67.9633 64.2807C68.6239 64.5543 69.1885 65.0177 69.5858 65.6122C69.983 66.2067 70.195 66.9057 70.195 67.6207C70.195 68.5795 69.8142 69.4991 69.1362 70.1771C68.4582 70.8551 67.5386 71.236 66.5798 71.236Z" fill="url(#paint16_linear_462_4050)"/>
<path d="M30.2109 67.5327L39.0321 64.053C39.2137 63.9811 39.3697 63.8568 39.4802 63.6958C39.5908 63.5348 39.6508 63.3445 39.6527 63.1492V60.239C39.6527 59.9793 39.5495 59.7302 39.3659 59.5466C39.1823 59.363 38.9332 59.2598 38.6736 59.2598C38.4139 59.2598 38.1648 59.363 37.9812 59.5466C37.7976 59.7302 37.6944 59.9793 37.6944 60.239V62.4834L29.0992 65.8787L19.9045 52.1107C19.8331 52.0037 19.7413 51.9118 19.6344 51.8403C19.5274 51.7687 19.4075 51.7189 19.2813 51.6938C19.0265 51.6429 18.7619 51.6954 18.5458 51.8396C18.3297 51.9838 18.1797 52.208 18.1288 52.4628C18.078 52.7176 18.1304 52.9822 18.2746 53.1983L27.2374 66.6018L26.9663 66.7102C26.7549 66.7943 26.5794 66.9493 26.4699 67.1486C26.3604 67.3479 26.3237 67.5792 26.3661 67.8026C26.4085 68.0261 26.5274 68.2278 26.7023 68.3731C26.8772 68.5185 27.0973 68.5984 27.3248 68.5992C27.4476 68.5995 27.5694 68.576 27.6833 68.5299L28.3491 68.2678L29.8825 70.5634C29.9516 70.6755 30.0425 70.7725 30.1499 70.8486C30.2573 70.9247 30.379 70.9784 30.5076 71.0064C30.6362 71.0345 30.7691 71.0363 30.8985 71.0118C31.0278 70.9873 31.1508 70.9369 31.2603 70.8638C31.3697 70.7906 31.4633 70.6961 31.5353 70.586C31.6074 70.4759 31.6566 70.3523 31.6798 70.2228C31.7031 70.0932 31.7 69.9603 31.6707 69.832C31.6414 69.7036 31.5865 69.5825 31.5094 69.4759L30.2109 67.5327Z" fill="url(#paint17_linear_462_4050)"/>
<defs>
<linearGradient id="paint0_linear_462_4050" x1="46.0998" y1="368.093" x2="46.0998" y2="-291.281" gradientUnits="userSpaceOnUse">
<stop stop-color="#38B218"/>
<stop offset="1" stop-color="#38B218"/>
</linearGradient>
<linearGradient id="paint1_linear_462_4050" x1="46.1902" y1="464.934" x2="46.1902" y2="-462.734" gradientUnits="userSpaceOnUse">
<stop stop-color="#38B218"/>
<stop offset="1" stop-color="#38B218"/>
</linearGradient>
<linearGradient id="paint2_linear_462_4050" x1="20.2509" y1="84.4493" x2="20.2509" y2="-15.3009" gradientUnits="userSpaceOnUse">
<stop stop-color="#38B218"/>
<stop offset="1" stop-color="#38B218"/>
</linearGradient>
<linearGradient id="paint3_linear_462_4050" x1="25.01" y1="83.0988" x2="25.01" y2="11.2655" gradientUnits="userSpaceOnUse">
<stop stop-color="#38B218"/>
<stop offset="1" stop-color="#38B218"/>
</linearGradient>
<linearGradient id="paint4_linear_462_4050" x1="28.8081" y1="87.5504" x2="28.8081" y2="11.819" gradientUnits="userSpaceOnUse">
<stop stop-color="#38B218"/>
<stop offset="1" stop-color="#38B218"/>
</linearGradient>
<linearGradient id="paint5_linear_462_4050" x1="22.0907" y1="82.1984" x2="22.0907" y2="5.27259" gradientUnits="userSpaceOnUse">
<stop stop-color="#38B218"/>
<stop offset="1" stop-color="#38B218"/>
</linearGradient>
<linearGradient id="paint6_linear_462_4050" x1="20.4738" y1="66.541" x2="20.4738" y2="15.5356" gradientUnits="userSpaceOnUse">
<stop stop-color="#38B218"/>
<stop offset="1" stop-color="#38B218"/>
</linearGradient>
<linearGradient id="paint7_linear_462_4050" x1="72.0101" y1="84.5521" x2="72.0101" y2="-15.4336" gradientUnits="userSpaceOnUse">
<stop stop-color="#38B218"/>
<stop offset="1" stop-color="#38B218"/>
</linearGradient>
<linearGradient id="paint8_linear_462_4050" x1="67.236" y1="83.2258" x2="67.236" y2="11.1019" gradientUnits="userSpaceOnUse">
<stop stop-color="#38B218"/>
<stop offset="1" stop-color="#38B218"/>
</linearGradient>
<linearGradient id="paint9_linear_462_4050" x1="63.4379" y1="87.05" x2="63.4379" y2="12.3746" gradientUnits="userSpaceOnUse">
<stop stop-color="#38B218"/>
<stop offset="1" stop-color="#38B218"/>
</linearGradient>
<linearGradient id="paint10_linear_462_4050" x1="70.1803" y1="82.2052" x2="70.1803" y2="5.26501" gradientUnits="userSpaceOnUse">
<stop stop-color="#38B218"/>
<stop offset="1" stop-color="#38B218"/>
</linearGradient>
<linearGradient id="paint11_linear_462_4050" x1="71.7858" y1="66.5478" x2="71.7858" y2="15.5425" gradientUnits="userSpaceOnUse">
<stop stop-color="#38B218"/>
<stop offset="1" stop-color="#38B218"/>
</linearGradient>
<linearGradient id="paint12_linear_462_4050" x1="45.971" y1="47.3671" x2="45.971" y2="-3.63814" gradientUnits="userSpaceOnUse">
<stop stop-color="#38B218"/>
<stop offset="1" stop-color="#38B218"/>
</linearGradient>
<linearGradient id="paint13_linear_462_4050" x1="45.9889" y1="97.0938" x2="45.9889" y2="-74.9901" gradientUnits="userSpaceOnUse">
<stop stop-color="#38B218"/>
<stop offset="1" stop-color="#38B218"/>
</linearGradient>
<linearGradient id="paint14_linear_462_4050" x1="45.9716" y1="44.8697" x2="45.9716" y2="-24.4975" gradientUnits="userSpaceOnUse">
<stop stop-color="#38B218"/>
<stop offset="1" stop-color="#38B218"/>
</linearGradient>
<linearGradient id="paint15_linear_462_4050" x1="67.8856" y1="90.8795" x2="67.8856" y2="21.5123" gradientUnits="userSpaceOnUse">
<stop stop-color="#38B218"/>
<stop offset="1" stop-color="#38B218"/>
</linearGradient>
<linearGradient id="paint16_linear_462_4050" x1="62.3136" y1="231.878" x2="62.3136" y2="-132.536" gradientUnits="userSpaceOnUse">
<stop stop-color="#38B218"/>
<stop offset="1" stop-color="#38B218"/>
</linearGradient>
<linearGradient id="paint17_linear_462_4050" x1="28.8917" y1="290.545" x2="28.8917" y2="-213.559" gradientUnits="userSpaceOnUse">
<stop stop-color="#38B218"/>
<stop offset="1" stop-color="#38B218"/>
</linearGradient>
</defs>
</svg>
